<?xml version="1.0" encoding="utf-8" standalone="no"?>
<!DOCTYPE svg PUBLIC "-//W3C//DTD SVG 1.1//EN"
  "http://www.w3.org/Graphics/SVG/1.1/DTD/svg11.dtd">
<!-- Created with matplotlib (https://matplotlib.org/) -->
<svg height="288pt" version="1.1" viewBox="0 0 432 288" width="432pt" xmlns="http://www.w3.org/2000/svg" xmlns:xlink="http://www.w3.org/1999/xlink">
 <defs>
  <style type="text/css">
*{stroke-linecap:butt;stroke-linejoin:round;}
  </style>
 </defs>
 <g id="figure_1">
  <g id="patch_1">
   <path d="M 0 288 
L 432 288 
L 432 0 
L 0 0 
z
" style="fill:#ffffff;"/>
  </g>
  <g id="axes_1">
   <g id="patch_2">
    <path d="M 54 210.24 
L 388.8 210.24 
L 388.8 76.32 
L 54 76.32 
z
" style="fill:#ffffff;"/>
   </g>
   <g id="matplotlib.axis_1">
    <g id="xtick_1">
     <g id="line2d_1">
      <defs>
       <path d="M 0 0 
L 0 3.5 
" id="mccdd00379e" style="stroke:#000000;stroke-width:0.8;"/>
      </defs>
      <g>
       <use style="stroke:#000000;stroke-width:0.8;" x="69.218182" xlink:href="#mccdd00379e" y="210.24"/>
      </g>
     </g>
     <g id="text_1">
      <!-- 0 -->
      <defs>
       <path d="M 31.78125 66.40625 
Q 24.171875 66.40625 20.328125 58.90625 
Q 16.5 51.421875 16.5 36.375 
Q 16.5 21.390625 20.328125 13.890625 
Q 24.171875 6.390625 31.78125 6.390625 
Q 39.453125 6.390625 43.28125 13.890625 
Q 47.125 21.390625 47.125 36.375 
Q 47.125 51.421875 43.28125 58.90625 
Q 39.453125 66.40625 31.78125 66.40625 
z
M 31.78125 74.21875 
Q 44.046875 74.21875 50.515625 64.515625 
Q 56.984375 54.828125 56.984375 36.375 
Q 56.984375 17.96875 50.515625 8.265625 
Q 44.046875 -1.421875 31.78125 -1.421875 
Q 19.53125 -1.421875 13.0625 8.265625 
Q 6.59375 17.96875 6.59375 36.375 
Q 6.59375 54.828125 13.0625 64.515625 
Q 19.53125 74.21875 31.78125 74.21875 
z
" id="DejaVuSans-48"/>
      </defs>
      <g transform="translate(66.036932 224.838437)scale(0.1 -0.1)">
       <use xlink:href="#DejaVuSans-48"/>
      </g>
     </g>
    </g>
    <g id="xtick_2">
     <g id="line2d_2">
      <g>
       <use style="stroke:#000000;stroke-width:0.8;" x="134.017764" xlink:href="#mccdd00379e" y="210.24"/>
      </g>
     </g>
     <g id="text_2">
      <!-- 1000 -->
      <defs>
       <path d="M 12.40625 8.296875 
L 28.515625 8.296875 
L 28.515625 63.921875 
L 10.984375 60.40625 
L 10.984375 69.390625 
L 28.421875 72.90625 
L 38.28125 72.90625 
L 38.28125 8.296875 
L 54.390625 8.296875 
L 54.390625 0 
L 12.40625 0 
z
" id="DejaVuSans-49"/>
      </defs>
      <g transform="translate(121.292764 224.838437)scale(0.1 -0.1)">
       <use xlink:href="#DejaVuSans-49"/>
       <use x="63.623047" xlink:href="#DejaVuSans-48"/>
       <use x="127.246094" xlink:href="#DejaVuSans-48"/>
       <use x="190.869141" xlink:href="#DejaVuSans-48"/>
      </g>
     </g>
    </g>
    <g id="xtick_3">
     <g id="line2d_3">
      <g>
       <use style="stroke:#000000;stroke-width:0.8;" x="198.817346" xlink:href="#mccdd00379e" y="210.24"/>
      </g>
     </g>
     <g id="text_3">
      <!-- 2000 -->
      <defs>
       <path d="M 19.1875 8.296875 
L 53.609375 8.296875 
L 53.609375 0 
L 7.328125 0 
L 7.328125 8.296875 
Q 12.9375 14.109375 22.625 23.890625 
Q 32.328125 33.6875 34.8125 36.53125 
Q 39.546875 41.84375 41.421875 45.53125 
Q 43.3125 49.21875 43.3125 52.78125 
Q 43.3125 58.59375 39.234375 62.25 
Q 35.15625 65.921875 28.609375 65.921875 
Q 23.96875 65.921875 18.8125 64.3125 
Q 13.671875 62.703125 7.8125 59.421875 
L 7.8125 69.390625 
Q 13.765625 71.78125 18.9375 73 
Q 24.125 74.21875 28.421875 74.21875 
Q 39.75 74.21875 46.484375 68.546875 
Q 53.21875 62.890625 53.21875 53.421875 
Q 53.21875 48.921875 51.53125 44.890625 
Q 49.859375 40.875 45.40625 35.40625 
Q 44.1875 33.984375 37.640625 27.21875 
Q 31.109375 20.453125 19.1875 8.296875 
z
" id="DejaVuSans-50"/>
      </defs>
      <g transform="translate(186.092346 224.838437)scale(0.1 -0.1)">
       <use xlink:href="#DejaVuSans-50"/>
       <use x="63.623047" xlink:href="#DejaVuSans-48"/>
       <use x="127.246094" xlink:href="#DejaVuSans-48"/>
       <use x="190.869141" xlink:href="#DejaVuSans-48"/>
      </g>
     </g>
    </g>
    <g id="xtick_4">
     <g id="line2d_4">
      <g>
       <use style="stroke:#000000;stroke-width:0.8;" x="263.616928" xlink:href="#mccdd00379e" y="210.24"/>
      </g>
     </g>
     <g id="text_4">
      <!-- 3000 -->
      <defs>
       <path d="M 40.578125 39.3125 
Q 47.65625 37.796875 51.625 33 
Q 55.609375 28.21875 55.609375 21.1875 
Q 55.609375 10.40625 48.1875 4.484375 
Q 40.765625 -1.421875 27.09375 -1.421875 
Q 22.515625 -1.421875 17.65625 -0.515625 
Q 12.796875 0.390625 7.625 2.203125 
L 7.625 11.71875 
Q 11.71875 9.328125 16.59375 8.109375 
Q 21.484375 6.890625 26.8125 6.890625 
Q 36.078125 6.890625 40.9375 10.546875 
Q 45.796875 14.203125 45.796875 21.1875 
Q 45.796875 27.640625 41.28125 31.265625 
Q 36.765625 34.90625 28.71875 34.90625 
L 20.21875 34.90625 
L 20.21875 43.015625 
L 29.109375 43.015625 
Q 36.375 43.015625 40.234375 45.921875 
Q 44.09375 48.828125 44.09375 54.296875 
Q 44.09375 59.90625 40.109375 62.90625 
Q 36.140625 65.921875 28.71875 65.921875 
Q 24.65625 65.921875 20.015625 65.03125 
Q 15.375 64.15625 9.8125 62.3125 
L 9.8125 71.09375 
Q 15.4375 72.65625 20.34375 73.4375 
Q 25.25 74.21875 29.59375 74.21875 
Q 40.828125 74.21875 47.359375 69.109375 
Q 53.90625 64.015625 53.90625 55.328125 
Q 53.90625 49.265625 50.4375 45.09375 
Q 46.96875 40.921875 40.578125 39.3125 
z
" id="DejaVuSans-51"/>
      </defs>
      <g transform="translate(250.891928 224.838437)scale(0.1 -0.1)">
       <use xlink:href="#DejaVuSans-51"/>
       <use x="63.623047" xlink:href="#DejaVuSans-48"/>
       <use x="127.246094" xlink:href="#DejaVuSans-48"/>
       <use x="190.869141" xlink:href="#DejaVuSans-48"/>
      </g>
     </g>
    </g>
    <g id="xtick_5">
     <g id="line2d_5">
      <g>
       <use style="stroke:#000000;stroke-width:0.8;" x="328.41651" xlink:href="#mccdd00379e" y="210.24"/>
      </g>
     </g>
     <g id="text_5">
      <!-- 4000 -->
      <defs>
       <path d="M 37.796875 64.3125 
L 12.890625 25.390625 
L 37.796875 25.390625 
z
M 35.203125 72.90625 
L 47.609375 72.90625 
L 47.609375 25.390625 
L 58.015625 25.390625 
L 58.015625 17.1875 
L 47.609375 17.1875 
L 47.609375 0 
L 37.796875 0 
L 37.796875 17.1875 
L 4.890625 17.1875 
L 4.890625 26.703125 
z
" id="DejaVuSans-52"/>
      </defs>
      <g transform="translate(315.69151 224.838437)scale(0.1 -0.1)">
       <use xlink:href="#DejaVuSans-52"/>
       <use x="63.623047" xlink:href="#DejaVuSans-48"/>
       <use x="127.246094" xlink:href="#DejaVuSans-48"/>
       <use x="190.869141" xlink:href="#DejaVuSans-48"/>
      </g>
     </g>
    </g>
   </g>
   <g id="matplotlib.axis_2">
    <g id="ytick_1">
     <g id="line2d_6">
      <defs>
       <path d="M 0 0 
L -3.5 0 
" id="m72369b77a4" style="stroke:#000000;stroke-width:0.8;"/>
      </defs>
      <g>
       <use style="stroke:#000000;stroke-width:0.8;" x="54" xlink:href="#m72369b77a4" y="188.246407"/>
      </g>
     </g>
     <g id="text_6">
      <!-- −1 -->
      <defs>
       <path d="M 10.59375 35.5 
L 73.1875 35.5 
L 73.1875 27.203125 
L 10.59375 27.203125 
z
" id="DejaVuSans-8722"/>
      </defs>
      <g transform="translate(32.257812 192.045626)scale(0.1 -0.1)">
       <use xlink:href="#DejaVuSans-8722"/>
       <use x="83.789062" xlink:href="#DejaVuSans-49"/>
      </g>
     </g>
    </g>
    <g id="ytick_2">
     <g id="line2d_7">
      <g>
       <use style="stroke:#000000;stroke-width:0.8;" x="54" xlink:href="#m72369b77a4" y="162.189329"/>
      </g>
     </g>
     <g id="text_7">
      <!-- 0 -->
      <g transform="translate(40.6375 165.988547)scale(0.1 -0.1)">
       <use xlink:href="#DejaVuSans-48"/>
      </g>
     </g>
    </g>
    <g id="ytick_3">
     <g id="line2d_8">
      <g>
       <use style="stroke:#000000;stroke-width:0.8;" x="54" xlink:href="#m72369b77a4" y="136.13225"/>
      </g>
     </g>
     <g id="text_8">
      <!-- 1 -->
      <g transform="translate(40.6375 139.931469)scale(0.1 -0.1)">
       <use xlink:href="#DejaVuSans-49"/>
      </g>
     </g>
    </g>
    <g id="ytick_4">
     <g id="line2d_9">
      <g>
       <use style="stroke:#000000;stroke-width:0.8;" x="54" xlink:href="#m72369b77a4" y="110.075171"/>
      </g>
     </g>
     <g id="text_9">
      <!-- 2 -->
      <g transform="translate(40.6375 113.87439)scale(0.1 -0.1)">
       <use xlink:href="#DejaVuSans-50"/>
      </g>
     </g>
    </g>
    <g id="ytick_5">
     <g id="line2d_10">
      <g>
       <use style="stroke:#000000;stroke-width:0.8;" x="54" xlink:href="#m72369b77a4" y="84.018093"/>
      </g>
     </g>
     <g id="text_10">
      <!-- 3 -->
      <g transform="translate(40.6375 87.817311)scale(0.1 -0.1)">
       <use xlink:href="#DejaVuSans-51"/>
      </g>
     </g>
    </g>
   </g>
   <g id="line2d_11">
    <path clip-path="url(#p05a1b15d6d)" d="M 69.218182 162.033625 
L 71.356568 162.035069 
L 76.670134 162.055073 
L 77.058931 162.067923 
L 77.512528 162.030995 
L 77.836526 162.042294 
L 78.484522 162.045938 
L 85.742075 162.047279 
L 86.130873 162.05964 
L 87.038067 162.04867 
L 87.426864 162.070879 
L 89.69485 162.043308 
L 90.018848 162.05987 
L 92.157234 162.053951 
L 92.610831 162.06992 
L 92.870029 162.057483 
L 93.194027 162.069352 
L 95.202814 162.049222 
L 95.591612 162.060216 
L 96.110008 162.034123 
L 96.369207 162.050414 
L 96.628405 162.062109 
L 97.017202 162.068388 
L 97.729998 162.050176 
L 100.127582 162.043235 
L 101.941971 162.0315 
L 102.201169 162.045329 
L 103.756359 161.90057 
L 103.885958 162.046165 
L 103.950758 162.040706 
L 104.145156 161.901215 
L 104.209956 161.895271 
L 104.339555 162.044377 
L 104.404355 161.929283 
L 104.469154 162.073127 
L 104.533954 162.042699 
L 104.663553 162.073468 
L 104.857952 162.053244 
L 104.987551 161.923188 
L 105.052351 161.92365 
L 105.18195 162.04795 
L 105.311549 162.053573 
L 105.505948 161.899551 
L 106.089144 161.917038 
L 106.348342 161.915164 
L 106.477941 162.068671 
L 106.607541 161.902064 
L 106.73714 162.068278 
L 107.255536 161.900466 
L 107.385136 162.042165 
L 107.449935 161.898766 
L 107.579534 162.04846 
L 107.709133 161.892061 
L 107.838733 162.046895 
L 107.903532 162.045128 
L 107.968332 161.899688 
L 108.097931 162.048371 
L 108.22753 161.896762 
L 108.29233 161.899657 
L 108.421929 162.070342 
L 108.940326 162.021406 
L 109.199524 162.01647 
L 111.532309 162.098723 
L 111.726708 162.009457 
L 113.929893 162.092398 
L 114.253891 162.115098 
L 116.716275 161.950159 
L 117.817868 161.980202 
L 119.567457 161.952639 
L 120.474651 161.750569 
L 121.252246 161.8915 
L 121.511444 162.06023 
L 121.770643 162.045769 
L 123.131434 162.799816 
L 123.585031 163.056003 
L 124.038628 163.105018 
L 124.233027 163.106146 
L 124.427426 163.131492 
L 124.686624 162.972944 
L 125.399419 162.719605 
L 125.464219 162.736433 
L 125.529019 162.351871 
L 125.593818 162.456045 
L 125.917816 162.498459 
L 125.982616 162.530052 
L 126.112215 162.871753 
L 126.177014 162.596418 
L 126.306614 162.939421 
L 128.121002 162.847312 
L 129.092996 162.159065 
L 129.416993 162.053484 
L 130.388987 161.884743 
L 131.42578 162.164791 
L 132.332975 161.952866 
L 133.434568 160.996784 
L 134.147363 161.155882 
L 134.406561 161.242379 
L 134.60096 161.283667 
L 135.184156 161.50475 
L 135.443355 161.485211 
L 135.767352 161.559761 
L 136.026551 161.672798 
L 139.525728 162.369598 
L 139.979325 162.519925 
L 140.368123 162.678341 
L 140.692121 162.880182 
L 141.016119 163.139317 
L 141.340117 163.171019 
L 142.052912 163.036896 
L 142.700908 162.726374 
L 143.543302 162.31341 
L 145.228091 161.869783 
L 145.552089 161.792729 
L 146.264885 161.773526 
L 147.107279 161.820752 
L 148.208872 161.775922 
L 149.310465 161.978265 
L 150.476858 162.315567 
L 151.189653 162.293521 
L 151.64325 162.202821 
L 152.420845 162.179838 
L 153.004041 162.268902 
L 154.429632 162.678445 
L 155.012828 162.854812 
L 156.049622 163.014554 
L 156.827217 163.227518 
L 157.280814 163.234699 
L 157.734411 163.110066 
L 157.86401 163.155544 
L 158.058409 163.307989 
L 158.317607 163.086935 
L 158.447206 163.155727 
L 158.512006 163.103023 
L 158.576805 163.236344 
L 158.706404 162.984612 
L 158.771204 163.104143 
L 158.836004 162.923721 
L 158.900803 163.142198 
L 159.095202 162.856041 
L 159.224801 162.933764 
L 159.289601 162.922074 
L 159.483999 162.746606 
L 159.613599 162.642266 
L 159.678398 162.52791 
L 159.807997 162.696175 
L 160.002396 162.492893 
L 160.261594 162.553905 
L 160.326394 162.390361 
L 160.391194 162.467049 
L 160.520793 162.370086 
L 160.715192 162.596651 
L 160.779991 162.570828 
L 160.844791 162.29964 
L 160.90959 162.556214 
L 160.97439 162.299962 
L 161.039189 162.330655 
L 161.168789 162.361324 
L 161.298388 162.329414 
L 161.427987 162.151788 
L 161.622386 162.086017 
L 161.687185 162.139265 
L 161.751985 162.05525 
L 161.816784 162.036264 
L 161.881584 161.809185 
L 161.946384 161.996278 
L 162.011183 161.697921 
L 162.140782 161.93749 
L 162.270381 161.543144 
L 162.399981 161.528153 
L 162.46478 161.789119 
L 162.659179 161.323591 
L 162.723979 161.379816 
L 162.788778 161.218211 
L 162.853578 161.485225 
L 162.983177 161.01812 
L 163.047976 161.131539 
L 163.177576 160.379054 
L 163.242375 160.721738 
L 163.436774 159.714097 
L 163.501574 160.121114 
L 163.566373 159.886644 
L 163.760772 158.600613 
L 163.890371 158.697908 
L 163.955171 158.888157 
L 164.08477 158.051124 
L 164.149569 158.076309 
L 164.214369 157.919763 
L 164.667966 151.375989 
L 164.862365 141.147266 
L 165.251162 99.318742 
L 165.63996 91.448597 
L 165.769559 89.887254 
L 165.834358 90.414871 
L 166.028757 88.857347 
L 166.093557 89.75071 
L 166.158356 89.685396 
L 166.287956 89.161972 
L 166.806352 92.968823 
L 167.583947 110.731279 
L 168.167143 130.074683 
L 168.296743 134.52981 
L 168.68554 147.879287 
L 168.944738 153.904226 
L 169.268736 157.855393 
L 169.333536 157.939331 
L 169.527935 159.251046 
L 169.722333 160.034159 
L 169.981532 160.581267 
L 170.046331 160.613395 
L 170.24073 161.049429 
L 170.30553 161.012388 
L 170.370329 161.142722 
L 170.435129 161.050014 
L 171.083125 161.841739 
L 171.147924 161.700031 
L 171.471922 161.757629 
L 171.666321 161.732435 
L 171.79592 161.810233 
L 171.86072 161.676019 
L 171.925519 161.760916 
L 172.055118 161.807405 
L 172.184718 161.695217 
L 172.249517 161.797133 
L 172.314317 161.719822 
L 172.638315 161.822206 
L 172.703114 161.980383 
L 172.767914 161.810826 
L 172.832713 161.94507 
L 172.962313 161.853053 
L 173.027112 161.900117 
L 173.156711 161.828876 
L 173.934306 161.882511 
L 174.128705 161.778444 
L 174.258304 161.836315 
L 174.452703 161.765465 
L 174.776701 161.628146 
L 174.8415 161.738964 
L 174.9063 161.637343 
L 175.100699 161.728285 
L 175.359897 161.557029 
L 178.729475 161.683217 
L 178.859074 161.639167 
L 180.349465 161.715652 
L 180.932661 161.741273 
L 181.191859 161.725567 
L 182.293452 161.682871 
L 184.17264 161.74571 
L 184.496638 161.762428 
L 186.051828 161.873186 
L 186.959022 162.058268 
L 187.995816 162.1648 
L 188.384613 162.131666 
L 189.097408 161.944686 
L 189.615805 161.892825 
L 190.263801 161.907851 
L 190.4582 161.916686 
L 192.466987 161.883165 
L 192.855784 161.75853 
L 196.808559 160.505291 
L 198.428548 159.432578 
L 201.603728 155.925229 
L 203.677314 152.490621 
L 203.742114 152.540529 
L 205.102905 149.926253 
L 205.426903 149.347894 
L 205.9453 148.414416 
L 206.204498 147.456948 
L 206.528496 145.920826 
L 207.046893 142.36816 
L 208.342884 128.999507 
L 208.602083 128.01906 
L 208.731682 128.018176 
L 208.861281 128.238832 
L 208.99088 128.837576 
L 209.703675 133.100954 
L 209.833275 133.106325 
L 209.962874 132.731277 
L 210.48127 130.347285 
L 210.740469 129.907809 
L 210.934868 130.714571 
L 211.194066 132.505606 
L 211.712463 137.571477 
L 212.425258 144.860505 
L 212.943655 148.278948 
L 213.008454 148.442302 
L 213.267652 149.742069 
L 214.174847 152.402434 
L 215.14684 154.027671 
L 215.406039 154.380878 
L 216.637231 156.709327 
L 217.674024 157.831307 
L 218.127621 158.171826 
L 220.136408 159.711897 
L 221.3676 160.149144 
L 221.885997 160.230258 
L 222.728391 160.468804 
L 224.801978 160.947567 
L 226.486767 161.170171 
L 227.005164 161.205842 
L 227.58836 161.140039 
L 228.301155 160.663803 
L 228.689953 160.181206 
L 229.532348 158.542231 
L 230.69874 155.197261 
L 232.383529 149.787844 
L 233.161124 147.290904 
L 235.234711 140.114948 
L 236.077105 137.414415 
L 237.049099 134.555002 
L 238.085892 131.120713 
L 238.669089 129.671734 
L 239.317084 127.874853 
L 240.937074 124.217352 
L 242.492264 121.548636 
L 243.14026 121.238939 
L 243.269859 121.270767 
L 243.593857 121.23873 
L 243.723456 121.223292 
L 244.436251 120.87041 
L 245.408245 120.399162 
L 245.797043 120.42195 
L 246.509838 120.658369 
L 247.611431 120.49447 
L 248.194627 120.408713 
L 248.777823 120.438167 
L 248.907423 120.537779 
L 249.037022 120.577007 
L 249.685018 120.63956 
L 250.009015 120.63776 
L 250.138615 120.713651 
L 250.85141 120.775809 
L 251.110608 120.899459 
L 252.017802 121.273259 
L 252.4066 121.334863 
L 252.600999 121.464698 
L 253.054596 122.181581 
L 253.443393 123.329954 
L 254.933784 129.524318 
L 255.905777 134.226462 
L 257.396168 141.067501 
L 258.432961 145.090457 
L 261.154544 154.824241 
L 261.996938 157.049898 
L 263.033731 159.10759 
L 263.552128 159.615532 
L 266.208911 161.201046 
L 266.662508 161.196687 
L 267.180905 161.5772 
L 267.8289 162.776768 
L 268.671295 164.953165 
L 269.902487 168.988426 
L 271.263278 173.815532 
L 272.55927 177.246464 
L 273.531264 179.638272 
L 275.799249 185.566322 
L 276.576844 187.224979 
L 277.808036 189.787223 
L 279.298426 193.528588 
L 280.140821 195.612383 
L 280.724017 196.779504 
L 281.696011 198.379946 
L 282.668005 199.683727 
L 282.732804 199.327017 
L 282.797604 199.365125 
L 283.056802 199.695542 
L 283.575199 200.085523 
L 283.704798 200.081635 
L 284.611992 200.529901 
L 286.49118 201.081002 
L 287.268775 201.702768 
L 287.398374 201.754349 
L 287.851971 202.099787 
L 288.694366 202.234555 
L 288.823965 202.183542 
L 288.888765 202.34832 
L 289.083163 202.12333 
L 289.147963 202.116439 
L 289.212762 202.264754 
L 289.342362 202.09597 
L 290.314355 201.996001 
L 290.767952 202.048675 
L 292.063944 202.202406 
L 292.193543 201.976825 
L 292.77674 201.962475 
L 292.906339 202.132976 
L 293.035938 201.97476 
L 293.230337 201.940439 
L 293.359936 201.855219 
L 293.424735 202.009923 
L 293.619134 201.679542 
L 294.072731 200.933258 
L 294.396729 200.247891 
L 295.109524 197.322615 
L 296.405516 191.912419 
L 297.247911 188.698914 
L 297.31271 189.161159 
L 297.37751 188.942996 
L 297.507109 188.409926 
L 297.701508 186.75186 
L 297.831107 186.171693 
L 297.895906 186.760398 
L 297.960706 186.382138 
L 298.219904 185.182126 
L 299.321497 178.700896 
L 300.48789 172.325913 
L 301.524683 168.691843 
L 303.015073 165.482543 
L 303.468671 165.10355 
L 303.663069 165.001167 
L 304.764662 164.451859 
L 305.671856 163.5961 
L 306.514251 162.840129 
L 306.773449 162.737192 
L 307.227046 162.637148 
L 307.615844 162.682922 
L 307.875042 162.699056 
L 308.911835 162.903912 
L 309.300633 162.833114 
L 310.207827 162.887292 
L 310.855823 162.526855 
L 311.115021 162.283392 
L 311.568618 161.867267 
L 312.540612 160.892961 
L 312.929409 160.700216 
L 313.512606 160.250681 
L 313.642205 160.184122 
L 314.355 159.982817 
L 314.873397 160.227028 
L 315.262194 160.383219 
L 316.687785 160.559718 
L 316.946984 160.488473 
L 317.594979 159.864123 
L 318.307775 158.465437 
L 319.08537 156.802844 
L 319.474167 156.451683 
L 319.668566 156.404 
L 319.927764 156.540057 
L 321.094157 156.755596 
L 322.649347 158.336624 
L 322.973345 158.575542 
L 323.68614 159.402213 
L 323.945338 159.617585 
L 324.010138 159.793414 
L 324.074938 159.736469 
L 325.824526 162.147279 
L 325.889326 162.019793 
L 325.954125 162.006838 
L 326.018925 161.864513 
L 326.213324 162.181819 
L 326.278123 162.086204 
L 326.407723 162.278802 
L 326.472522 162.157868 
L 326.537322 162.193342 
L 326.73172 162.542706 
L 326.926119 162.456549 
L 328.092512 163.503546 
L 328.222111 163.50804 
L 328.546109 163.869401 
L 328.610908 163.748649 
L 328.805307 164.266708 
L 328.870107 164.02402 
L 328.999706 164.318959 
L 329.064505 164.510317 
L 329.129305 164.463448 
L 329.258904 164.699568 
L 329.453303 164.893133 
L 329.518102 164.955204 
L 329.582902 164.592665 
L 329.647702 164.709243 
L 330.036499 164.566936 
L 330.101299 164.616607 
L 330.295697 164.187723 
L 330.360497 164.399922 
L 330.425297 164.351522 
L 330.684495 164.169214 
L 331.332491 163.701207 
L 331.39729 163.76005 
L 331.591689 163.563218 
L 331.656489 163.694498 
L 331.721288 163.635224 
L 332.110086 163.109707 
L 332.174885 163.522316 
L 332.239685 163.511757 
L 332.563683 163.060224 
L 333.01728 162.893364 
L 333.082079 163.072797 
L 333.211679 162.848488 
L 333.276478 162.876383 
L 333.406077 163.049238 
L 333.600476 163.032502 
L 333.665276 162.94176 
L 333.794875 163.170808 
L 333.924474 163.175127 
L 334.054073 163.215285 
L 334.766869 162.926083 
L 335.090867 162.788248 
L 335.285265 162.314047 
L 335.350065 162.089882 
L 335.414864 162.139187 
L 335.738862 162.252621 
L 336.06286 162.194076 
L 336.970054 162.134634 
L 337.553251 162.172301 
L 337.942048 162.16914 
L 338.071647 161.966497 
L 338.201246 162.166348 
L 339.626837 162.098574 
L 339.821236 161.894917 
L 340.210033 161.897829 
L 340.339633 162.086765 
L 341.052428 162.087845 
L 342.542818 162.079531 
L 342.672418 161.912204 
L 342.802017 161.914903 
L 342.931616 162.180492 
L 342.996416 162.127042 
L 343.255614 162.163596 
L 343.450013 162.160125 
L 343.90361 162.071444 
L 344.227608 162.08686 
L 345.3292 162.076446 
L 345.717998 162.07729 
L 367.296259 162.071985 
L 367.296259 162.071985 
" style="fill:none;stroke:#1f77b4;stroke-linecap:square;stroke-width:1.5;"/>
   </g>
   <g id="line2d_12">
    <path clip-path="url(#p05a1b15d6d)" d="M 69.218182 162.188347 
L 77.31813 162.114152 
L 80.104512 162.110521 
L 85.094079 162.054091 
L 87.491664 162.055052 
L 91.638837 162.058956 
L 93.712424 162.042946 
L 99.479587 162.011518 
L 101.877171 162.020859 
L 105.959545 162.040955 
L 108.551528 162.057959 
L 109.717921 162.050481 
L 111.856307 162.033096 
L 116.586676 162.0299 
L 119.697056 162.053176 
L 124.881023 161.837495 
L 126.112215 161.242885 
L 127.084208 160.937756 
L 128.509799 160.407243 
L 129.481793 160.08756 
L 131.944177 159.25852 
L 133.628966 158.425127 
L 134.53616 158.053192 
L 135.119357 158.207983 
L 135.508154 158.069113 
L 135.832152 157.736343 
L 136.285749 157.317717 
L 137.063344 157.454453 
L 137.840939 157.937131 
L 138.488935 158.42446 
L 139.460929 159.019937 
L 140.368123 159.407682 
L 142.37691 160.127193 
L 144.644895 161.415817 
L 145.552089 161.313816 
L 146.264885 160.92995 
L 146.653682 160.817918 
L 147.820075 160.744567 
L 148.921668 160.593584 
L 150.08806 160.797482 
L 151.124853 160.872449 
L 151.64325 161.002622 
L 154.235233 161.871192 
L 155.790423 161.901155 
L 156.697617 162.118338 
L 158.382407 162.792644 
L 160.715192 163.293377 
L 161.233588 163.31179 
L 161.816784 163.316362 
L 163.307175 162.708276 
L 165.315962 162.323276 
L 165.834358 162.511488 
L 166.028757 162.395488 
L 166.158356 162.386984 
L 166.223156 162.316279 
L 166.482354 160.902135 
L 166.741553 158.06423 
L 167.000751 153.59925 
L 167.19515 145.746756 
L 167.324749 120.861152 
L 167.519148 90.084654 
L 167.778346 84.32479 
L 168.037544 82.875278 
L 168.231943 82.483716 
L 168.491141 82.538066 
L 168.815139 82.407273 
L 169.009538 82.445656 
L 169.592734 82.637667 
L 169.851933 82.98906 
L 171.73112 88.66286 
L 171.925519 91.177129 
L 172.055118 95.715443 
L 172.184718 112.238563 
L 172.443916 154.131287 
L 172.638315 158.855623 
L 172.897513 160.625322 
L 173.156711 161.282012 
L 174.323104 161.679926 
L 174.711901 161.646703 
L 175.943093 161.721065 
L 178.599876 161.519371 
L 179.57187 161.510207 
L 182.876649 161.488255 
L 185.533431 161.532587 
L 186.375826 161.535921 
L 189.745404 161.880114 
L 190.976596 162.046732 
L 191.494993 161.96532 
L 192.531786 161.802662 
L 193.179782 161.769647 
L 194.022177 161.926753 
L 194.605373 161.948835 
L 195.512567 161.770621 
L 196.354962 161.536407 
L 198.946945 160.514246 
L 200.696534 159.710388 
L 201.27973 159.221009 
L 204.519709 155.400937 
L 205.426903 153.553746 
L 206.139698 151.990445 
L 207.43569 149.510855 
L 208.407684 147.038636 
L 209.05568 145.666469 
L 209.444477 143.970026 
L 209.833275 141.248871 
L 210.54607 133.948079 
L 211.323665 124.305725 
L 211.582863 122.839521 
L 211.777262 122.472586 
L 211.906861 122.637256 
L 212.10126 123.600149 
L 212.878855 128.890766 
L 212.943655 128.964591 
L 213.008454 128.899689 
L 213.202853 128.249673 
L 213.65645 126.299202 
L 213.786049 126.096429 
L 213.850849 126.145137 
L 213.980448 126.500514 
L 214.304446 128.903502 
L 214.887642 135.560853 
L 215.859636 146.018071 
L 216.313233 148.613339 
L 216.831629 150.636199 
L 217.544425 152.750331 
L 218.127621 153.82477 
L 219.358813 156.02183 
L 220.136408 157.199778 
L 220.914003 157.918398 
L 221.950796 158.826551 
L 223.570786 160.018906 
L 224.54278 160.426732 
L 225.838771 160.789731 
L 227.58836 161.36248 
L 229.14355 161.527814 
L 229.985945 161.657803 
L 230.76354 161.575517 
L 231.217137 161.336262 
L 231.605934 160.894622 
L 232.31873 159.582036 
L 233.096325 157.580425 
L 234.068318 154.293112 
L 238.085892 140.094485 
L 238.863487 137.02673 
L 239.576283 134.882604 
L 240.224279 132.806503 
L 241.261072 129.205871 
L 243.269859 123.961243 
L 245.408245 119.694617 
L 245.861842 119.393954 
L 246.25064 119.370923 
L 247.287433 119.3605 
L 248.583425 118.804479 
L 248.907423 118.915527 
L 249.685018 119.256146 
L 250.138615 119.288446 
L 251.693805 119.201124 
L 254.609786 120.148505 
L 255.128182 120.383673 
L 255.711379 120.612051 
L 256.035377 121.089504 
L 256.424174 122.161996 
L 257.331368 125.999685 
L 261.608141 146.38024 
L 264.394523 156.738881 
L 265.496116 159.558084 
L 266.079312 160.642962 
L 266.662508 161.196516 
L 267.504903 161.648391 
L 268.088099 161.910848 
L 268.930493 162.528912 
L 269.44889 162.490543 
L 269.902487 162.510575 
L 270.226485 162.740848 
L 270.615282 163.360528 
L 271.392877 165.215943 
L 272.170472 167.500503 
L 273.596063 172.775848 
L 274.503257 176.041957 
L 275.151253 177.84811 
L 277.354439 183.566773 
L 278.520831 186.803336 
L 279.752024 189.543533 
L 281.307214 192.955506 
L 283.639998 198.670991 
L 284.676792 200.36103 
L 285.778385 201.740256 
L 286.620779 202.397607 
L 287.722372 202.754835 
L 288.370368 202.794945 
L 289.212762 202.849778 
L 290.055157 203.365329 
L 291.15675 204.111069 
L 291.675147 204.113186 
L 293.359936 203.723761 
L 294.720727 203.586451 
L 296.599915 203.141688 
L 296.923913 202.674898 
L 297.31271 201.752168 
L 297.960706 199.238152 
L 299.904694 190.997717 
L 300.811888 187.328994 
L 301.395084 184.330537 
L 303.663069 170.653746 
L 304.570263 167.373855 
L 305.671856 164.596607 
L 306.255053 163.823005 
L 306.903048 163.540423 
L 308.393439 162.735893 
L 309.68943 161.667998 
L 310.337426 161.466172 
L 310.985422 161.585766 
L 311.698217 161.767954 
L 312.929409 161.885586 
L 313.318207 161.934598 
L 313.642205 161.776405 
L 314.614199 160.999747 
L 315.521393 160.172571 
L 316.298988 159.853411 
L 316.946984 159.377636 
L 317.659779 159.501705 
L 318.631773 159.900819 
L 318.890971 159.985228 
L 319.474167 160.117618 
L 319.927764 160.088875 
L 320.446161 159.607463 
L 321.029357 158.714878 
L 322.454948 155.930653 
L 322.714146 155.898284 
L 323.232543 156.040248 
L 323.75094 156.044902 
L 324.010138 156.138202 
L 324.722933 156.864961 
L 325.759727 158.208296 
L 326.278123 158.72304 
L 327.768514 160.597478 
L 328.222111 161.320889 
L 328.805307 161.915751 
L 329.129305 162.10788 
L 329.9717 162.542556 
L 330.554896 163.032207 
L 331.52689 163.967479 
L 332.304484 164.848637 
L 332.628482 165.13045 
L 332.887681 164.982403 
L 333.082079 164.912225 
L 335.090867 163.610391 
L 335.479664 163.441507 
L 336.257259 163.140574 
L 338.006848 162.87379 
L 338.266046 162.577743 
L 338.460445 162.052726 
L 338.978841 162.162943 
L 342.802017 162.163101 
L 346.430793 162.13749 
L 349.605973 162.127185 
L 352.133157 162.148597 
L 355.373136 162.154366 
L 356.993125 162.1501 
L 360.362703 162.139788 
L 363.537883 162.145405 
L 367.814655 162.104552 
L 370.27704 162.095406 
L 373.581818 162.081225 
L 373.581818 162.081225 
" style="fill:none;stroke:#ff7f0e;stroke-linecap:square;stroke-width:1.5;"/>
   </g>
   <g id="patch_3">
    <path d="M 54 210.24 
L 54 76.32 
" style="fill:none;stroke:#000000;stroke-linecap:square;stroke-linejoin:miter;stroke-width:0.8;"/>
   </g>
   <g id="patch_4">
    <path d="M 388.8 210.24 
L 388.8 76.32 
" style="fill:none;stroke:#000000;stroke-linecap:square;stroke-linejoin:miter;stroke-width:0.8;"/>
   </g>
   <g id="patch_5">
    <path d="M 54 210.24 
L 388.8 210.24 
" style="fill:none;stroke:#000000;stroke-linecap:square;stroke-linejoin:miter;stroke-width:0.8;"/>
   </g>
   <g id="patch_6">
    <path d="M 54 76.32 
L 388.8 76.32 
" style="fill:none;stroke:#000000;stroke-linecap:square;stroke-linejoin:miter;stroke-width:0.8;"/>
   </g>
   <g id="text_11">
    <!-- Roll -->
    <defs>
     <path d="M 44.390625 34.1875 
Q 47.5625 33.109375 50.5625 29.59375 
Q 53.5625 26.078125 56.59375 19.921875 
L 66.609375 0 
L 56 0 
L 46.6875 18.703125 
Q 43.0625 26.03125 39.671875 28.421875 
Q 36.28125 30.8125 30.421875 30.8125 
L 19.671875 30.8125 
L 19.671875 0 
L 9.8125 0 
L 9.8125 72.90625 
L 32.078125 72.90625 
Q 44.578125 72.90625 50.734375 67.671875 
Q 56.890625 62.453125 56.890625 51.90625 
Q 56.890625 45.015625 53.6875 40.46875 
Q 50.484375 35.9375 44.390625 34.1875 
z
M 19.671875 64.796875 
L 19.671875 38.921875 
L 32.078125 38.921875 
Q 39.203125 38.921875 42.84375 42.21875 
Q 46.484375 45.515625 46.484375 51.90625 
Q 46.484375 58.296875 42.84375 61.546875 
Q 39.203125 64.796875 32.078125 64.796875 
z
" id="DejaVuSans-82"/>
     <path d="M 30.609375 48.390625 
Q 23.390625 48.390625 19.1875 42.75 
Q 14.984375 37.109375 14.984375 27.296875 
Q 14.984375 17.484375 19.15625 11.84375 
Q 23.34375 6.203125 30.609375 6.203125 
Q 37.796875 6.203125 41.984375 11.859375 
Q 46.1875 17.53125 46.1875 27.296875 
Q 46.1875 37.015625 41.984375 42.703125 
Q 37.796875 48.390625 30.609375 48.390625 
z
M 30.609375 56 
Q 42.328125 56 49.015625 48.375 
Q 55.71875 40.765625 55.71875 27.296875 
Q 55.71875 13.875 49.015625 6.21875 
Q 42.328125 -1.421875 30.609375 -1.421875 
Q 18.84375 -1.421875 12.171875 6.21875 
Q 5.515625 13.875 5.515625 27.296875 
Q 5.515625 40.765625 12.171875 48.375 
Q 18.84375 56 30.609375 56 
z
" id="DejaVuSans-111"/>
     <path d="M 9.421875 75.984375 
L 18.40625 75.984375 
L 18.40625 0 
L 9.421875 0 
z
" id="DejaVuSans-108"/>
    </defs>
    <g transform="translate(210.229688 70.32)scale(0.12 -0.12)">
     <use xlink:href="#DejaVuSans-82"/>
     <use x="69.419922" xlink:href="#DejaVuSans-111"/>
     <use x="130.601562" xlink:href="#DejaVuSans-108"/>
     <use x="158.384766" xlink:href="#DejaVuSans-108"/>
    </g>
   </g>
   <g id="legend_1">
    <g id="patch_7">
     <path d="M 61 113.67625 
L 143.351562 113.67625 
Q 145.351562 113.67625 145.351562 111.67625 
L 145.351562 83.32 
Q 145.351562 81.32 143.351562 81.32 
L 61 81.32 
Q 59 81.32 59 83.32 
L 59 111.67625 
Q 59 113.67625 61 113.67625 
z
" style="fill:#ffffff;opacity:0.8;stroke:#cccccc;stroke-linejoin:miter;"/>
    </g>
    <g id="line2d_13">
     <path d="M 63 89.418437 
L 83 89.418437 
" style="fill:none;stroke:#1f77b4;stroke-linecap:square;stroke-width:1.5;"/>
    </g>
    <g id="line2d_14"/>
    <g id="text_12">
     <!-- vicon -->
     <defs>
      <path d="M 2.984375 54.6875 
L 12.5 54.6875 
L 29.59375 8.796875 
L 46.6875 54.6875 
L 56.203125 54.6875 
L 35.6875 0 
L 23.484375 0 
z
" id="DejaVuSans-118"/>
      <path d="M 9.421875 54.6875 
L 18.40625 54.6875 
L 18.40625 0 
L 9.421875 0 
z
M 9.421875 75.984375 
L 18.40625 75.984375 
L 18.40625 64.59375 
L 9.421875 64.59375 
z
" id="DejaVuSans-105"/>
      <path d="M 48.78125 52.59375 
L 48.78125 44.1875 
Q 44.96875 46.296875 41.140625 47.34375 
Q 37.3125 48.390625 33.40625 48.390625 
Q 24.65625 48.390625 19.8125 42.84375 
Q 14.984375 37.3125 14.984375 27.296875 
Q 14.984375 17.28125 19.8125 11.734375 
Q 24.65625 6.203125 33.40625 6.203125 
Q 37.3125 6.203125 41.140625 7.25 
Q 44.96875 8.296875 48.78125 10.40625 
L 48.78125 2.09375 
Q 45.015625 0.34375 40.984375 -0.53125 
Q 36.96875 -1.421875 32.421875 -1.421875 
Q 20.0625 -1.421875 12.78125 6.34375 
Q 5.515625 14.109375 5.515625 27.296875 
Q 5.515625 40.671875 12.859375 48.328125 
Q 20.21875 56 33.015625 56 
Q 37.15625 56 41.109375 55.140625 
Q 45.0625 54.296875 48.78125 52.59375 
z
" id="DejaVuSans-99"/>
      <path d="M 54.890625 33.015625 
L 54.890625 0 
L 45.90625 0 
L 45.90625 32.71875 
Q 45.90625 40.484375 42.875 44.328125 
Q 39.84375 48.1875 33.796875 48.1875 
Q 26.515625 48.1875 22.3125 43.546875 
Q 18.109375 38.921875 18.109375 30.90625 
L 18.109375 0 
L 9.078125 0 
L 9.078125 54.6875 
L 18.109375 54.6875 
L 18.109375 46.1875 
Q 21.34375 51.125 25.703125 53.5625 
Q 30.078125 56 35.796875 56 
Q 45.21875 56 50.046875 50.171875 
Q 54.890625 44.34375 54.890625 33.015625 
z
" id="DejaVuSans-110"/>
     </defs>
     <g transform="translate(91 92.918437)scale(0.1 -0.1)">
      <use xlink:href="#DejaVuSans-118"/>
      <use x="59.179688" xlink:href="#DejaVuSans-105"/>
      <use x="86.962891" xlink:href="#DejaVuSans-99"/>
      <use x="141.943359" xlink:href="#DejaVuSans-111"/>
      <use x="203.125" xlink:href="#DejaVuSans-110"/>
     </g>
    </g>
    <g id="line2d_15">
     <path d="M 63 104.096562 
L 83 104.096562 
" style="fill:none;stroke:#ff7f0e;stroke-linecap:square;stroke-width:1.5;"/>
    </g>
    <g id="line2d_16"/>
    <g id="text_13">
     <!-- estimated -->
     <defs>
      <path d="M 56.203125 29.59375 
L 56.203125 25.203125 
L 14.890625 25.203125 
Q 15.484375 15.921875 20.484375 11.0625 
Q 25.484375 6.203125 34.421875 6.203125 
Q 39.59375 6.203125 44.453125 7.46875 
Q 49.3125 8.734375 54.109375 11.28125 
L 54.109375 2.78125 
Q 49.265625 0.734375 44.1875 -0.34375 
Q 39.109375 -1.421875 33.890625 -1.421875 
Q 20.796875 -1.421875 13.15625 6.1875 
Q 5.515625 13.8125 5.515625 26.8125 
Q 5.515625 40.234375 12.765625 48.109375 
Q 20.015625 56 32.328125 56 
Q 43.359375 56 49.78125 48.890625 
Q 56.203125 41.796875 56.203125 29.59375 
z
M 47.21875 32.234375 
Q 47.125 39.59375 43.09375 43.984375 
Q 39.0625 48.390625 32.421875 48.390625 
Q 24.90625 48.390625 20.390625 44.140625 
Q 15.875 39.890625 15.1875 32.171875 
z
" id="DejaVuSans-101"/>
      <path d="M 44.28125 53.078125 
L 44.28125 44.578125 
Q 40.484375 46.53125 36.375 47.5 
Q 32.28125 48.484375 27.875 48.484375 
Q 21.1875 48.484375 17.84375 46.4375 
Q 14.5 44.390625 14.5 40.28125 
Q 14.5 37.15625 16.890625 35.375 
Q 19.28125 33.59375 26.515625 31.984375 
L 29.59375 31.296875 
Q 39.15625 29.25 43.1875 25.515625 
Q 47.21875 21.78125 47.21875 15.09375 
Q 47.21875 7.46875 41.1875 3.015625 
Q 35.15625 -1.421875 24.609375 -1.421875 
Q 20.21875 -1.421875 15.453125 -0.5625 
Q 10.6875 0.296875 5.421875 2 
L 5.421875 11.28125 
Q 10.40625 8.6875 15.234375 7.390625 
Q 20.0625 6.109375 24.8125 6.109375 
Q 31.15625 6.109375 34.5625 8.28125 
Q 37.984375 10.453125 37.984375 14.40625 
Q 37.984375 18.0625 35.515625 20.015625 
Q 33.0625 21.96875 24.703125 23.78125 
L 21.578125 24.515625 
Q 13.234375 26.265625 9.515625 29.90625 
Q 5.8125 33.546875 5.8125 39.890625 
Q 5.8125 47.609375 11.28125 51.796875 
Q 16.75 56 26.8125 56 
Q 31.78125 56 36.171875 55.265625 
Q 40.578125 54.546875 44.28125 53.078125 
z
" id="DejaVuSans-115"/>
      <path d="M 18.3125 70.21875 
L 18.3125 54.6875 
L 36.8125 54.6875 
L 36.8125 47.703125 
L 18.3125 47.703125 
L 18.3125 18.015625 
Q 18.3125 11.328125 20.140625 9.421875 
Q 21.96875 7.515625 27.59375 7.515625 
L 36.8125 7.515625 
L 36.8125 0 
L 27.59375 0 
Q 17.1875 0 13.234375 3.875 
Q 9.28125 7.765625 9.28125 18.015625 
L 9.28125 47.703125 
L 2.6875 47.703125 
L 2.6875 54.6875 
L 9.28125 54.6875 
L 9.28125 70.21875 
z
" id="DejaVuSans-116"/>
      <path d="M 52 44.1875 
Q 55.375 50.25 60.0625 53.125 
Q 64.75 56 71.09375 56 
Q 79.640625 56 84.28125 50.015625 
Q 88.921875 44.046875 88.921875 33.015625 
L 88.921875 0 
L 79.890625 0 
L 79.890625 32.71875 
Q 79.890625 40.578125 77.09375 44.375 
Q 74.3125 48.1875 68.609375 48.1875 
Q 61.625 48.1875 57.5625 43.546875 
Q 53.515625 38.921875 53.515625 30.90625 
L 53.515625 0 
L 44.484375 0 
L 44.484375 32.71875 
Q 44.484375 40.625 41.703125 44.40625 
Q 38.921875 48.1875 33.109375 48.1875 
Q 26.21875 48.1875 22.15625 43.53125 
Q 18.109375 38.875 18.109375 30.90625 
L 18.109375 0 
L 9.078125 0 
L 9.078125 54.6875 
L 18.109375 54.6875 
L 18.109375 46.1875 
Q 21.1875 51.21875 25.484375 53.609375 
Q 29.78125 56 35.6875 56 
Q 41.65625 56 45.828125 52.96875 
Q 50 49.953125 52 44.1875 
z
" id="DejaVuSans-109"/>
      <path d="M 34.28125 27.484375 
Q 23.390625 27.484375 19.1875 25 
Q 14.984375 22.515625 14.984375 16.5 
Q 14.984375 11.71875 18.140625 8.90625 
Q 21.296875 6.109375 26.703125 6.109375 
Q 34.1875 6.109375 38.703125 11.40625 
Q 43.21875 16.703125 43.21875 25.484375 
L 43.21875 27.484375 
z
M 52.203125 31.203125 
L 52.203125 0 
L 43.21875 0 
L 43.21875 8.296875 
Q 40.140625 3.328125 35.546875 0.953125 
Q 30.953125 -1.421875 24.3125 -1.421875 
Q 15.921875 -1.421875 10.953125 3.296875 
Q 6 8.015625 6 15.921875 
Q 6 25.140625 12.171875 29.828125 
Q 18.359375 34.515625 30.609375 34.515625 
L 43.21875 34.515625 
L 43.21875 35.40625 
Q 43.21875 41.609375 39.140625 45 
Q 35.0625 48.390625 27.6875 48.390625 
Q 23 48.390625 18.546875 47.265625 
Q 14.109375 46.140625 10.015625 43.890625 
L 10.015625 52.203125 
Q 14.9375 54.109375 19.578125 55.046875 
Q 24.21875 56 28.609375 56 
Q 40.484375 56 46.34375 49.84375 
Q 52.203125 43.703125 52.203125 31.203125 
z
" id="DejaVuSans-97"/>
      <path d="M 45.40625 46.390625 
L 45.40625 75.984375 
L 54.390625 75.984375 
L 54.390625 0 
L 45.40625 0 
L 45.40625 8.203125 
Q 42.578125 3.328125 38.25 0.953125 
Q 33.9375 -1.421875 27.875 -1.421875 
Q 17.96875 -1.421875 11.734375 6.484375 
Q 5.515625 14.40625 5.515625 27.296875 
Q 5.515625 40.1875 11.734375 48.09375 
Q 17.96875 56 27.875 56 
Q 33.9375 56 38.25 53.625 
Q 42.578125 51.265625 45.40625 46.390625 
z
M 14.796875 27.296875 
Q 14.796875 17.390625 18.875 11.75 
Q 22.953125 6.109375 30.078125 6.109375 
Q 37.203125 6.109375 41.296875 11.75 
Q 45.40625 17.390625 45.40625 27.296875 
Q 45.40625 37.203125 41.296875 42.84375 
Q 37.203125 48.484375 30.078125 48.484375 
Q 22.953125 48.484375 18.875 42.84375 
Q 14.796875 37.203125 14.796875 27.296875 
z
" id="DejaVuSans-100"/>
     </defs>
     <g transform="translate(91 107.596562)scale(0.1 -0.1)">
      <use xlink:href="#DejaVuSans-101"/>
      <use x="61.523438" xlink:href="#DejaVuSans-115"/>
      <use x="113.623047" xlink:href="#DejaVuSans-116"/>
      <use x="152.832031" xlink:href="#DejaVuSans-105"/>
      <use x="180.615234" xlink:href="#DejaVuSans-109"/>
      <use x="278.027344" xlink:href="#DejaVuSans-97"/>
      <use x="339.306641" xlink:href="#DejaVuSans-116"/>
      <use x="378.515625" xlink:href="#DejaVuSans-101"/>
      <use x="440.039062" xlink:href="#DejaVuSans-100"/>
     </g>
    </g>
   </g>
  </g>
 </g>
 <defs>
  <clipPath id="p05a1b15d6d">
   <rect height="133.92" width="334.8" x="54" y="76.32"/>
  </clipPath>
 </defs>
</svg>
