<?xml version="1.0" encoding="utf-8" standalone="no"?>
<!DOCTYPE svg PUBLIC "-//W3C//DTD SVG 1.1//EN"
  "http://www.w3.org/Graphics/SVG/1.1/DTD/svg11.dtd">
<!-- Created with matplotlib (https://matplotlib.org/) -->
<svg height="288pt" version="1.1" viewBox="0 0 432 288" width="432pt" xmlns="http://www.w3.org/2000/svg" xmlns:xlink="http://www.w3.org/1999/xlink">
 <defs>
  <style type="text/css">
*{stroke-linecap:butt;stroke-linejoin:round;}
  </style>
 </defs>
 <g id="figure_1">
  <g id="patch_1">
   <path d="M 0 288 
L 432 288 
L 432 0 
L 0 0 
z
" style="fill:#ffffff;"/>
  </g>
  <g id="axes_1">
   <g id="patch_2">
    <path d="M 54 210.24 
L 388.8 210.24 
L 388.8 76.32 
L 54 76.32 
z
" style="fill:#ffffff;"/>
   </g>
   <g id="matplotlib.axis_1">
    <g id="xtick_1">
     <g id="line2d_1">
      <defs>
       <path d="M 0 0 
L 0 3.5 
" id="m751207f6c8" style="stroke:#000000;stroke-width:0.8;"/>
      </defs>
      <g>
       <use style="stroke:#000000;stroke-width:0.8;" x="69.218182" xlink:href="#m751207f6c8" y="210.24"/>
      </g>
     </g>
     <g id="text_1">
      <!-- 0 -->
      <defs>
       <path d="M 31.78125 66.40625 
Q 24.171875 66.40625 20.328125 58.90625 
Q 16.5 51.421875 16.5 36.375 
Q 16.5 21.390625 20.328125 13.890625 
Q 24.171875 6.390625 31.78125 6.390625 
Q 39.453125 6.390625 43.28125 13.890625 
Q 47.125 21.390625 47.125 36.375 
Q 47.125 51.421875 43.28125 58.90625 
Q 39.453125 66.40625 31.78125 66.40625 
z
M 31.78125 74.21875 
Q 44.046875 74.21875 50.515625 64.515625 
Q 56.984375 54.828125 56.984375 36.375 
Q 56.984375 17.96875 50.515625 8.265625 
Q 44.046875 -1.421875 31.78125 -1.421875 
Q 19.53125 -1.421875 13.0625 8.265625 
Q 6.59375 17.96875 6.59375 36.375 
Q 6.59375 54.828125 13.0625 64.515625 
Q 19.53125 74.21875 31.78125 74.21875 
z
" id="DejaVuSans-48"/>
      </defs>
      <g transform="translate(66.036932 224.838437)scale(0.1 -0.1)">
       <use xlink:href="#DejaVuSans-48"/>
      </g>
     </g>
    </g>
    <g id="xtick_2">
     <g id="line2d_2">
      <g>
       <use style="stroke:#000000;stroke-width:0.8;" x="123.14512" xlink:href="#m751207f6c8" y="210.24"/>
      </g>
     </g>
     <g id="text_2">
      <!-- 1000 -->
      <defs>
       <path d="M 12.40625 8.296875 
L 28.515625 8.296875 
L 28.515625 63.921875 
L 10.984375 60.40625 
L 10.984375 69.390625 
L 28.421875 72.90625 
L 38.28125 72.90625 
L 38.28125 8.296875 
L 54.390625 8.296875 
L 54.390625 0 
L 12.40625 0 
z
" id="DejaVuSans-49"/>
      </defs>
      <g transform="translate(110.42012 224.838437)scale(0.1 -0.1)">
       <use xlink:href="#DejaVuSans-49"/>
       <use x="63.623047" xlink:href="#DejaVuSans-48"/>
       <use x="127.246094" xlink:href="#DejaVuSans-48"/>
       <use x="190.869141" xlink:href="#DejaVuSans-48"/>
      </g>
     </g>
    </g>
    <g id="xtick_3">
     <g id="line2d_3">
      <g>
       <use style="stroke:#000000;stroke-width:0.8;" x="177.072057" xlink:href="#m751207f6c8" y="210.24"/>
      </g>
     </g>
     <g id="text_3">
      <!-- 2000 -->
      <defs>
       <path d="M 19.1875 8.296875 
L 53.609375 8.296875 
L 53.609375 0 
L 7.328125 0 
L 7.328125 8.296875 
Q 12.9375 14.109375 22.625 23.890625 
Q 32.328125 33.6875 34.8125 36.53125 
Q 39.546875 41.84375 41.421875 45.53125 
Q 43.3125 49.21875 43.3125 52.78125 
Q 43.3125 58.59375 39.234375 62.25 
Q 35.15625 65.921875 28.609375 65.921875 
Q 23.96875 65.921875 18.8125 64.3125 
Q 13.671875 62.703125 7.8125 59.421875 
L 7.8125 69.390625 
Q 13.765625 71.78125 18.9375 73 
Q 24.125 74.21875 28.421875 74.21875 
Q 39.75 74.21875 46.484375 68.546875 
Q 53.21875 62.890625 53.21875 53.421875 
Q 53.21875 48.921875 51.53125 44.890625 
Q 49.859375 40.875 45.40625 35.40625 
Q 44.1875 33.984375 37.640625 27.21875 
Q 31.109375 20.453125 19.1875 8.296875 
z
" id="DejaVuSans-50"/>
      </defs>
      <g transform="translate(164.347057 224.838437)scale(0.1 -0.1)">
       <use xlink:href="#DejaVuSans-50"/>
       <use x="63.623047" xlink:href="#DejaVuSans-48"/>
       <use x="127.246094" xlink:href="#DejaVuSans-48"/>
       <use x="190.869141" xlink:href="#DejaVuSans-48"/>
      </g>
     </g>
    </g>
    <g id="xtick_4">
     <g id="line2d_4">
      <g>
       <use style="stroke:#000000;stroke-width:0.8;" x="230.998995" xlink:href="#m751207f6c8" y="210.24"/>
      </g>
     </g>
     <g id="text_4">
      <!-- 3000 -->
      <defs>
       <path d="M 40.578125 39.3125 
Q 47.65625 37.796875 51.625 33 
Q 55.609375 28.21875 55.609375 21.1875 
Q 55.609375 10.40625 48.1875 4.484375 
Q 40.765625 -1.421875 27.09375 -1.421875 
Q 22.515625 -1.421875 17.65625 -0.515625 
Q 12.796875 0.390625 7.625 2.203125 
L 7.625 11.71875 
Q 11.71875 9.328125 16.59375 8.109375 
Q 21.484375 6.890625 26.8125 6.890625 
Q 36.078125 6.890625 40.9375 10.546875 
Q 45.796875 14.203125 45.796875 21.1875 
Q 45.796875 27.640625 41.28125 31.265625 
Q 36.765625 34.90625 28.71875 34.90625 
L 20.21875 34.90625 
L 20.21875 43.015625 
L 29.109375 43.015625 
Q 36.375 43.015625 40.234375 45.921875 
Q 44.09375 48.828125 44.09375 54.296875 
Q 44.09375 59.90625 40.109375 62.90625 
Q 36.140625 65.921875 28.71875 65.921875 
Q 24.65625 65.921875 20.015625 65.03125 
Q 15.375 64.15625 9.8125 62.3125 
L 9.8125 71.09375 
Q 15.4375 72.65625 20.34375 73.4375 
Q 25.25 74.21875 29.59375 74.21875 
Q 40.828125 74.21875 47.359375 69.109375 
Q 53.90625 64.015625 53.90625 55.328125 
Q 53.90625 49.265625 50.4375 45.09375 
Q 46.96875 40.921875 40.578125 39.3125 
z
" id="DejaVuSans-51"/>
      </defs>
      <g transform="translate(218.273995 224.838437)scale(0.1 -0.1)">
       <use xlink:href="#DejaVuSans-51"/>
       <use x="63.623047" xlink:href="#DejaVuSans-48"/>
       <use x="127.246094" xlink:href="#DejaVuSans-48"/>
       <use x="190.869141" xlink:href="#DejaVuSans-48"/>
      </g>
     </g>
    </g>
    <g id="xtick_5">
     <g id="line2d_5">
      <g>
       <use style="stroke:#000000;stroke-width:0.8;" x="284.925933" xlink:href="#m751207f6c8" y="210.24"/>
      </g>
     </g>
     <g id="text_5">
      <!-- 4000 -->
      <defs>
       <path d="M 37.796875 64.3125 
L 12.890625 25.390625 
L 37.796875 25.390625 
z
M 35.203125 72.90625 
L 47.609375 72.90625 
L 47.609375 25.390625 
L 58.015625 25.390625 
L 58.015625 17.1875 
L 47.609375 17.1875 
L 47.609375 0 
L 37.796875 0 
L 37.796875 17.1875 
L 4.890625 17.1875 
L 4.890625 26.703125 
z
" id="DejaVuSans-52"/>
      </defs>
      <g transform="translate(272.200933 224.838437)scale(0.1 -0.1)">
       <use xlink:href="#DejaVuSans-52"/>
       <use x="63.623047" xlink:href="#DejaVuSans-48"/>
       <use x="127.246094" xlink:href="#DejaVuSans-48"/>
       <use x="190.869141" xlink:href="#DejaVuSans-48"/>
      </g>
     </g>
    </g>
    <g id="xtick_6">
     <g id="line2d_6">
      <g>
       <use style="stroke:#000000;stroke-width:0.8;" x="338.85287" xlink:href="#m751207f6c8" y="210.24"/>
      </g>
     </g>
     <g id="text_6">
      <!-- 5000 -->
      <defs>
       <path d="M 10.796875 72.90625 
L 49.515625 72.90625 
L 49.515625 64.59375 
L 19.828125 64.59375 
L 19.828125 46.734375 
Q 21.96875 47.46875 24.109375 47.828125 
Q 26.265625 48.1875 28.421875 48.1875 
Q 40.625 48.1875 47.75 41.5 
Q 54.890625 34.8125 54.890625 23.390625 
Q 54.890625 11.625 47.5625 5.09375 
Q 40.234375 -1.421875 26.90625 -1.421875 
Q 22.3125 -1.421875 17.546875 -0.640625 
Q 12.796875 0.140625 7.71875 1.703125 
L 7.71875 11.625 
Q 12.109375 9.234375 16.796875 8.0625 
Q 21.484375 6.890625 26.703125 6.890625 
Q 35.15625 6.890625 40.078125 11.328125 
Q 45.015625 15.765625 45.015625 23.390625 
Q 45.015625 31 40.078125 35.4375 
Q 35.15625 39.890625 26.703125 39.890625 
Q 22.75 39.890625 18.8125 39.015625 
Q 14.890625 38.140625 10.796875 36.28125 
z
" id="DejaVuSans-53"/>
      </defs>
      <g transform="translate(326.12787 224.838437)scale(0.1 -0.1)">
       <use xlink:href="#DejaVuSans-53"/>
       <use x="63.623047" xlink:href="#DejaVuSans-48"/>
       <use x="127.246094" xlink:href="#DejaVuSans-48"/>
       <use x="190.869141" xlink:href="#DejaVuSans-48"/>
      </g>
     </g>
    </g>
   </g>
   <g id="matplotlib.axis_2">
    <g id="ytick_1">
     <g id="line2d_7">
      <defs>
       <path d="M 0 0 
L -3.5 0 
" id="mbe138434b1" style="stroke:#000000;stroke-width:0.8;"/>
      </defs>
      <g>
       <use style="stroke:#000000;stroke-width:0.8;" x="54" xlink:href="#mbe138434b1" y="181.576873"/>
      </g>
     </g>
     <g id="text_7">
      <!-- −1 -->
      <defs>
       <path d="M 10.59375 35.5 
L 73.1875 35.5 
L 73.1875 27.203125 
L 10.59375 27.203125 
z
" id="DejaVuSans-8722"/>
      </defs>
      <g transform="translate(32.257812 185.376091)scale(0.1 -0.1)">
       <use xlink:href="#DejaVuSans-8722"/>
       <use x="83.789062" xlink:href="#DejaVuSans-49"/>
      </g>
     </g>
    </g>
    <g id="ytick_2">
     <g id="line2d_8">
      <g>
       <use style="stroke:#000000;stroke-width:0.8;" x="54" xlink:href="#mbe138434b1" y="141.74686"/>
      </g>
     </g>
     <g id="text_8">
      <!-- 0 -->
      <g transform="translate(40.6375 145.546079)scale(0.1 -0.1)">
       <use xlink:href="#DejaVuSans-48"/>
      </g>
     </g>
    </g>
    <g id="ytick_3">
     <g id="line2d_9">
      <g>
       <use style="stroke:#000000;stroke-width:0.8;" x="54" xlink:href="#mbe138434b1" y="101.916848"/>
      </g>
     </g>
     <g id="text_9">
      <!-- 1 -->
      <g transform="translate(40.6375 105.716067)scale(0.1 -0.1)">
       <use xlink:href="#DejaVuSans-49"/>
      </g>
     </g>
    </g>
   </g>
   <g id="line2d_10">
    <path clip-path="url(#p1563bc9093)" d="M 69.218182 142.194953 
L 69.272109 142.383846 
L 69.326036 142.220576 
L 69.43389 142.200961 
L 69.487817 142.390242 
L 69.541743 142.210958 
L 69.649597 142.202364 
L 70.350648 142.199805 
L 70.458501 142.400932 
L 70.620282 142.19533 
L 70.674209 142.390365 
L 70.728136 142.214576 
L 72.23809 142.194759 
L 72.507725 142.191196 
L 72.561652 142.392362 
L 72.615579 142.225702 
L 72.723433 142.18337 
L 72.77736 142.388817 
L 72.831287 142.218053 
L 72.939141 142.189778 
L 72.993067 142.389279 
L 73.046994 142.209044 
L 73.694118 142.191383 
L 73.748045 142.393649 
L 73.801972 142.220958 
L 74.125533 142.195107 
L 74.17946 142.388535 
L 74.233387 142.203353 
L 74.287314 142.258625 
L 74.341241 142.200031 
L 74.718729 142.211991 
L 74.826583 142.190746 
L 74.88051 142.389111 
L 74.934437 142.211876 
L 76.282611 142.183896 
L 76.336538 142.395025 
L 76.390465 142.223361 
L 76.714026 142.192919 
L 76.767953 142.38772 
L 76.82188 142.22253 
L 77.253296 142.19728 
L 77.846492 142.211292 
L 78.170053 142.185628 
L 78.547542 142.216091 
L 78.871104 142.186578 
L 79.4643 142.207703 
L 80.812473 142.203728 
L 81.136035 142.206525 
L 81.513524 142.190507 
L 81.837085 142.208823 
L 82.160647 142.180713 
L 82.214574 142.388518 
L 82.268501 142.226939 
L 82.376355 142.23025 
L 82.592062 142.194218 
L 83.400966 142.191279 
L 83.670601 142.217005 
L 84.910921 142.207704 
L 85.180555 142.189939 
L 86.798364 142.209726 
L 86.85229 142.190668 
L 86.906217 142.379372 
L 86.960144 142.217806 
L 87.607268 142.188472 
L 87.769048 142.196347 
L 87.876902 142.380141 
L 88.038683 142.232269 
L 88.09261 142.393734 
L 88.146537 142.213971 
L 88.254391 142.228483 
L 88.470099 142.194655 
L 88.739733 142.190016 
L 88.79366 142.384726 
L 88.847587 142.211809 
L 88.955441 142.198174 
L 89.171149 142.197746 
L 89.225076 142.389568 
L 89.279003 142.204091 
L 89.386857 142.253614 
L 89.49471 142.201042 
L 89.656491 142.193032 
L 90.141834 142.19606 
L 90.195761 142.385509 
L 90.249688 142.223017 
L 90.357541 142.201923 
L 90.465395 142.395097 
L 90.627176 142.186842 
L 90.842884 142.19 
L 90.896811 142.384899 
L 90.950738 142.227298 
L 91.112519 142.19237 
L 91.543934 142.195737 
L 91.759642 142.202159 
L 91.813569 142.390678 
L 91.867496 142.212859 
L 92.029276 142.192384 
L 92.298911 142.191055 
L 92.352838 142.399531 
L 92.406765 142.237226 
L 92.460692 142.24994 
L 92.514619 142.384427 
L 92.568546 142.210619 
L 92.622473 142.255464 
L 92.730327 142.192275 
L 92.999961 142.198355 
L 93.053888 142.401971 
L 93.107815 142.227598 
L 93.161742 142.270578 
L 93.215669 142.194953 
L 93.916719 142.189676 
L 93.970646 142.390489 
L 94.024573 142.215687 
L 94.186354 142.388485 
L 94.348135 142.198631 
L 94.402062 142.194035 
L 94.455989 142.388034 
L 94.509916 142.216996 
L 94.671696 142.217253 
L 94.77955 142.215544 
L 94.995258 142.215223 
L 95.31882 142.191425 
L 95.372747 142.390713 
L 95.426674 142.212404 
L 95.534527 142.195126 
L 95.588454 142.188285 
L 95.642381 142.389659 
L 95.696308 142.219313 
L 95.912016 142.249846 
L 96.127724 142.203457 
L 96.666993 142.216459 
L 96.936628 142.202325 
L 96.990555 142.191986 
L 97.044482 142.395691 
L 97.098409 142.216591 
L 97.206262 142.393855 
L 97.260189 142.198131 
L 97.475897 142.386005 
L 97.637678 142.207804 
L 97.691605 142.390272 
L 97.745532 142.195696 
L 98.015167 142.205425 
L 98.176947 142.191642 
L 98.230874 142.385033 
L 98.284801 142.220391 
L 98.392655 142.194072 
L 99.093705 142.196893 
L 99.147632 142.373661 
L 99.201559 142.211479 
L 99.36334 142.218331 
L 100.172244 142.218125 
L 100.441879 142.2052 
L 100.495806 142.205906 
L 100.549733 142.379705 
L 100.60366 142.229293 
L 100.76544 142.221152 
L 101.250783 142.399056 
L 101.30471 142.211694 
L 101.358637 142.26743 
L 101.466491 142.244802 
L 101.520417 142.392121 
L 101.574344 142.222563 
L 101.951833 142.203089 
L 102.00576 142.446834 
L 102.059687 142.258302 
L 102.221468 142.242481 
L 102.437175 142.427615 
L 102.598956 142.236158 
L 103.300006 142.228935 
L 103.353933 142.426735 
L 103.40786 142.248824 
L 103.515714 142.210521 
L 103.893203 142.25213 
L 104.108911 142.260438 
L 104.270691 142.188551 
L 108.584846 142.289326 
L 108.746627 142.252606 
L 110.040874 142.278821 
L 110.849778 142.257471 
L 111.173339 142.280519 
L 111.33512 142.252524 
L 112.629367 142.324732 
L 113.222563 142.668154 
L 113.384344 142.881854 
L 113.438271 142.812137 
L 113.492198 142.854599 
L 113.707905 143.249246 
L 113.869686 143.351585 
L 114.139321 143.681404 
L 114.247175 143.706292 
L 114.408956 143.71458 
L 114.948225 143.806331 
L 115.21786 143.978244 
L 115.541421 144.34261 
L 116.080691 144.851337 
L 116.242471 144.776316 
L 116.512106 144.188911 
L 116.727814 143.36174 
L 117.428864 140.582581 
L 117.482791 140.637354 
L 117.536718 140.549216 
L 117.698499 140.382868 
L 117.914207 140.713702 
L 118.777038 143.348587 
L 118.992745 143.511846 
L 119.26238 143.452715 
L 119.478088 143.311519 
L 119.532015 143.541124 
L 119.585942 143.269418 
L 119.639869 143.29856 
L 119.693796 143.338612 
L 119.801649 143.146424 
L 119.855576 143.188557 
L 120.125211 143.257921 
L 121.20375 143.679038 
L 121.419458 143.534703 
L 121.527311 143.698148 
L 121.581238 143.658408 
L 122.174435 144.470814 
L 122.767631 145.316205 
L 123.091193 145.40901 
L 123.84617 144.699837 
L 124.007951 144.563401 
L 124.439366 144.545532 
L 124.762928 144.640136 
L 125.032562 144.483131 
L 126.48859 141.31155 
L 126.704297 141.625146 
L 127.135713 143.326093 
L 128.214252 148.145941 
L 128.483886 148.36628 
L 129.077083 148.427816 
L 129.400644 148.91173 
L 129.885987 149.610593 
L 130.209548 149.686336 
L 130.317402 149.719978 
L 130.802745 150.133312 
L 131.126306 150.344981 
L 131.342014 150.351762 
L 131.827356 149.991056 
L 133.391238 147.410827 
L 133.822653 147.026596 
L 134.146215 146.417084 
L 135.170827 143.358556 
L 136.303292 141.60592 
L 136.680781 141.158238 
L 136.950416 141.221048 
L 137.166123 141.577831 
L 137.489685 142.593961 
L 137.975027 144.084158 
L 138.298589 144.389421 
L 138.514297 144.27019 
L 138.783931 143.813996 
L 139.538909 142.173865 
L 139.754616 142.093791 
L 139.970324 142.263814 
L 140.779228 142.97909 
L 140.994936 142.818337 
L 141.264571 142.469875 
L 141.749913 141.921258 
L 142.019548 141.840057 
L 142.450963 142.023752 
L 142.720598 142.144908 
L 143.152013 141.948453 
L 143.799137 141.635609 
L 144.176625 141.945166 
L 144.661968 142.862442 
L 144.985529 143.165788 
L 145.416945 142.6629 
L 145.794433 141.814731 
L 146.117995 141.267115 
L 146.38763 141.206387 
L 147.196534 141.800392 
L 147.627949 141.467655 
L 148.113292 140.964226 
L 148.436853 140.975734 
L 149.137903 141.642034 
L 149.623246 141.304246 
L 149.892881 140.934791 
L 150.43215 140.386882 
L 150.809639 140.373579 
L 151.025346 140.431252 
L 151.726396 140.108404 
L 152.265666 139.509621 
L 152.643154 139.565962 
L 153.07457 139.835398 
L 153.613839 140.354868 
L 153.77562 140.348384 
L 153.937401 140.391714 
L 154.153109 140.413058 
L 154.530597 140.812455 
L 154.962013 141.83163 
L 155.932698 144.799454 
L 156.849456 147.715643 
L 157.334798 149.44709 
L 158.197629 153.82063 
L 159.653656 162.372063 
L 160.732195 166.492026 
L 161.810734 173.739092 
L 163.051053 181.142878 
L 163.590323 184.760553 
L 164.3453 191.732494 
L 164.722788 194.373915 
L 165.04635 195.953858 
L 165.585619 197.545297 
L 165.963108 198.074668 
L 166.232743 198.202059 
L 166.718085 198.286244 
L 166.933793 198.622035 
L 167.365208 199.794193 
L 168.228039 203.594125 
L 168.443747 204.098062 
L 168.605528 204.043387 
L 168.92909 203.886074 
L 169.306578 203.978254 
L 169.576213 203.969005 
L 169.845848 203.632761 
L 170.385117 202.547147 
L 170.762606 201.913174 
L 171.03224 201.852529 
L 171.679363 202.830631 
L 172.056852 203.536803 
L 172.326487 203.692297 
L 172.596121 203.581837 
L 173.081464 203.20613 
L 173.351099 203.121845 
L 174.429637 203.300305 
L 175.993518 202.994367 
L 176.532788 203.035993 
L 176.856349 203.412918 
L 177.233838 204.145435 
L 177.287765 203.998985 
L 177.773107 201.976228 
L 179.229135 194.196558 
L 181.494066 175.347366 
L 181.871555 174.034219 
L 182.087262 173.5361 
L 183.435436 167.999131 
L 183.812924 166.243463 
L 184.460048 164.585477 
L 184.621828 164.24253 
L 185.64644 161.004019 
L 186.239637 158.09817 
L 187.318175 154.414156 
L 187.641737 153.463628 
L 188.558495 150.379107 
L 189.906668 147.088445 
L 190.284157 145.094286 
L 191.416623 138.665649 
L 191.794111 137.87552 
L 192.1716 137.747872 
L 192.764796 137.684879 
L 193.088358 137.080696 
L 194.490458 133.497062 
L 194.975801 132.617876 
L 195.622924 130.54945 
L 196.485755 126.950827 
L 197.025024 124.750579 
L 197.780001 122.196646 
L 198.696759 117.790601 
L 199.397809 113.823604 
L 201.069544 102.883621 
L 202.795206 93.021678 
L 204.035526 86.680141 
L 204.413015 86.445878 
L 204.574795 86.273696 
L 204.898357 85.489769 
L 205.761188 83.225684 
L 206.138677 83.047116 
L 206.408311 83.170024 
L 206.947581 83.487039 
L 207.271142 83.442513 
L 207.756485 83.025401 
L 208.457535 82.460764 
L 208.88895 82.420888 
L 209.42822 82.549874 
L 209.859635 82.804219 
L 210.291051 83.374463 
L 210.83032 84.519287 
L 211.639224 86.076442 
L 211.962786 86.056236 
L 212.232421 85.813566 
L 213.688448 82.999554 
L 214.065936 82.855837 
L 214.605206 82.939977 
L 215.144475 83.36054 
L 216.11516 83.998538 
L 216.977991 83.962775 
L 217.301553 83.993901 
L 217.571187 84.162446 
L 218.05653 85.117525 
L 218.434018 86.511778 
L 218.973288 89.57533 
L 219.836119 96.76435 
L 220.69895 105.332407 
L 221.453927 112.729281 
L 222.532466 125.036171 
L 224.851324 155.144515 
L 225.228813 156.910073 
L 225.390593 157.04541 
L 225.552374 156.853808 
L 225.822009 155.806283 
L 226.307351 152.815169 
L 226.792694 149.935028 
L 227.224109 148.60913 
L 227.601598 148.460681 
L 227.925159 148.52755 
L 229.003698 147.14499 
L 229.596895 146.52837 
L 230.405799 145.966708 
L 230.783287 145.364015 
L 231.26863 144.389575 
L 231.700045 143.763346 
L 232.023607 143.709353 
L 232.347168 143.836178 
L 232.778584 144.026653 
L 233.533561 144.198381 
L 235.151369 143.903489 
L 236.445616 143.445042 
L 236.769177 143.661015 
L 238.009497 144.474898 
L 238.65662 144.199793 
L 239.141963 143.896875 
L 239.735159 143.690973 
L 240.220501 143.708179 
L 240.490136 143.76701 
L 243.887533 144.669347 
L 244.480729 144.766755 
L 245.88283 144.919813 
L 246.152464 144.785834 
L 246.907442 144.284095 
L 247.28493 144.296635 
L 247.878126 144.494738 
L 248.201688 144.647153 
L 248.363469 144.7553 
L 249.657715 145.156084 
L 250.412692 145.038345 
L 250.790181 144.917005 
L 250.898035 144.91134 
L 251.113743 144.765492 
L 251.275523 144.806818 
L 251.760866 144.798523 
L 252.677624 145.08961 
L 253.378674 145.172264 
L 253.648309 145.334113 
L 253.864016 145.296469 
L 254.025797 145.407466 
L 257.423194 145.64763 
L 258.339952 145.796661 
L 259.580272 144.98552 
L 260.065614 144.732393 
L 260.766665 144.259314 
L 261.359861 143.355473 
L 261.845203 142.405495 
L 262.492327 141.621864 
L 262.761961 141.631329 
L 263.13945 141.977309 
L 263.948354 142.810907 
L 264.487623 142.809742 
L 265.620089 142.38176 
L 265.997577 142.497511 
L 267.022189 142.886282 
L 267.399678 142.706938 
L 267.831093 142.199579 
L 268.100728 141.79796 
L 268.909632 140.832225 
L 269.017486 140.797082 
L 269.179267 140.668005 
L 269.448901 140.640013 
L 269.772463 141.208262 
L 269.82639 141.166523 
L 269.880317 141.255683 
L 270.096025 141.618143 
L 270.203879 142.009139 
L 270.257806 141.930324 
L 270.904929 143.064825 
L 270.958856 143.123953 
L 271.120637 143.768776 
L 271.875614 143.649056 
L 272.199175 143.271268 
L 272.522737 143.108592 
L 273.16986 143.14434 
L 274.895522 144.416521 
L 275.704426 144.558541 
L 275.81228 144.508462 
L 276.081915 144.773064 
L 276.189769 144.578539 
L 276.243696 144.617463 
L 276.459403 144.583642 
L 276.51333 144.766023 
L 276.567257 144.559495 
L 276.621184 144.618355 
L 276.729038 144.330052 
L 276.782965 144.368751 
L 276.836892 144.381018 
L 276.998673 144.623571 
L 277.106527 144.654039 
L 277.160454 144.806579 
L 277.214381 144.649746 
L 277.75365 144.778847 
L 277.807577 144.691637 
L 277.861504 144.789533 
L 279.479312 144.863572 
L 279.641093 144.846411 
L 281.151047 144.673671 
L 281.582462 144.607373 
L 282.984563 144.749346 
L 283.631686 144.479082 
L 283.793467 144.272697 
L 283.901321 144.256035 
L 284.44059 144.201006 
L 284.602371 144.317596 
L 284.764152 144.137446 
L 284.818079 144.23955 
L 284.872006 144.179668 
L 285.14164 144.107733 
L 285.357348 143.987244 
L 285.842691 143.904131 
L 286.004471 143.712272 
L 286.166252 143.593552 
L 286.220179 143.714518 
L 286.274106 143.659932 
L 286.489814 143.388359 
L 286.921229 143.110688 
L 287.298718 143.099619 
L 287.891914 143.299852 
L 288.48511 142.996688 
L 288.754745 142.584843 
L 289.401868 141.461059 
L 289.671503 141.257134 
L 289.941138 141.326885 
L 290.210773 141.686122 
L 291.235384 143.418783 
L 291.720727 143.439641 
L 292.152142 143.468397 
L 292.475704 143.767799 
L 292.961046 144.58081 
L 293.338535 145.073023 
L 293.60817 145.160147 
L 293.823877 144.985064 
L 294.147439 144.419938 
L 294.794562 142.676687 
L 295.064197 142.093394 
L 295.657393 141.533983 
L 296.574151 141.995296 
L 297.275201 140.825669 
L 298.084105 138.827924 
L 298.461594 138.555557 
L 298.893009 138.677161 
L 299.540133 138.963148 
L 300.079402 138.857243 
L 300.29511 138.760229 
L 302.39826 138.261829 
L 303.315018 138.734393 
L 303.800361 138.507673 
L 303.854288 138.721341 
L 304.016069 138.273821 
L 304.33963 138.067103 
L 304.932826 138.717141 
L 305.310315 139.505064 
L 306.065292 141.622071 
L 306.496708 142.954223 
L 306.604562 143.012004 
L 306.658488 142.938426 
L 306.712415 143.02088 
L 307.035977 143.224802 
L 307.359539 142.880547 
L 308.168443 140.943095 
L 308.492004 140.291913 
L 308.869493 139.562704 
L 309.193055 139.854838 
L 309.408762 139.825048 
L 309.678397 140.665444 
L 310.109813 142.678546 
L 310.163739 142.561025 
L 310.433374 142.025483 
L 310.595155 142.278359 
L 310.649082 142.154112 
L 310.703009 142.095724 
L 310.86479 142.219425 
L 310.918717 142.092471 
L 310.972644 142.205502 
L 311.242278 142.204556 
L 311.619767 142.204009 
L 313.776844 142.216359 
L 313.938625 142.088634 
L 314.262187 142.017675 
L 314.531821 141.989673 
L 315.448579 142.158219 
L 315.826068 142.158013 
L 316.14963 142.13735 
L 316.365337 142.135646 
L 316.527118 141.792589 
L 316.634972 142.145601 
L 316.742826 141.81125 
L 316.904607 142.181297 
L 317.336022 142.16449 
L 317.821365 142.173116 
L 317.929218 141.832425 
L 318.037072 142.172059 
L 318.090999 141.819961 
L 318.144926 141.829787 
L 318.306707 142.170337 
L 318.522415 142.17084 
L 318.576342 141.814605 
L 318.630269 141.834795 
L 318.792049 142.166712 
L 318.845976 141.80451 
L 318.899903 141.818058 
L 318.95383 142.16939 
L 319.007757 141.869131 
L 319.115611 141.808021 
L 319.223465 142.175881 
L 319.331319 141.771677 
L 319.385246 142.175126 
L 319.439173 141.856641 
L 319.600954 141.796955 
L 319.708807 142.174787 
L 319.816661 142.201686 
L 319.870588 141.782273 
L 319.978442 141.848631 
L 320.086296 142.198807 
L 320.140223 141.798996 
L 320.19415 142.189218 
L 320.248077 142.194544 
L 320.409858 141.826048 
L 320.571638 141.828141 
L 320.787346 141.842111 
L 320.841273 142.174441 
L 320.8952 141.872424 
L 320.949127 141.800267 
L 321.110908 142.174359 
L 321.488396 142.191439 
L 321.758031 142.184775 
L 321.865885 141.820241 
L 322.027666 142.182979 
L 322.13552 142.181195 
L 322.189447 141.822461 
L 322.243373 141.882706 
L 322.2973 142.183868 
L 322.405154 141.788209 
L 322.459081 141.809942 
L 322.620862 142.185139 
L 322.728716 142.173777 
L 322.890497 141.798604 
L 322.944424 142.171077 
L 322.998351 141.861198 
L 323.106204 141.804391 
L 323.267985 142.179221 
L 323.429766 142.178014 
L 323.53762 141.845501 
L 323.699401 142.182754 
L 323.807255 141.790472 
L 323.861182 141.817736 
L 323.915109 142.17303 
L 323.969036 141.841123 
L 324.076889 141.787682 
L 324.184743 142.176363 
L 324.292597 141.822326 
L 324.346524 141.832987 
L 324.508305 142.191876 
L 324.93972 142.182278 
L 325.101501 142.173675 
L 325.209355 141.839511 
L 325.263282 141.854075 
L 325.371136 142.180888 
L 325.47899 141.799959 
L 325.532917 142.175743 
L 325.586844 141.862339 
L 325.748624 141.821038 
L 325.802551 142.176048 
L 325.856478 141.878007 
L 325.964332 141.837925 
L 326.018259 142.175518 
L 326.072186 141.792064 
L 326.126113 141.823653 
L 326.18004 141.847617 
L 326.233967 142.168266 
L 326.287894 141.826366 
L 326.449675 141.817112 
L 326.557529 142.171721 
L 326.665382 141.814443 
L 326.719309 142.179565 
L 326.773236 141.823061 
L 326.827163 141.836954 
L 326.988944 142.174928 
L 327.58214 142.171501 
L 327.689994 141.844838 
L 327.851775 142.176355 
L 330.76383 142.177386 
L 330.817757 141.783896 
L 330.871684 141.834249 
L 331.033464 142.180928 
L 331.141318 142.176309 
L 331.249172 141.878169 
L 331.410953 142.17893 
L 332.273784 142.183142 
L 332.705199 142.177759 
L 332.759126 141.845143 
L 332.813053 141.867876 
L 332.974834 142.183414 
L 333.56803 142.188693 
L 333.621957 141.824477 
L 333.675884 141.8737 
L 333.783738 142.180024 
L 333.837665 141.805611 
L 333.891592 142.174096 
L 334.053373 141.7976 
L 334.1073 141.773266 
L 334.161227 142.185347 
L 334.215154 142.176619 
L 334.376934 141.805237 
L 334.538715 142.181413 
L 334.754423 142.189749 
L 334.80835 141.821362 
L 334.862277 141.85648 
L 334.970131 142.18523 
L 335.024058 142.173892 
L 335.077985 141.809385 
L 335.131912 141.867666 
L 335.239765 142.18312 
L 335.293692 142.172539 
L 335.779035 142.184631 
L 335.940816 141.79623 
L 336.04867 142.180217 
L 336.102596 142.172124 
L 336.695793 142.180812 
L 336.74972 142.164848 
L 336.857574 141.85317 
L 336.965427 142.190821 
L 337.019354 142.174892 
L 337.342916 142.17624 
L 337.396843 141.776465 
L 337.45077 141.830778 
L 337.612551 142.17823 
L 338.205747 142.173962 
L 338.313601 141.809334 
L 338.367528 142.184552 
L 338.421455 141.833217 
L 338.475382 141.848801 
L 338.637163 142.180663 
L 338.691089 142.174102 
L 338.798943 141.800114 
L 338.906797 142.181223 
L 338.960724 142.167836 
L 340.254971 142.183846 
L 340.848167 142.182456 
L 341.063875 142.177709 
L 341.171729 141.764254 
L 341.333509 142.182281 
L 342.088487 142.166441 
L 342.681683 142.175626 
L 342.789537 141.773017 
L 342.951318 142.175638 
L 343.598441 142.170066 
L 343.652368 141.820611 
L 343.706295 141.860915 
L 343.868076 142.175769 
L 344.892687 142.180982 
L 345.971226 142.171877 
L 346.07908 141.806507 
L 346.240861 142.175944 
L 347.211546 142.186088 
L 347.3194 141.817391 
L 347.427253 142.176152 
L 347.48118 141.788715 
L 347.535107 141.81887 
L 347.696888 142.169266 
L 348.182231 142.178215 
L 348.236157 141.807908 
L 348.290084 141.839955 
L 348.451865 142.174468 
L 348.505792 141.805511 
L 348.559719 141.831248 
L 348.7215 142.186101 
L 348.775427 142.178753 
L 348.883281 141.798951 
L 349.045062 142.178901 
L 350.447162 142.172738 
L 350.82465 142.173067 
L 352.442459 142.176957 
L 352.550312 141.808821 
L 352.712093 142.186461 
L 352.927801 142.168167 
L 352.981728 141.816498 
L 353.035655 141.829455 
L 353.197436 142.179351 
L 354.114194 142.173494 
L 354.437755 142.168713 
L 354.545609 141.818938 
L 354.70739 142.166877 
L 354.761317 142.175445 
L 354.815244 141.808882 
L 354.869171 141.841079 
L 354.977025 142.189284 
L 355.030952 141.805059 
L 355.084879 141.815057 
L 355.246659 142.180512 
L 355.354513 142.177919 
L 355.462367 141.839973 
L 355.624148 142.179072 
L 355.839856 142.171848 
L 356.001636 141.828354 
L 356.10949 142.180983 
L 356.217344 141.790904 
L 356.271271 141.807633 
L 356.379125 142.17232 
L 356.486979 141.810958 
L 356.64876 142.182311 
L 356.810541 142.178041 
L 356.918394 141.819318 
L 357.080175 142.184733 
L 357.188029 141.802771 
L 357.34981 142.179193 
L 357.403737 141.79034 
L 357.457664 142.174088 
L 357.781225 142.183223 
L 357.835152 141.810834 
L 357.889079 141.833598 
L 357.996933 142.183498 
L 358.104787 141.784693 
L 358.158714 142.179118 
L 358.212641 141.839237 
L 358.482276 141.829887 
L 358.859764 141.811857 
L 358.967618 142.188276 
L 359.021545 141.809301 
L 359.075472 141.818671 
L 359.183326 142.189345 
L 359.237253 142.160178 
L 359.29118 141.786478 
L 359.345107 141.821718 
L 359.506887 142.182572 
L 360.69328 142.174056 
L 360.801134 141.837786 
L 360.962915 142.183717 
L 361.340403 142.188998 
L 361.9336 142.17935 
L 361.987527 141.880898 
L 362.041454 142.169251 
L 362.742504 142.184089 
L 362.850358 141.801551 
L 362.904285 142.177964 
L 362.958211 141.83573 
L 363.012138 141.815991 
L 363.173919 142.174725 
L 363.281773 141.801316 
L 363.389627 142.171218 
L 363.497481 141.766051 
L 363.551408 141.819036 
L 363.713189 142.183726 
L 363.767116 141.793736 
L 363.821042 141.843103 
L 363.874969 142.174328 
L 363.928896 141.832677 
L 363.982823 141.802674 
L 364.144604 142.176169 
L 364.306385 142.176699 
L 364.414239 141.797856 
L 364.468166 142.19068 
L 364.57602 142.175658 
L 365.061362 142.178578 
L 365.330997 142.185059 
L 365.438851 141.799222 
L 365.600631 142.193829 
L 365.654558 141.800507 
L 365.708485 141.835271 
L 365.762412 142.17352 
L 365.816339 141.792455 
L 365.870266 141.806594 
L 365.924193 142.173999 
L 365.97812 141.876375 
L 366.139901 141.793684 
L 366.193828 142.17668 
L 366.247755 141.8092 
L 366.301682 141.805297 
L 366.463462 142.173074 
L 366.517389 142.179186 
L 366.571316 141.801331 
L 366.625243 142.17785 
L 366.67917 142.179139 
L 366.787024 141.824657 
L 366.948805 142.176459 
L 367.110586 142.178891 
L 367.21844 141.870867 
L 367.326293 142.188513 
L 367.38022 142.173295 
L 367.865563 142.177327 
L 367.973417 141.792257 
L 368.135197 142.179113 
L 368.243051 141.798684 
L 368.296978 141.827302 
L 368.350905 142.173554 
L 368.404832 141.875716 
L 368.512686 141.828117 
L 368.566613 142.172031 
L 368.62054 141.851157 
L 368.674467 141.836083 
L 368.782321 142.177636 
L 368.944102 141.849887 
L 368.998028 142.17333 
L 369.051955 141.850356 
" style="fill:none;stroke:#1f77b4;stroke-linecap:square;stroke-width:1.5;"/>
   </g>
   <g id="line2d_11">
    <path clip-path="url(#p1563bc9093)" d="M 69.218182 141.74686 
L 69.379963 141.74686 
L 69.43389 141.895507 
L 69.487817 141.841047 
L 69.703524 141.763467 
L 69.811378 141.99923 
L 69.865305 141.900175 
L 69.919232 141.843421 
L 70.13494 142.043179 
L 70.350648 141.793579 
L 70.512428 141.761038 
L 70.566355 141.908176 
L 70.620282 141.844396 
L 70.889917 141.758799 
L 70.997771 141.996786 
L 71.051698 141.898675 
L 71.105625 141.842522 
L 71.159552 141.958297 
L 71.213479 141.875197 
L 71.267405 141.828355 
L 71.321332 141.945051 
L 71.375259 141.871283 
L 71.698821 141.759142 
L 71.860602 141.75222 
L 71.968456 141.994594 
L 72.022383 141.901502 
L 72.184163 141.783393 
L 72.292017 142.010687 
L 72.345944 141.911644 
L 72.561652 141.777254 
L 72.615579 141.918188 
L 72.669506 141.850404 
L 72.723433 141.812869 
L 72.77736 141.939819 
L 72.831287 141.868095 
L 73.100921 141.757406 
L 73.47841 141.749316 
L 73.532337 141.8966 
L 73.586264 141.840697 
L 73.640191 141.802746 
L 73.694118 141.933611 
L 73.748045 141.868401 
L 74.017679 141.763436 
L 74.17946 141.755675 
L 74.233387 141.90487 
L 74.287314 141.84633 
L 74.341241 141.810361 
L 74.395168 141.934103 
L 74.449095 141.863662 
L 74.718729 141.76202 
L 74.772656 141.758525 
L 74.826583 141.902237 
L 74.88051 141.844733 
L 74.988364 141.78089 
L 75.042291 141.920149 
L 75.096218 141.851602 
L 75.204072 141.787699 
L 75.257999 141.920217 
L 75.311926 141.851699 
L 75.41978 141.783723 
L 75.473707 141.92186 
L 75.527634 141.856917 
L 75.689414 141.771588 
L 75.743341 141.910439 
L 75.797268 141.850043 
L 76.066903 141.758604 
L 76.174757 141.75111 
L 76.282611 141.998612 
L 76.336538 141.904211 
L 76.444391 141.805926 
L 76.498318 141.931557 
L 76.552245 141.85876 
L 76.606172 141.813849 
L 76.660099 141.944549 
L 76.714026 141.870005 
L 76.983661 141.763526 
L 77.037588 141.759584 
L 77.091515 141.907048 
L 77.145442 141.847939 
L 77.199369 141.814923 
L 77.253296 141.936903 
L 77.307222 141.862042 
L 77.415076 141.794645 
L 77.469003 141.924131 
L 77.52293 141.854013 
L 77.630784 141.784474 
L 77.684711 141.922583 
L 77.738638 141.857162 
L 78.0622 141.760031 
L 78.331834 141.749831 
L 78.385761 141.901046 
L 78.439688 141.839842 
L 78.601469 141.774364 
L 78.76325 141.962129 
L 78.871104 141.832143 
L 78.925031 141.951943 
L 78.978958 141.874506 
L 79.140738 141.779694 
L 79.248592 142.002102 
L 79.302519 141.901958 
L 79.410373 141.805012 
L 79.4643 141.93518 
L 79.518227 141.856995 
L 79.626081 141.790118 
L 79.680008 141.921601 
L 79.733935 141.856681 
L 80.003569 141.760186 
L 80.596766 141.747068 
L 80.650693 141.895396 
L 80.70462 141.840253 
L 81.028181 141.754799 
L 81.243889 141.753597 
L 81.297816 141.903315 
L 81.351743 141.845015 
L 81.567451 141.762066 
L 81.621377 141.904612 
L 81.675304 141.846497 
L 81.998866 141.758498 
L 82.10672 141.99748 
L 82.160647 141.903585 
L 82.430282 141.764139 
L 82.484208 141.755845 
L 82.538135 141.904998 
L 82.592062 141.845813 
L 82.645989 141.81025 
L 82.699916 141.93818 
L 82.753843 141.866317 
L 82.915624 141.779555 
L 83.023478 142.006844 
L 83.077405 141.909062 
L 83.347039 141.764305 
L 83.616674 141.748434 
L 83.670601 141.904829 
L 83.724528 141.846294 
L 83.940236 141.765433 
L 83.994163 141.906594 
L 84.04809 141.851742 
L 84.263797 141.760508 
L 84.371651 141.991504 
L 84.425578 141.895618 
L 84.695213 141.759836 
L 84.74914 141.753228 
L 84.803067 141.89902 
L 84.856994 141.84225 
L 84.964848 141.782906 
L 85.018775 141.917159 
L 85.072702 141.853382 
L 85.342336 141.759505 
L 85.396263 141.907236 
L 85.45019 141.843874 
L 85.611971 141.771879 
L 85.665898 141.914272 
L 85.719825 141.847373 
L 85.989459 141.757319 
L 87.661195 141.743989 
L 87.715121 141.893431 
L 87.769048 141.839631 
L 88.038683 141.755312 
L 88.09261 141.754708 
L 88.146537 141.904012 
L 88.200464 141.841848 
L 88.416172 141.760658 
L 88.577952 141.961408 
L 88.79366 141.782325 
L 88.901514 141.755944 
L 88.955441 141.900075 
L 89.009368 141.843116 
L 89.117222 141.787103 
L 89.171149 141.91968 
L 89.225076 141.851471 
L 89.33293 141.794054 
L 89.386857 141.924233 
L 89.440783 141.854237 
L 89.710418 141.762961 
L 90.03398 141.745548 
L 90.087907 141.894473 
L 90.141834 141.840357 
L 90.303614 141.769456 
L 90.357541 141.909149 
L 90.411468 141.84493 
L 90.573249 141.768812 
L 90.627176 141.908014 
L 90.681103 141.844067 
L 90.788957 141.787488 
L 90.842884 141.920181 
L 90.896811 141.851616 
L 91.004665 141.790533 
L 91.166445 141.963231 
L 91.382153 141.780674 
L 91.543934 141.759463 
L 91.597861 141.906959 
L 91.651788 141.847938 
L 91.759642 141.7845 
L 91.97535 142.091471 
L 92.191057 141.800093 
L 92.298911 142.006308 
L 92.352838 141.904783 
L 92.460692 141.806563 
L 92.568546 142.012852 
L 92.622473 141.908726 
L 92.730327 141.805506 
L 92.892107 141.967466 
L 92.999961 142.072191 
L 93.107815 141.868993 
L 93.161742 141.974601 
L 93.323523 141.79217 
L 93.37745 141.927356 
L 93.431377 141.856321 
L 93.485304 141.820544 
L 93.593158 142.013398 
L 93.647085 141.91335 
L 93.916719 141.762192 
L 93.970646 141.754668 
L 94.132427 141.960266 
L 94.348135 141.777498 
L 94.77955 141.750906 
L 94.887404 141.987831 
L 94.941331 141.892381 
L 94.995258 141.838656 
L 95.049185 141.955816 
L 95.103112 141.877674 
L 95.31882 141.765716 
L 95.426674 142.00018 
L 95.4806 141.901085 
L 95.750235 141.764833 
L 97.044482 141.745713 
L 97.206262 142.048032 
L 97.42197 141.789719 
L 98.015167 141.744237 
L 98.069093 141.747679 
L 98.284801 142.083761 
L 98.338728 142.102329 
L 98.500509 141.83423 
L 98.554436 141.948393 
L 98.608363 141.877252 
L 98.66229 141.825229 
L 98.716217 141.947393 
L 98.770144 141.872847 
L 99.039778 141.760752 
L 99.201559 141.955647 
L 99.417267 141.78057 
L 99.579048 141.754147 
L 99.632975 141.903566 
L 99.686902 141.845546 
L 99.740829 141.80573 
L 99.794755 141.935315 
L 99.848682 141.86094 
L 100.118317 141.761006 
L 100.387952 141.745176 
L 100.441879 141.898104 
L 100.495806 141.837718 
L 100.657586 141.77278 
L 100.711513 141.915435 
L 100.76544 141.852986 
L 101.035075 141.756558 
L 101.089002 141.905283 
L 101.142929 141.846825 
L 101.412564 141.760251 
L 101.574344 141.746717 
L 101.628271 141.903172 
L 101.682198 141.844892 
L 101.790052 141.787429 
L 101.951833 141.965817 
L 102.167541 141.786611 
L 102.760737 141.743542 
L 102.814664 141.892949 
L 102.868591 141.83512 
L 103.030372 141.76913 
L 103.084299 141.908616 
L 103.138226 141.844907 
L 103.300006 141.774512 
L 103.461787 141.959001 
L 103.623568 141.888757 
L 103.731422 142.041374 
L 103.893203 141.823718 
L 103.94713 141.946312 
L 104.001057 141.872231 
L 104.270691 141.756245 
L 104.324618 141.755032 
L 104.378545 141.899983 
L 104.432472 141.839444 
L 104.64818 141.762979 
L 104.702107 141.908979 
L 104.756034 141.840259 
L 104.863888 141.783445 
L 104.971742 142.005565 
L 105.025668 141.90447 
L 105.295303 141.762191 
L 105.457084 141.755439 
L 105.511011 141.900361 
L 105.564938 141.843583 
L 105.834573 141.761122 
L 105.942426 141.995633 
L 105.996353 141.902632 
L 106.265988 141.762323 
L 106.319915 141.758651 
L 106.427769 141.997397 
L 106.481696 141.903657 
L 106.535623 141.845516 
L 106.697404 141.973006 
L 106.913111 141.777767 
L 107.452381 141.751223 
L 107.506308 141.902289 
L 107.560235 141.841045 
L 107.722015 141.77132 
L 107.829869 141.997876 
L 107.883796 141.899737 
L 107.937723 141.993363 
L 107.99165 141.896959 
L 108.099504 141.811261 
L 108.153431 141.93625 
L 108.207358 141.86441 
L 108.423066 141.765876 
L 108.476992 141.91 
L 108.530919 141.844948 
L 108.746627 141.761853 
L 108.800554 141.908563 
L 108.854481 141.844729 
L 109.178043 141.751162 
L 109.339823 141.746085 
L 109.447677 141.990622 
L 109.501604 141.895246 
L 109.771239 141.756633 
L 109.93302 141.749752 
L 110.094801 141.963202 
L 110.364435 141.712739 
L 110.418362 141.722933 
L 110.472289 141.879669 
L 110.526216 141.83067 
L 110.63407 141.775206 
L 110.687997 141.916551 
L 110.741924 141.853684 
L 111.011559 141.758549 
L 111.065485 141.756247 
L 111.173339 141.222693 
L 111.281193 140.855602 
L 111.442974 141.594068 
L 111.496901 141.344325 
L 111.604755 140.781119 
L 111.820463 142.151004 
L 111.87439 141.697311 
L 111.982243 140.771249 
L 112.090097 141.887332 
L 112.251878 144.321014 
L 112.413659 143.142042 
L 112.467586 143.404949 
L 112.521513 143.705925 
L 112.57544 143.553498 
L 112.737221 142.569579 
L 112.791147 142.590527 
L 112.845074 142.593415 
L 112.952928 140.291427 
L 113.168636 146.309893 
L 113.222563 145.672744 
L 113.438271 142.176116 
L 113.761832 144.273153 
L 114.247175 142.343056 
L 114.408956 143.795324 
L 114.462883 143.517884 
L 114.570736 143.205892 
L 114.732517 145.358926 
L 114.786444 145.239807 
L 114.840371 145.137048 
L 115.056079 146.229464 
L 115.21786 143.602389 
L 115.325714 144.819099 
L 115.37964 144.562671 
L 115.649275 143.148089 
L 115.864983 144.555878 
L 115.91891 144.065167 
L 116.188545 141.123178 
L 116.350325 140.56184 
L 116.458179 138.446702 
L 116.566033 141.935112 
L 116.727814 139.563898 
L 116.835668 140.293392 
L 116.889595 140.111067 
L 116.997449 140.336686 
L 117.159229 140.884697 
L 117.374937 141.060383 
L 117.536718 141.387766 
L 117.806353 142.773323 
L 118.02206 142.509851 
L 118.237768 143.082236 
L 118.291695 142.981926 
L 118.669184 142.309671 
L 118.884891 142.090667 
L 118.992745 142.383301 
L 119.046672 142.363744 
L 119.26238 142.871942 
L 119.316307 142.804996 
L 119.370234 142.785784 
L 119.585942 143.427851 
L 119.693796 142.882018 
L 119.747722 143.456451 
L 119.801649 143.419736 
L 119.909503 142.291344 
L 119.96343 142.503943 
L 120.071284 142.959475 
L 120.233065 142.233937 
L 120.880188 143.82891 
L 120.988042 143.883595 
L 121.149823 144.859564 
L 121.257677 144.784509 
L 121.365531 144.666299 
L 121.473384 144.387697 
L 121.527311 144.258395 
L 121.581238 144.356628 
L 121.635165 144.424316 
L 121.689092 144.320364 
L 121.9048 143.579067 
L 122.012654 143.417979 
L 122.282289 142.614994 
L 122.336215 142.56098 
L 122.390142 142.631805 
L 122.497996 143.507757 
L 122.551923 143.231312 
L 122.713704 142.808782 
L 122.983339 143.189443 
L 123.091193 142.955362 
L 123.3069 143.368301 
L 123.414754 142.960549 
L 123.468681 143.08657 
L 123.630462 144.162969 
L 123.684389 144.14768 
L 123.954024 144.000624 
L 124.115804 143.913548 
L 124.331512 144.49053 
L 124.709001 142.742867 
L 124.870782 141.136747 
L 125.032562 141.526207 
L 125.086489 141.498677 
L 125.302197 141.14765 
L 125.463978 140.851531 
L 125.517905 140.861754 
L 125.679686 140.103343 
L 125.787539 140.31551 
L 126.057174 141.653939 
L 126.65037 145.36688 
L 126.758224 145.155427 
L 126.812151 145.147044 
L 127.135713 146.946348 
L 127.459275 150.304052 
L 127.513201 150.425841 
L 127.728909 148.821877 
L 127.782836 148.965677 
L 127.944617 149.979203 
L 128.214252 148.177369 
L 128.429959 149.137101 
L 128.483886 149.064691 
L 128.753521 149.934588 
L 128.969229 150.999112 
L 129.238863 150.779986 
L 129.400644 150.518276 
L 129.778133 151.318758 
L 129.83206 151.278032 
L 129.939914 151.20333 
L 129.993841 151.031226 
L 130.209548 151.947443 
L 130.263475 151.89019 
L 130.425256 151.878193 
L 130.910599 150.455682 
L 131.126306 151.310103 
L 131.719503 148.386259 
L 132.096991 146.39309 
L 132.150918 146.399163 
L 132.312699 147.580744 
L 132.47448 148.968963 
L 132.528407 148.874847 
L 132.905895 145.47342 
L 133.067676 145.165525 
L 133.121603 145.31768 
L 133.283384 145.444426 
L 133.606945 144.281912 
L 133.768726 142.951098 
L 133.822653 142.981608 
L 133.930507 142.919259 
L 134.200142 142.278833 
L 134.307996 141.890879 
L 134.361923 141.961709 
L 134.631557 141.942701 
L 135.009046 141.411119 
L 135.1169 139.096597 
L 135.27868 141.41162 
L 135.440461 142.599083 
L 135.494388 142.54724 
L 135.925804 140.586863 
L 135.979731 140.521267 
L 136.357219 142.034008 
L 136.572927 143.302428 
L 136.626854 143.220537 
L 136.734708 143.162834 
L 136.842562 143.401141 
L 136.950416 141.073871 
L 137.004343 141.20819 
L 137.22005 144.844243 
L 137.273977 144.711109 
L 137.327904 144.871528 
L 137.543612 145.915734 
L 137.597539 145.905786 
L 137.975027 144.452269 
L 138.783931 141.710992 
L 138.945712 141.623261 
L 139.053566 141.297037 
L 139.107493 141.401214 
L 139.215347 142.075535 
L 139.323201 143.011308 
L 139.538909 140.936794 
L 139.592836 141.373004 
L 139.754616 142.71628 
L 139.86247 142.765685 
L 140.078178 142.516487 
L 140.186032 142.474945 
L 140.347813 142.712427 
L 140.455667 142.398111 
L 140.671374 141.820278 
L 140.779228 141.500615 
L 140.887082 141.872928 
L 140.941009 141.832666 
L 141.210644 141.048243 
L 141.264571 141.062606 
L 141.318498 140.910952 
L 141.372424 140.959717 
L 141.534205 141.357942 
L 141.965621 140.039372 
L 142.073475 140.084935 
L 142.181329 140.296309 
L 142.343109 140.537429 
L 142.558817 140.53305 
L 142.990233 141.679336 
L 143.098086 142.355917 
L 143.152013 141.836736 
L 143.20594 142.012543 
L 143.259867 142.56591 
L 143.313794 142.150936 
L 143.367721 141.551147 
L 143.421648 142.056263 
L 143.475575 142.259409 
L 143.529502 142.108335 
L 143.637356 142.288533 
L 143.906991 143.240453 
L 143.960917 143.272536 
L 144.014844 143.127502 
L 144.068771 143.208824 
L 144.44626 143.903169 
L 144.877675 141.979971 
L 145.201237 141.367424 
L 145.255164 141.365791 
L 145.309091 141.249852 
L 145.363018 141.345393 
L 145.686579 141.48168 
L 145.794433 141.46819 
L 145.956214 141.717378 
L 146.010141 141.583787 
L 146.064068 141.646252 
L 146.171922 141.967567 
L 146.225849 141.855347 
L 146.441557 142.008067 
L 146.657264 141.65982 
L 146.765118 141.643628 
L 146.980826 141.319501 
L 147.034753 141.307563 
L 147.250461 140.647543 
L 147.358315 141.095711 
L 147.412241 141.354104 
L 147.520095 140.744416 
L 147.574022 140.814239 
L 147.681876 140.632222 
L 147.735803 140.647603 
L 148.221146 141.973712 
L 148.275072 141.909858 
L 148.382926 141.767406 
L 149.083977 139.598227 
L 149.299684 139.402513 
L 149.353611 139.382452 
L 149.461465 139.156596 
L 149.677173 139.439029 
L 149.785027 139.461001 
L 150.054661 140.017659 
L 150.108588 139.836548 
L 150.162515 140.000494 
L 150.216442 140.071651 
L 150.324296 139.860844 
L 150.378223 139.96757 
L 150.43215 140.034069 
L 150.486077 139.929742 
L 151.294981 138.976569 
L 151.510689 138.949165 
L 151.564616 139.108335 
L 151.618543 139.072667 
L 151.780323 139.088407 
L 151.996031 139.544049 
L 152.157812 139.31775 
L 152.319593 139.538516 
L 152.427447 139.733393 
L 152.589227 139.626144 
L 152.966716 139.883433 
L 153.128497 139.826581 
L 153.182424 139.974216 
L 153.236351 139.951549 
L 153.398132 139.959453 
L 153.613839 140.298658 
L 153.829547 140.582388 
L 154.045255 141.134063 
L 154.47667 143.161235 
L 154.746305 143.800398 
L 154.854159 144.720503 
L 154.908086 144.513045 
L 155.069867 144.695745 
L 155.609136 146.670863 
L 155.663063 146.695516 
L 156.579821 149.816769 
L 157.874067 158.105599 
L 158.305483 161.359094 
L 159.707583 166.45561 
L 160.031145 168.650312 
L 160.085072 168.636801 
L 161.055757 175.901448 
L 161.379318 178.556495 
L 161.433245 178.596698 
L 162.242149 182.861965 
L 162.350003 183.019483 
L 162.673565 185.708835 
L 162.727492 184.987215 
L 163.212834 191.105153 
L 163.752104 195.476157 
L 163.967811 196.566725 
L 164.129592 197.154939 
L 164.399227 198.021933 
L 164.561008 198.452557 
L 164.668862 198.854939 
L 164.722788 198.772116 
L 164.884569 198.672091 
L 165.100277 198.929588 
L 165.154204 198.818913 
L 165.208131 198.893553 
L 165.423839 198.965796 
L 165.531693 198.696701 
L 165.693473 199.158786 
L 165.855254 198.806533 
L 165.909181 198.587972 
L 165.963108 198.618102 
L 166.28667 199.876628 
L 166.502377 200.514328 
L 166.610231 201.145725 
L 166.664158 201.035391 
L 166.98772 202.821026 
L 167.203428 203.890177 
L 167.365208 203.805721 
L 167.68877 203.080419 
L 167.742697 203.088681 
L 167.904478 202.764989 
L 167.958405 202.792834 
L 168.120186 203.010023 
L 168.174112 202.94133 
L 168.228039 203.044364 
L 168.443747 203.411891 
L 168.551601 203.624236 
L 168.605528 203.567579 
L 169.036943 203.319004 
L 169.252651 202.482351 
L 169.468359 202.053152 
L 169.522286 202.033741 
L 169.899774 201.152065 
L 170.007628 201.088832 
L 170.223336 201.347722 
L 170.439044 201.549943 
L 170.492971 201.544538 
L 171.247948 203.280968 
L 171.625437 202.84751 
L 171.679363 202.913256 
L 171.73329 202.839488 
L 172.056852 202.495297 
L 172.110779 202.605828 
L 172.27256 202.604795 
L 172.488268 202.454357 
L 172.757902 202.808999 
L 172.919683 202.789825 
L 173.081464 202.724155 
L 173.405025 202.945575 
L 173.620733 202.761072 
L 173.890368 202.90111 
L 174.591418 202.773311 
L 175.022834 202.753307 
L 175.238541 202.668602 
L 175.723884 202.261064 
L 175.885665 201.6145 
L 176.155299 200.144359 
L 176.478861 196.927841 
L 176.748496 191.388562 
L 176.910276 183.997807 
L 177.072057 166.940493 
L 177.611327 87.97268 
L 177.827034 84.041296 
L 177.934888 83.849074 
L 178.042742 84.355018 
L 178.150596 85.966146 
L 178.312377 94.896395 
L 178.474158 121.041671 
L 178.797719 181.873735 
L 179.013427 186.995784 
L 179.121281 187.225529 
L 179.283062 186.040004 
L 179.66055 181.914987 
L 180.19982 176.997982 
L 180.739089 174.736927 
L 180.846943 174.442817 
L 180.90087 174.489734 
L 180.954797 174.531283 
L 181.008724 174.454048 
L 181.709774 172.334864 
L 182.30297 168.929716 
L 183.165801 165.581858 
L 183.273655 165.553079 
L 183.597217 164.562603 
L 183.651144 164.603555 
L 183.705071 164.649585 
L 184.513975 161.903823 
L 184.621828 161.369789 
L 184.675755 161.433846 
L 184.783609 160.758211 
L 185.161098 158.491982 
L 185.538586 156.839062 
L 185.754294 156.133332 
L 186.131783 154.906831 
L 186.18571 154.999955 
L 186.239637 155.092998 
L 186.832833 152.723833 
L 186.994614 152.290768 
L 187.533883 150.272769 
L 187.803518 149.362694 
L 187.911372 148.849916 
L 187.965299 149.023989 
L 188.019226 149.256024 
L 188.073153 149.232975 
L 188.342787 148.834417 
L 188.720276 147.707016 
L 188.774203 147.713314 
L 189.259545 144.252157 
L 189.313472 144.327261 
L 189.421326 144.428625 
L 189.52918 143.588133 
L 189.852741 141.115817 
L 190.014522 140.362941 
L 190.23023 138.859304 
L 190.338084 138.461738 
L 190.607719 136.331986 
L 190.715572 136.756481 
L 190.877353 137.5137 
L 190.93128 137.435263 
L 191.039134 136.667518 
L 191.200915 137.869081 
L 191.254842 137.773567 
L 191.47055 137.246021 
L 191.686257 136.934142 
L 191.740184 137.051021 
L 191.794111 137.235329 
L 191.848038 137.131552 
L 191.901965 137.1178 
L 192.1716 136.566131 
L 192.279454 136.161749 
L 192.441234 135.321206 
L 192.495161 135.366202 
L 193.088358 133.903553 
L 193.519773 133.274539 
L 193.789408 132.286881 
L 193.897262 132.048347 
L 194.005116 131.326043 
L 194.059043 131.470804 
L 194.166896 131.585214 
L 194.328677 131.300896 
L 194.382604 131.297206 
L 194.598312 130.334379 
L 194.921874 128.58851 
L 194.975801 128.830672 
L 195.191508 126.208606 
L 195.245435 126.832474 
L 195.299362 127.662386 
L 195.353289 127.657469 
L 195.407216 127.534614 
L 195.622924 124.738833 
L 195.730778 125.38791 
L 195.838632 125.683607 
L 196.21612 124.04456 
L 196.270047 124.132989 
L 196.431828 123.970293 
L 196.593609 122.617078 
L 196.809316 121.19863 
L 196.971097 120.519328 
L 197.510367 117.525768 
L 197.564294 118.034506 
L 197.726074 119.134953 
L 198.481051 113.070144 
L 199.236029 108.235898 
L 199.883152 103.587068 
L 200.206713 102.078576 
L 200.26064 102.072755 
L 202.687353 88.682356 
L 202.74128 88.67149 
L 203.118768 87.611555 
L 203.44233 87.167126 
L 203.711964 86.446551 
L 204.14338 85.617322 
L 204.251234 85.47912 
L 204.520869 84.578957 
L 204.952284 83.984313 
L 205.060138 83.875667 
L 205.167992 83.677367 
L 205.491553 84.162113 
L 205.815115 84.275943 
L 206.030823 84.356725 
L 206.192604 84.432678 
L 206.677946 83.877325 
L 206.7858 83.893095 
L 206.893654 83.705298 
L 207.055435 83.942633 
L 207.648631 83.736727 
L 207.810412 83.766356 
L 207.972193 83.348494 
L 208.080046 83.150755 
L 208.133973 83.17132 
L 208.295754 83.056231 
L 208.403608 82.90389 
L 208.673243 83.173543 
L 208.781097 83.284785 
L 209.104658 84.094315 
L 209.266439 84.146179 
L 209.482147 84.551515 
L 209.536074 84.467789 
L 209.590001 84.580797 
L 210.021416 85.756166 
L 210.291051 86.598371 
L 210.344978 86.582647 
L 210.452832 86.680798 
L 210.614612 86.964717 
L 211.153882 86.560582 
L 211.315663 86.777839 
L 212.340274 84.13054 
L 212.717763 83.949873 
L 212.933471 83.814125 
L 213.095252 83.88309 
L 213.418813 83.703792 
L 214.17379 84.236113 
L 214.281644 84.423977 
L 214.335571 84.341698 
L 214.497352 84.089708 
L 214.551279 84.168919 
L 214.766987 84.679403 
L 214.820914 84.632761 
L 214.982694 84.583362 
L 215.252329 84.996624 
L 215.41411 84.974923 
L 215.683745 84.725954 
L 215.791598 84.909479 
L 215.845525 84.86998 
L 216.007306 84.808948 
L 216.276941 85.336876 
L 216.330868 85.295608 
L 216.438722 85.12784 
L 216.492649 85.172121 
L 216.546576 85.154405 
L 216.708356 85.482022 
L 216.762283 85.433879 
L 216.81621 85.413 
L 216.977991 85.833392 
L 217.031918 85.752182 
L 217.193699 85.978696 
L 217.571187 87.629434 
L 218.164384 92.168927 
L 218.703653 95.73511 
L 219.404703 102.851199 
L 219.728265 105.484203 
L 220.105753 109.468603 
L 220.645023 114.32181 
L 221.346073 123.033982 
L 221.885342 129.537595 
L 221.939269 130.374476 
L 221.993196 129.717846 
L 222.047123 128.712736 
L 222.262831 136.260504 
L 222.586393 139.855216 
L 222.963881 146.107746 
L 224.096347 156.547374 
L 224.365982 157.243301 
L 224.581689 157.762757 
L 225.174886 153.759215 
L 225.498447 150.939619 
L 225.660228 150.278035 
L 225.929863 148.689115 
L 226.68484 148.082945 
L 226.792694 148.304306 
L 226.846621 148.252498 
L 227.062328 147.244526 
L 227.170182 147.277334 
L 227.38589 147.620512 
L 227.547671 147.960276 
L 227.601598 147.877202 
L 227.763379 147.329137 
L 227.817306 147.466506 
L 227.925159 147.453655 
L 228.410502 145.975232 
L 228.572283 146.105986 
L 228.62621 146.099079 
L 228.680137 146.494647 
L 228.734064 146.426399 
L 228.841917 146.279744 
L 228.895844 146.510908 
L 228.949771 146.486846 
L 229.32726 145.290786 
L 229.381187 145.68799 
L 229.435114 145.368938 
L 229.542968 145.484923 
L 229.596895 145.406446 
L 229.812602 144.92713 
L 229.920456 144.515049 
L 230.082237 144.068363 
L 230.297945 143.857968 
L 230.405799 144.055906 
L 230.459726 143.652599 
L 230.513652 140.865444 
L 230.567579 142.794103 
L 230.621506 145.084064 
L 230.675433 143.452509 
L 230.72936 143.334655 
L 230.783287 143.943028 
L 230.837214 143.850422 
L 230.998995 143.743058 
L 231.26863 143.957592 
L 231.376483 144.054907 
L 231.592191 143.603868 
L 231.700045 141.935873 
L 231.807899 144.458848 
L 231.861826 143.678029 
L 231.915753 143.984034 
L 231.96968 144.309789 
L 232.023607 144.27687 
L 232.293241 144.10083 
L 232.562876 144.14148 
L 232.67073 143.905699 
L 232.778584 142.142022 
L 232.886438 144.561379 
L 232.940365 144.176556 
L 233.048219 144.724005 
L 233.102145 144.510496 
L 233.317853 143.988124 
L 233.533561 143.868929 
L 233.587488 143.901131 
L 233.641415 142.139517 
L 233.695342 142.780674 
L 233.749269 144.658119 
L 233.803196 144.294644 
L 233.857123 143.954233 
L 233.91105 144.10837 
L 234.07283 143.979738 
L 234.180684 143.722708 
L 234.342465 144.118437 
L 234.558173 143.684482 
L 234.773881 144.392287 
L 234.827807 144.265183 
L 235.043515 143.749022 
L 235.205296 143.915093 
L 235.421004 143.680439 
L 235.636712 143.981227 
L 235.798492 143.83082 
L 235.906346 144.096665 
L 236.068127 144.697481 
L 236.283835 144.554669 
L 236.391689 144.8125 
L 236.71525 145.469895 
L 236.823104 145.499043 
L 237.038812 145.057861 
L 237.200593 145.074137 
L 237.4163 144.771127 
L 237.632008 144.835982 
L 237.847716 145.267026 
L 238.710547 144.241149 
L 238.980182 144.519112 
L 239.411597 144.528847 
L 239.735159 144.834324 
L 240.05872 144.627794 
L 240.166574 144.764555 
L 240.382282 145.166714 
L 240.544063 145.161651 
L 240.651917 145.1172 
L 240.867625 145.429979 
L 240.975478 145.379407 
L 241.083332 145.17477 
L 241.137259 145.204746 
L 241.29904 145.179361 
L 241.730456 145.200151 
L 241.892236 145.277579 
L 242.054017 145.237033 
L 242.215798 145.46741 
L 242.485433 145.750191 
L 242.755067 145.932471 
L 243.024702 146.153979 
L 243.348264 145.907314 
L 243.563971 145.750304 
L 244.103241 146.142303 
L 245.18178 146.269476 
L 245.559268 145.736174 
L 245.88283 145.496098 
L 246.152464 145.50875 
L 246.314245 145.569872 
L 246.476026 145.567544 
L 246.799588 145.664634 
L 247.015295 145.628432 
L 247.338857 145.798082 
L 247.662419 145.942335 
L 249.064519 146.636091 
L 250.898035 146.322236 
L 251.814793 146.51425 
L 252.354062 146.638125 
L 252.785478 146.76609 
L 254.241505 146.776307 
L 254.672921 146.736357 
L 255.050409 147.007827 
L 255.320044 147.283724 
L 255.535752 147.382358 
L 255.751459 147.382643 
L 255.91324 147.185269 
L 256.290729 146.546748 
L 256.45251 146.711686 
L 256.668217 147.265818 
L 256.937852 147.953273 
L 256.991779 147.894846 
L 257.15356 147.417433 
L 257.692829 145.530086 
L 257.85461 145.430553 
L 258.232098 145.963106 
L 258.286025 145.867045 
L 258.933149 144.603747 
L 259.041003 144.128228 
L 259.094929 144.197293 
L 259.418491 146.301801 
L 259.472418 146.138376 
L 259.849907 143.825342 
L 259.95776 143.854499 
L 260.119541 143.586351 
L 260.389176 143.040843 
L 260.443103 143.042544 
L 260.658811 143.466649 
L 260.820591 142.683945 
L 261.144153 141.414909 
L 261.359861 141.254903 
L 261.467715 141.145434 
L 261.683422 140.709603 
L 261.791276 141.041529 
L 262.006984 141.784321 
L 262.114838 142.046633 
L 262.276619 142.45199 
L 262.60018 141.342996 
L 262.815888 140.489295 
L 262.923742 141.266431 
L 263.247304 144.975474 
L 263.355158 144.333461 
L 263.678719 141.010542 
L 263.8405 141.916547 
L 264.056208 142.936297 
L 264.164062 142.09954 
L 264.271915 141.427991 
L 264.379769 141.941424 
L 264.595477 142.814053 
L 264.649404 142.789516 
L 264.811185 141.755177 
L 264.919039 141.040858 
L 264.972966 141.141616 
L 265.134746 142.34004 
L 265.296527 143.625667 
L 265.350454 143.518399 
L 265.566162 141.757093 
L 265.620089 141.801971 
L 265.997577 142.974631 
L 266.051504 142.934604 
L 266.267212 142.122867 
L 266.321139 141.87083 
L 266.375066 141.914635 
L 266.590774 142.738377 
L 266.644701 142.650171 
L 266.914335 140.804671 
L 267.076116 141.215093 
L 267.345751 142.435226 
L 267.507532 141.361108 
L 267.777166 140.106531 
L 268.154655 140.931475 
L 268.262509 141.280941 
L 268.42429 140.001464 
L 268.639997 138.546112 
L 268.693924 138.566734 
L 268.801778 139.498841 
L 269.071413 142.085716 
L 269.233194 141.937827 
L 269.394975 141.647151 
L 269.448901 141.678516 
L 269.556755 141.607983 
L 269.664609 141.513293 
L 269.82639 141.979751 
L 270.149952 143.82159 
L 270.203879 143.727299 
L 270.365659 143.403033 
L 270.419586 143.480315 
L 270.52744 143.425379 
L 270.689221 142.911049 
L 270.743148 142.957774 
L 270.797075 142.953339 
L 270.958856 142.668463 
L 271.22849 142.883732 
L 271.444198 142.612172 
L 271.605979 142.591284 
L 271.76776 142.780893 
L 272.145248 142.499465 
L 272.738445 144.172356 
L 272.954152 144.244248 
L 273.385568 143.228279 
L 273.439495 143.261667 
L 274.464107 144.649262 
L 274.949449 144.711136 
L 275.920134 144.846311 
L 276.297623 144.859399 
L 277.430088 144.962666 
L 277.861504 145.012961 
L 278.185065 145.048609 
L 278.993969 144.886166 
L 279.371458 144.759266 
L 279.748947 144.831901 
L 280.503924 144.67097 
L 281.312828 144.338998 
L 281.474609 144.18717 
L 281.744243 144.317601 
L 282.067805 144.041008 
L 282.283513 144.255295 
L 282.553147 144.704801 
L 282.822782 144.199545 
L 282.984563 143.915771 
L 283.03849 143.957723 
L 283.200271 143.946624 
L 283.685613 143.083828 
L 283.901321 143.806018 
L 284.009175 143.676815 
L 284.170955 142.752824 
L 284.224882 142.786718 
L 284.386663 143.300537 
L 284.710225 144.38329 
L 284.818079 144.085931 
L 285.249494 141.798401 
L 285.303421 141.756546 
L 285.68091 143.042101 
L 286.004471 142.24636 
L 286.112325 141.647188 
L 286.166252 141.707559 
L 286.38196 143.131908 
L 286.489814 142.997585 
L 286.705522 142.437086 
L 286.867302 141.997976 
L 286.921229 142.030665 
L 287.244791 143.439274 
L 287.298718 143.375764 
L 287.568353 142.783992 
L 287.78406 141.328284 
L 287.891914 141.495298 
L 288.107622 141.039987 
L 288.161549 141.103873 
L 288.32333 141.605608 
L 288.377257 141.468127 
L 288.48511 140.97855 
L 288.700818 140.147007 
L 288.862599 140.497698 
L 289.078307 141.477514 
L 289.132234 141.449623 
L 289.240088 141.34105 
L 289.294015 141.41399 
L 289.401868 141.720299 
L 289.72543 142.981354 
L 289.995065 142.454163 
L 290.210773 142.750096 
L 290.480407 144.111114 
L 290.588261 143.851133 
L 290.750042 143.276556 
L 291.019677 143.733582 
L 291.12753 144.203406 
L 291.397165 145.861964 
L 291.612873 145.38071 
L 291.6668 145.314715 
L 292.098215 146.339609 
L 292.206069 146.451467 
L 292.36785 146.64042 
L 292.583558 146.007706 
L 292.745339 145.572491 
L 292.799266 145.629507 
L 292.961046 145.676554 
L 293.230681 145.416747 
L 293.338535 145.575448 
L 293.392462 145.532594 
L 293.446389 145.517367 
L 293.716023 146.247069 
L 293.823877 145.944868 
L 294.093512 143.982147 
L 294.417074 141.576357 
L 294.524928 140.686806 
L 294.794562 137.443703 
L 294.848489 137.461114 
L 295.118124 139.059664 
L 295.333832 140.368248 
L 295.387759 140.330346 
L 295.603466 139.380494 
L 295.657393 139.512915 
L 295.873101 141.061566 
L 295.927028 140.93738 
L 296.304516 139.033364 
L 296.466297 138.629043 
L 296.735932 140.685243 
L 296.843786 140.436123 
L 296.95164 139.839094 
L 297.221274 137.782348 
L 297.329128 137.332203 
L 297.598763 135.610265 
L 297.65269 135.713204 
L 297.868398 137.783675 
L 297.976252 137.547268 
L 298.138032 137.107554 
L 298.299813 137.230724 
L 298.35374 137.177337 
L 298.461594 137.355882 
L 298.569448 137.021192 
L 298.785156 136.29508 
L 298.893009 136.168088 
L 299.216571 136.501492 
L 299.432279 138.644236 
L 299.486206 138.478874 
L 299.863694 136.237291 
L 299.971548 136.29805 
L 300.241183 136.067134 
L 300.402964 137.857614 
L 300.510818 138.521784 
L 300.672598 137.597462 
L 300.834379 136.569272 
L 300.942233 137.145746 
L 301.211868 138.942312 
L 301.373649 139.194325 
L 301.481502 139.062412 
L 301.643283 139.969684 
L 301.966845 141.661935 
L 302.074699 141.145961 
L 302.506114 138.344598 
L 302.560041 138.361716 
L 302.613968 139.045822 
L 302.667895 138.903321 
L 302.829676 138.757426 
L 302.883603 138.80731 
L 302.991457 138.080489 
L 303.099311 136.461535 
L 303.153238 136.592613 
L 303.207164 136.718345 
L 303.476799 138.356743 
L 303.584653 138.460457 
L 303.63858 138.369975 
L 303.746434 138.360344 
L 303.854288 138.495849 
L 303.962142 138.031761 
L 304.069995 137.352717 
L 304.123922 137.435876 
L 304.231776 137.659934 
L 304.285703 137.605081 
L 304.33963 137.598934 
L 304.447484 138.260716 
L 304.717119 140.060406 
L 304.8789 139.830636 
L 305.04068 139.567529 
L 305.148534 139.836361 
L 305.310315 141.280665 
L 305.364242 141.273471 
L 305.472096 140.769671 
L 305.526023 140.917682 
L 305.957438 143.723571 
L 306.065292 143.470935 
L 306.173146 143.124641 
L 306.388854 141.54209 
L 306.604562 142.312124 
L 306.820269 143.422341 
L 306.874196 143.249689 
L 307.251685 137.88597 
L 307.359539 138.696492 
L 307.575246 143.075046 
L 307.629173 142.249553 
L 308.006662 135.394292 
L 308.22237 138.364411 
L 308.276297 138.311495 
L 308.330224 138.822246 
L 308.438077 137.306944 
L 308.545931 133.604209 
L 308.761639 151.932524 
L 308.815566 149.384193 
L 309.031274 137.914283 
L 309.139128 139.698862 
L 309.300908 142.133387 
L 309.354835 139.367606 
L 309.408762 139.519616 
L 309.570543 141.546863 
L 309.732324 143.205042 
L 310.055886 141.518975 
L 310.163739 141.581691 
L 310.271593 141.292159 
L 310.487301 141.85954 
L 310.541228 141.657509 
L 310.595155 141.684066 
L 310.756936 141.646761 
L 310.86479 141.781799 
L 310.972644 142.017838 
L 311.134424 141.643423 
L 311.350132 141.691926 
L 311.727621 141.76909 
L 313.992552 141.744981 
L 314.963237 141.742927 
L 316.527118 141.738401 
L 316.688899 141.645067 
L 317.282095 141.757453 
L 317.929218 141.738955 
L 319.007757 141.745667 
L 319.708807 141.660999 
L 319.924515 141.689823 
L 320.248077 141.775934 
L 321.704104 141.747928 
L 323.861182 141.75658 
L 326.018259 141.745153 
L 328.337117 141.751375 
L 329.415656 141.75732 
L 331.195245 141.748962 
L 331.680588 141.754258 
L 332.813053 141.748208 
L 333.999446 141.758351 
L 334.053373 141.632009 
L 334.1073 141.689744 
L 334.376934 141.791724 
L 336.372231 141.742818 
L 344.623053 141.747457 
L 347.211546 141.759718 
L 348.02045 141.742341 
L 349.098988 141.764242 
L 349.692185 141.746127 
L 349.853966 141.650785 
L 350.447162 141.7653 
L 352.011043 141.756361 
L 354.329901 141.75634 
L 355.624148 141.748184 
L 358.158714 141.747636 
L 358.967618 141.753766 
L 362.203234 141.750667 
L 371.047252 141.758833 
L 371.478668 141.753141 
L 372.557206 141.751603 
L 373.581818 141.749848 
L 373.581818 141.749848 
" style="fill:none;stroke:#ff7f0e;stroke-linecap:square;stroke-width:1.5;"/>
   </g>
   <g id="patch_3">
    <path d="M 54 210.24 
L 54 76.32 
" style="fill:none;stroke:#000000;stroke-linecap:square;stroke-linejoin:miter;stroke-width:0.8;"/>
   </g>
   <g id="patch_4">
    <path d="M 388.8 210.24 
L 388.8 76.32 
" style="fill:none;stroke:#000000;stroke-linecap:square;stroke-linejoin:miter;stroke-width:0.8;"/>
   </g>
   <g id="patch_5">
    <path d="M 54 210.24 
L 388.8 210.24 
" style="fill:none;stroke:#000000;stroke-linecap:square;stroke-linejoin:miter;stroke-width:0.8;"/>
   </g>
   <g id="patch_6">
    <path d="M 54 76.32 
L 388.8 76.32 
" style="fill:none;stroke:#000000;stroke-linecap:square;stroke-linejoin:miter;stroke-width:0.8;"/>
   </g>
   <g id="text_10">
    <!-- Pitch -->
    <defs>
     <path d="M 19.671875 64.796875 
L 19.671875 37.40625 
L 32.078125 37.40625 
Q 38.96875 37.40625 42.71875 40.96875 
Q 46.484375 44.53125 46.484375 51.125 
Q 46.484375 57.671875 42.71875 61.234375 
Q 38.96875 64.796875 32.078125 64.796875 
z
M 9.8125 72.90625 
L 32.078125 72.90625 
Q 44.34375 72.90625 50.609375 67.359375 
Q 56.890625 61.8125 56.890625 51.125 
Q 56.890625 40.328125 50.609375 34.8125 
Q 44.34375 29.296875 32.078125 29.296875 
L 19.671875 29.296875 
L 19.671875 0 
L 9.8125 0 
z
" id="DejaVuSans-80"/>
     <path d="M 9.421875 54.6875 
L 18.40625 54.6875 
L 18.40625 0 
L 9.421875 0 
z
M 9.421875 75.984375 
L 18.40625 75.984375 
L 18.40625 64.59375 
L 9.421875 64.59375 
z
" id="DejaVuSans-105"/>
     <path d="M 18.3125 70.21875 
L 18.3125 54.6875 
L 36.8125 54.6875 
L 36.8125 47.703125 
L 18.3125 47.703125 
L 18.3125 18.015625 
Q 18.3125 11.328125 20.140625 9.421875 
Q 21.96875 7.515625 27.59375 7.515625 
L 36.8125 7.515625 
L 36.8125 0 
L 27.59375 0 
Q 17.1875 0 13.234375 3.875 
Q 9.28125 7.765625 9.28125 18.015625 
L 9.28125 47.703125 
L 2.6875 47.703125 
L 2.6875 54.6875 
L 9.28125 54.6875 
L 9.28125 70.21875 
z
" id="DejaVuSans-116"/>
     <path d="M 48.78125 52.59375 
L 48.78125 44.1875 
Q 44.96875 46.296875 41.140625 47.34375 
Q 37.3125 48.390625 33.40625 48.390625 
Q 24.65625 48.390625 19.8125 42.84375 
Q 14.984375 37.3125 14.984375 27.296875 
Q 14.984375 17.28125 19.8125 11.734375 
Q 24.65625 6.203125 33.40625 6.203125 
Q 37.3125 6.203125 41.140625 7.25 
Q 44.96875 8.296875 48.78125 10.40625 
L 48.78125 2.09375 
Q 45.015625 0.34375 40.984375 -0.53125 
Q 36.96875 -1.421875 32.421875 -1.421875 
Q 20.0625 -1.421875 12.78125 6.34375 
Q 5.515625 14.109375 5.515625 27.296875 
Q 5.515625 40.671875 12.859375 48.328125 
Q 20.21875 56 33.015625 56 
Q 37.15625 56 41.109375 55.140625 
Q 45.0625 54.296875 48.78125 52.59375 
z
" id="DejaVuSans-99"/>
     <path d="M 54.890625 33.015625 
L 54.890625 0 
L 45.90625 0 
L 45.90625 32.71875 
Q 45.90625 40.484375 42.875 44.328125 
Q 39.84375 48.1875 33.796875 48.1875 
Q 26.515625 48.1875 22.3125 43.546875 
Q 18.109375 38.921875 18.109375 30.90625 
L 18.109375 0 
L 9.078125 0 
L 9.078125 75.984375 
L 18.109375 75.984375 
L 18.109375 46.1875 
Q 21.34375 51.125 25.703125 53.5625 
Q 30.078125 56 35.796875 56 
Q 45.21875 56 50.046875 50.171875 
Q 54.890625 44.34375 54.890625 33.015625 
z
" id="DejaVuSans-104"/>
    </defs>
    <g transform="translate(206.663438 70.32)scale(0.12 -0.12)">
     <use xlink:href="#DejaVuSans-80"/>
     <use x="60.271484" xlink:href="#DejaVuSans-105"/>
     <use x="88.054688" xlink:href="#DejaVuSans-116"/>
     <use x="127.263672" xlink:href="#DejaVuSans-99"/>
     <use x="182.244141" xlink:href="#DejaVuSans-104"/>
    </g>
   </g>
   <g id="legend_1">
    <g id="patch_7">
     <path d="M 61 113.67625 
L 143.351562 113.67625 
Q 145.351562 113.67625 145.351562 111.67625 
L 145.351562 83.32 
Q 145.351562 81.32 143.351562 81.32 
L 61 81.32 
Q 59 81.32 59 83.32 
L 59 111.67625 
Q 59 113.67625 61 113.67625 
z
" style="fill:#ffffff;opacity:0.8;stroke:#cccccc;stroke-linejoin:miter;"/>
    </g>
    <g id="line2d_12">
     <path d="M 63 89.418437 
L 83 89.418437 
" style="fill:none;stroke:#1f77b4;stroke-linecap:square;stroke-width:1.5;"/>
    </g>
    <g id="line2d_13"/>
    <g id="text_11">
     <!-- vicon -->
     <defs>
      <path d="M 2.984375 54.6875 
L 12.5 54.6875 
L 29.59375 8.796875 
L 46.6875 54.6875 
L 56.203125 54.6875 
L 35.6875 0 
L 23.484375 0 
z
" id="DejaVuSans-118"/>
      <path d="M 30.609375 48.390625 
Q 23.390625 48.390625 19.1875 42.75 
Q 14.984375 37.109375 14.984375 27.296875 
Q 14.984375 17.484375 19.15625 11.84375 
Q 23.34375 6.203125 30.609375 6.203125 
Q 37.796875 6.203125 41.984375 11.859375 
Q 46.1875 17.53125 46.1875 27.296875 
Q 46.1875 37.015625 41.984375 42.703125 
Q 37.796875 48.390625 30.609375 48.390625 
z
M 30.609375 56 
Q 42.328125 56 49.015625 48.375 
Q 55.71875 40.765625 55.71875 27.296875 
Q 55.71875 13.875 49.015625 6.21875 
Q 42.328125 -1.421875 30.609375 -1.421875 
Q 18.84375 -1.421875 12.171875 6.21875 
Q 5.515625 13.875 5.515625 27.296875 
Q 5.515625 40.765625 12.171875 48.375 
Q 18.84375 56 30.609375 56 
z
" id="DejaVuSans-111"/>
      <path d="M 54.890625 33.015625 
L 54.890625 0 
L 45.90625 0 
L 45.90625 32.71875 
Q 45.90625 40.484375 42.875 44.328125 
Q 39.84375 48.1875 33.796875 48.1875 
Q 26.515625 48.1875 22.3125 43.546875 
Q 18.109375 38.921875 18.109375 30.90625 
L 18.109375 0 
L 9.078125 0 
L 9.078125 54.6875 
L 18.109375 54.6875 
L 18.109375 46.1875 
Q 21.34375 51.125 25.703125 53.5625 
Q 30.078125 56 35.796875 56 
Q 45.21875 56 50.046875 50.171875 
Q 54.890625 44.34375 54.890625 33.015625 
z
" id="DejaVuSans-110"/>
     </defs>
     <g transform="translate(91 92.918437)scale(0.1 -0.1)">
      <use xlink:href="#DejaVuSans-118"/>
      <use x="59.179688" xlink:href="#DejaVuSans-105"/>
      <use x="86.962891" xlink:href="#DejaVuSans-99"/>
      <use x="141.943359" xlink:href="#DejaVuSans-111"/>
      <use x="203.125" xlink:href="#DejaVuSans-110"/>
     </g>
    </g>
    <g id="line2d_14">
     <path d="M 63 104.096562 
L 83 104.096562 
" style="fill:none;stroke:#ff7f0e;stroke-linecap:square;stroke-width:1.5;"/>
    </g>
    <g id="line2d_15"/>
    <g id="text_12">
     <!-- estimated -->
     <defs>
      <path d="M 56.203125 29.59375 
L 56.203125 25.203125 
L 14.890625 25.203125 
Q 15.484375 15.921875 20.484375 11.0625 
Q 25.484375 6.203125 34.421875 6.203125 
Q 39.59375 6.203125 44.453125 7.46875 
Q 49.3125 8.734375 54.109375 11.28125 
L 54.109375 2.78125 
Q 49.265625 0.734375 44.1875 -0.34375 
Q 39.109375 -1.421875 33.890625 -1.421875 
Q 20.796875 -1.421875 13.15625 6.1875 
Q 5.515625 13.8125 5.515625 26.8125 
Q 5.515625 40.234375 12.765625 48.109375 
Q 20.015625 56 32.328125 56 
Q 43.359375 56 49.78125 48.890625 
Q 56.203125 41.796875 56.203125 29.59375 
z
M 47.21875 32.234375 
Q 47.125 39.59375 43.09375 43.984375 
Q 39.0625 48.390625 32.421875 48.390625 
Q 24.90625 48.390625 20.390625 44.140625 
Q 15.875 39.890625 15.1875 32.171875 
z
" id="DejaVuSans-101"/>
      <path d="M 44.28125 53.078125 
L 44.28125 44.578125 
Q 40.484375 46.53125 36.375 47.5 
Q 32.28125 48.484375 27.875 48.484375 
Q 21.1875 48.484375 17.84375 46.4375 
Q 14.5 44.390625 14.5 40.28125 
Q 14.5 37.15625 16.890625 35.375 
Q 19.28125 33.59375 26.515625 31.984375 
L 29.59375 31.296875 
Q 39.15625 29.25 43.1875 25.515625 
Q 47.21875 21.78125 47.21875 15.09375 
Q 47.21875 7.46875 41.1875 3.015625 
Q 35.15625 -1.421875 24.609375 -1.421875 
Q 20.21875 -1.421875 15.453125 -0.5625 
Q 10.6875 0.296875 5.421875 2 
L 5.421875 11.28125 
Q 10.40625 8.6875 15.234375 7.390625 
Q 20.0625 6.109375 24.8125 6.109375 
Q 31.15625 6.109375 34.5625 8.28125 
Q 37.984375 10.453125 37.984375 14.40625 
Q 37.984375 18.0625 35.515625 20.015625 
Q 33.0625 21.96875 24.703125 23.78125 
L 21.578125 24.515625 
Q 13.234375 26.265625 9.515625 29.90625 
Q 5.8125 33.546875 5.8125 39.890625 
Q 5.8125 47.609375 11.28125 51.796875 
Q 16.75 56 26.8125 56 
Q 31.78125 56 36.171875 55.265625 
Q 40.578125 54.546875 44.28125 53.078125 
z
" id="DejaVuSans-115"/>
      <path d="M 52 44.1875 
Q 55.375 50.25 60.0625 53.125 
Q 64.75 56 71.09375 56 
Q 79.640625 56 84.28125 50.015625 
Q 88.921875 44.046875 88.921875 33.015625 
L 88.921875 0 
L 79.890625 0 
L 79.890625 32.71875 
Q 79.890625 40.578125 77.09375 44.375 
Q 74.3125 48.1875 68.609375 48.1875 
Q 61.625 48.1875 57.5625 43.546875 
Q 53.515625 38.921875 53.515625 30.90625 
L 53.515625 0 
L 44.484375 0 
L 44.484375 32.71875 
Q 44.484375 40.625 41.703125 44.40625 
Q 38.921875 48.1875 33.109375 48.1875 
Q 26.21875 48.1875 22.15625 43.53125 
Q 18.109375 38.875 18.109375 30.90625 
L 18.109375 0 
L 9.078125 0 
L 9.078125 54.6875 
L 18.109375 54.6875 
L 18.109375 46.1875 
Q 21.1875 51.21875 25.484375 53.609375 
Q 29.78125 56 35.6875 56 
Q 41.65625 56 45.828125 52.96875 
Q 50 49.953125 52 44.1875 
z
" id="DejaVuSans-109"/>
      <path d="M 34.28125 27.484375 
Q 23.390625 27.484375 19.1875 25 
Q 14.984375 22.515625 14.984375 16.5 
Q 14.984375 11.71875 18.140625 8.90625 
Q 21.296875 6.109375 26.703125 6.109375 
Q 34.1875 6.109375 38.703125 11.40625 
Q 43.21875 16.703125 43.21875 25.484375 
L 43.21875 27.484375 
z
M 52.203125 31.203125 
L 52.203125 0 
L 43.21875 0 
L 43.21875 8.296875 
Q 40.140625 3.328125 35.546875 0.953125 
Q 30.953125 -1.421875 24.3125 -1.421875 
Q 15.921875 -1.421875 10.953125 3.296875 
Q 6 8.015625 6 15.921875 
Q 6 25.140625 12.171875 29.828125 
Q 18.359375 34.515625 30.609375 34.515625 
L 43.21875 34.515625 
L 43.21875 35.40625 
Q 43.21875 41.609375 39.140625 45 
Q 35.0625 48.390625 27.6875 48.390625 
Q 23 48.390625 18.546875 47.265625 
Q 14.109375 46.140625 10.015625 43.890625 
L 10.015625 52.203125 
Q 14.9375 54.109375 19.578125 55.046875 
Q 24.21875 56 28.609375 56 
Q 40.484375 56 46.34375 49.84375 
Q 52.203125 43.703125 52.203125 31.203125 
z
" id="DejaVuSans-97"/>
      <path d="M 45.40625 46.390625 
L 45.40625 75.984375 
L 54.390625 75.984375 
L 54.390625 0 
L 45.40625 0 
L 45.40625 8.203125 
Q 42.578125 3.328125 38.25 0.953125 
Q 33.9375 -1.421875 27.875 -1.421875 
Q 17.96875 -1.421875 11.734375 6.484375 
Q 5.515625 14.40625 5.515625 27.296875 
Q 5.515625 40.1875 11.734375 48.09375 
Q 17.96875 56 27.875 56 
Q 33.9375 56 38.25 53.625 
Q 42.578125 51.265625 45.40625 46.390625 
z
M 14.796875 27.296875 
Q 14.796875 17.390625 18.875 11.75 
Q 22.953125 6.109375 30.078125 6.109375 
Q 37.203125 6.109375 41.296875 11.75 
Q 45.40625 17.390625 45.40625 27.296875 
Q 45.40625 37.203125 41.296875 42.84375 
Q 37.203125 48.484375 30.078125 48.484375 
Q 22.953125 48.484375 18.875 42.84375 
Q 14.796875 37.203125 14.796875 27.296875 
z
" id="DejaVuSans-100"/>
     </defs>
     <g transform="translate(91 107.596562)scale(0.1 -0.1)">
      <use xlink:href="#DejaVuSans-101"/>
      <use x="61.523438" xlink:href="#DejaVuSans-115"/>
      <use x="113.623047" xlink:href="#DejaVuSans-116"/>
      <use x="152.832031" xlink:href="#DejaVuSans-105"/>
      <use x="180.615234" xlink:href="#DejaVuSans-109"/>
      <use x="278.027344" xlink:href="#DejaVuSans-97"/>
      <use x="339.306641" xlink:href="#DejaVuSans-116"/>
      <use x="378.515625" xlink:href="#DejaVuSans-101"/>
      <use x="440.039062" xlink:href="#DejaVuSans-100"/>
     </g>
    </g>
   </g>
  </g>
 </g>
 <defs>
  <clipPath id="p1563bc9093">
   <rect height="133.92" width="334.8" x="54" y="76.32"/>
  </clipPath>
 </defs>
</svg>
