<?xml version="1.0" encoding="utf-8" standalone="no"?>
<!DOCTYPE svg PUBLIC "-//W3C//DTD SVG 1.1//EN"
  "http://www.w3.org/Graphics/SVG/1.1/DTD/svg11.dtd">
<!-- Created with matplotlib (https://matplotlib.org/) -->
<svg height="288pt" version="1.1" viewBox="0 0 432 288" width="432pt" xmlns="http://www.w3.org/2000/svg" xmlns:xlink="http://www.w3.org/1999/xlink">
 <defs>
  <style type="text/css">
*{stroke-linecap:butt;stroke-linejoin:round;}
  </style>
 </defs>
 <g id="figure_1">
  <g id="patch_1">
   <path d="M 0 288 
L 432 288 
L 432 0 
L 0 0 
z
" style="fill:#ffffff;"/>
  </g>
  <g id="axes_1">
   <g id="patch_2">
    <path d="M 54 210.24 
L 388.8 210.24 
L 388.8 76.32 
L 54 76.32 
z
" style="fill:#ffffff;"/>
   </g>
   <g id="matplotlib.axis_1">
    <g id="xtick_1">
     <g id="line2d_1">
      <defs>
       <path d="M 0 0 
L 0 3.5 
" id="mb645a0a211" style="stroke:#000000;stroke-width:0.8;"/>
      </defs>
      <g>
       <use style="stroke:#000000;stroke-width:0.8;" x="69.218182" xlink:href="#mb645a0a211" y="210.24"/>
      </g>
     </g>
     <g id="text_1">
      <!-- 0 -->
      <defs>
       <path d="M 31.78125 66.40625 
Q 24.171875 66.40625 20.328125 58.90625 
Q 16.5 51.421875 16.5 36.375 
Q 16.5 21.390625 20.328125 13.890625 
Q 24.171875 6.390625 31.78125 6.390625 
Q 39.453125 6.390625 43.28125 13.890625 
Q 47.125 21.390625 47.125 36.375 
Q 47.125 51.421875 43.28125 58.90625 
Q 39.453125 66.40625 31.78125 66.40625 
z
M 31.78125 74.21875 
Q 44.046875 74.21875 50.515625 64.515625 
Q 56.984375 54.828125 56.984375 36.375 
Q 56.984375 17.96875 50.515625 8.265625 
Q 44.046875 -1.421875 31.78125 -1.421875 
Q 19.53125 -1.421875 13.0625 8.265625 
Q 6.59375 17.96875 6.59375 36.375 
Q 6.59375 54.828125 13.0625 64.515625 
Q 19.53125 74.21875 31.78125 74.21875 
z
" id="DejaVuSans-48"/>
      </defs>
      <g transform="translate(66.036932 224.838437)scale(0.1 -0.1)">
       <use xlink:href="#DejaVuSans-48"/>
      </g>
     </g>
    </g>
    <g id="xtick_2">
     <g id="line2d_2">
      <g>
       <use style="stroke:#000000;stroke-width:0.8;" x="123.14512" xlink:href="#mb645a0a211" y="210.24"/>
      </g>
     </g>
     <g id="text_2">
      <!-- 1000 -->
      <defs>
       <path d="M 12.40625 8.296875 
L 28.515625 8.296875 
L 28.515625 63.921875 
L 10.984375 60.40625 
L 10.984375 69.390625 
L 28.421875 72.90625 
L 38.28125 72.90625 
L 38.28125 8.296875 
L 54.390625 8.296875 
L 54.390625 0 
L 12.40625 0 
z
" id="DejaVuSans-49"/>
      </defs>
      <g transform="translate(110.42012 224.838437)scale(0.1 -0.1)">
       <use xlink:href="#DejaVuSans-49"/>
       <use x="63.623047" xlink:href="#DejaVuSans-48"/>
       <use x="127.246094" xlink:href="#DejaVuSans-48"/>
       <use x="190.869141" xlink:href="#DejaVuSans-48"/>
      </g>
     </g>
    </g>
    <g id="xtick_3">
     <g id="line2d_3">
      <g>
       <use style="stroke:#000000;stroke-width:0.8;" x="177.072057" xlink:href="#mb645a0a211" y="210.24"/>
      </g>
     </g>
     <g id="text_3">
      <!-- 2000 -->
      <defs>
       <path d="M 19.1875 8.296875 
L 53.609375 8.296875 
L 53.609375 0 
L 7.328125 0 
L 7.328125 8.296875 
Q 12.9375 14.109375 22.625 23.890625 
Q 32.328125 33.6875 34.8125 36.53125 
Q 39.546875 41.84375 41.421875 45.53125 
Q 43.3125 49.21875 43.3125 52.78125 
Q 43.3125 58.59375 39.234375 62.25 
Q 35.15625 65.921875 28.609375 65.921875 
Q 23.96875 65.921875 18.8125 64.3125 
Q 13.671875 62.703125 7.8125 59.421875 
L 7.8125 69.390625 
Q 13.765625 71.78125 18.9375 73 
Q 24.125 74.21875 28.421875 74.21875 
Q 39.75 74.21875 46.484375 68.546875 
Q 53.21875 62.890625 53.21875 53.421875 
Q 53.21875 48.921875 51.53125 44.890625 
Q 49.859375 40.875 45.40625 35.40625 
Q 44.1875 33.984375 37.640625 27.21875 
Q 31.109375 20.453125 19.1875 8.296875 
z
" id="DejaVuSans-50"/>
      </defs>
      <g transform="translate(164.347057 224.838437)scale(0.1 -0.1)">
       <use xlink:href="#DejaVuSans-50"/>
       <use x="63.623047" xlink:href="#DejaVuSans-48"/>
       <use x="127.246094" xlink:href="#DejaVuSans-48"/>
       <use x="190.869141" xlink:href="#DejaVuSans-48"/>
      </g>
     </g>
    </g>
    <g id="xtick_4">
     <g id="line2d_4">
      <g>
       <use style="stroke:#000000;stroke-width:0.8;" x="230.998995" xlink:href="#mb645a0a211" y="210.24"/>
      </g>
     </g>
     <g id="text_4">
      <!-- 3000 -->
      <defs>
       <path d="M 40.578125 39.3125 
Q 47.65625 37.796875 51.625 33 
Q 55.609375 28.21875 55.609375 21.1875 
Q 55.609375 10.40625 48.1875 4.484375 
Q 40.765625 -1.421875 27.09375 -1.421875 
Q 22.515625 -1.421875 17.65625 -0.515625 
Q 12.796875 0.390625 7.625 2.203125 
L 7.625 11.71875 
Q 11.71875 9.328125 16.59375 8.109375 
Q 21.484375 6.890625 26.8125 6.890625 
Q 36.078125 6.890625 40.9375 10.546875 
Q 45.796875 14.203125 45.796875 21.1875 
Q 45.796875 27.640625 41.28125 31.265625 
Q 36.765625 34.90625 28.71875 34.90625 
L 20.21875 34.90625 
L 20.21875 43.015625 
L 29.109375 43.015625 
Q 36.375 43.015625 40.234375 45.921875 
Q 44.09375 48.828125 44.09375 54.296875 
Q 44.09375 59.90625 40.109375 62.90625 
Q 36.140625 65.921875 28.71875 65.921875 
Q 24.65625 65.921875 20.015625 65.03125 
Q 15.375 64.15625 9.8125 62.3125 
L 9.8125 71.09375 
Q 15.4375 72.65625 20.34375 73.4375 
Q 25.25 74.21875 29.59375 74.21875 
Q 40.828125 74.21875 47.359375 69.109375 
Q 53.90625 64.015625 53.90625 55.328125 
Q 53.90625 49.265625 50.4375 45.09375 
Q 46.96875 40.921875 40.578125 39.3125 
z
" id="DejaVuSans-51"/>
      </defs>
      <g transform="translate(218.273995 224.838437)scale(0.1 -0.1)">
       <use xlink:href="#DejaVuSans-51"/>
       <use x="63.623047" xlink:href="#DejaVuSans-48"/>
       <use x="127.246094" xlink:href="#DejaVuSans-48"/>
       <use x="190.869141" xlink:href="#DejaVuSans-48"/>
      </g>
     </g>
    </g>
    <g id="xtick_5">
     <g id="line2d_5">
      <g>
       <use style="stroke:#000000;stroke-width:0.8;" x="284.925933" xlink:href="#mb645a0a211" y="210.24"/>
      </g>
     </g>
     <g id="text_5">
      <!-- 4000 -->
      <defs>
       <path d="M 37.796875 64.3125 
L 12.890625 25.390625 
L 37.796875 25.390625 
z
M 35.203125 72.90625 
L 47.609375 72.90625 
L 47.609375 25.390625 
L 58.015625 25.390625 
L 58.015625 17.1875 
L 47.609375 17.1875 
L 47.609375 0 
L 37.796875 0 
L 37.796875 17.1875 
L 4.890625 17.1875 
L 4.890625 26.703125 
z
" id="DejaVuSans-52"/>
      </defs>
      <g transform="translate(272.200933 224.838437)scale(0.1 -0.1)">
       <use xlink:href="#DejaVuSans-52"/>
       <use x="63.623047" xlink:href="#DejaVuSans-48"/>
       <use x="127.246094" xlink:href="#DejaVuSans-48"/>
       <use x="190.869141" xlink:href="#DejaVuSans-48"/>
      </g>
     </g>
    </g>
    <g id="xtick_6">
     <g id="line2d_6">
      <g>
       <use style="stroke:#000000;stroke-width:0.8;" x="338.85287" xlink:href="#mb645a0a211" y="210.24"/>
      </g>
     </g>
     <g id="text_6">
      <!-- 5000 -->
      <defs>
       <path d="M 10.796875 72.90625 
L 49.515625 72.90625 
L 49.515625 64.59375 
L 19.828125 64.59375 
L 19.828125 46.734375 
Q 21.96875 47.46875 24.109375 47.828125 
Q 26.265625 48.1875 28.421875 48.1875 
Q 40.625 48.1875 47.75 41.5 
Q 54.890625 34.8125 54.890625 23.390625 
Q 54.890625 11.625 47.5625 5.09375 
Q 40.234375 -1.421875 26.90625 -1.421875 
Q 22.3125 -1.421875 17.546875 -0.640625 
Q 12.796875 0.140625 7.71875 1.703125 
L 7.71875 11.625 
Q 12.109375 9.234375 16.796875 8.0625 
Q 21.484375 6.890625 26.703125 6.890625 
Q 35.15625 6.890625 40.078125 11.328125 
Q 45.015625 15.765625 45.015625 23.390625 
Q 45.015625 31 40.078125 35.4375 
Q 35.15625 39.890625 26.703125 39.890625 
Q 22.75 39.890625 18.8125 39.015625 
Q 14.890625 38.140625 10.796875 36.28125 
z
" id="DejaVuSans-53"/>
      </defs>
      <g transform="translate(326.12787 224.838437)scale(0.1 -0.1)">
       <use xlink:href="#DejaVuSans-53"/>
       <use x="63.623047" xlink:href="#DejaVuSans-48"/>
       <use x="127.246094" xlink:href="#DejaVuSans-48"/>
       <use x="190.869141" xlink:href="#DejaVuSans-48"/>
      </g>
     </g>
    </g>
   </g>
   <g id="matplotlib.axis_2">
    <g id="ytick_1">
     <g id="line2d_7">
      <defs>
       <path d="M 0 0 
L -3.5 0 
" id="mfc021fdb40" style="stroke:#000000;stroke-width:0.8;"/>
      </defs>
      <g>
       <use style="stroke:#000000;stroke-width:0.8;" x="54" xlink:href="#mfc021fdb40" y="182.054279"/>
      </g>
     </g>
     <g id="text_7">
      <!-- −2 -->
      <defs>
       <path d="M 10.59375 35.5 
L 73.1875 35.5 
L 73.1875 27.203125 
L 10.59375 27.203125 
z
" id="DejaVuSans-8722"/>
      </defs>
      <g transform="translate(32.257812 185.853498)scale(0.1 -0.1)">
       <use xlink:href="#DejaVuSans-8722"/>
       <use x="83.789062" xlink:href="#DejaVuSans-50"/>
      </g>
     </g>
    </g>
    <g id="ytick_2">
     <g id="line2d_8">
      <g>
       <use style="stroke:#000000;stroke-width:0.8;" x="54" xlink:href="#mfc021fdb40" y="143.283706"/>
      </g>
     </g>
     <g id="text_8">
      <!-- 0 -->
      <g transform="translate(40.6375 147.082924)scale(0.1 -0.1)">
       <use xlink:href="#DejaVuSans-48"/>
      </g>
     </g>
    </g>
    <g id="ytick_3">
     <g id="line2d_9">
      <g>
       <use style="stroke:#000000;stroke-width:0.8;" x="54" xlink:href="#mfc021fdb40" y="104.513132"/>
      </g>
     </g>
     <g id="text_9">
      <!-- 2 -->
      <g transform="translate(40.6375 108.312351)scale(0.1 -0.1)">
       <use xlink:href="#DejaVuSans-50"/>
      </g>
     </g>
    </g>
   </g>
   <g id="line2d_10">
    <path clip-path="url(#pe7bdbaf2d6)" d="M 69.218182 143.315312 
L 69.703524 143.318918 
L 69.973159 143.353101 
L 70.188867 143.317282 
L 76.714026 143.316461 
L 76.82188 143.316268 
L 76.929734 143.389419 
L 77.091515 143.380657 
L 77.253296 143.339449 
L 77.52293 143.343332 
L 77.684711 143.368988 
L 77.954346 143.337928 
L 78.170053 143.345921 
L 78.871104 143.340385 
L 79.194665 143.36138 
L 79.302519 143.377353 
L 79.4643 143.389627 
L 80.16535 143.390027 
L 80.650693 143.321729 
L 81.297816 143.356533 
L 81.459597 143.3471 
L 82.969551 143.371161 
L 83.131332 143.331532 
L 83.400966 143.342948 
L 83.562747 143.35276 
L 83.994163 143.33788 
L 84.695213 143.390574 
L 84.856994 143.355589 
L 85.180555 143.368128 
L 85.342336 143.360784 
L 115.487494 143.170488 
L 116.512106 143.156042 
L 116.889595 143.245355 
L 117.105302 143.255865 
L 117.914207 143.285619 
L 119.046672 143.075698 
L 119.424161 143.201028 
L 120.179138 143.232927 
L 121.257677 143.023213 
L 121.419458 143.104822 
L 121.527311 143.016168 
L 121.635165 143.041292 
L 121.796946 142.943612 
L 121.850873 142.989915 
L 121.9048 142.909339 
L 123.252973 142.280104 
L 124.169731 142.317061 
L 125.733613 142.521468 
L 126.326809 142.89002 
L 126.973932 142.824676 
L 128.106398 142.558422 
L 128.483886 142.485747 
L 128.807448 142.662169 
L 129.508498 143.369419 
L 129.993841 143.812255 
L 130.425256 143.955292 
L 130.748818 143.978658 
L 132.851968 143.633094 
L 133.499092 143.655181 
L 134.038361 143.513531 
L 134.57763 143.361319 
L 135.440461 143.231553 
L 135.81795 143.316185 
L 136.033658 143.324687 
L 136.788635 143.459404 
L 137.327904 143.321685 
L 138.676078 142.72054 
L 139.053566 142.760199 
L 140.779228 143.338024 
L 143.04416 142.822727 
L 143.583429 142.926344 
L 144.554114 142.747221 
L 144.931602 142.789238 
L 147.08868 143.60308 
L 148.167219 143.499199 
L 148.868269 143.418944 
L 149.19183 143.484457 
L 150.162515 143.475605 
L 150.540004 143.387132 
L 152.211739 143.257865 
L 152.751008 143.271561 
L 153.398132 143.159392 
L 156.41804 143.210138 
L 157.173017 143.366903 
L 158.035848 143.478484 
L 159.222241 143.210853 
L 159.707583 143.271415 
L 159.923291 143.302194 
L 160.408633 143.407557 
L 161.217538 143.371703 
L 161.487172 143.355093 
L 161.70288 143.269883 
L 162.026442 143.118063 
L 162.781419 143.340663 
L 162.9432 143.373712 
L 163.212834 143.367181 
L 164.722788 141.976234 
L 165.100277 141.965221 
L 165.262058 142.162214 
L 165.423839 142.42331 
L 165.585619 142.548922 
L 165.639546 142.572234 
L 165.7474 142.952346 
L 165.801327 142.793106 
L 165.855254 142.853885 
L 166.124889 143.073846 
L 166.394524 142.997498 
L 166.44845 143.104315 
L 166.502377 143.041983 
L 166.879866 142.877726 
L 167.041647 142.831385 
L 167.203428 142.71768 
L 167.365208 142.903697 
L 167.473062 142.492452 
L 167.526989 142.64297 
L 167.580916 142.644078 
L 168.012332 141.515165 
L 168.174112 140.133302 
L 168.281966 137.356622 
L 168.38982 127.927687 
L 168.713382 91.89238 
L 169.036943 87.298237 
L 169.306578 90.846069 
L 169.576213 83.950518 
L 169.63014 85.464433 
L 169.684067 85.842184 
L 169.899774 83.077092 
L 169.953701 83.155077 
L 170.007628 204.127051 
L 170.115482 203.979161 
L 170.223336 203.429626 
L 170.277263 202.157798 
L 170.33119 203.161733 
L 170.385117 203.026394 
L 170.439044 203.161406 
L 170.492971 203.344133 
L 170.546898 203.160051 
L 170.708679 202.60731 
L 170.762606 202.875155 
L 170.816532 202.840897 
L 171.03224 203.358159 
L 171.140094 203.179778 
L 171.247948 203.758325 
L 171.355802 203.522947 
L 171.57151 204.086417 
L 171.625437 82.61413 
L 171.679363 203.392379 
L 171.841144 204.069535 
L 171.895071 204.105367 
L 171.948998 203.386115 
L 172.002925 203.965492 
L 172.056852 82.51201 
L 172.164706 82.571507 
L 172.27256 82.907426 
L 172.380414 204.042887 
L 172.434341 203.283305 
L 172.488268 203.085159 
L 172.596121 204.083156 
L 172.650048 82.511203 
L 172.703975 201.628257 
L 172.757902 203.873888 
L 172.811829 203.289129 
L 172.919683 203.64795 
L 172.97361 203.607367 
L 173.405025 204.109983 
L 173.458952 203.904323 
L 173.512879 202.726267 
L 173.566806 203.600516 
L 173.620733 204.152727 
L 173.67466 203.879685 
L 173.782514 82.407273 
L 173.836441 204.067016 
L 173.944295 203.728215 
L 173.998222 201.880091 
L 174.052149 203.793063 
L 174.106076 203.770255 
L 174.267856 203.22456 
L 174.321783 203.43127 
L 174.37571 203.525248 
L 174.429637 203.405341 
L 174.483564 203.401956 
L 174.753199 203.825721 
L 174.807126 203.411466 
L 174.861053 203.711132 
L 174.91498 82.562288 
L 174.968907 82.73555 
L 175.022834 202.915135 
L 175.076761 82.76791 
L 175.292468 83.601363 
L 175.454249 83.01191 
L 175.508176 83.890337 
L 175.562103 83.6966 
L 175.669957 83.514278 
L 175.723884 83.765587 
L 175.831738 83.343913 
L 175.939592 84.714429 
L 176.047445 84.21117 
L 176.101372 84.315628 
L 176.155299 84.219141 
L 176.209226 84.851796 
L 176.263153 84.359777 
L 176.31708 84.265965 
L 176.371007 84.368308 
L 176.424934 83.791672 
L 176.478861 84.376726 
L 176.586715 84.64003 
L 176.640642 84.156314 
L 176.694569 84.420753 
L 176.964203 86.125853 
L 177.01813 86.009164 
L 177.125984 92.442111 
L 177.449546 139.368626 
L 177.71918 141.904154 
L 177.934888 142.667668 
L 177.988815 142.667057 
L 178.204523 143.265156 
L 178.312377 143.208717 
L 178.420231 143.624115 
L 178.474158 143.357938 
L 178.528085 143.39487 
L 178.689865 143.640736 
L 178.743792 143.612492 
L 178.797719 143.633951 
L 178.851646 143.466779 
L 178.905573 143.487911 
L 178.9595 143.63624 
L 179.013427 143.541616 
L 180.145893 143.572674 
L 180.307673 143.526054 
L 180.631235 143.519464 
L 181.278358 143.501245 
L 181.547993 143.486404 
L 181.817628 143.43799 
L 182.572605 143.451207 
L 187.210321 143.284858 
L 189.960595 143.309007 
L 191.686257 143.321172 
L 192.009819 143.388897 
L 192.656942 143.501611 
L 194.544385 143.41452 
L 195.622924 143.383427 
L 195.892558 143.384167 
L 196.108266 143.3583 
L 196.593609 143.184743 
L 197.132878 142.711034 
L 197.672147 142.363795 
L 197.833928 142.317413 
L 198.696759 142.134993 
L 199.289956 142.170492 
L 200.692056 141.82896 
L 201.662741 141.107941 
L 201.932375 140.824448 
L 202.148083 140.59782 
L 202.525572 140.040286 
L 202.90306 139.475155 
L 203.550184 137.436683 
L 204.035526 135.88384 
L 204.413015 135.622985 
L 204.520869 135.545559 
L 204.790503 134.818281 
L 205.060138 133.415357 
L 205.922969 127.681354 
L 206.138677 127.178696 
L 206.300457 127.402963 
L 207.001508 129.001827 
L 207.271142 128.996834 
L 207.810412 127.537546 
L 208.1879 125.7007 
L 208.619316 123.760401 
L 208.88895 123.466879 
L 209.158585 123.870004 
L 209.320366 124.369436 
L 209.590001 125.351608 
L 209.697855 125.709527 
L 210.237124 128.384749 
L 210.776393 131.392108 
L 211.153882 133.050217 
L 211.639224 134.398902 
L 212.016713 134.475083 
L 212.232421 134.310353 
L 212.77169 132.089624 
L 213.149179 129.127748 
L 213.904156 122.499452 
L 214.17379 121.87877 
L 214.71306 124.221083 
L 215.468037 128.990672 
L 215.899452 130.00531 
L 216.169087 130.120595 
L 217.031918 130.051966 
L 217.409407 130.630503 
L 217.894749 132.422973 
L 219.296849 138.895898 
L 219.782192 140.15517 
L 219.890046 140.36017 
L 220.375388 141.150412 
L 220.645023 141.390644 
L 221.184292 141.941075 
L 221.292146 141.921939 
L 221.939269 142.504534 
L 222.586393 142.911792 
L 222.8021 143.001054 
L 223.179589 142.993871 
L 224.04242 142.910832 
L 225.606301 142.924668 
L 226.738767 142.988854 
L 227.38589 142.93642 
L 229.219406 143.153579 
L 230.244018 143.11843 
L 231.322557 143.030892 
L 231.700045 142.605275 
L 232.67073 140.865472 
L 234.126757 138.10639 
L 234.827807 136.15233 
L 236.661323 129.477838 
L 237.739862 126.737467 
L 238.764474 124.987078 
L 241.245113 122.399916 
L 241.946163 121.98549 
L 242.755067 121.443677 
L 243.186483 121.028871 
L 245.18178 118.986135 
L 247.878126 116.42578 
L 248.039907 116.254115 
L 248.740957 115.100413 
L 249.873423 113.484302 
L 250.035204 113.380084 
L 250.089131 113.465846 
L 250.682327 113.33715 
L 253.001185 112.757269 
L 253.378674 112.449582 
L 253.432601 112.527396 
L 253.97187 112.461361 
L 254.133651 112.562108 
L 254.187578 112.473562 
L 254.241505 112.562261 
L 255.427898 112.41884 
L 255.643605 112.67328 
L 256.182875 113.946028 
L 256.506436 115.077519 
L 257.477121 118.974319 
L 260.443103 132.776207 
L 261.252007 135.63043 
L 262.60018 139.09814 
L 264.110135 141.691936 
L 264.865112 142.599523 
L 265.296527 142.931075 
L 267.022189 144.111848 
L 267.399678 144.836021 
L 267.992874 146.669735 
L 268.801778 150.075206 
L 269.448901 152.982424 
L 270.689221 158.161761 
L 271.821687 162.588986 
L 273.008079 166.003691 
L 273.70913 168.062437 
L 274.571961 170.023733 
L 275.596572 171.881274 
L 275.650499 171.58379 
L 275.704426 171.67841 
L 275.974061 172.002898 
L 277.106527 172.916903 
L 277.214381 172.981259 
L 277.645796 173.167056 
L 277.75365 173.073306 
L 278.023285 173.16288 
L 278.185065 173.017444 
L 278.616481 172.886916 
L 278.778262 172.898433 
L 278.993969 172.791485 
L 279.101823 172.813092 
L 279.317531 172.620462 
L 280.072508 172.288228 
L 280.180362 172.083847 
L 280.234289 172.127594 
L 280.39607 172.070634 
L 280.449997 172.107853 
L 280.611778 171.917411 
L 280.665705 171.970244 
L 280.719631 171.914535 
L 281.528536 171.032935 
L 282.283513 169.482995 
L 282.661001 168.570009 
L 283.631686 165.81216 
L 283.847394 164.954531 
L 285.14164 159.33322 
L 286.651595 152.236733 
L 288.053695 146.698236 
L 288.646891 145.032011 
L 289.186161 144.094538 
L 289.72543 143.663757 
L 289.995065 143.632143 
L 291.451092 143.628092 
L 292.044288 143.671947 
L 293.554243 144.120613 
L 294.578854 144.115501 
L 295.980955 143.821873 
L 296.843786 143.864434 
L 297.059494 143.933635 
L 297.490909 143.944851 
L 298.030178 143.944091 
L 298.461594 143.860305 
L 298.946936 143.753143 
L 299.701914 143.841623 
L 299.863694 143.748527 
L 300.025475 143.918073 
L 300.618671 143.829021 
L 300.99616 143.616829 
L 301.858991 143.512212 
L 302.506114 143.488195 
L 302.883603 143.293284 
L 303.207164 143.10766 
L 303.476799 143.055934 
L 305.094607 142.994747 
L 305.364242 142.927812 
L 307.251685 142.81672 
L 307.844881 142.793992 
L 308.114516 142.941315 
L 308.276297 143.04152 
L 308.599858 143.151437 
L 309.354835 143.060692 
L 309.786251 142.770831 
L 310.109813 143.117907 
L 310.756936 143.093986 
L 311.835475 143.131758 
L 315.987849 143.1301 
L 316.688899 143.183742 
L 317.605657 143.180924 
L 318.738123 143.175526 
L 319.762734 143.191776 
L 319.816661 143.061418 
L 319.870588 143.179608 
L 319.978442 143.185903 
L 320.086296 143.062308 
L 320.140223 143.187779 
L 320.19415 143.070442 
L 320.248077 143.067415 
L 320.409858 143.198106 
L 327.58214 143.174683 
L 327.797848 143.176078 
L 328.498898 143.180179 
L 329.469583 143.172214 
L 329.739218 143.176252 
L 331.46488 143.169562 
L 332.16593 143.181183 
L 333.082688 143.173111 
L 334.161227 143.171275 
L 358.428349 143.187334 
L 358.859764 143.183358 
L 361.070769 143.174372 
L 362.149307 143.167388 
L 362.850358 143.182389 
L 363.443554 143.18422 
L 363.982823 143.182375 
L 364.414239 143.181626 
L 365.438851 143.180874 
L 366.517389 143.177198 
L 367.002732 143.16824 
L 369.051955 143.187233 
L 369.051955 143.187233 
" style="fill:none;stroke:#1f77b4;stroke-linecap:square;stroke-width:1.5;"/>
   </g>
   <g id="line2d_11">
    <path clip-path="url(#pe7bdbaf2d6)" d="M 69.218182 143.283706 
L 111.173339 143.19592 
L 111.442974 142.736588 
L 111.766536 143.243918 
L 111.87439 143.327935 
L 112.03617 143.69784 
L 112.090097 143.628052 
L 112.197951 143.650085 
L 112.251878 143.740175 
L 112.305805 143.628944 
L 112.521513 142.800101 
L 112.845074 143.204368 
L 112.899001 143.660288 
L 112.952928 143.506903 
L 113.222563 142.693046 
L 113.438271 143.816113 
L 113.492198 143.696317 
L 113.653978 143.549872 
L 113.761832 143.774895 
L 113.815759 143.644377 
L 114.031467 143.066283 
L 114.085394 143.212666 
L 114.193248 143.501106 
L 114.301102 143.289509 
L 114.516809 142.270315 
L 114.67859 142.71782 
L 114.786444 142.515976 
L 114.948225 142.60866 
L 115.163933 141.465717 
L 115.21786 141.722885 
L 115.487494 144.199983 
L 115.595348 144.402108 
L 115.757129 144.035035 
L 115.91891 144.212094 
L 116.026764 144.156008 
L 116.134618 144.117258 
L 116.296398 143.852557 
L 116.350325 143.878528 
L 116.404252 144.305819 
L 116.566033 142.348351 
L 116.727814 142.364374 
L 116.889595 142.819131 
L 116.943522 142.775288 
L 117.159229 142.226371 
L 117.428864 142.614835 
L 117.536718 142.60832 
L 117.752426 142.80596 
L 117.806353 142.679456 
L 117.968133 142.44323 
L 118.075987 142.727685 
L 118.291695 143.172919 
L 118.723111 143.306684 
L 118.830964 143.338255 
L 118.938818 143.56625 
L 118.992745 143.503423 
L 119.100599 143.17595 
L 119.316307 142.481716 
L 119.478088 142.460325 
L 119.585942 142.356793 
L 119.747722 142.950232 
L 119.801649 142.783292 
L 119.855576 142.793379 
L 120.179138 143.618212 
L 120.233065 143.545364 
L 120.394846 143.064866 
L 120.448773 143.043309 
L 120.610553 143.457535 
L 120.66448 143.431263 
L 120.934115 143.006592 
L 120.988042 143.09916 
L 121.041969 143.064218 
L 121.635165 142.071019 
L 121.743019 142.001044 
L 121.958727 141.400983 
L 122.066581 141.501192 
L 122.174435 141.558812 
L 122.875485 141.947643 
L 123.091193 142.42845 
L 123.14512 142.326791 
L 123.252973 142.351735 
L 123.468681 142.706512 
L 123.522608 142.596153 
L 123.630462 142.538854 
L 123.792243 142.998726 
L 123.84617 142.971897 
L 123.954024 142.900385 
L 124.115804 143.165733 
L 124.169731 143.106988 
L 124.439366 142.68656 
L 124.493293 142.753165 
L 124.762928 142.837981 
L 124.978635 142.647501 
L 125.086489 142.638275 
L 125.24827 142.315838 
L 125.302197 142.351512 
L 125.625759 143.022253 
L 125.679686 142.936791 
L 125.895393 142.360054 
L 125.94932 142.416894 
L 126.218955 142.957197 
L 126.326809 142.740913 
L 126.434663 142.471152 
L 126.48859 142.495318 
L 126.65037 142.519723 
L 126.812151 142.904726 
L 126.920005 142.709673 
L 126.973932 142.752854 
L 127.081786 142.92279 
L 127.135713 142.880447 
L 127.243567 142.683155 
L 127.297494 142.560311 
L 127.351421 142.638134 
L 127.567128 143.197416 
L 127.621055 143.152217 
L 127.728909 142.983579 
L 127.782836 143.019477 
L 127.836763 143.014132 
L 127.998544 143.261175 
L 128.214252 143.03011 
L 128.322106 142.994276 
L 128.429959 142.856225 
L 128.483886 142.919858 
L 128.645667 143.223494 
L 128.699594 143.188624 
L 128.807448 143.179016 
L 128.969229 143.767576 
L 129.13101 144.061239 
L 129.29279 143.903714 
L 129.346717 143.948413 
L 129.508498 144.034897 
L 129.993841 143.333748 
L 130.263475 143.238104 
L 130.856672 143.959405 
L 131.072379 144.096025 
L 131.180233 143.974949 
L 131.23416 144.027384 
L 131.503795 143.682509 
L 131.881283 143.07956 
L 131.989137 143.274012 
L 132.204845 144.031284 
L 132.258772 143.981576 
L 132.420553 143.771663 
L 132.744114 144.258294 
L 132.798041 144.207494 
L 133.121603 143.362193 
L 133.391238 143.265706 
L 133.499092 143.060411 
L 133.714799 142.480007 
L 133.87658 142.443919 
L 134.415849 143.467898 
L 134.469776 143.389969 
L 134.631557 143.152379 
L 134.847265 143.551233 
L 134.955119 143.72434 
L 135.170827 143.166756 
L 135.332607 142.142525 
L 135.656169 142.508257 
L 135.979731 143.127097 
L 136.033658 143.023011 
L 136.249365 142.825899 
L 136.357219 143.154264 
L 136.572927 143.619799 
L 136.842562 143.129077 
L 136.950416 143.500064 
L 137.112196 142.605281 
L 137.435758 143.153474 
L 137.597539 143.192597 
L 137.75932 143.322355 
L 138.136808 143.271978 
L 138.352516 143.00597 
L 138.730005 142.904464 
L 138.891785 142.732104 
L 139.107493 142.972833 
L 139.431055 143.611216 
L 139.484982 143.549696 
L 140.024251 142.989163 
L 140.186032 143.031586 
L 140.40174 142.872252 
L 140.56352 142.896028 
L 140.725301 143.070909 
L 140.994936 142.996892 
L 141.156717 142.818793 
L 141.264571 142.820933 
L 141.642059 142.981853 
L 141.749913 143.030422 
L 141.911694 143.158318 
L 141.965621 143.081897 
L 142.073475 142.971849 
L 142.127402 143.021119 
L 142.558817 143.09724 
L 142.720598 142.93607 
L 142.882379 142.950063 
L 142.990233 142.899464 
L 143.20594 143.440809 
L 143.259867 143.392616 
L 143.475575 142.496503 
L 143.583429 142.343818 
L 143.74521 142.099271 
L 144.014844 142.180897 
L 144.122698 142.432071 
L 144.44626 143.218801 
L 144.554114 143.133383 
L 144.715895 142.811952 
L 145.902287 143.859561 
L 146.117995 143.763105 
L 146.225849 143.751741 
L 146.495484 143.422523 
L 146.711191 143.356546 
L 146.980826 143.275311 
L 147.08868 143.368395 
L 147.196534 143.372213 
L 147.304388 143.301004 
L 147.358315 143.557321 
L 147.412241 143.495759 
L 148.059365 143.21298 
L 148.328999 143.601014 
L 148.382926 143.564073 
L 148.652561 143.396313 
L 148.814342 143.317373 
L 149.083977 143.600048 
L 149.137903 143.54577 
L 149.515392 143.363053 
L 149.838954 143.432427 
L 150.000734 143.371575 
L 150.054661 143.158746 
L 150.108588 143.295297 
L 150.216442 143.315386 
L 150.486077 143.112078 
L 150.701785 143.165058 
L 151.079273 143.304296 
L 151.83425 143.200185 
L 151.942104 143.283686 
L 152.211739 143.008973 
L 152.37352 143.064468 
L 152.535301 142.940958 
L 152.589227 143.007165 
L 152.643154 142.959957 
L 152.804935 142.896778 
L 153.020643 143.074737 
L 153.290278 142.942075 
L 153.77562 143.014147 
L 154.368816 143.260054 
L 154.47667 143.201151 
L 154.746305 143.063905 
L 154.800232 143.168901 
L 155.01594 142.656925 
L 155.177721 142.922114 
L 155.393428 142.933969 
L 155.770917 142.986976 
L 155.986625 143.322942 
L 156.256259 143.333313 
L 156.525894 143.518292 
L 157.442652 143.333282 
L 157.766214 142.896993 
L 158.089775 143.029759 
L 158.35941 143.06223 
L 158.682971 143.436901 
L 159.168314 143.20586 
L 159.384022 143.460615 
L 159.437949 143.491969 
L 159.599729 143.276332 
L 159.815437 143.278832 
L 159.923291 143.488831 
L 159.977218 143.418024 
L 160.031145 143.464968 
L 160.085072 143.522241 
L 160.246853 143.370046 
L 160.354707 143.393585 
L 160.46256 143.404235 
L 160.678268 143.183635 
L 160.840049 142.631469 
L 160.893976 142.649467 
L 161.00183 142.954133 
L 161.433245 144.184117 
L 161.487172 144.130846 
L 161.756807 142.961309 
L 161.810734 143.130188 
L 162.026442 144.139164 
L 162.134295 144.02691 
L 162.673565 142.10599 
L 162.727492 142.153518 
L 162.835346 141.246276 
L 162.9432 141.524579 
L 163.051053 141.60568 
L 163.266761 141.229959 
L 163.64425 140.674598 
L 163.752104 140.689903 
L 163.913884 140.511633 
L 164.453154 140.369921 
L 164.668862 140.764996 
L 164.938496 141.113535 
L 165.04635 141.143855 
L 165.423839 141.836495 
L 165.693473 141.959577 
L 166.28667 141.68732 
L 166.556304 140.738889 
L 166.610231 140.8411 
L 166.664158 140.96155 
L 166.825939 140.114486 
L 166.98772 138.272677 
L 167.095574 133.312158 
L 167.473062 92.232454 
L 167.634843 90.113702 
L 167.742697 90.281257 
L 167.850551 88.630588 
L 167.958405 88.873293 
L 168.120186 90.120609 
L 168.174112 89.746993 
L 168.443747 93.910839 
L 168.551601 98.086427 
L 168.821236 92.29669 
L 168.92909 90.045429 
L 168.983017 90.363189 
L 169.036943 90.601257 
L 169.198724 87.468999 
L 169.360505 85.642438 
L 169.522286 85.456528 
L 169.845848 84.731759 
L 170.061555 85.261285 
L 170.385117 86.49426 
L 170.492971 86.768868 
L 170.816532 90.336009 
L 171.086167 96.994051 
L 171.247948 100.879306 
L 171.463656 96.855618 
L 171.517583 96.844314 
L 171.625437 94.732139 
L 171.679363 95.615174 
L 171.73329 94.915961 
L 171.895071 94.231975 
L 171.948998 94.306116 
L 172.056852 93.124794 
L 172.218633 95.029557 
L 172.380414 94.141437 
L 172.434341 94.156192 
L 172.488268 94.290407 
L 172.865756 100.375073 
L 172.97361 98.954036 
L 173.351099 106.5955 
L 173.512879 101.463123 
L 173.620733 102.168795 
L 173.836441 108.394526 
L 173.890368 108.368477 
L 173.998222 109.338422 
L 174.160003 107.528271 
L 174.21393 107.550572 
L 174.37571 109.28325 
L 174.537491 110.713959 
L 174.645345 114.676967 
L 174.699272 113.608818 
L 174.91498 111.4433 
L 174.968907 113.268149 
L 175.022834 113.196255 
L 175.076761 112.416441 
L 175.184614 116.541371 
L 175.400322 123.002376 
L 175.454249 123.074202 
L 176.802423 152.876303 
L 177.125984 155.785708 
L 177.179911 155.816118 
L 177.287765 154.632041 
L 177.5574 144.868231 
L 178.042742 122.76606 
L 178.204523 128.581434 
L 178.420231 133.826118 
L 178.635938 135.906485 
L 179.013427 142.116742 
L 179.283062 142.7057 
L 179.66055 143.087597 
L 179.822331 143.261314 
L 180.19982 143.742595 
L 180.415527 143.539358 
L 180.631235 143.108228 
L 180.954797 143.336562 
L 181.116578 143.265534 
L 181.440139 143.318748 
L 181.655847 143.272939 
L 181.817628 143.595002 
L 181.871555 143.565079 
L 182.141189 143.295643 
L 182.680459 143.232307 
L 182.84224 143.115344 
L 183.165801 143.276537 
L 183.381509 143.089619 
L 183.435436 143.152577 
L 184.082559 143.249815 
L 184.24434 143.256426 
L 184.460048 143.292475 
L 185.053244 143.07647 
L 185.754294 143.296329 
L 186.239637 143.335349 
L 186.455344 143.024136 
L 186.563198 143.056195 
L 186.671052 143.238871 
L 186.724979 143.200471 
L 186.832833 143.10493 
L 186.994614 143.278255 
L 187.156395 143.353338 
L 187.210321 143.431703 
L 187.264248 143.391056 
L 187.426029 143.064526 
L 187.479956 143.192617 
L 187.641737 143.435045 
L 188.073153 143.350035 
L 188.181006 143.177488 
L 188.234933 143.247904 
L 188.558495 143.361756 
L 188.666349 143.520031 
L 188.98991 143.212165 
L 189.097764 143.131306 
L 189.205618 143.075307 
L 189.367399 143.426007 
L 189.421326 143.369335 
L 189.690961 143.090579 
L 189.906668 143.211467 
L 189.960595 142.976109 
L 190.014522 142.992092 
L 190.176303 143.434116 
L 190.338084 143.168802 
L 190.607719 143.459246 
L 190.769499 143.861641 
L 190.93128 143.591536 
L 190.985207 143.689377 
L 191.146988 143.598862 
L 191.416623 143.165095 
L 191.578403 143.382686 
L 191.686257 143.586151 
L 191.740184 143.501069 
L 191.955892 142.9853 
L 192.1716 143.242099 
L 192.225527 143.186736 
L 192.333381 143.138335 
L 192.603015 143.443547 
L 192.87265 143.699755 
L 192.980504 143.703786 
L 193.142285 143.519848 
L 193.250139 143.634881 
L 193.681554 142.868833 
L 193.843335 142.9102 
L 194.328677 143.354969 
L 194.706166 143.523295 
L 194.81402 143.654952 
L 194.867947 143.527326 
L 194.921874 143.586966 
L 194.975801 143.642861 
L 195.191508 142.854136 
L 195.245435 142.986572 
L 195.299362 143.021145 
L 195.51507 142.610621 
L 195.622924 142.694681 
L 195.784705 142.971944 
L 195.892558 142.840711 
L 196.162193 143.27653 
L 196.593609 142.363467 
L 196.971097 141.451889 
L 197.132878 141.373513 
L 197.186805 141.389483 
L 197.294659 141.260032 
L 197.726074 142.641503 
L 198.049636 142.032816 
L 198.15749 142.120749 
L 198.211417 142.248457 
L 198.265344 142.211117 
L 198.427125 142.000566 
L 198.534978 142.169883 
L 198.588905 142.131912 
L 198.85854 141.720964 
L 198.912467 141.808183 
L 198.966394 141.750881 
L 199.236029 141.623276 
L 199.613517 141.436985 
L 199.775298 141.534751 
L 200.152787 142.039837 
L 200.206713 141.98764 
L 201.177398 140.082564 
L 201.339179 140.08799 
L 201.878449 139.126308 
L 201.932375 139.142379 
L 202.20201 138.450636 
L 202.417718 137.393577 
L 202.687353 135.848015 
L 202.74128 135.904806 
L 202.90306 135.390573 
L 202.956987 135.51892 
L 203.064841 135.502557 
L 203.927672 132.941118 
L 204.089453 132.449602 
L 204.197307 132.394965 
L 204.466942 130.440627 
L 204.736576 128.335842 
L 204.790503 128.658285 
L 204.84443 128.522485 
L 204.898357 127.901286 
L 205.006211 127.940972 
L 205.167992 126.939762 
L 205.329773 128.14171 
L 205.3837 128.180866 
L 205.54548 128.939468 
L 205.599407 128.965535 
L 205.707261 129.577664 
L 205.869042 129.121482 
L 206.08475 129.509788 
L 206.138677 129.598822 
L 206.677946 127.971169 
L 206.731873 128.288518 
L 206.7858 128.156746 
L 206.893654 127.337097 
L 207.055435 128.126697 
L 207.163288 127.741633 
L 207.217215 127.894324 
L 207.271142 128.022837 
L 207.48685 126.467483 
L 207.540777 126.39116 
L 207.702558 127.40419 
L 207.864339 127.1255 
L 208.403608 121.624304 
L 208.619316 124.293103 
L 208.781097 125.296362 
L 208.996804 128.692872 
L 209.050731 128.597018 
L 209.158585 128.37887 
L 209.212512 128.465621 
L 209.266439 128.556052 
L 209.42822 129.682355 
L 209.536074 129.162387 
L 210.021416 132.156015 
L 210.291051 133.215726 
L 210.344978 133.107375 
L 210.398905 133.039371 
L 210.614612 133.559236 
L 210.668539 133.438024 
L 210.83032 133.507329 
L 210.992101 133.431378 
L 211.046028 133.264516 
L 211.099955 133.361183 
L 211.315663 133.789366 
L 211.477443 132.705848 
L 212.555982 126.285109 
L 212.717763 125.900109 
L 212.933471 124.705464 
L 212.987398 125.131185 
L 213.041325 124.78265 
L 213.095252 124.965035 
L 213.310959 123.400976 
L 213.418813 123.874147 
L 213.742375 125.631794 
L 213.904156 126.79422 
L 214.119863 127.22624 
L 214.281644 128.674362 
L 214.335571 128.458581 
L 214.389498 128.35689 
L 214.497352 127.628476 
L 214.551279 127.981096 
L 214.766987 129.867192 
L 214.982694 129.540436 
L 215.198402 130.345078 
L 215.41411 130.175777 
L 215.629818 129.244173 
L 215.683745 129.369271 
L 215.791598 130.111355 
L 215.845525 130.012011 
L 215.953379 129.988281 
L 216.007306 130.034876 
L 216.492649 131.481807 
L 216.546576 131.35325 
L 216.600503 131.500233 
L 216.654429 131.545459 
L 216.708356 131.817633 
L 216.762283 131.668032 
L 216.81621 131.69639 
L 216.977991 132.500245 
L 217.031918 132.421514 
L 217.301553 133.871266 
L 217.840822 136.824404 
L 217.948676 136.993736 
L 218.164384 137.717102 
L 218.595799 139.092779 
L 218.865434 139.954137 
L 219.027215 140.138515 
L 219.242922 140.518944 
L 219.404703 140.7041 
L 219.782192 141.123544 
L 219.836119 141.064133 
L 219.943973 141.139966 
L 220.213607 141.38079 
L 221.184292 142.792751 
L 221.4 142.664176 
L 221.561781 142.394245 
L 221.615708 142.445802 
L 221.885342 142.969134 
L 221.939269 142.929396 
L 222.047123 142.513394 
L 222.154977 143.760284 
L 222.208904 143.676238 
L 222.424612 142.577323 
L 222.694247 143.152828 
L 222.909954 143.048148 
L 223.395297 142.785504 
L 223.718858 142.870272 
L 223.934566 142.43075 
L 224.365982 142.808063 
L 224.527762 142.776257 
L 224.689543 142.678449 
L 224.797397 142.722202 
L 225.013105 142.947022 
L 225.28274 142.713306 
L 225.552374 143.115467 
L 225.98379 142.835783 
L 226.091644 142.812328 
L 226.307351 142.804607 
L 226.576986 142.927299 
L 226.846621 142.751572 
L 226.954475 142.700041 
L 227.008402 142.708277 
L 227.38589 143.492402 
L 227.493744 143.522386 
L 228.302648 142.89745 
L 228.464429 143.160676 
L 228.518356 143.094258 
L 228.680137 143.345139 
L 228.734064 143.472103 
L 228.78799 143.331079 
L 229.057625 142.665567 
L 229.111552 142.603823 
L 229.165479 142.694929 
L 229.381187 143.239715 
L 229.435114 143.176298 
L 229.650821 143.138893 
L 229.920456 143.110136 
L 230.082237 143.263994 
L 230.405799 143.192556 
L 230.459726 143.000384 
L 230.513652 141.951643 
L 230.567579 142.833283 
L 230.621506 143.580281 
L 230.675433 142.930593 
L 231.160776 141.552294 
L 231.322557 141.335873 
L 231.646118 140.430683 
L 231.700045 140.022626 
L 231.807899 140.892582 
L 231.861826 140.489248 
L 231.915753 140.581096 
L 232.023607 140.411195 
L 232.239314 139.760957 
L 232.401095 139.456287 
L 232.67073 138.848113 
L 232.778584 138.403906 
L 232.832511 139.219705 
L 232.886438 139.078085 
L 233.209999 137.460497 
L 233.587488 136.748245 
L 233.641415 135.970597 
L 233.695342 136.363577 
L 233.749269 136.915905 
L 233.803196 136.533488 
L 234.07283 135.213541 
L 234.450319 133.884088 
L 234.881734 131.556497 
L 235.205296 130.588178 
L 235.259223 130.68308 
L 235.31315 130.567986 
L 235.528858 129.705726 
L 235.636712 129.512537 
L 236.391689 127.245118 
L 237.308447 125.279166 
L 237.470227 124.98928 
L 237.847716 124.400459 
L 238.063424 124.28765 
L 238.279131 124.075509 
L 239.195889 123.32017 
L 239.303743 123.350964 
L 240.166574 122.309224 
L 240.274428 122.179224 
L 240.544063 121.892968 
L 241.29904 121.422536 
L 241.514748 121.486618 
L 241.730456 121.153377 
L 241.838309 121.036964 
L 242.00009 120.946874 
L 242.215798 120.872854 
L 242.647213 120.327673 
L 243.078629 119.783729 
L 243.402191 119.580999 
L 243.833606 119.450698 
L 244.103241 119.121822 
L 244.480729 118.466707 
L 244.588583 118.523865 
L 244.966072 117.606864 
L 245.127853 117.642033 
L 245.235706 117.479507 
L 245.505341 117.275866 
L 245.936757 117.303532 
L 246.098537 117.242782 
L 246.58388 116.615762 
L 246.799588 116.594383 
L 246.907442 116.523921 
L 247.015295 116.558945 
L 247.338857 115.926467 
L 247.878126 114.855064 
L 247.98598 114.832929 
L 248.363469 114.086933 
L 248.417396 114.081099 
L 248.579177 113.904472 
L 248.794884 113.890969 
L 248.956665 113.763677 
L 249.172373 113.294182 
L 249.334154 113.191595 
L 249.711642 112.736022 
L 249.981277 112.891094 
L 250.250912 112.987292 
L 250.358766 112.976346 
L 250.574473 113.261114 
L 250.6284 113.217847 
L 250.682327 113.133468 
L 250.736254 113.185033 
L 250.844108 113.365788 
L 250.951962 113.491934 
L 251.491231 112.696241 
L 251.653012 112.794435 
L 251.976574 112.54679 
L 252.138354 112.660983 
L 252.354062 112.803569 
L 252.56977 112.899336 
L 252.785478 112.482842 
L 252.947259 112.548689 
L 253.216893 112.164938 
L 253.486528 112.278427 
L 253.594382 112.19936 
L 253.702236 112.387863 
L 253.756163 112.342117 
L 253.917943 112.28999 
L 254.079724 112.307727 
L 254.349359 112.592817 
L 254.565067 113.094126 
L 254.834701 113.676132 
L 254.942555 113.863172 
L 255.158263 114.296277 
L 255.320044 114.321861 
L 255.91324 115.907578 
L 256.560363 119.803566 
L 256.776071 120.470261 
L 257.045706 121.345349 
L 257.207487 121.793659 
L 257.423194 123.186733 
L 258.232098 127.626685 
L 258.501733 128.575792 
L 259.094929 131.733825 
L 259.310637 132.874336 
L 259.580272 132.907333 
L 259.742053 133.562064 
L 260.658811 137.226659 
L 260.766665 137.298347 
L 260.874518 137.456703 
L 261.305934 138.73169 
L 261.629496 139.220337 
L 261.845203 139.741599 
L 261.89913 139.723368 
L 262.006984 139.680714 
L 262.222692 139.993303 
L 262.276619 139.87771 
L 262.384473 139.645629 
L 262.4384 139.719783 
L 262.761961 141.050731 
L 263.031596 142.686332 
L 263.085523 142.724087 
L 263.193377 142.373748 
L 263.409084 141.301484 
L 263.463011 141.330358 
L 263.570865 141.664995 
L 263.894427 142.885486 
L 264.002281 142.874506 
L 264.164062 142.577225 
L 264.379769 143.150547 
L 264.487623 143.130658 
L 264.703331 142.61964 
L 264.757258 142.63923 
L 264.919039 143.118144 
L 265.188673 143.899253 
L 265.458308 143.130552 
L 265.512235 143.281379 
L 265.835797 144.204891 
L 265.943651 144.247133 
L 266.159358 144.081869 
L 266.267212 144.362998 
L 266.644701 145.36485 
L 266.806482 145.950777 
L 267.18397 148.013572 
L 267.345751 148.354766 
L 267.453605 148.365713 
L 267.561459 148.725865 
L 268.208582 151.957876 
L 268.262509 151.930903 
L 268.370363 151.781231 
L 268.42429 151.861194 
L 268.532144 152.385729 
L 269.071413 155.56087 
L 269.341048 156.363845 
L 269.664609 158.124101 
L 270.096025 160.470522 
L 270.203879 160.651006 
L 270.473513 161.491965 
L 270.851002 163.027166 
L 271.120637 163.992906 
L 271.390271 164.437971 
L 272.145248 166.792316 
L 272.414883 167.841012 
L 272.846299 168.358839 
L 273.115933 167.966884 
L 273.16986 168.061492 
L 273.978764 171.915075 
L 274.194472 171.753082 
L 274.464107 171.338964 
L 274.625888 171.712512 
L 275.057303 172.679333 
L 275.380865 172.813059 
L 275.488719 172.706847 
L 275.542645 172.737953 
L 275.704426 172.710131 
L 276.027988 172.892061 
L 276.405476 173.454323 
L 276.51333 173.572389 
L 276.567257 173.528506 
L 277.0526 173.667705 
L 277.322234 173.224045 
L 277.484015 173.093048 
L 277.915431 173.043654 
L 278.508627 172.872368 
L 278.724335 172.517758 
L 278.832189 172.499458 
L 279.101823 172.152145 
L 279.209677 172.191318 
L 279.533239 172.40225 
L 279.69502 172.355797 
L 279.964654 171.842247 
L 280.665705 170.240356 
L 280.989266 169.763611 
L 281.312828 169.123368 
L 281.582462 169.05501 
L 281.744243 168.325718 
L 281.959951 167.685972 
L 282.175659 167.691281 
L 282.229586 167.644816 
L 282.553147 166.011687 
L 282.876709 164.62934 
L 283.03849 163.949747 
L 283.469905 161.942489 
L 283.793467 160.914573 
L 284.224882 158.507311 
L 284.278809 158.501882 
L 284.494517 157.755965 
L 285.14164 154.073521 
L 285.303421 153.852135 
L 285.411275 153.90238 
L 285.573056 152.845699 
L 285.950544 150.311837 
L 286.166252 149.775677 
L 286.274106 149.575754 
L 286.867302 147.462566 
L 287.08301 147.006906 
L 287.676206 144.079018 
L 287.730133 144.115559 
L 287.78406 144.181623 
L 287.837987 144.1195 
L 288.053695 143.773588 
L 288.215476 144.087096 
L 288.269403 144.046588 
L 288.539037 143.294899 
L 288.646891 143.436606 
L 288.862599 143.750336 
L 289.078307 143.451677 
L 289.240088 143.312628 
L 289.563649 143.683014 
L 289.887211 143.386395 
L 290.264699 143.874042 
L 290.318626 143.956235 
L 290.372553 143.8829 
L 290.534334 143.610345 
L 290.696115 143.518301 
L 290.857896 143.522534 
L 291.019677 143.579337 
L 291.181457 143.933205 
L 291.505019 143.374665 
L 291.558946 143.481922 
L 292.259996 144.410785 
L 292.475704 144.245535 
L 292.907119 144.567009 
L 293.122827 144.527806 
L 293.284608 144.571175 
L 293.823877 144.21614 
L 294.578854 142.389136 
L 294.740635 142.639003 
L 294.902416 143.242567 
L 294.956343 143.154776 
L 295.172051 142.644056 
L 295.225978 142.680455 
L 295.333832 142.598882 
L 295.441685 142.457799 
L 295.549539 142.924718 
L 295.765247 143.846766 
L 295.873101 143.582208 
L 295.980955 143.222833 
L 296.034882 143.29125 
L 296.628078 144.8432 
L 297.059494 143.831248 
L 297.275201 143.875214 
L 297.383055 143.853297 
L 297.706617 144.687643 
L 297.868398 144.156416 
L 298.084105 143.663319 
L 298.35374 143.761059 
L 298.461594 143.719363 
L 298.569448 143.597978 
L 298.677302 143.889252 
L 298.731229 143.816396 
L 299.000863 143.877424 
L 299.108717 144.178136 
L 299.216571 144.459179 
L 299.270498 144.403083 
L 299.701914 143.187698 
L 300.187256 143.540719 
L 300.29511 143.931996 
L 300.349037 143.915979 
L 300.618671 142.550175 
L 300.726525 142.703355 
L 301.050087 144.128452 
L 301.104014 144.067127 
L 301.535429 144.093692 
L 301.643283 143.873193 
L 302.128626 141.867409 
L 302.182553 141.966162 
L 302.344333 141.886276 
L 302.506114 142.517864 
L 302.613968 142.915444 
L 302.721822 142.645991 
L 302.775749 142.661658 
L 303.045384 142.170778 
L 303.207164 142.839953 
L 303.261091 142.854383 
L 303.476799 142.222037 
L 303.962142 140.95244 
L 304.016069 140.960758 
L 304.555338 142.30668 
L 304.663192 142.169875 
L 304.8789 142.463472 
L 305.633877 144.323164 
L 305.957438 144.472738 
L 306.173146 144.091182 
L 306.227073 144.081727 
L 306.388854 144.757112 
L 306.496708 145.043623 
L 306.766342 144.219014 
L 307.089904 142.284628 
L 307.251685 143.219046 
L 307.467393 144.758206 
L 307.790954 141.905441 
L 307.844881 142.008917 
L 308.114516 144.045778 
L 308.168443 143.965793 
L 308.438077 143.078561 
L 308.545931 144.257741 
L 308.653785 146.011625 
L 308.761639 143.02115 
L 308.869493 139.930894 
L 308.92342 140.074071 
L 309.193055 143.443026 
L 309.246982 143.348513 
L 309.300908 143.001909 
L 309.354835 143.143569 
L 309.62447 144.204603 
L 309.678397 144.079069 
L 309.840178 142.825675 
L 309.894105 142.850042 
L 310.055886 142.910335 
L 310.217666 143.103995 
L 310.433374 143.167461 
L 310.756936 143.081979 
L 310.86479 143.166074 
L 310.918717 143.303217 
L 311.02657 142.964494 
L 311.080497 142.992267 
L 311.457986 143.11333 
L 312.698306 143.097746 
L 314.90931 143.090958 
L 319.65488 143.092067 
L 319.762734 143.059991 
L 320.086296 143.11648 
L 320.841273 143.092561 
L 325.694698 143.091076 
L 330.76383 143.096632 
L 335.671181 143.093952 
L 339.446067 143.088684 
L 342.19634 143.094301 
L 346.726203 143.094847 
L 352.604239 143.093251 
L 354.222048 143.092978 
L 373.581818 143.093813 
L 373.581818 143.093813 
" style="fill:none;stroke:#ff7f0e;stroke-linecap:square;stroke-width:1.5;"/>
   </g>
   <g id="patch_3">
    <path d="M 54 210.24 
L 54 76.32 
" style="fill:none;stroke:#000000;stroke-linecap:square;stroke-linejoin:miter;stroke-width:0.8;"/>
   </g>
   <g id="patch_4">
    <path d="M 388.8 210.24 
L 388.8 76.32 
" style="fill:none;stroke:#000000;stroke-linecap:square;stroke-linejoin:miter;stroke-width:0.8;"/>
   </g>
   <g id="patch_5">
    <path d="M 54 210.24 
L 388.8 210.24 
" style="fill:none;stroke:#000000;stroke-linecap:square;stroke-linejoin:miter;stroke-width:0.8;"/>
   </g>
   <g id="patch_6">
    <path d="M 54 76.32 
L 388.8 76.32 
" style="fill:none;stroke:#000000;stroke-linecap:square;stroke-linejoin:miter;stroke-width:0.8;"/>
   </g>
   <g id="text_10">
    <!-- Roll -->
    <defs>
     <path d="M 44.390625 34.1875 
Q 47.5625 33.109375 50.5625 29.59375 
Q 53.5625 26.078125 56.59375 19.921875 
L 66.609375 0 
L 56 0 
L 46.6875 18.703125 
Q 43.0625 26.03125 39.671875 28.421875 
Q 36.28125 30.8125 30.421875 30.8125 
L 19.671875 30.8125 
L 19.671875 0 
L 9.8125 0 
L 9.8125 72.90625 
L 32.078125 72.90625 
Q 44.578125 72.90625 50.734375 67.671875 
Q 56.890625 62.453125 56.890625 51.90625 
Q 56.890625 45.015625 53.6875 40.46875 
Q 50.484375 35.9375 44.390625 34.1875 
z
M 19.671875 64.796875 
L 19.671875 38.921875 
L 32.078125 38.921875 
Q 39.203125 38.921875 42.84375 42.21875 
Q 46.484375 45.515625 46.484375 51.90625 
Q 46.484375 58.296875 42.84375 61.546875 
Q 39.203125 64.796875 32.078125 64.796875 
z
" id="DejaVuSans-82"/>
     <path d="M 30.609375 48.390625 
Q 23.390625 48.390625 19.1875 42.75 
Q 14.984375 37.109375 14.984375 27.296875 
Q 14.984375 17.484375 19.15625 11.84375 
Q 23.34375 6.203125 30.609375 6.203125 
Q 37.796875 6.203125 41.984375 11.859375 
Q 46.1875 17.53125 46.1875 27.296875 
Q 46.1875 37.015625 41.984375 42.703125 
Q 37.796875 48.390625 30.609375 48.390625 
z
M 30.609375 56 
Q 42.328125 56 49.015625 48.375 
Q 55.71875 40.765625 55.71875 27.296875 
Q 55.71875 13.875 49.015625 6.21875 
Q 42.328125 -1.421875 30.609375 -1.421875 
Q 18.84375 -1.421875 12.171875 6.21875 
Q 5.515625 13.875 5.515625 27.296875 
Q 5.515625 40.765625 12.171875 48.375 
Q 18.84375 56 30.609375 56 
z
" id="DejaVuSans-111"/>
     <path d="M 9.421875 75.984375 
L 18.40625 75.984375 
L 18.40625 0 
L 9.421875 0 
z
" id="DejaVuSans-108"/>
    </defs>
    <g transform="translate(210.229688 70.32)scale(0.12 -0.12)">
     <use xlink:href="#DejaVuSans-82"/>
     <use x="69.419922" xlink:href="#DejaVuSans-111"/>
     <use x="130.601562" xlink:href="#DejaVuSans-108"/>
     <use x="158.384766" xlink:href="#DejaVuSans-108"/>
    </g>
   </g>
   <g id="legend_1">
    <g id="patch_7">
     <path d="M 61 113.67625 
L 143.351562 113.67625 
Q 145.351562 113.67625 145.351562 111.67625 
L 145.351562 83.32 
Q 145.351562 81.32 143.351562 81.32 
L 61 81.32 
Q 59 81.32 59 83.32 
L 59 111.67625 
Q 59 113.67625 61 113.67625 
z
" style="fill:#ffffff;opacity:0.8;stroke:#cccccc;stroke-linejoin:miter;"/>
    </g>
    <g id="line2d_12">
     <path d="M 63 89.418437 
L 83 89.418437 
" style="fill:none;stroke:#1f77b4;stroke-linecap:square;stroke-width:1.5;"/>
    </g>
    <g id="line2d_13"/>
    <g id="text_11">
     <!-- vicon -->
     <defs>
      <path d="M 2.984375 54.6875 
L 12.5 54.6875 
L 29.59375 8.796875 
L 46.6875 54.6875 
L 56.203125 54.6875 
L 35.6875 0 
L 23.484375 0 
z
" id="DejaVuSans-118"/>
      <path d="M 9.421875 54.6875 
L 18.40625 54.6875 
L 18.40625 0 
L 9.421875 0 
z
M 9.421875 75.984375 
L 18.40625 75.984375 
L 18.40625 64.59375 
L 9.421875 64.59375 
z
" id="DejaVuSans-105"/>
      <path d="M 48.78125 52.59375 
L 48.78125 44.1875 
Q 44.96875 46.296875 41.140625 47.34375 
Q 37.3125 48.390625 33.40625 48.390625 
Q 24.65625 48.390625 19.8125 42.84375 
Q 14.984375 37.3125 14.984375 27.296875 
Q 14.984375 17.28125 19.8125 11.734375 
Q 24.65625 6.203125 33.40625 6.203125 
Q 37.3125 6.203125 41.140625 7.25 
Q 44.96875 8.296875 48.78125 10.40625 
L 48.78125 2.09375 
Q 45.015625 0.34375 40.984375 -0.53125 
Q 36.96875 -1.421875 32.421875 -1.421875 
Q 20.0625 -1.421875 12.78125 6.34375 
Q 5.515625 14.109375 5.515625 27.296875 
Q 5.515625 40.671875 12.859375 48.328125 
Q 20.21875 56 33.015625 56 
Q 37.15625 56 41.109375 55.140625 
Q 45.0625 54.296875 48.78125 52.59375 
z
" id="DejaVuSans-99"/>
      <path d="M 54.890625 33.015625 
L 54.890625 0 
L 45.90625 0 
L 45.90625 32.71875 
Q 45.90625 40.484375 42.875 44.328125 
Q 39.84375 48.1875 33.796875 48.1875 
Q 26.515625 48.1875 22.3125 43.546875 
Q 18.109375 38.921875 18.109375 30.90625 
L 18.109375 0 
L 9.078125 0 
L 9.078125 54.6875 
L 18.109375 54.6875 
L 18.109375 46.1875 
Q 21.34375 51.125 25.703125 53.5625 
Q 30.078125 56 35.796875 56 
Q 45.21875 56 50.046875 50.171875 
Q 54.890625 44.34375 54.890625 33.015625 
z
" id="DejaVuSans-110"/>
     </defs>
     <g transform="translate(91 92.918437)scale(0.1 -0.1)">
      <use xlink:href="#DejaVuSans-118"/>
      <use x="59.179688" xlink:href="#DejaVuSans-105"/>
      <use x="86.962891" xlink:href="#DejaVuSans-99"/>
      <use x="141.943359" xlink:href="#DejaVuSans-111"/>
      <use x="203.125" xlink:href="#DejaVuSans-110"/>
     </g>
    </g>
    <g id="line2d_14">
     <path d="M 63 104.096562 
L 83 104.096562 
" style="fill:none;stroke:#ff7f0e;stroke-linecap:square;stroke-width:1.5;"/>
    </g>
    <g id="line2d_15"/>
    <g id="text_12">
     <!-- estimated -->
     <defs>
      <path d="M 56.203125 29.59375 
L 56.203125 25.203125 
L 14.890625 25.203125 
Q 15.484375 15.921875 20.484375 11.0625 
Q 25.484375 6.203125 34.421875 6.203125 
Q 39.59375 6.203125 44.453125 7.46875 
Q 49.3125 8.734375 54.109375 11.28125 
L 54.109375 2.78125 
Q 49.265625 0.734375 44.1875 -0.34375 
Q 39.109375 -1.421875 33.890625 -1.421875 
Q 20.796875 -1.421875 13.15625 6.1875 
Q 5.515625 13.8125 5.515625 26.8125 
Q 5.515625 40.234375 12.765625 48.109375 
Q 20.015625 56 32.328125 56 
Q 43.359375 56 49.78125 48.890625 
Q 56.203125 41.796875 56.203125 29.59375 
z
M 47.21875 32.234375 
Q 47.125 39.59375 43.09375 43.984375 
Q 39.0625 48.390625 32.421875 48.390625 
Q 24.90625 48.390625 20.390625 44.140625 
Q 15.875 39.890625 15.1875 32.171875 
z
" id="DejaVuSans-101"/>
      <path d="M 44.28125 53.078125 
L 44.28125 44.578125 
Q 40.484375 46.53125 36.375 47.5 
Q 32.28125 48.484375 27.875 48.484375 
Q 21.1875 48.484375 17.84375 46.4375 
Q 14.5 44.390625 14.5 40.28125 
Q 14.5 37.15625 16.890625 35.375 
Q 19.28125 33.59375 26.515625 31.984375 
L 29.59375 31.296875 
Q 39.15625 29.25 43.1875 25.515625 
Q 47.21875 21.78125 47.21875 15.09375 
Q 47.21875 7.46875 41.1875 3.015625 
Q 35.15625 -1.421875 24.609375 -1.421875 
Q 20.21875 -1.421875 15.453125 -0.5625 
Q 10.6875 0.296875 5.421875 2 
L 5.421875 11.28125 
Q 10.40625 8.6875 15.234375 7.390625 
Q 20.0625 6.109375 24.8125 6.109375 
Q 31.15625 6.109375 34.5625 8.28125 
Q 37.984375 10.453125 37.984375 14.40625 
Q 37.984375 18.0625 35.515625 20.015625 
Q 33.0625 21.96875 24.703125 23.78125 
L 21.578125 24.515625 
Q 13.234375 26.265625 9.515625 29.90625 
Q 5.8125 33.546875 5.8125 39.890625 
Q 5.8125 47.609375 11.28125 51.796875 
Q 16.75 56 26.8125 56 
Q 31.78125 56 36.171875 55.265625 
Q 40.578125 54.546875 44.28125 53.078125 
z
" id="DejaVuSans-115"/>
      <path d="M 18.3125 70.21875 
L 18.3125 54.6875 
L 36.8125 54.6875 
L 36.8125 47.703125 
L 18.3125 47.703125 
L 18.3125 18.015625 
Q 18.3125 11.328125 20.140625 9.421875 
Q 21.96875 7.515625 27.59375 7.515625 
L 36.8125 7.515625 
L 36.8125 0 
L 27.59375 0 
Q 17.1875 0 13.234375 3.875 
Q 9.28125 7.765625 9.28125 18.015625 
L 9.28125 47.703125 
L 2.6875 47.703125 
L 2.6875 54.6875 
L 9.28125 54.6875 
L 9.28125 70.21875 
z
" id="DejaVuSans-116"/>
      <path d="M 52 44.1875 
Q 55.375 50.25 60.0625 53.125 
Q 64.75 56 71.09375 56 
Q 79.640625 56 84.28125 50.015625 
Q 88.921875 44.046875 88.921875 33.015625 
L 88.921875 0 
L 79.890625 0 
L 79.890625 32.71875 
Q 79.890625 40.578125 77.09375 44.375 
Q 74.3125 48.1875 68.609375 48.1875 
Q 61.625 48.1875 57.5625 43.546875 
Q 53.515625 38.921875 53.515625 30.90625 
L 53.515625 0 
L 44.484375 0 
L 44.484375 32.71875 
Q 44.484375 40.625 41.703125 44.40625 
Q 38.921875 48.1875 33.109375 48.1875 
Q 26.21875 48.1875 22.15625 43.53125 
Q 18.109375 38.875 18.109375 30.90625 
L 18.109375 0 
L 9.078125 0 
L 9.078125 54.6875 
L 18.109375 54.6875 
L 18.109375 46.1875 
Q 21.1875 51.21875 25.484375 53.609375 
Q 29.78125 56 35.6875 56 
Q 41.65625 56 45.828125 52.96875 
Q 50 49.953125 52 44.1875 
z
" id="DejaVuSans-109"/>
      <path d="M 34.28125 27.484375 
Q 23.390625 27.484375 19.1875 25 
Q 14.984375 22.515625 14.984375 16.5 
Q 14.984375 11.71875 18.140625 8.90625 
Q 21.296875 6.109375 26.703125 6.109375 
Q 34.1875 6.109375 38.703125 11.40625 
Q 43.21875 16.703125 43.21875 25.484375 
L 43.21875 27.484375 
z
M 52.203125 31.203125 
L 52.203125 0 
L 43.21875 0 
L 43.21875 8.296875 
Q 40.140625 3.328125 35.546875 0.953125 
Q 30.953125 -1.421875 24.3125 -1.421875 
Q 15.921875 -1.421875 10.953125 3.296875 
Q 6 8.015625 6 15.921875 
Q 6 25.140625 12.171875 29.828125 
Q 18.359375 34.515625 30.609375 34.515625 
L 43.21875 34.515625 
L 43.21875 35.40625 
Q 43.21875 41.609375 39.140625 45 
Q 35.0625 48.390625 27.6875 48.390625 
Q 23 48.390625 18.546875 47.265625 
Q 14.109375 46.140625 10.015625 43.890625 
L 10.015625 52.203125 
Q 14.9375 54.109375 19.578125 55.046875 
Q 24.21875 56 28.609375 56 
Q 40.484375 56 46.34375 49.84375 
Q 52.203125 43.703125 52.203125 31.203125 
z
" id="DejaVuSans-97"/>
      <path d="M 45.40625 46.390625 
L 45.40625 75.984375 
L 54.390625 75.984375 
L 54.390625 0 
L 45.40625 0 
L 45.40625 8.203125 
Q 42.578125 3.328125 38.25 0.953125 
Q 33.9375 -1.421875 27.875 -1.421875 
Q 17.96875 -1.421875 11.734375 6.484375 
Q 5.515625 14.40625 5.515625 27.296875 
Q 5.515625 40.1875 11.734375 48.09375 
Q 17.96875 56 27.875 56 
Q 33.9375 56 38.25 53.625 
Q 42.578125 51.265625 45.40625 46.390625 
z
M 14.796875 27.296875 
Q 14.796875 17.390625 18.875 11.75 
Q 22.953125 6.109375 30.078125 6.109375 
Q 37.203125 6.109375 41.296875 11.75 
Q 45.40625 17.390625 45.40625 27.296875 
Q 45.40625 37.203125 41.296875 42.84375 
Q 37.203125 48.484375 30.078125 48.484375 
Q 22.953125 48.484375 18.875 42.84375 
Q 14.796875 37.203125 14.796875 27.296875 
z
" id="DejaVuSans-100"/>
     </defs>
     <g transform="translate(91 107.596562)scale(0.1 -0.1)">
      <use xlink:href="#DejaVuSans-101"/>
      <use x="61.523438" xlink:href="#DejaVuSans-115"/>
      <use x="113.623047" xlink:href="#DejaVuSans-116"/>
      <use x="152.832031" xlink:href="#DejaVuSans-105"/>
      <use x="180.615234" xlink:href="#DejaVuSans-109"/>
      <use x="278.027344" xlink:href="#DejaVuSans-97"/>
      <use x="339.306641" xlink:href="#DejaVuSans-116"/>
      <use x="378.515625" xlink:href="#DejaVuSans-101"/>
      <use x="440.039062" xlink:href="#DejaVuSans-100"/>
     </g>
    </g>
   </g>
  </g>
 </g>
 <defs>
  <clipPath id="pe7bdbaf2d6">
   <rect height="133.92" width="334.8" x="54" y="76.32"/>
  </clipPath>
 </defs>
</svg>
