<?xml version="1.0" encoding="utf-8" standalone="no"?>
<!DOCTYPE svg PUBLIC "-//W3C//DTD SVG 1.1//EN"
  "http://www.w3.org/Graphics/SVG/1.1/DTD/svg11.dtd">
<!-- Created with matplotlib (https://matplotlib.org/) -->
<svg height="288pt" version="1.1" viewBox="0 0 432 288" width="432pt" xmlns="http://www.w3.org/2000/svg" xmlns:xlink="http://www.w3.org/1999/xlink">
 <defs>
  <style type="text/css">
*{stroke-linecap:butt;stroke-linejoin:round;}
  </style>
 </defs>
 <g id="figure_1">
  <g id="patch_1">
   <path d="M 0 288 
L 432 288 
L 432 0 
L 0 0 
z
" style="fill:#ffffff;"/>
  </g>
  <g id="axes_1">
   <g id="patch_2">
    <path d="M 54 210.24 
L 388.8 210.24 
L 388.8 76.32 
L 54 76.32 
z
" style="fill:#ffffff;"/>
   </g>
   <g id="matplotlib.axis_1">
    <g id="xtick_1">
     <g id="line2d_1">
      <defs>
       <path d="M 0 0 
L 0 3.5 
" id="m33d49c6379" style="stroke:#000000;stroke-width:0.8;"/>
      </defs>
      <g>
       <use style="stroke:#000000;stroke-width:0.8;" x="69.218182" xlink:href="#m33d49c6379" y="210.24"/>
      </g>
     </g>
     <g id="text_1">
      <!-- 0 -->
      <defs>
       <path d="M 31.78125 66.40625 
Q 24.171875 66.40625 20.328125 58.90625 
Q 16.5 51.421875 16.5 36.375 
Q 16.5 21.390625 20.328125 13.890625 
Q 24.171875 6.390625 31.78125 6.390625 
Q 39.453125 6.390625 43.28125 13.890625 
Q 47.125 21.390625 47.125 36.375 
Q 47.125 51.421875 43.28125 58.90625 
Q 39.453125 66.40625 31.78125 66.40625 
z
M 31.78125 74.21875 
Q 44.046875 74.21875 50.515625 64.515625 
Q 56.984375 54.828125 56.984375 36.375 
Q 56.984375 17.96875 50.515625 8.265625 
Q 44.046875 -1.421875 31.78125 -1.421875 
Q 19.53125 -1.421875 13.0625 8.265625 
Q 6.59375 17.96875 6.59375 36.375 
Q 6.59375 54.828125 13.0625 64.515625 
Q 19.53125 74.21875 31.78125 74.21875 
z
" id="DejaVuSans-48"/>
      </defs>
      <g transform="translate(66.036932 224.838437)scale(0.1 -0.1)">
       <use xlink:href="#DejaVuSans-48"/>
      </g>
     </g>
    </g>
    <g id="xtick_2">
     <g id="line2d_2">
      <g>
       <use style="stroke:#000000;stroke-width:0.8;" x="134.017764" xlink:href="#m33d49c6379" y="210.24"/>
      </g>
     </g>
     <g id="text_2">
      <!-- 1000 -->
      <defs>
       <path d="M 12.40625 8.296875 
L 28.515625 8.296875 
L 28.515625 63.921875 
L 10.984375 60.40625 
L 10.984375 69.390625 
L 28.421875 72.90625 
L 38.28125 72.90625 
L 38.28125 8.296875 
L 54.390625 8.296875 
L 54.390625 0 
L 12.40625 0 
z
" id="DejaVuSans-49"/>
      </defs>
      <g transform="translate(121.292764 224.838437)scale(0.1 -0.1)">
       <use xlink:href="#DejaVuSans-49"/>
       <use x="63.623047" xlink:href="#DejaVuSans-48"/>
       <use x="127.246094" xlink:href="#DejaVuSans-48"/>
       <use x="190.869141" xlink:href="#DejaVuSans-48"/>
      </g>
     </g>
    </g>
    <g id="xtick_3">
     <g id="line2d_3">
      <g>
       <use style="stroke:#000000;stroke-width:0.8;" x="198.817346" xlink:href="#m33d49c6379" y="210.24"/>
      </g>
     </g>
     <g id="text_3">
      <!-- 2000 -->
      <defs>
       <path d="M 19.1875 8.296875 
L 53.609375 8.296875 
L 53.609375 0 
L 7.328125 0 
L 7.328125 8.296875 
Q 12.9375 14.109375 22.625 23.890625 
Q 32.328125 33.6875 34.8125 36.53125 
Q 39.546875 41.84375 41.421875 45.53125 
Q 43.3125 49.21875 43.3125 52.78125 
Q 43.3125 58.59375 39.234375 62.25 
Q 35.15625 65.921875 28.609375 65.921875 
Q 23.96875 65.921875 18.8125 64.3125 
Q 13.671875 62.703125 7.8125 59.421875 
L 7.8125 69.390625 
Q 13.765625 71.78125 18.9375 73 
Q 24.125 74.21875 28.421875 74.21875 
Q 39.75 74.21875 46.484375 68.546875 
Q 53.21875 62.890625 53.21875 53.421875 
Q 53.21875 48.921875 51.53125 44.890625 
Q 49.859375 40.875 45.40625 35.40625 
Q 44.1875 33.984375 37.640625 27.21875 
Q 31.109375 20.453125 19.1875 8.296875 
z
" id="DejaVuSans-50"/>
      </defs>
      <g transform="translate(186.092346 224.838437)scale(0.1 -0.1)">
       <use xlink:href="#DejaVuSans-50"/>
       <use x="63.623047" xlink:href="#DejaVuSans-48"/>
       <use x="127.246094" xlink:href="#DejaVuSans-48"/>
       <use x="190.869141" xlink:href="#DejaVuSans-48"/>
      </g>
     </g>
    </g>
    <g id="xtick_4">
     <g id="line2d_4">
      <g>
       <use style="stroke:#000000;stroke-width:0.8;" x="263.616928" xlink:href="#m33d49c6379" y="210.24"/>
      </g>
     </g>
     <g id="text_4">
      <!-- 3000 -->
      <defs>
       <path d="M 40.578125 39.3125 
Q 47.65625 37.796875 51.625 33 
Q 55.609375 28.21875 55.609375 21.1875 
Q 55.609375 10.40625 48.1875 4.484375 
Q 40.765625 -1.421875 27.09375 -1.421875 
Q 22.515625 -1.421875 17.65625 -0.515625 
Q 12.796875 0.390625 7.625 2.203125 
L 7.625 11.71875 
Q 11.71875 9.328125 16.59375 8.109375 
Q 21.484375 6.890625 26.8125 6.890625 
Q 36.078125 6.890625 40.9375 10.546875 
Q 45.796875 14.203125 45.796875 21.1875 
Q 45.796875 27.640625 41.28125 31.265625 
Q 36.765625 34.90625 28.71875 34.90625 
L 20.21875 34.90625 
L 20.21875 43.015625 
L 29.109375 43.015625 
Q 36.375 43.015625 40.234375 45.921875 
Q 44.09375 48.828125 44.09375 54.296875 
Q 44.09375 59.90625 40.109375 62.90625 
Q 36.140625 65.921875 28.71875 65.921875 
Q 24.65625 65.921875 20.015625 65.03125 
Q 15.375 64.15625 9.8125 62.3125 
L 9.8125 71.09375 
Q 15.4375 72.65625 20.34375 73.4375 
Q 25.25 74.21875 29.59375 74.21875 
Q 40.828125 74.21875 47.359375 69.109375 
Q 53.90625 64.015625 53.90625 55.328125 
Q 53.90625 49.265625 50.4375 45.09375 
Q 46.96875 40.921875 40.578125 39.3125 
z
" id="DejaVuSans-51"/>
      </defs>
      <g transform="translate(250.891928 224.838437)scale(0.1 -0.1)">
       <use xlink:href="#DejaVuSans-51"/>
       <use x="63.623047" xlink:href="#DejaVuSans-48"/>
       <use x="127.246094" xlink:href="#DejaVuSans-48"/>
       <use x="190.869141" xlink:href="#DejaVuSans-48"/>
      </g>
     </g>
    </g>
    <g id="xtick_5">
     <g id="line2d_5">
      <g>
       <use style="stroke:#000000;stroke-width:0.8;" x="328.41651" xlink:href="#m33d49c6379" y="210.24"/>
      </g>
     </g>
     <g id="text_5">
      <!-- 4000 -->
      <defs>
       <path d="M 37.796875 64.3125 
L 12.890625 25.390625 
L 37.796875 25.390625 
z
M 35.203125 72.90625 
L 47.609375 72.90625 
L 47.609375 25.390625 
L 58.015625 25.390625 
L 58.015625 17.1875 
L 47.609375 17.1875 
L 47.609375 0 
L 37.796875 0 
L 37.796875 17.1875 
L 4.890625 17.1875 
L 4.890625 26.703125 
z
" id="DejaVuSans-52"/>
      </defs>
      <g transform="translate(315.69151 224.838437)scale(0.1 -0.1)">
       <use xlink:href="#DejaVuSans-52"/>
       <use x="63.623047" xlink:href="#DejaVuSans-48"/>
       <use x="127.246094" xlink:href="#DejaVuSans-48"/>
       <use x="190.869141" xlink:href="#DejaVuSans-48"/>
      </g>
     </g>
    </g>
   </g>
   <g id="matplotlib.axis_2">
    <g id="ytick_1">
     <g id="line2d_6">
      <defs>
       <path d="M 0 0 
L -3.5 0 
" id="me87a9d80ec" style="stroke:#000000;stroke-width:0.8;"/>
      </defs>
      <g>
       <use style="stroke:#000000;stroke-width:0.8;" x="54" xlink:href="#me87a9d80ec" y="208.447643"/>
      </g>
     </g>
     <g id="text_6">
      <!-- −3 -->
      <defs>
       <path d="M 10.59375 35.5 
L 73.1875 35.5 
L 73.1875 27.203125 
L 10.59375 27.203125 
z
" id="DejaVuSans-8722"/>
      </defs>
      <g transform="translate(32.257812 212.246861)scale(0.1 -0.1)">
       <use xlink:href="#DejaVuSans-8722"/>
       <use x="83.789062" xlink:href="#DejaVuSans-51"/>
      </g>
     </g>
    </g>
    <g id="ytick_2">
     <g id="line2d_7">
      <g>
       <use style="stroke:#000000;stroke-width:0.8;" x="54" xlink:href="#me87a9d80ec" y="181.532823"/>
      </g>
     </g>
     <g id="text_7">
      <!-- −2 -->
      <g transform="translate(32.257812 185.332042)scale(0.1 -0.1)">
       <use xlink:href="#DejaVuSans-8722"/>
       <use x="83.789062" xlink:href="#DejaVuSans-50"/>
      </g>
     </g>
    </g>
    <g id="ytick_3">
     <g id="line2d_8">
      <g>
       <use style="stroke:#000000;stroke-width:0.8;" x="54" xlink:href="#me87a9d80ec" y="154.618004"/>
      </g>
     </g>
     <g id="text_8">
      <!-- −1 -->
      <g transform="translate(32.257812 158.417223)scale(0.1 -0.1)">
       <use xlink:href="#DejaVuSans-8722"/>
       <use x="83.789062" xlink:href="#DejaVuSans-49"/>
      </g>
     </g>
    </g>
    <g id="ytick_4">
     <g id="line2d_9">
      <g>
       <use style="stroke:#000000;stroke-width:0.8;" x="54" xlink:href="#me87a9d80ec" y="127.703185"/>
      </g>
     </g>
     <g id="text_9">
      <!-- 0 -->
      <g transform="translate(40.6375 131.502404)scale(0.1 -0.1)">
       <use xlink:href="#DejaVuSans-48"/>
      </g>
     </g>
    </g>
    <g id="ytick_5">
     <g id="line2d_10">
      <g>
       <use style="stroke:#000000;stroke-width:0.8;" x="54" xlink:href="#me87a9d80ec" y="100.788366"/>
      </g>
     </g>
     <g id="text_10">
      <!-- 1 -->
      <g transform="translate(40.6375 104.587585)scale(0.1 -0.1)">
       <use xlink:href="#DejaVuSans-49"/>
      </g>
     </g>
    </g>
   </g>
   <g id="line2d_11">
    <path clip-path="url(#p14be7e49ab)" d="M 69.218182 126.898222 
L 110.495516 126.861992 
L 110.754714 126.843131 
L 113.217098 126.899872 
L 113.541096 126.829921 
L 115.679482 126.885219 
L 115.809081 126.984896 
L 116.00348 126.890276 
L 116.197879 126.94728 
L 119.826655 126.84988 
L 120.474651 126.767819 
L 121.122647 127.074305 
L 121.252246 127.031986 
L 121.705843 127.127335 
L 122.029841 127.152827 
L 122.937035 126.917567 
L 124.103428 126.880616 
L 124.816223 126.662687 
L 125.464219 126.378397 
L 125.529019 126.60692 
L 125.593818 126.58341 
L 126.112215 126.323582 
L 126.177014 126.552486 
L 126.241814 126.371176 
L 126.306614 126.403436 
L 126.760211 126.370847 
L 128.121002 126.124415 
L 128.509799 126.094656 
L 128.963396 125.893614 
L 129.416993 125.770582 
L 130.259388 125.83862 
L 130.972183 125.796803 
L 132.073776 125.634894 
L 132.527373 125.731289 
L 134.341762 125.704618 
L 135.832152 126.00835 
L 138.488935 125.601132 
L 139.007332 125.411729 
L 139.460929 125.659554 
L 139.979325 126.005598 
L 140.562522 126.484045 
L 141.210517 126.84245 
L 141.664114 126.898639 
L 142.052912 127.011833 
L 143.672901 126.897308 
L 144.450496 127.061925 
L 145.746488 126.994674 
L 146.135286 127.018931 
L 147.755275 126.983794 
L 153.004041 127.260191 
L 153.652037 127.20618 
L 153.911235 127.152667 
L 154.75363 126.988219 
L 155.207227 126.828935 
L 156.30882 126.628061 
L 156.438419 126.526813 
L 156.632818 126.511783 
L 157.151215 126.425106 
L 157.216014 126.532653 
L 157.280814 126.431888 
L 157.993609 126.455295 
L 158.123208 126.451688 
L 158.512006 126.5195 
L 158.576805 126.485229 
L 158.706404 126.586344 
L 158.900803 126.555023 
L 159.030402 126.724821 
L 159.224801 126.704672 
L 159.613599 126.900593 
L 159.743198 126.911438 
L 160.002396 126.998335 
L 160.326394 127.104561 
L 160.391194 127.005948 
L 160.455993 127.056726 
L 160.585592 127.07291 
L 160.715192 127.007775 
L 160.779991 127.03059 
L 160.844791 127.198685 
L 160.90959 127.057194 
L 160.97439 127.283036 
L 161.039189 127.251945 
L 161.233588 127.20071 
L 161.557586 127.457739 
L 161.687185 127.445541 
L 162.011183 127.813124 
L 162.140782 127.706185 
L 162.335181 127.978505 
L 162.399981 128.028829 
L 162.46478 127.87033 
L 162.659179 128.255279 
L 162.723979 128.234031 
L 162.788778 128.368176 
L 162.853578 128.199119 
L 162.983177 128.658131 
L 163.047976 128.575482 
L 163.177576 129.218851 
L 163.242375 128.972929 
L 163.436774 129.847151 
L 163.501574 129.50516 
L 163.566373 129.71732 
L 163.760772 130.945303 
L 163.890371 130.76604 
L 163.955171 130.62168 
L 164.08477 131.48897 
L 164.149569 131.475002 
L 164.214369 131.665712 
L 164.667966 138.378727 
L 164.862365 148.943983 
L 165.251162 192.033985 
L 165.63996 200.150188 
L 165.769559 201.817363 
L 165.834358 201.17133 
L 166.028757 202.85892 
L 166.093557 201.878145 
L 166.158356 201.959082 
L 166.287956 202.507379 
L 166.611953 200.595576 
L 166.935951 196.086717 
L 167.065551 194.250769 
L 167.389548 185.226163 
L 167.648747 177.478573 
L 168.296743 155.518815 
L 168.75034 139.518102 
L 169.074338 133.819887 
L 169.268736 131.558877 
L 169.333536 131.486287 
L 169.463135 130.170184 
L 169.527935 130.178136 
L 169.722333 129.269577 
L 170.17593 128.351096 
L 170.370329 128.129704 
L 170.435129 128.213794 
L 170.499928 128.145858 
L 170.759127 127.874893 
L 170.823926 127.861153 
L 171.083125 127.376782 
L 171.212724 127.42891 
L 173.739907 126.770038 
L 174.452703 126.814453 
L 175.165498 126.678209 
L 175.359897 126.694414 
L 175.619095 126.702172 
L 176.007893 126.676099 
L 176.137492 126.71539 
L 176.850287 126.651823 
L 177.303884 126.679638 
L 177.757482 126.710388 
L 178.340678 126.850046 
L 178.664676 126.803926 
L 178.923874 126.826942 
L 179.701469 126.840499 
L 180.155066 126.909894 
L 180.803062 126.948518 
L 181.191859 126.943679 
L 183.200646 126.912192 
L 184.496638 126.793346 
L 185.403832 126.87882 
L 187.153421 127.367078 
L 187.607018 127.448236 
L 188.255014 127.409079 
L 189.680605 126.969902 
L 190.3934 127.035825 
L 190.717398 127.048515 
L 192.661385 126.930059 
L 193.56858 126.761186 
L 193.892577 126.672502 
L 194.864571 126.460307 
L 195.12377 126.369172 
L 195.577367 126.322899 
L 196.290162 126.124795 
L 196.938158 125.857394 
L 197.326955 125.71441 
L 197.974951 125.291745 
L 198.493348 124.804347 
L 199.983738 123.358105 
L 200.502135 123.052523 
L 200.890932 122.731895 
L 201.150131 122.486406 
L 203.418116 118.779244 
L 204.32531 117.247965 
L 204.908506 115.997565 
L 205.9453 113.95042 
L 206.269298 112.746962 
L 206.334097 112.615734 
L 207.43569 103.60946 
L 208.407684 93.307956 
L 208.666882 92.614739 
L 208.796481 92.72557 
L 208.99088 93.518549 
L 209.703675 97.967238 
L 209.833275 97.976984 
L 209.962874 97.592137 
L 210.48127 95.121356 
L 210.740469 94.672336 
L 210.934868 95.530549 
L 211.194066 97.391263 
L 211.712463 102.664457 
L 212.554857 111.259495 
L 213.267652 115.406511 
L 214.174847 118.370258 
L 214.434045 118.96171 
L 215.082041 120.035298 
L 215.859636 121.435178 
L 216.118834 121.975708 
L 216.313233 122.306306 
L 216.831629 123.145777 
L 217.609224 124.107669 
L 217.868423 124.28981 
L 218.386819 124.760613 
L 219.423613 125.58744 
L 220.201208 126.045158 
L 221.626799 126.401438 
L 222.533993 126.649616 
L 223.959583 126.780302 
L 227.329162 126.601514 
L 228.041957 126.422002 
L 229.07875 126.137641 
L 231.087537 124.891126 
L 231.800333 124.844563 
L 232.901926 124.564702 
L 234.457116 124.825839 
L 235.234711 124.633254 
L 235.753107 124.841115 
L 236.465903 125.26646 
L 237.308297 125.587722 
L 237.761894 126.085831 
L 238.345091 126.914454 
L 238.669089 127.011689 
L 238.863487 126.989909 
L 239.057886 126.687187 
L 240.094679 125.370753 
L 240.289078 125.418923 
L 240.483477 125.502799 
L 240.742675 125.68186 
L 241.001874 125.882929 
L 241.649869 126.349642 
L 243.010661 127.034917 
L 243.788256 127.778507 
L 245.667443 129.02059 
L 246.380239 128.43228 
L 246.769036 127.872962 
L 247.093034 127.666597 
L 247.287433 127.697818 
L 248.324226 128.329631 
L 249.101821 128.065094 
L 249.36102 127.982634 
L 250.268214 128.064183 
L 251.110608 128.172379 
L 253.832191 127.726095 
L 254.868984 127.15567 
L 255.581779 127.245725 
L 255.970577 127.265352 
L 256.618573 126.761984 
L 257.07217 126.4615 
L 258.238562 126.22008 
L 258.756959 126.183482 
L 259.988151 126.035921 
L 260.376949 126.008001 
L 264.070525 126.560201 
L 265.496116 126.436453 
L 265.949713 126.50986 
L 267.051305 126.572089 
L 270.550483 127.43219 
L 271.06888 127.575602 
L 272.235272 127.545019 
L 273.012867 127.327573 
L 273.984861 127.466211 
L 274.697656 127.818301 
L 275.799249 127.645994 
L 276.317646 127.511461 
L 277.743236 127.501783 
L 278.456032 127.143356 
L 278.650431 126.995364 
L 278.78003 127.074644 
L 278.844829 127.04471 
L 278.909629 126.858861 
L 278.974429 126.99269 
L 279.104028 126.964145 
L 279.233627 126.789552 
L 279.428026 126.854084 
L 279.881623 127.110693 
L 280.33522 127.354891 
L 280.464819 127.378388 
L 280.788817 127.549503 
L 281.760811 127.650918 
L 282.214408 127.438897 
L 282.668005 127.28437 
L 282.797604 127.486258 
L 282.927203 127.461857 
L 283.251201 127.456675 
L 283.510399 127.595784 
L 284.482393 127.731383 
L 286.42638 127.207464 
L 287.916771 127.182624 
L 288.823965 127.49997 
L 288.888765 127.366964 
L 289.083163 127.541025 
L 289.147963 127.530743 
L 289.212762 127.387945 
L 289.342362 127.530027 
L 290.573554 127.575368 
L 290.638353 127.431204 
L 290.767952 127.589092 
L 291.739946 127.799633 
L 292.71194 127.949814 
L 292.77674 127.955571 
L 292.906339 127.81109 
L 293.100737 127.989163 
L 294.072731 128.009897 
L 294.331929 127.793102 
L 294.461529 128.352388 
L 294.655927 128.374562 
L 297.053512 129.333478 
L 297.247911 129.549633 
L 297.37751 125.543846 
L 297.507109 125.50954 
L 297.636708 129.886389 
L 297.831107 130.127812 
L 297.960706 125.548232 
L 298.349504 125.769554 
L 298.997499 125.905067 
L 299.515896 125.794607 
L 300.48789 125.561557 
L 301.459883 126.045828 
L 301.97828 126.136974 
L 303.663069 125.71333 
L 304.505464 125.710402 
L 305.218259 125.617833 
L 306.449451 125.386275 
L 307.097447 125.296379 
L 307.939842 125.06057 
L 309.495032 124.662555 
L 310.078228 124.524922 
L 310.855823 124.297487 
L 311.698217 124.264785 
L 312.022215 124.477293 
L 312.411013 124.812155 
L 313.123808 125.077426 
L 313.577405 125.182407 
L 314.160602 125.334246 
L 314.614199 125.367966 
L 315.456593 125.27311 
L 315.715792 125.357879 
L 316.622986 126.037801 
L 316.946984 126.08631 
L 317.659779 125.924162 
L 317.918977 126.086314 
L 318.566973 126.482479 
L 319.02057 126.266033 
L 319.214969 126.250269 
L 320.057364 126.716802 
L 320.899758 126.382209 
L 321.158956 126.818183 
L 321.806952 128.024238 
L 323.038144 128.372959 
L 323.232543 128.410749 
L 323.426942 128.469855 
L 323.815739 128.373841 
L 324.074938 128.167894 
L 324.593334 127.890531 
L 324.787733 127.995526 
L 326.407723 128.14744 
L 326.537322 128.032796 
L 326.666921 127.977483 
L 327.574115 127.70369 
L 327.638915 127.780331 
L 327.768514 127.684473 
L 327.898113 127.79845 
L 327.962912 127.83176 
L 328.092512 127.698672 
L 328.222111 127.768341 
L 328.740507 127.714347 
L 329.129305 128.068689 
L 329.388503 128.31671 
L 329.518102 128.275323 
L 330.554896 128.335708 
L 330.619695 128.195879 
L 330.814094 128.405751 
L 331.202892 128.44732 
L 331.39729 128.447738 
L 331.591689 128.570305 
L 331.721288 128.508562 
L 331.786088 128.571651 
L 331.980487 128.396645 
L 332.95248 128.428509 
L 333.211679 128.463863 
L 333.470877 128.499997 
L 333.600476 128.488955 
L 333.794875 128.355727 
L 333.989274 128.372106 
L 335.026067 128.44399 
L 335.933261 128.300818 
L 336.386858 128.355102 
L 336.646056 128.310584 
L 337.423651 128.360266 
L 342.34842 128.392633 
L 342.607618 128.353581 
L 343.255614 128.318927 
L 343.514812 128.347451 
L 344.875603 128.391243 
L 345.134802 128.389145 
L 345.977196 128.391078 
L 346.236395 128.388743 
L 347.143589 128.392763 
L 348.245182 128.391971 
L 349.087576 128.389143 
L 349.346775 128.389289 
L 350.253969 128.395515 
L 350.577967 128.36415 
L 352.975551 128.386255 
L 354.206743 128.391682 
L 354.465942 128.392708 
L 356.604328 128.38874 
L 358.353916 128.385754 
L 359.714708 128.389894 
L 364.05628 128.38873 
L 365.287472 128.396449 
L 365.48187 128.387154 
L 366.065067 128.389685 
L 366.324265 128.389914 
L 367.296259 128.398732 
L 367.296259 128.398732 
" style="fill:none;stroke:#1f77b4;stroke-linecap:square;stroke-width:1.5;"/>
   </g>
   <g id="line2d_12">
    <path clip-path="url(#p14be7e49ab)" d="M 69.218182 127.703185 
L 78.030925 127.810713 
L 79.067718 127.847707 
L 83.862887 127.891248 
L 87.815662 127.948901 
L 90.602044 128.004174 
L 95.591612 128.048881 
L 98.053996 128.090243 
L 103.62676 128.120732 
L 105.959545 128.154304 
L 111.597108 128.181437 
L 113.929893 128.200151 
L 119.437858 128.233554 
L 122.094641 128.272026 
L 123.001835 128.156711 
L 123.649831 128.145125 
L 124.492225 128.446855 
L 129.222595 124.28156 
L 131.814578 122.045195 
L 134.471361 119.792649 
L 134.924958 119.786342 
L 135.832152 119.996899 
L 136.674547 119.722635 
L 137.322542 119.385249 
L 137.840939 119.319004 
L 138.424135 119.559233 
L 139.072131 119.79242 
L 140.044125 119.771957 
L 142.506509 119.529437 
L 144.515296 120.980653 
L 145.876087 121.000228 
L 146.718482 120.9365 
L 148.208872 121.16917 
L 149.051267 121.13903 
L 150.671256 121.188674 
L 151.448851 121.272236 
L 152.356045 121.352499 
L 153.392839 121.512758 
L 154.235233 121.694687 
L 155.077628 121.726586 
L 157.79921 121.50047 
L 160.326394 120.891163 
L 162.52958 121.080995 
L 163.436774 121.373069 
L 165.510361 121.786441 
L 165.63996 121.731036 
L 166.223156 121.950485 
L 166.482354 123.379665 
L 166.741553 126.234977 
L 167.000751 130.745679 
L 167.19515 138.83207 
L 167.324749 164.531361 
L 167.519148 196.325886 
L 167.778346 202.26509 
L 168.037544 203.764372 
L 168.231943 204.150258 
L 168.491141 204.036917 
L 168.815139 204.152727 
L 169.139137 204.016113 
L 169.398335 204.041716 
L 169.527935 203.997924 
L 170.111131 202.889517 
L 171.666321 198.003252 
L 171.79592 197.005978 
L 171.990319 193.533798 
L 172.119918 185.188718 
L 172.508715 127.611005 
L 172.767914 124.042391 
L 173.091912 122.759227 
L 173.35111 122.558915 
L 174.128705 122.102488 
L 174.452703 121.949419 
L 175.100699 121.776253 
L 176.137492 121.411679 
L 177.627882 121.2766 
L 179.701469 121.203126 
L 180.414264 121.175186 
L 185.79263 121.418748 
L 188.579012 121.359939 
L 189.680605 121.649385 
L 191.235795 121.909688 
L 191.624592 121.777981 
L 192.790985 121.443461 
L 194.799772 121.535265 
L 195.577367 121.505438 
L 198.298949 120.884883 
L 200.307736 120.282131 
L 201.21493 119.675086 
L 201.733327 119.1022 
L 202.575721 118.050178 
L 203.158918 117.578299 
L 203.806914 117.100093 
L 204.584508 116.093348 
L 205.426903 114.331086 
L 206.010099 113.056818 
L 206.658095 112.096152 
L 206.982093 111.474083 
L 208.92608 106.828828 
L 209.250078 105.785453 
L 209.638876 103.446336 
L 210.351671 96.647416 
L 210.870068 89.628844 
L 211.323665 84.26833 
L 211.582863 82.777842 
L 211.777262 82.407273 
L 211.906861 82.573421 
L 212.10126 83.57606 
L 212.878855 89.107871 
L 212.943655 89.182215 
L 213.008454 89.122511 
L 213.202853 88.459292 
L 213.65645 86.441657 
L 213.786049 86.237356 
L 213.915648 86.425297 
L 214.110047 87.465712 
L 214.498845 91.293026 
L 215.21164 100.291042 
L 215.859636 106.971111 
L 216.313233 109.732933 
L 216.831629 111.89764 
L 217.609224 114.242528 
L 218.710817 116.199736 
L 220.201208 118.849112 
L 220.590005 119.280611 
L 221.173201 119.757691 
L 221.756398 120.254413 
L 222.598792 120.901776 
L 223.376387 121.314716 
L 225.449974 121.829707 
L 227.069963 121.967953 
L 230.245143 121.918729 
L 231.281936 121.653859 
L 231.735533 121.641789 
L 232.31873 121.307047 
L 234.003519 120.140006 
L 236.271504 119.778659 
L 237.437897 120.08532 
L 238.669089 119.947425 
L 239.252285 120.34289 
L 239.770681 120.539156 
L 240.353878 120.758182 
L 240.872274 121.386446 
L 241.58507 122.406659 
L 241.844268 122.422518 
L 242.103466 122.179596 
L 243.269859 120.672396 
L 243.529057 120.747124 
L 244.177053 121.298428 
L 244.760249 121.746918 
L 245.278646 121.943241 
L 245.732243 122.167594 
L 246.25064 122.807062 
L 247.093034 123.737468 
L 247.935429 124.446191 
L 248.583425 125.052128 
L 248.972222 125.136073 
L 249.23142 124.987419 
L 249.555418 124.537506 
L 250.138615 123.834846 
L 250.397813 123.87048 
L 250.721811 124.208885 
L 251.110608 124.637451 
L 251.499406 124.723132 
L 253.119395 124.574485 
L 254.156189 124.829631 
L 255.387381 124.765258 
L 256.100176 124.747323 
L 256.877771 124.840003 
L 257.460967 124.513987 
L 257.914564 124.325363 
L 258.368161 124.450294 
L 259.080957 124.630919 
L 259.469754 124.408517 
L 260.247349 123.886317 
L 261.219343 123.770711 
L 261.932139 123.712918 
L 263.033731 123.658616 
L 263.487328 123.654308 
L 265.431316 124.081777 
L 267.245704 124.262629 
L 268.217698 124.149637 
L 271.263278 124.617039 
L 273.596063 125.329147 
L 274.179259 125.519168 
L 275.151253 125.555236 
L 275.734449 125.351079 
L 276.382445 125.220478 
L 276.836042 125.264872 
L 277.289639 125.521086 
L 277.937635 125.877026 
L 278.520831 125.845054 
L 279.752024 125.602798 
L 281.177614 125.592882 
L 282.279207 125.053827 
L 282.603205 125.146952 
L 284.093596 125.932994 
L 284.611992 126.036522 
L 286.102383 125.500535 
L 286.815178 125.756357 
L 287.398374 125.828571 
L 287.98157 125.599554 
L 288.953564 125.293305 
L 289.53676 125.22771 
L 291.480748 125.345742 
L 292.258343 125.52095 
L 294.072731 125.646019 
L 295.433522 126.023281 
L 296.211117 126.062888 
L 296.859113 126.232426 
L 297.247911 126.047605 
L 299.775094 124.014987 
L 300.358291 123.890948 
L 301.135886 123.886278 
L 302.302278 124.150014 
L 303.015073 123.936643 
L 303.53347 123.809932 
L 303.987067 123.91553 
L 304.959061 124.239502 
L 305.412658 124.138432 
L 306.967848 123.813212 
L 308.847036 123.656361 
L 310.985422 123.228093 
L 311.827817 123.032462 
L 312.735011 122.797557 
L 313.771804 122.482935 
L 314.549399 122.369715 
L 315.002996 122.593643 
L 315.715792 123.107498 
L 316.622986 123.255468 
L 317.141382 123.334935 
L 317.724579 123.362207 
L 318.307775 123.267509 
L 318.696572 123.238109 
L 319.08537 123.511557 
L 319.927764 124.120593 
L 320.186963 124.057311 
L 320.705359 123.871439 
L 320.964558 124.023124 
L 321.547754 124.527877 
L 321.806952 124.439217 
L 322.260549 124.263805 
L 322.584547 124.477792 
L 323.102944 124.840463 
L 323.426942 124.637085 
L 323.880539 124.385991 
L 324.074938 124.559835 
L 325.111731 126.180988 
L 326.472522 126.465148 
L 326.86132 126.368256 
L 327.703714 125.968999 
L 329.712501 126.070322 
L 330.684495 125.777937 
L 331.267691 125.804112 
L 331.850887 125.879298 
L 332.822881 126.381426 
L 333.341278 126.361131 
L 334.054073 126.517309 
L 334.766869 126.633853 
L 336.06286 126.552745 
L 336.581257 126.548742 
L 337.294052 126.527345 
L 348.43958 126.435528 
L 350.383568 126.432506 
L 357.381923 126.451834 
L 359.714708 126.48571 
L 365.61147 126.521649 
L 367.425858 126.516977 
L 373.581818 126.536593 
L 373.581818 126.536593 
" style="fill:none;stroke:#ff7f0e;stroke-linecap:square;stroke-width:1.5;"/>
   </g>
   <g id="patch_3">
    <path d="M 54 210.24 
L 54 76.32 
" style="fill:none;stroke:#000000;stroke-linecap:square;stroke-linejoin:miter;stroke-width:0.8;"/>
   </g>
   <g id="patch_4">
    <path d="M 388.8 210.24 
L 388.8 76.32 
" style="fill:none;stroke:#000000;stroke-linecap:square;stroke-linejoin:miter;stroke-width:0.8;"/>
   </g>
   <g id="patch_5">
    <path d="M 54 210.24 
L 388.8 210.24 
" style="fill:none;stroke:#000000;stroke-linecap:square;stroke-linejoin:miter;stroke-width:0.8;"/>
   </g>
   <g id="patch_6">
    <path d="M 54 76.32 
L 388.8 76.32 
" style="fill:none;stroke:#000000;stroke-linecap:square;stroke-linejoin:miter;stroke-width:0.8;"/>
   </g>
   <g id="text_11">
    <!-- Yaw -->
    <defs>
     <path d="M -0.203125 72.90625 
L 10.40625 72.90625 
L 30.609375 42.921875 
L 50.6875 72.90625 
L 61.28125 72.90625 
L 35.5 34.71875 
L 35.5 0 
L 25.59375 0 
L 25.59375 34.71875 
z
" id="DejaVuSans-89"/>
     <path d="M 34.28125 27.484375 
Q 23.390625 27.484375 19.1875 25 
Q 14.984375 22.515625 14.984375 16.5 
Q 14.984375 11.71875 18.140625 8.90625 
Q 21.296875 6.109375 26.703125 6.109375 
Q 34.1875 6.109375 38.703125 11.40625 
Q 43.21875 16.703125 43.21875 25.484375 
L 43.21875 27.484375 
z
M 52.203125 31.203125 
L 52.203125 0 
L 43.21875 0 
L 43.21875 8.296875 
Q 40.140625 3.328125 35.546875 0.953125 
Q 30.953125 -1.421875 24.3125 -1.421875 
Q 15.921875 -1.421875 10.953125 3.296875 
Q 6 8.015625 6 15.921875 
Q 6 25.140625 12.171875 29.828125 
Q 18.359375 34.515625 30.609375 34.515625 
L 43.21875 34.515625 
L 43.21875 35.40625 
Q 43.21875 41.609375 39.140625 45 
Q 35.0625 48.390625 27.6875 48.390625 
Q 23 48.390625 18.546875 47.265625 
Q 14.109375 46.140625 10.015625 43.890625 
L 10.015625 52.203125 
Q 14.9375 54.109375 19.578125 55.046875 
Q 24.21875 56 28.609375 56 
Q 40.484375 56 46.34375 49.84375 
Q 52.203125 43.703125 52.203125 31.203125 
z
" id="DejaVuSans-97"/>
     <path d="M 4.203125 54.6875 
L 13.1875 54.6875 
L 24.421875 12.015625 
L 35.59375 54.6875 
L 46.1875 54.6875 
L 57.421875 12.015625 
L 68.609375 54.6875 
L 77.59375 54.6875 
L 63.28125 0 
L 52.6875 0 
L 40.921875 44.828125 
L 29.109375 0 
L 18.5 0 
z
" id="DejaVuSans-119"/>
    </defs>
    <g transform="translate(209.16375 70.32)scale(0.12 -0.12)">
     <use xlink:href="#DejaVuSans-89"/>
     <use x="60.880859" xlink:href="#DejaVuSans-97"/>
     <use x="122.160156" xlink:href="#DejaVuSans-119"/>
    </g>
   </g>
   <g id="legend_1">
    <g id="patch_7">
     <path d="M 61 113.67625 
L 143.351562 113.67625 
Q 145.351562 113.67625 145.351562 111.67625 
L 145.351562 83.32 
Q 145.351562 81.32 143.351562 81.32 
L 61 81.32 
Q 59 81.32 59 83.32 
L 59 111.67625 
Q 59 113.67625 61 113.67625 
z
" style="fill:#ffffff;opacity:0.8;stroke:#cccccc;stroke-linejoin:miter;"/>
    </g>
    <g id="line2d_13">
     <path d="M 63 89.418437 
L 83 89.418437 
" style="fill:none;stroke:#1f77b4;stroke-linecap:square;stroke-width:1.5;"/>
    </g>
    <g id="line2d_14"/>
    <g id="text_12">
     <!-- vicon -->
     <defs>
      <path d="M 2.984375 54.6875 
L 12.5 54.6875 
L 29.59375 8.796875 
L 46.6875 54.6875 
L 56.203125 54.6875 
L 35.6875 0 
L 23.484375 0 
z
" id="DejaVuSans-118"/>
      <path d="M 9.421875 54.6875 
L 18.40625 54.6875 
L 18.40625 0 
L 9.421875 0 
z
M 9.421875 75.984375 
L 18.40625 75.984375 
L 18.40625 64.59375 
L 9.421875 64.59375 
z
" id="DejaVuSans-105"/>
      <path d="M 48.78125 52.59375 
L 48.78125 44.1875 
Q 44.96875 46.296875 41.140625 47.34375 
Q 37.3125 48.390625 33.40625 48.390625 
Q 24.65625 48.390625 19.8125 42.84375 
Q 14.984375 37.3125 14.984375 27.296875 
Q 14.984375 17.28125 19.8125 11.734375 
Q 24.65625 6.203125 33.40625 6.203125 
Q 37.3125 6.203125 41.140625 7.25 
Q 44.96875 8.296875 48.78125 10.40625 
L 48.78125 2.09375 
Q 45.015625 0.34375 40.984375 -0.53125 
Q 36.96875 -1.421875 32.421875 -1.421875 
Q 20.0625 -1.421875 12.78125 6.34375 
Q 5.515625 14.109375 5.515625 27.296875 
Q 5.515625 40.671875 12.859375 48.328125 
Q 20.21875 56 33.015625 56 
Q 37.15625 56 41.109375 55.140625 
Q 45.0625 54.296875 48.78125 52.59375 
z
" id="DejaVuSans-99"/>
      <path d="M 30.609375 48.390625 
Q 23.390625 48.390625 19.1875 42.75 
Q 14.984375 37.109375 14.984375 27.296875 
Q 14.984375 17.484375 19.15625 11.84375 
Q 23.34375 6.203125 30.609375 6.203125 
Q 37.796875 6.203125 41.984375 11.859375 
Q 46.1875 17.53125 46.1875 27.296875 
Q 46.1875 37.015625 41.984375 42.703125 
Q 37.796875 48.390625 30.609375 48.390625 
z
M 30.609375 56 
Q 42.328125 56 49.015625 48.375 
Q 55.71875 40.765625 55.71875 27.296875 
Q 55.71875 13.875 49.015625 6.21875 
Q 42.328125 -1.421875 30.609375 -1.421875 
Q 18.84375 -1.421875 12.171875 6.21875 
Q 5.515625 13.875 5.515625 27.296875 
Q 5.515625 40.765625 12.171875 48.375 
Q 18.84375 56 30.609375 56 
z
" id="DejaVuSans-111"/>
      <path d="M 54.890625 33.015625 
L 54.890625 0 
L 45.90625 0 
L 45.90625 32.71875 
Q 45.90625 40.484375 42.875 44.328125 
Q 39.84375 48.1875 33.796875 48.1875 
Q 26.515625 48.1875 22.3125 43.546875 
Q 18.109375 38.921875 18.109375 30.90625 
L 18.109375 0 
L 9.078125 0 
L 9.078125 54.6875 
L 18.109375 54.6875 
L 18.109375 46.1875 
Q 21.34375 51.125 25.703125 53.5625 
Q 30.078125 56 35.796875 56 
Q 45.21875 56 50.046875 50.171875 
Q 54.890625 44.34375 54.890625 33.015625 
z
" id="DejaVuSans-110"/>
     </defs>
     <g transform="translate(91 92.918437)scale(0.1 -0.1)">
      <use xlink:href="#DejaVuSans-118"/>
      <use x="59.179688" xlink:href="#DejaVuSans-105"/>
      <use x="86.962891" xlink:href="#DejaVuSans-99"/>
      <use x="141.943359" xlink:href="#DejaVuSans-111"/>
      <use x="203.125" xlink:href="#DejaVuSans-110"/>
     </g>
    </g>
    <g id="line2d_15">
     <path d="M 63 104.096562 
L 83 104.096562 
" style="fill:none;stroke:#ff7f0e;stroke-linecap:square;stroke-width:1.5;"/>
    </g>
    <g id="line2d_16"/>
    <g id="text_13">
     <!-- estimated -->
     <defs>
      <path d="M 56.203125 29.59375 
L 56.203125 25.203125 
L 14.890625 25.203125 
Q 15.484375 15.921875 20.484375 11.0625 
Q 25.484375 6.203125 34.421875 6.203125 
Q 39.59375 6.203125 44.453125 7.46875 
Q 49.3125 8.734375 54.109375 11.28125 
L 54.109375 2.78125 
Q 49.265625 0.734375 44.1875 -0.34375 
Q 39.109375 -1.421875 33.890625 -1.421875 
Q 20.796875 -1.421875 13.15625 6.1875 
Q 5.515625 13.8125 5.515625 26.8125 
Q 5.515625 40.234375 12.765625 48.109375 
Q 20.015625 56 32.328125 56 
Q 43.359375 56 49.78125 48.890625 
Q 56.203125 41.796875 56.203125 29.59375 
z
M 47.21875 32.234375 
Q 47.125 39.59375 43.09375 43.984375 
Q 39.0625 48.390625 32.421875 48.390625 
Q 24.90625 48.390625 20.390625 44.140625 
Q 15.875 39.890625 15.1875 32.171875 
z
" id="DejaVuSans-101"/>
      <path d="M 44.28125 53.078125 
L 44.28125 44.578125 
Q 40.484375 46.53125 36.375 47.5 
Q 32.28125 48.484375 27.875 48.484375 
Q 21.1875 48.484375 17.84375 46.4375 
Q 14.5 44.390625 14.5 40.28125 
Q 14.5 37.15625 16.890625 35.375 
Q 19.28125 33.59375 26.515625 31.984375 
L 29.59375 31.296875 
Q 39.15625 29.25 43.1875 25.515625 
Q 47.21875 21.78125 47.21875 15.09375 
Q 47.21875 7.46875 41.1875 3.015625 
Q 35.15625 -1.421875 24.609375 -1.421875 
Q 20.21875 -1.421875 15.453125 -0.5625 
Q 10.6875 0.296875 5.421875 2 
L 5.421875 11.28125 
Q 10.40625 8.6875 15.234375 7.390625 
Q 20.0625 6.109375 24.8125 6.109375 
Q 31.15625 6.109375 34.5625 8.28125 
Q 37.984375 10.453125 37.984375 14.40625 
Q 37.984375 18.0625 35.515625 20.015625 
Q 33.0625 21.96875 24.703125 23.78125 
L 21.578125 24.515625 
Q 13.234375 26.265625 9.515625 29.90625 
Q 5.8125 33.546875 5.8125 39.890625 
Q 5.8125 47.609375 11.28125 51.796875 
Q 16.75 56 26.8125 56 
Q 31.78125 56 36.171875 55.265625 
Q 40.578125 54.546875 44.28125 53.078125 
z
" id="DejaVuSans-115"/>
      <path d="M 18.3125 70.21875 
L 18.3125 54.6875 
L 36.8125 54.6875 
L 36.8125 47.703125 
L 18.3125 47.703125 
L 18.3125 18.015625 
Q 18.3125 11.328125 20.140625 9.421875 
Q 21.96875 7.515625 27.59375 7.515625 
L 36.8125 7.515625 
L 36.8125 0 
L 27.59375 0 
Q 17.1875 0 13.234375 3.875 
Q 9.28125 7.765625 9.28125 18.015625 
L 9.28125 47.703125 
L 2.6875 47.703125 
L 2.6875 54.6875 
L 9.28125 54.6875 
L 9.28125 70.21875 
z
" id="DejaVuSans-116"/>
      <path d="M 52 44.1875 
Q 55.375 50.25 60.0625 53.125 
Q 64.75 56 71.09375 56 
Q 79.640625 56 84.28125 50.015625 
Q 88.921875 44.046875 88.921875 33.015625 
L 88.921875 0 
L 79.890625 0 
L 79.890625 32.71875 
Q 79.890625 40.578125 77.09375 44.375 
Q 74.3125 48.1875 68.609375 48.1875 
Q 61.625 48.1875 57.5625 43.546875 
Q 53.515625 38.921875 53.515625 30.90625 
L 53.515625 0 
L 44.484375 0 
L 44.484375 32.71875 
Q 44.484375 40.625 41.703125 44.40625 
Q 38.921875 48.1875 33.109375 48.1875 
Q 26.21875 48.1875 22.15625 43.53125 
Q 18.109375 38.875 18.109375 30.90625 
L 18.109375 0 
L 9.078125 0 
L 9.078125 54.6875 
L 18.109375 54.6875 
L 18.109375 46.1875 
Q 21.1875 51.21875 25.484375 53.609375 
Q 29.78125 56 35.6875 56 
Q 41.65625 56 45.828125 52.96875 
Q 50 49.953125 52 44.1875 
z
" id="DejaVuSans-109"/>
      <path d="M 45.40625 46.390625 
L 45.40625 75.984375 
L 54.390625 75.984375 
L 54.390625 0 
L 45.40625 0 
L 45.40625 8.203125 
Q 42.578125 3.328125 38.25 0.953125 
Q 33.9375 -1.421875 27.875 -1.421875 
Q 17.96875 -1.421875 11.734375 6.484375 
Q 5.515625 14.40625 5.515625 27.296875 
Q 5.515625 40.1875 11.734375 48.09375 
Q 17.96875 56 27.875 56 
Q 33.9375 56 38.25 53.625 
Q 42.578125 51.265625 45.40625 46.390625 
z
M 14.796875 27.296875 
Q 14.796875 17.390625 18.875 11.75 
Q 22.953125 6.109375 30.078125 6.109375 
Q 37.203125 6.109375 41.296875 11.75 
Q 45.40625 17.390625 45.40625 27.296875 
Q 45.40625 37.203125 41.296875 42.84375 
Q 37.203125 48.484375 30.078125 48.484375 
Q 22.953125 48.484375 18.875 42.84375 
Q 14.796875 37.203125 14.796875 27.296875 
z
" id="DejaVuSans-100"/>
     </defs>
     <g transform="translate(91 107.596562)scale(0.1 -0.1)">
      <use xlink:href="#DejaVuSans-101"/>
      <use x="61.523438" xlink:href="#DejaVuSans-115"/>
      <use x="113.623047" xlink:href="#DejaVuSans-116"/>
      <use x="152.832031" xlink:href="#DejaVuSans-105"/>
      <use x="180.615234" xlink:href="#DejaVuSans-109"/>
      <use x="278.027344" xlink:href="#DejaVuSans-97"/>
      <use x="339.306641" xlink:href="#DejaVuSans-116"/>
      <use x="378.515625" xlink:href="#DejaVuSans-101"/>
      <use x="440.039062" xlink:href="#DejaVuSans-100"/>
     </g>
    </g>
   </g>
  </g>
 </g>
 <defs>
  <clipPath id="p14be7e49ab">
   <rect height="133.92" width="334.8" x="54" y="76.32"/>
  </clipPath>
 </defs>
</svg>
