<?xml version="1.0" encoding="utf-8" standalone="no"?>
<!DOCTYPE svg PUBLIC "-//W3C//DTD SVG 1.1//EN"
  "http://www.w3.org/Graphics/SVG/1.1/DTD/svg11.dtd">
<!-- Created with matplotlib (https://matplotlib.org/) -->
<svg height="288pt" version="1.1" viewBox="0 0 432 288" width="432pt" xmlns="http://www.w3.org/2000/svg" xmlns:xlink="http://www.w3.org/1999/xlink">
 <defs>
  <style type="text/css">
*{stroke-linecap:butt;stroke-linejoin:round;}
  </style>
 </defs>
 <g id="figure_1">
  <g id="patch_1">
   <path d="M 0 288 
L 432 288 
L 432 0 
L 0 0 
z
" style="fill:#ffffff;"/>
  </g>
  <g id="axes_1">
   <g id="patch_2">
    <path d="M 54 210.24 
L 388.8 210.24 
L 388.8 76.32 
L 54 76.32 
z
" style="fill:#ffffff;"/>
   </g>
   <g id="matplotlib.axis_1">
    <g id="xtick_1">
     <g id="line2d_1">
      <defs>
       <path d="M 0 0 
L 0 3.5 
" id="m9c22c79969" style="stroke:#000000;stroke-width:0.8;"/>
      </defs>
      <g>
       <use style="stroke:#000000;stroke-width:0.8;" x="69.218182" xlink:href="#m9c22c79969" y="210.24"/>
      </g>
     </g>
     <g id="text_1">
      <!-- 0 -->
      <defs>
       <path d="M 31.78125 66.40625 
Q 24.171875 66.40625 20.328125 58.90625 
Q 16.5 51.421875 16.5 36.375 
Q 16.5 21.390625 20.328125 13.890625 
Q 24.171875 6.390625 31.78125 6.390625 
Q 39.453125 6.390625 43.28125 13.890625 
Q 47.125 21.390625 47.125 36.375 
Q 47.125 51.421875 43.28125 58.90625 
Q 39.453125 66.40625 31.78125 66.40625 
z
M 31.78125 74.21875 
Q 44.046875 74.21875 50.515625 64.515625 
Q 56.984375 54.828125 56.984375 36.375 
Q 56.984375 17.96875 50.515625 8.265625 
Q 44.046875 -1.421875 31.78125 -1.421875 
Q 19.53125 -1.421875 13.0625 8.265625 
Q 6.59375 17.96875 6.59375 36.375 
Q 6.59375 54.828125 13.0625 64.515625 
Q 19.53125 74.21875 31.78125 74.21875 
z
" id="DejaVuSans-48"/>
      </defs>
      <g transform="translate(66.036932 224.838437)scale(0.1 -0.1)">
       <use xlink:href="#DejaVuSans-48"/>
      </g>
     </g>
    </g>
    <g id="xtick_2">
     <g id="line2d_2">
      <g>
       <use style="stroke:#000000;stroke-width:0.8;" x="113.560203" xlink:href="#m9c22c79969" y="210.24"/>
      </g>
     </g>
     <g id="text_2">
      <!-- 500 -->
      <defs>
       <path d="M 10.796875 72.90625 
L 49.515625 72.90625 
L 49.515625 64.59375 
L 19.828125 64.59375 
L 19.828125 46.734375 
Q 21.96875 47.46875 24.109375 47.828125 
Q 26.265625 48.1875 28.421875 48.1875 
Q 40.625 48.1875 47.75 41.5 
Q 54.890625 34.8125 54.890625 23.390625 
Q 54.890625 11.625 47.5625 5.09375 
Q 40.234375 -1.421875 26.90625 -1.421875 
Q 22.3125 -1.421875 17.546875 -0.640625 
Q 12.796875 0.140625 7.71875 1.703125 
L 7.71875 11.625 
Q 12.109375 9.234375 16.796875 8.0625 
Q 21.484375 6.890625 26.703125 6.890625 
Q 35.15625 6.890625 40.078125 11.328125 
Q 45.015625 15.765625 45.015625 23.390625 
Q 45.015625 31 40.078125 35.4375 
Q 35.15625 39.890625 26.703125 39.890625 
Q 22.75 39.890625 18.8125 39.015625 
Q 14.890625 38.140625 10.796875 36.28125 
z
" id="DejaVuSans-53"/>
      </defs>
      <g transform="translate(104.016453 224.838437)scale(0.1 -0.1)">
       <use xlink:href="#DejaVuSans-53"/>
       <use x="63.623047" xlink:href="#DejaVuSans-48"/>
       <use x="127.246094" xlink:href="#DejaVuSans-48"/>
      </g>
     </g>
    </g>
    <g id="xtick_3">
     <g id="line2d_3">
      <g>
       <use style="stroke:#000000;stroke-width:0.8;" x="157.902225" xlink:href="#m9c22c79969" y="210.24"/>
      </g>
     </g>
     <g id="text_3">
      <!-- 1000 -->
      <defs>
       <path d="M 12.40625 8.296875 
L 28.515625 8.296875 
L 28.515625 63.921875 
L 10.984375 60.40625 
L 10.984375 69.390625 
L 28.421875 72.90625 
L 38.28125 72.90625 
L 38.28125 8.296875 
L 54.390625 8.296875 
L 54.390625 0 
L 12.40625 0 
z
" id="DejaVuSans-49"/>
      </defs>
      <g transform="translate(145.177225 224.838437)scale(0.1 -0.1)">
       <use xlink:href="#DejaVuSans-49"/>
       <use x="63.623047" xlink:href="#DejaVuSans-48"/>
       <use x="127.246094" xlink:href="#DejaVuSans-48"/>
       <use x="190.869141" xlink:href="#DejaVuSans-48"/>
      </g>
     </g>
    </g>
    <g id="xtick_4">
     <g id="line2d_4">
      <g>
       <use style="stroke:#000000;stroke-width:0.8;" x="202.244247" xlink:href="#m9c22c79969" y="210.24"/>
      </g>
     </g>
     <g id="text_4">
      <!-- 1500 -->
      <g transform="translate(189.519247 224.838437)scale(0.1 -0.1)">
       <use xlink:href="#DejaVuSans-49"/>
       <use x="63.623047" xlink:href="#DejaVuSans-53"/>
       <use x="127.246094" xlink:href="#DejaVuSans-48"/>
       <use x="190.869141" xlink:href="#DejaVuSans-48"/>
      </g>
     </g>
    </g>
    <g id="xtick_5">
     <g id="line2d_5">
      <g>
       <use style="stroke:#000000;stroke-width:0.8;" x="246.586268" xlink:href="#m9c22c79969" y="210.24"/>
      </g>
     </g>
     <g id="text_5">
      <!-- 2000 -->
      <defs>
       <path d="M 19.1875 8.296875 
L 53.609375 8.296875 
L 53.609375 0 
L 7.328125 0 
L 7.328125 8.296875 
Q 12.9375 14.109375 22.625 23.890625 
Q 32.328125 33.6875 34.8125 36.53125 
Q 39.546875 41.84375 41.421875 45.53125 
Q 43.3125 49.21875 43.3125 52.78125 
Q 43.3125 58.59375 39.234375 62.25 
Q 35.15625 65.921875 28.609375 65.921875 
Q 23.96875 65.921875 18.8125 64.3125 
Q 13.671875 62.703125 7.8125 59.421875 
L 7.8125 69.390625 
Q 13.765625 71.78125 18.9375 73 
Q 24.125 74.21875 28.421875 74.21875 
Q 39.75 74.21875 46.484375 68.546875 
Q 53.21875 62.890625 53.21875 53.421875 
Q 53.21875 48.921875 51.53125 44.890625 
Q 49.859375 40.875 45.40625 35.40625 
Q 44.1875 33.984375 37.640625 27.21875 
Q 31.109375 20.453125 19.1875 8.296875 
z
" id="DejaVuSans-50"/>
      </defs>
      <g transform="translate(233.861268 224.838437)scale(0.1 -0.1)">
       <use xlink:href="#DejaVuSans-50"/>
       <use x="63.623047" xlink:href="#DejaVuSans-48"/>
       <use x="127.246094" xlink:href="#DejaVuSans-48"/>
       <use x="190.869141" xlink:href="#DejaVuSans-48"/>
      </g>
     </g>
    </g>
    <g id="xtick_6">
     <g id="line2d_6">
      <g>
       <use style="stroke:#000000;stroke-width:0.8;" x="290.92829" xlink:href="#m9c22c79969" y="210.24"/>
      </g>
     </g>
     <g id="text_6">
      <!-- 2500 -->
      <g transform="translate(278.20329 224.838437)scale(0.1 -0.1)">
       <use xlink:href="#DejaVuSans-50"/>
       <use x="63.623047" xlink:href="#DejaVuSans-53"/>
       <use x="127.246094" xlink:href="#DejaVuSans-48"/>
       <use x="190.869141" xlink:href="#DejaVuSans-48"/>
      </g>
     </g>
    </g>
    <g id="xtick_7">
     <g id="line2d_7">
      <g>
       <use style="stroke:#000000;stroke-width:0.8;" x="335.270312" xlink:href="#m9c22c79969" y="210.24"/>
      </g>
     </g>
     <g id="text_7">
      <!-- 3000 -->
      <defs>
       <path d="M 40.578125 39.3125 
Q 47.65625 37.796875 51.625 33 
Q 55.609375 28.21875 55.609375 21.1875 
Q 55.609375 10.40625 48.1875 4.484375 
Q 40.765625 -1.421875 27.09375 -1.421875 
Q 22.515625 -1.421875 17.65625 -0.515625 
Q 12.796875 0.390625 7.625 2.203125 
L 7.625 11.71875 
Q 11.71875 9.328125 16.59375 8.109375 
Q 21.484375 6.890625 26.8125 6.890625 
Q 36.078125 6.890625 40.9375 10.546875 
Q 45.796875 14.203125 45.796875 21.1875 
Q 45.796875 27.640625 41.28125 31.265625 
Q 36.765625 34.90625 28.71875 34.90625 
L 20.21875 34.90625 
L 20.21875 43.015625 
L 29.109375 43.015625 
Q 36.375 43.015625 40.234375 45.921875 
Q 44.09375 48.828125 44.09375 54.296875 
Q 44.09375 59.90625 40.109375 62.90625 
Q 36.140625 65.921875 28.71875 65.921875 
Q 24.65625 65.921875 20.015625 65.03125 
Q 15.375 64.15625 9.8125 62.3125 
L 9.8125 71.09375 
Q 15.4375 72.65625 20.34375 73.4375 
Q 25.25 74.21875 29.59375 74.21875 
Q 40.828125 74.21875 47.359375 69.109375 
Q 53.90625 64.015625 53.90625 55.328125 
Q 53.90625 49.265625 50.4375 45.09375 
Q 46.96875 40.921875 40.578125 39.3125 
z
" id="DejaVuSans-51"/>
      </defs>
      <g transform="translate(322.545312 224.838437)scale(0.1 -0.1)">
       <use xlink:href="#DejaVuSans-51"/>
       <use x="63.623047" xlink:href="#DejaVuSans-48"/>
       <use x="127.246094" xlink:href="#DejaVuSans-48"/>
       <use x="190.869141" xlink:href="#DejaVuSans-48"/>
      </g>
     </g>
    </g>
    <g id="xtick_8">
     <g id="line2d_8">
      <g>
       <use style="stroke:#000000;stroke-width:0.8;" x="379.612333" xlink:href="#m9c22c79969" y="210.24"/>
      </g>
     </g>
     <g id="text_8">
      <!-- 3500 -->
      <g transform="translate(366.887333 224.838437)scale(0.1 -0.1)">
       <use xlink:href="#DejaVuSans-51"/>
       <use x="63.623047" xlink:href="#DejaVuSans-53"/>
       <use x="127.246094" xlink:href="#DejaVuSans-48"/>
       <use x="190.869141" xlink:href="#DejaVuSans-48"/>
      </g>
     </g>
    </g>
   </g>
   <g id="matplotlib.axis_2">
    <g id="ytick_1">
     <g id="line2d_9">
      <defs>
       <path d="M 0 0 
L -3.5 0 
" id="mec0e371703" style="stroke:#000000;stroke-width:0.8;"/>
      </defs>
      <g>
       <use style="stroke:#000000;stroke-width:0.8;" x="54" xlink:href="#mec0e371703" y="193.058264"/>
      </g>
     </g>
     <g id="text_9">
      <!-- −0.5 -->
      <defs>
       <path d="M 10.59375 35.5 
L 73.1875 35.5 
L 73.1875 27.203125 
L 10.59375 27.203125 
z
" id="DejaVuSans-8722"/>
       <path d="M 10.6875 12.40625 
L 21 12.40625 
L 21 0 
L 10.6875 0 
z
" id="DejaVuSans-46"/>
      </defs>
      <g transform="translate(22.717187 196.857483)scale(0.1 -0.1)">
       <use xlink:href="#DejaVuSans-8722"/>
       <use x="83.789062" xlink:href="#DejaVuSans-48"/>
       <use x="147.412109" xlink:href="#DejaVuSans-46"/>
       <use x="179.199219" xlink:href="#DejaVuSans-53"/>
      </g>
     </g>
    </g>
    <g id="ytick_2">
     <g id="line2d_10">
      <g>
       <use style="stroke:#000000;stroke-width:0.8;" x="54" xlink:href="#mec0e371703" y="150.555873"/>
      </g>
     </g>
     <g id="text_10">
      <!-- 0.0 -->
      <g transform="translate(31.096875 154.355092)scale(0.1 -0.1)">
       <use xlink:href="#DejaVuSans-48"/>
       <use x="63.623047" xlink:href="#DejaVuSans-46"/>
       <use x="95.410156" xlink:href="#DejaVuSans-48"/>
      </g>
     </g>
    </g>
    <g id="ytick_3">
     <g id="line2d_11">
      <g>
       <use style="stroke:#000000;stroke-width:0.8;" x="54" xlink:href="#mec0e371703" y="108.053482"/>
      </g>
     </g>
     <g id="text_11">
      <!-- 0.5 -->
      <g transform="translate(31.096875 111.852701)scale(0.1 -0.1)">
       <use xlink:href="#DejaVuSans-48"/>
       <use x="63.623047" xlink:href="#DejaVuSans-46"/>
       <use x="95.410156" xlink:href="#DejaVuSans-53"/>
      </g>
     </g>
    </g>
   </g>
   <g id="line2d_12">
    <path clip-path="url(#p1843cd4589)" d="M 69.218182 151.9287 
L 69.83897 151.930806 
L 71.169231 151.920416 
L 72.499491 151.922142 
L 73.386332 151.896116 
L 73.918436 151.928491 
L 74.716592 151.921937 
L 75.958169 151.925638 
L 76.224221 151.923464 
L 76.84501 151.911455 
L 76.933694 152.331745 
L 77.111062 151.935854 
L 77.643166 151.892154 
L 77.820534 151.922433 
L 77.909218 152.36464 
L 78.086586 151.912366 
L 78.707374 151.918198 
L 78.796058 151.909376 
L 78.884743 152.35213 
L 79.062111 151.928722 
L 79.594215 151.891287 
L 79.860267 151.929682 
L 80.392371 151.920725 
L 80.481055 152.366545 
L 80.658423 151.926088 
L 83.052893 151.898761 
L 83.141577 152.343974 
L 83.318945 151.937709 
L 83.762365 151.910448 
L 86.688938 151.940348 
L 86.777622 152.365025 
L 86.95499 151.905337 
L 87.309727 151.914701 
L 88.728671 151.918958 
L 88.994723 151.919155 
L 89.526828 151.93623 
L 92.808137 151.917531 
L 93.340242 151.938375 
L 93.606294 151.932583 
L 93.872346 151.915574 
L 95.646027 151.923407 
L 95.734711 152.345025 
L 95.912079 151.890153 
L 96.089447 151.923996 
L 96.266815 152.316107 
L 97.153655 152.340952 
L 97.331024 151.653444 
L 97.68576 151.674583 
L 97.774444 153.141598 
L 97.951812 152.390989 
L 98.040496 153.215201 
L 98.12918 152.286684 
L 98.217864 152.329755 
L 98.306548 152.311715 
L 98.395232 153.145668 
L 98.483916 152.27214 
L 98.5726 152.32676 
L 98.927336 152.352582 
L 99.01602 152.94452 
L 99.104704 152.30178 
L 99.193388 152.630449 
L 99.282072 152.321227 
L 99.370757 152.96923 
L 99.459441 152.357886 
L 99.548125 152.925645 
L 99.636809 152.323769 
L 99.725493 152.944127 
L 99.902861 151.338914 
L 99.991545 151.353542 
L 100.701017 151.469678 
L 100.878385 151.379618 
L 101.055753 151.358052 
L 101.144437 152.352437 
L 101.233121 152.336363 
L 101.321805 152.366454 
L 101.499174 151.798338 
L 101.942594 151.751989 
L 102.74075 151.76378 
L 103.361538 151.795162 
L 103.450223 152.181553 
L 103.627591 151.132224 
L 103.982327 151.266858 
L 104.071011 151.216215 
L 104.159695 151.888402 
L 104.248379 151.873021 
L 104.425747 152.156897 
L 104.603115 151.89519 
L 104.780483 152.015774 
L 104.957851 152.180903 
L 105.135219 151.953737 
L 105.312587 152.206858 
L 105.57864 151.364046 
L 105.667324 151.631957 
L 105.844692 152.092291 
L 106.02206 152.127343 
L 106.110744 151.362396 
L 106.288112 152.095209 
L 106.554164 152.117153 
L 106.731532 152.122405 
L 106.9089 152.2 
L 107.086268 151.666884 
L 107.618373 151.713968 
L 110.988366 151.701146 
L 111.165734 152.520488 
L 111.431786 152.524055 
L 111.52047 155.641779 
L 111.609154 152.533962 
L 111.697839 152.553835 
L 112.229943 152.524462 
L 112.318627 152.627929 
L 112.495995 152.542588 
L 112.584679 152.628035 
L 112.762047 155.432194 
L 112.939415 155.42585 
L 113.648887 155.28132 
L 113.737572 155.832317 
L 113.91494 155.549192 
L 114.624412 155.513753 
L 114.80178 155.619141 
L 115.067832 155.596275 
L 115.599936 155.663006 
L 116.132041 155.634107 
L 116.220725 155.764526 
L 116.398093 155.755482 
L 116.841513 155.812596 
L 116.930197 154.451288 
L 117.018881 154.987595 
L 117.107565 154.500307 
L 117.196249 154.950113 
L 117.373617 154.414154 
L 117.550985 154.439867 
L 117.905722 154.465688 
L 117.994406 151.642685 
L 118.08309 151.647095 
L 118.437826 151.670344 
L 118.881246 151.652313 
L 118.96993 151.664728 
L 119.058614 152.423168 
L 119.235982 151.428861 
L 119.502034 151.419283 
L 120.122823 151.388913 
L 120.654927 151.415059 
L 120.832295 150.663608 
L 121.009663 150.572722 
L 121.098347 150.891903 
L 121.187031 150.833285 
L 121.364399 150.385263 
L 121.453083 150.857656 
L 121.541767 150.811432 
L 121.630451 150.742031 
L 121.896503 150.21727 
L 121.985188 150.282064 
L 122.162556 150.033425 
L 122.517292 150.592371 
L 122.605976 150.508475 
L 123.492816 156.491937 
L 123.758868 159.041537 
L 124.379657 165.677965 
L 124.468341 166.180308 
L 124.557025 167.383875 
L 124.645709 166.783219 
L 124.823077 166.945644 
L 124.911761 167.005315 
L 125.177813 165.465976 
L 125.443865 163.282957 
L 125.975969 155.380095 
L 126.596758 148.138085 
L 126.86281 146.277324 
L 127.128862 145.625943 
L 127.217546 145.733602 
L 127.394914 145.640594 
L 127.838334 146.815076 
L 128.193071 147.849672 
L 128.547807 148.601148 
L 128.813859 148.216505 
L 128.902543 148.246121 
L 129.168595 147.597685 
L 129.789383 146.207217 
L 129.878067 146.173319 
L 129.966751 145.904843 
L 130.055435 146.112704 
L 130.232804 146.996641 
L 130.321488 147.169121 
L 130.410172 146.530093 
L 130.498856 146.623919 
L 130.853592 147.357628 
L 130.942276 148.099115 
L 131.208328 146.554318 
L 131.297012 147.620415 
L 131.385696 147.602072 
L 131.740432 147.049235 
L 131.829116 147.193007 
L 131.9178 148.186628 
L 132.006484 146.526571 
L 132.095168 147.267207 
L 132.183853 145.97042 
L 132.272537 146.850546 
L 132.449905 145.450484 
L 132.538589 145.983851 
L 132.627273 145.014111 
L 132.715957 145.640054 
L 132.804641 145.533568 
L 132.893325 146.055304 
L 133.070693 145.635739 
L 133.159377 144.921373 
L 133.248061 144.947248 
L 133.336745 145.423344 
L 133.602797 143.961081 
L 133.691481 144.442831 
L 134.046217 143.137835 
L 134.223586 143.315741 
L 134.578322 142.564521 
L 134.667006 143.280059 
L 134.844374 142.232108 
L 135.021742 142.511972 
L 135.110426 143.470049 
L 135.19911 143.33001 
L 135.376478 143.507301 
L 135.553846 143.385005 
L 135.64253 142.520494 
L 135.731214 143.328234 
L 135.819898 143.041085 
L 135.997266 141.793519 
L 136.174634 143.279727 
L 136.263318 143.060209 
L 136.440687 142.458595 
L 136.529371 142.921392 
L 136.618055 142.400959 
L 136.795423 142.611851 
L 136.884107 142.431488 
L 136.972791 141.668257 
L 137.061475 142.633731 
L 137.238843 142.275363 
L 137.416211 140.933115 
L 137.593579 141.820162 
L 137.682263 140.388571 
L 137.770947 140.724172 
L 137.948315 141.442911 
L 138.125683 142.204594 
L 138.214367 142.065889 
L 138.303051 141.747731 
L 138.48042 142.754894 
L 138.569104 144.094478 
L 138.657788 143.998616 
L 139.101208 149.061706 
L 139.455944 152.700301 
L 140.431469 159.515977 
L 141.495677 165.210936 
L 141.584361 165.370253 
L 142.027781 167.676107 
L 142.116465 167.757961 
L 142.382517 169.27545 
L 142.471202 168.937286 
L 142.559886 169.035044 
L 142.737254 169.675973 
L 142.914622 168.950132 
L 143.003306 169.020039 
L 143.180674 168.321529 
L 143.890146 163.117489 
L 143.97883 162.688942 
L 144.599619 155.950443 
L 144.688303 156.040616 
L 145.043039 152.511852 
L 145.397775 148.82593 
L 145.575143 147.239403 
L 146.905404 133.868901 
L 147.26014 129.650432 
L 147.880928 125.369516 
L 148.058296 124.088162 
L 148.413032 122.636024 
L 148.501716 122.23749 
L 148.945137 124.275698 
L 149.831977 132.911216 
L 150.186713 134.503122 
L 150.452765 134.852056 
L 150.718818 134.27141 
L 150.807502 133.451797 
L 150.896186 133.767059 
L 150.98487 133.005891 
L 151.073554 133.386284 
L 151.162238 133.198501 
L 151.339606 132.425182 
L 151.42829 133.239187 
L 151.516974 133.191117 
L 151.605658 133.303054 
L 151.694342 132.655462 
L 151.87171 132.919696 
L 151.960394 133.065431 
L 152.137762 133.984922 
L 152.31513 133.873774 
L 152.581182 134.556061 
L 152.669866 134.465495 
L 152.758551 135.163495 
L 152.847235 134.786571 
L 152.935919 136.479566 
L 153.024603 136.318756 
L 153.113287 136.539191 
L 154.088811 142.867909 
L 154.798284 149.051093 
L 156.217228 163.379544 
L 156.48328 164.659137 
L 156.660648 165.504864 
L 157.015385 168.095389 
L 157.370121 169.868249 
L 158.611697 178.918318 
L 158.87775 180.563635 
L 158.966434 180.156653 
L 159.232486 183.245586 
L 159.32117 183.464305 
L 159.498538 185.118498 
L 159.587222 185.152835 
L 159.76459 187.077398 
L 159.853274 187.746569 
L 159.941958 187.650171 
L 160.030642 187.802247 
L 160.296694 190.813731 
L 160.65143 192.922769 
L 160.740114 192.806744 
L 160.917483 195.364988 
L 161.006167 195.275941 
L 161.094851 195.651006 
L 161.272219 197.372028 
L 161.360903 197.358458 
L 161.449587 198.486479 
L 161.538271 198.307276 
L 161.804323 199.13731 
L 162.070375 200.376553 
L 162.247743 200.471037 
L 162.425111 199.892142 
L 162.957216 198.398553 
L 163.0459 198.601204 
L 163.311952 196.717248 
L 163.400636 196.798213 
L 164.642212 189.540349 
L 165.883789 179.554296 
L 166.061157 178.099157 
L 166.681945 172.530483 
L 167.302734 167.57431 
L 167.568786 165.781613 
L 168.721678 155.833761 
L 169.076414 152.355008 
L 169.519835 147.67363 
L 169.608519 145.567812 
L 169.697203 146.070354 
L 170.584043 137.341051 
L 170.672727 137.661143 
L 170.761411 137.341487 
L 171.116147 134.64191 
L 171.204832 134.516578 
L 171.736936 131.458682 
L 171.82562 131.563804 
L 172.091672 130.305503 
L 172.180356 130.256389 
L 172.26904 130.506386 
L 172.446408 128.782914 
L 172.535092 130.297115 
L 172.623776 129.976572 
L 172.71246 129.423561 
L 172.889828 130.463138 
L 173.067196 129.732264 
L 173.244565 131.120371 
L 173.421933 130.873563 
L 173.510617 131.293651 
L 173.599301 130.964812 
L 173.687985 131.444107 
L 173.776669 130.049895 
L 173.865353 130.851803 
L 173.954037 130.450934 
L 174.042721 130.573827 
L 174.220089 131.285064 
L 174.308773 131.092247 
L 174.397457 130.371032 
L 174.486141 130.4459 
L 174.574825 131.044105 
L 174.663509 129.774012 
L 174.752193 130.464021 
L 174.840877 130.42324 
L 174.929561 130.938523 
L 175.106929 130.06465 
L 175.195613 130.134458 
L 175.284298 131.161542 
L 175.55035 130.268542 
L 175.727718 131.143405 
L 176.43719 133.001237 
L 176.525874 133.207309 
L 176.614558 134.224509 
L 176.703242 133.803665 
L 176.969294 135.356065 
L 177.235346 136.484813 
L 177.324031 136.034854 
L 177.767451 138.453383 
L 177.944819 139.816186 
L 178.033503 140.026509 
L 178.831659 146.952307 
L 179.097711 149.626802 
L 179.363764 152.129985 
L 179.452448 152.539187 
L 180.16192 159.07872 
L 180.960076 163.62541 
L 181.04876 163.549716 
L 181.137444 163.633441 
L 181.403497 165.033184 
L 181.580865 163.931418 
L 181.758233 164.886544 
L 182.201653 163.607861 
L 182.290337 164.6085 
L 182.467705 163.823185 
L 182.645073 163.181887 
L 182.733757 163.340565 
L 182.822441 163.105808 
L 182.911125 162.438552 
L 182.999809 162.576989 
L 183.354545 161.480695 
L 183.975334 159.533003 
L 184.064018 157.996059 
L 184.152702 158.798244 
L 184.241386 158.387456 
L 184.418754 157.022234 
L 184.507438 156.859702 
L 185.926383 147.186669 
L 186.458487 143.206958 
L 186.813223 141.674898 
L 186.990591 142.298443 
L 187.167959 142.986271 
L 187.256643 142.88157 
L 187.434011 144.490428 
L 187.522695 145.015608 
L 187.61138 144.956148 
L 187.700064 145.255526 
L 187.788748 146.242852 
L 187.877432 145.969646 
L 188.232168 148.054791 
L 188.320852 147.748483 
L 188.586904 148.015441 
L 188.764272 147.83986 
L 189.296376 146.357846 
L 189.739797 144.472711 
L 190.005849 143.705196 
L 190.360585 142.893374 
L 190.537953 142.718576 
L 190.981373 143.215126 
L 191.070057 142.529345 
L 191.158741 142.704128 
L 191.336109 143.167761 
L 191.513477 144.604624 
L 191.602161 143.714262 
L 191.77953 144.497641 
L 192.134266 145.938324 
L 192.22295 147.512745 
L 192.311634 147.392525 
L 193.10979 152.003158 
L 193.375842 154.213277 
L 193.464526 154.267247 
L 193.55321 154.759239 
L 193.641894 154.675343 
L 193.907947 156.049061 
L 194.085315 156.790442 
L 194.173999 157.01981 
L 194.262683 156.864981 
L 194.351367 157.085761 
L 194.440051 156.380197 
L 194.528735 157.33185 
L 194.617419 157.062785 
L 194.706103 157.699264 
L 194.794787 157.361851 
L 194.883471 156.380671 
L 194.972155 156.876437 
L 195.149523 155.868376 
L 197.011888 147.179849 
L 197.27794 146.46729 
L 197.366624 146.420894 
L 197.455308 146.579138 
L 197.632676 145.92688 
L 197.72136 146.332557 
L 197.810045 146.007632 
L 197.898729 146.139388 
L 198.253465 147.61461 
L 198.342149 146.898683 
L 198.696885 149.190518 
L 198.874253 148.819144 
L 199.406357 151.928211 
L 199.495041 151.826265 
L 199.761093 153.030749 
L 199.849777 152.804414 
L 200.11583 154.241258 
L 200.470566 155.112709 
L 200.736618 155.275035 
L 201.091354 154.123149 
L 201.268722 154.520921 
L 201.357406 154.339491 
L 201.44609 153.772151 
L 201.623458 154.14002 
L 202.598983 152.467565 
L 202.687667 152.545532 
L 202.776351 152.249867 
L 202.865035 152.35748 
L 202.953719 152.289629 
L 203.042403 152.524005 
L 203.219771 152.444488 
L 203.308455 152.529131 
L 203.397139 153.342849 
L 203.574507 152.595128 
L 203.663191 152.689285 
L 204.372664 152.852826 
L 204.638716 152.816955 
L 204.816084 152.764797 
L 204.993452 152.267559 
L 205.082136 152.57969 
L 205.259504 152.314444 
L 205.348188 152.325888 
L 205.525556 151.144235 
L 205.702924 152.001221 
L 205.791608 151.986426 
L 206.235029 150.145541 
L 206.323713 150.980089 
L 206.412397 150.838101 
L 206.589765 151.140671 
L 206.678449 150.884305 
L 206.855817 151.376421 
L 207.033185 151.796466 
L 207.299237 152.464374 
L 207.387921 152.060256 
L 207.831341 154.709511 
L 208.008709 156.719777 
L 208.806866 161.413097 
L 209.072918 162.111958 
L 209.161602 161.983313 
L 209.250286 162.003328 
L 209.516338 161.194375 
L 209.959758 158.838935 
L 211.201335 149.871797 
L 214.571329 113.633706 
L 215.103433 109.97716 
L 215.369485 108.939547 
L 215.458169 106.781376 
L 215.546853 107.735628 
L 215.635537 106.861309 
L 215.724221 107.630005 
L 215.812905 107.571999 
L 215.901589 107.710749 
L 216.078957 108.596256 
L 216.522378 110.201598 
L 216.611062 110.570934 
L 216.78843 109.800381 
L 216.877114 110.149894 
L 217.054482 112.485677 
L 217.143166 112.150453 
L 217.23185 111.096562 
L 217.409218 112.830232 
L 217.497902 112.9887 
L 217.586586 112.177985 
L 217.67527 113.249307 
L 217.763954 112.31351 
L 217.852638 112.379861 
L 218.030006 113.335944 
L 218.11869 112.379136 
L 218.207374 113.286482 
L 218.384743 112.236121 
L 218.562111 113.069068 
L 218.739479 112.001285 
L 218.828163 111.926546 
L 219.005531 112.909757 
L 219.182899 111.995221 
L 219.448951 112.015684 
L 219.537635 112.964524 
L 219.626319 112.264634 
L 219.715003 112.312854 
L 219.892371 113.395934 
L 219.981055 112.602705 
L 220.069739 113.425949 
L 220.158423 112.854326 
L 220.247107 114.034919 
L 220.335791 114.019795 
L 220.424476 114.054907 
L 220.51316 113.448618 
L 220.867896 115.074727 
L 221.045264 114.522235 
L 221.222632 114.849954 
L 221.311316 113.93942 
L 221.4 114.044329 
L 221.577368 113.441343 
L 221.666052 113.115423 
L 221.84342 113.328647 
L 222.198156 110.946489 
L 222.28684 111.055488 
L 222.375524 110.888276 
L 222.552893 110.013578 
L 222.730261 109.510461 
L 222.818945 109.701622 
L 222.907629 109.392594 
L 222.996313 109.975731 
L 223.173681 108.496334 
L 223.262365 109.34761 
L 223.351049 109.20308 
L 223.528417 108.980474 
L 223.705785 108.009135 
L 223.794469 108.586169 
L 223.883153 108.479463 
L 224.060521 107.189299 
L 224.149205 107.097566 
L 224.237889 106.791499 
L 224.326573 106.957513 
L 224.415257 106.542139 
L 224.503942 107.43819 
L 224.592626 107.341103 
L 224.68131 107.196551 
L 224.769994 106.745952 
L 224.858678 105.497968 
L 224.947362 106.567221 
L 225.036046 106.552049 
L 225.213414 106.600644 
L 225.302098 106.377753 
L 225.479466 106.812057 
L 225.56815 107.831431 
L 225.656834 107.663051 
L 225.745518 107.600231 
L 226.898411 114.165826 
L 227.341831 114.592257 
L 227.607883 114.661697 
L 227.696567 114.778423 
L 227.785251 115.791596 
L 227.873935 115.719817 
L 227.962619 115.76174 
L 228.139987 115.970342 
L 228.228671 115.510488 
L 228.406039 116.146404 
L 228.494723 116.269807 
L 228.583408 115.848469 
L 228.672092 116.49214 
L 228.760776 115.766236 
L 229.29288 116.903563 
L 229.558932 117.311871 
L 229.913668 118.598291 
L 230.002352 118.379138 
L 230.445772 119.328993 
L 230.534456 119.103779 
L 230.800509 120.069559 
L 230.977877 119.283579 
L 231.066561 119.396202 
L 231.332613 120.466497 
L 231.421297 120.285672 
L 231.687349 120.380031 
L 231.776033 120.397418 
L 231.864717 120.983475 
L 231.953401 120.91987 
L 232.042085 120.381004 
L 232.130769 120.489576 
L 232.219453 120.363805 
L 232.485505 119.528102 
L 232.574189 119.989495 
L 232.751558 119.296649 
L 232.840242 119.66648 
L 233.106294 118.700858 
L 233.194978 118.677432 
L 233.283662 118.505768 
L 233.372346 119.290664 
L 233.549714 118.189747 
L 233.90445 117.164781 
L 233.993134 118.075412 
L 234.170502 116.307792 
L 234.259186 116.044326 
L 234.34787 116.451609 
L 234.436554 116.343031 
L 234.613922 114.797522 
L 234.702606 114.63404 
L 234.791291 114.714605 
L 234.879975 114.346981 
L 234.968659 115.437176 
L 235.057343 114.094033 
L 235.146027 114.168943 
L 235.234711 115.147928 
L 235.323395 114.159492 
L 235.412079 114.478953 
L 235.589447 115.711436 
L 235.678131 114.473446 
L 235.766815 114.728251 
L 236.032867 116.154513 
L 236.121551 115.661618 
L 236.210235 117.429251 
L 236.298919 116.276164 
L 236.387603 116.480909 
L 236.564971 117.596827 
L 236.653655 117.17561 
L 236.831024 117.883437 
L 236.919708 117.322469 
L 237.008392 117.375451 
L 237.18576 118.130758 
L 237.363128 117.519731 
L 237.540496 117.568221 
L 237.806548 117.582014 
L 237.895232 117.730461 
L 238.0726 117.573375 
L 238.338652 117.700347 
L 238.51602 117.670162 
L 238.604704 117.464651 
L 238.782072 117.921203 
L 239.136809 118.195533 
L 239.314177 118.836701 
L 239.668913 119.232896 
L 239.846281 119.614979 
L 239.934965 119.456083 
L 240.023649 120.004443 
L 240.112333 119.368654 
L 240.201017 119.531572 
L 240.378385 120.238432 
L 240.467069 120.130033 
L 240.555753 120.597721 
L 240.644437 120.550675 
L 240.821805 120.155613 
L 240.999174 120.289028 
L 241.087858 120.373546 
L 241.265226 119.701926 
L 241.35391 119.916984 
L 241.531278 119.366531 
L 241.619962 119.348977 
L 242.506802 116.173473 
L 243.127591 114.00255 
L 243.216275 114.521841 
L 243.393643 113.868551 
L 243.482327 113.845029 
L 243.571011 113.976651 
L 243.659695 113.796002 
L 243.837063 114.308392 
L 243.925747 114.373349 
L 244.191799 115.118324 
L 244.280483 115.245925 
L 244.369167 115.136602 
L 244.812587 115.682285 
L 244.901271 115.282955 
L 244.989955 115.601672 
L 245.167324 115.400841 
L 245.256008 115.904533 
L 245.344692 115.831603 
L 245.52206 115.982191 
L 245.610744 115.507347 
L 246.142848 116.635808 
L 246.231532 116.390203 
L 246.320216 116.455753 
L 246.497584 117.193562 
L 246.674952 117.883749 
L 246.763636 117.886608 
L 247.118373 119.002904 
L 247.207057 118.667464 
L 247.295741 119.315898 
L 247.384425 118.921639 
L 247.473109 118.961347 
L 247.561793 119.925366 
L 247.650477 119.102383 
L 247.739161 119.350197 
L 247.827845 120.094144 
L 247.916529 119.993002 
L 248.005213 120.072004 
L 248.093897 119.343387 
L 248.182581 120.211403 
L 249.778894 113.913564 
L 249.867578 114.204901 
L 249.956262 114.147916 
L 250.044946 113.766124 
L 250.13363 113.800154 
L 250.310998 114.129012 
L 250.399682 114.260658 
L 250.665734 115.221097 
L 250.754418 115.241123 
L 250.931786 116.094068 
L 251.02047 116.184775 
L 251.109154 115.942748 
L 251.197839 117.911794 
L 251.286523 116.908954 
L 251.552575 118.829632 
L 251.641259 117.896715 
L 251.729943 118.463855 
L 251.818627 118.379455 
L 251.907311 118.490082 
L 251.995995 118.81795 
L 252.084679 119.705718 
L 252.262047 118.263769 
L 252.350731 119.238552 
L 252.439415 119.074199 
L 252.528099 118.410652 
L 252.616783 118.506101 
L 252.705467 118.827878 
L 252.882835 117.485156 
L 252.971519 117.478726 
L 253.237572 116.956423 
L 253.41494 115.770361 
L 253.680992 114.944445 
L 253.769676 115.11767 
L 254.035728 113.426282 
L 254.124412 113.801599 
L 254.30178 113.496666 
L 254.390464 113.705757 
L 254.567832 113.663077 
L 254.656516 113.655277 
L 254.833884 113.037312 
L 254.922568 113.332677 
L 255.011252 113.075241 
L 255.099936 113.593138 
L 255.454673 112.316467 
L 255.898093 113.415353 
L 255.986777 113.181115 
L 256.252829 113.599457 
L 256.341513 113.472071 
L 256.430197 114.406467 
L 256.518881 113.953775 
L 256.607565 114.173723 
L 256.784933 115.260573 
L 257.760458 118.60763 
L 257.849142 118.299712 
L 257.937826 119.892705 
L 258.02651 118.975885 
L 258.203878 119.714204 
L 258.292562 120.642536 
L 258.381246 120.536674 
L 258.46993 120.490913 
L 258.824666 121.54548 
L 258.91335 121.3221 
L 259.090718 121.658831 
L 259.179402 121.624668 
L 259.268086 121.386757 
L 259.445455 122.179719 
L 259.622823 121.720517 
L 259.711507 121.524014 
L 259.800191 121.860378 
L 259.977559 121.630201 
L 260.154927 122.794254 
L 260.243611 122.377449 
L 260.420979 123.106391 
L 260.598347 124.328095 
L 260.687031 124.404267 
L 260.864399 125.622695 
L 261.041767 126.60083 
L 261.573872 130.8321 
L 261.75124 132.599727 
L 261.839924 133.286235 
L 262.017292 135.496407 
L 262.283344 138.273396 
L 262.63808 142.033745 
L 263.0815 146.648352 
L 263.524921 150.330013 
L 263.968341 152.965783 
L 264.145709 152.937713 
L 264.234393 152.70326 
L 264.323077 153.403432 
L 264.500445 152.76643 
L 264.943865 150.540244 
L 265.209917 149.475384 
L 265.564654 147.892391 
L 265.653338 148.265877 
L 265.91939 147.423077 
L 266.008074 147.712493 
L 266.096758 147.145216 
L 266.274126 147.676516 
L 266.36281 147.798926 
L 266.451494 148.297237 
L 266.540178 147.944661 
L 266.80623 149.14332 
L 267.781755 152.403114 
L 268.668595 153.707014 
L 268.757279 153.463675 
L 268.934647 153.597858 
L 269.023331 153.524756 
L 269.112015 154.061864 
L 269.200699 153.693604 
L 269.378067 154.187759 
L 269.555435 154.143155 
L 269.998856 153.073334 
L 270.08754 153.072606 
L 270.176224 153.207297 
L 271.240432 149.262702 
L 271.329116 149.233592 
L 271.4178 148.157614 
L 271.506484 148.920107 
L 271.595168 148.685656 
L 271.683853 147.863586 
L 271.772537 147.876594 
L 272.038589 147.256794 
L 272.127273 146.448502 
L 272.215957 146.940741 
L 272.304641 146.767066 
L 272.482009 145.913122 
L 272.570693 145.58194 
L 272.659377 145.677393 
L 273.191481 144.982263 
L 273.368849 144.891043 
L 273.81227 144.778846 
L 274.167006 145.25579 
L 274.25569 145.007895 
L 274.787794 147.547281 
L 274.876478 147.337227 
L 275.940687 152.300163 
L 276.029371 152.281826 
L 276.118055 152.042418 
L 276.295423 152.359488 
L 276.472791 153.209095 
L 276.561475 152.853576 
L 276.650159 152.926563 
L 276.738843 153.505651 
L 276.827527 153.466616 
L 276.916211 153.490094 
L 277.004895 152.968959 
L 277.182263 153.494569 
L 277.359631 152.801147 
L 277.448315 153.782256 
L 277.536999 153.664666 
L 277.625683 153.18267 
L 277.714367 153.350613 
L 278.069104 152.365866 
L 278.335156 151.255361 
L 279.044628 146.219483 
L 279.399364 142.577755 
L 279.7541 138.61418 
L 280.197521 131.676399 
L 280.552257 127.587636 
L 280.995677 120.608151 
L 282.769358 98.463235 
L 282.858042 99.090068 
L 283.03541 98.125839 
L 283.212778 96.255781 
L 283.301462 97.367633 
L 283.390146 97.328644 
L 283.47883 96.132214 
L 283.567514 96.197309 
L 283.744882 96.590785 
L 283.833566 97.855759 
L 283.92225 97.365589 
L 284.010935 98.919093 
L 284.099619 98.627155 
L 284.188303 98.165371 
L 284.454355 98.557938 
L 284.543039 98.580865 
L 284.631723 99.260444 
L 284.809091 98.356052 
L 284.897775 98.307577 
L 284.986459 98.660618 
L 285.252511 97.751849 
L 285.784615 96.756828 
L 285.961983 96.619655 
L 286.050668 96.081603 
L 286.228036 96.917891 
L 286.31672 97.095619 
L 286.494088 97.584025 
L 286.582772 97.085492 
L 286.848824 97.859573 
L 287.114876 96.947635 
L 287.20356 96.83859 
L 287.292244 97.054566 
L 287.64698 96.480971 
L 287.735664 96.854837 
L 287.824348 96.618979 
L 288.001716 95.746548 
L 288.267769 95.390237 
L 288.799873 93.131739 
L 289.420661 90.131906 
L 289.775397 87.567329 
L 290.307502 83.169135 
L 290.396186 84.043997 
L 290.48487 83.818047 
L 290.573554 82.407273 
L 290.750922 82.937692 
L 291.016974 83.272503 
L 291.283026 83.969652 
L 291.549078 84.657628 
L 291.637762 84.611452 
L 292.081182 86.710659 
L 292.169866 87.491498 
L 292.258551 86.83025 
L 292.524603 90.046304 
L 292.790655 91.877638 
L 292.968023 93.738554 
L 293.056707 94.123057 
L 293.677495 102.857509 
L 294.032231 106.822567 
L 295.007756 122.379323 
L 295.273808 126.595108 
L 295.451176 128.630239 
L 297.402225 162.977463 
L 297.756961 168.904701 
L 298.998538 188.147045 
L 299.087222 188.085268 
L 299.885378 195.228396 
L 300.15143 198.482358 
L 300.949587 202.662714 
L 301.038271 202.622703 
L 301.393007 203.904857 
L 301.481691 203.606945 
L 301.570375 204.061922 
L 301.836427 203.843596 
L 302.013795 204.152727 
L 302.191163 204.028331 
L 302.5459 202.506864 
L 302.811952 201.088193 
L 303.166688 198.940657 
L 303.610108 195.08202 
L 303.964844 190.941981 
L 304.142212 189.113626 
L 304.940369 181.571033 
L 305.117737 180.495164 
L 305.383789 178.087072 
L 305.915893 173.433665 
L 306.71405 166.16608 
L 307.068786 162.194675 
L 308.48773 148.849389 
L 308.753783 147.258258 
L 308.842467 147.596849 
L 308.931151 146.639754 
L 309.019835 146.950215 
L 309.108519 146.442707 
L 309.197203 146.735463 
L 309.285887 146.267041 
L 309.374571 146.800975 
L 309.463255 146.571985 
L 309.551939 146.652678 
L 309.640623 146.270679 
L 309.817991 146.523851 
L 309.906675 146.484964 
L 310.084043 146.604461 
L 310.172727 146.579385 
L 310.261411 146.809865 
L 310.438779 146.592726 
L 310.527463 146.707419 
L 310.616147 147.032722 
L 310.704832 147.007465 
L 310.793516 147.113712 
L 311.236936 148.778711 
L 311.32562 148.523028 
L 311.414304 149.507019 
L 311.502988 149.249395 
L 311.591672 150.247695 
L 311.680356 150.096369 
L 311.76904 150.581108 
L 311.946408 152.352003 
L 312.123776 152.693862 
L 312.21246 153.008583 
L 312.389828 154.41927 
L 312.478512 153.901921 
L 312.567196 154.22271 
L 312.744565 155.121026 
L 312.833249 154.68536 
L 312.921933 155.346879 
L 313.010617 155.052407 
L 313.099301 156.073636 
L 313.187985 155.289352 
L 313.276669 155.462817 
L 313.365353 155.326913 
L 313.542721 155.955864 
L 313.631405 155.830443 
L 313.720089 155.686157 
L 313.897457 155.845874 
L 314.074825 156.287676 
L 314.163509 156.410444 
L 314.252193 156.207002 
L 314.340877 157.453758 
L 314.429561 156.92793 
L 314.518245 157.488382 
L 314.606929 156.808056 
L 314.961666 158.590278 
L 315.05035 158.077539 
L 315.139034 158.094049 
L 315.316402 159.172836 
L 315.405086 159.108505 
L 315.582454 159.685439 
L 315.759822 160.006695 
L 316.025874 160.316235 
L 316.114558 160.112262 
L 316.203242 160.843326 
L 316.291926 160.22998 
L 316.469294 160.994776 
L 316.557978 159.779154 
L 316.646662 159.945446 
L 316.735346 159.709179 
L 316.824031 159.742929 
L 316.912715 160.357719 
L 317.001399 160.247783 
L 317.090083 159.761704 
L 317.178767 159.785641 
L 317.356135 159.697181 
L 317.444819 159.355196 
L 317.533503 159.53071 
L 317.888239 159.117217 
L 317.976923 159.071334 
L 318.154291 158.717931 
L 318.242975 158.880398 
L 318.331659 158.831038 
L 318.597711 158.880098 
L 318.863764 158.835518 
L 319.041132 158.907974 
L 319.2185 158.953245 
L 319.307184 159.215982 
L 319.395868 159.177421 
L 319.573236 158.724959 
L 319.750604 160.257134 
L 319.839288 160.258228 
L 319.927972 160.455932 
L 320.016656 161.091358 
L 320.10534 160.613223 
L 320.637444 162.425787 
L 320.814812 163.214446 
L 320.903497 163.355925 
L 320.992181 163.257411 
L 321.169549 164.4249 
L 321.346917 164.575048 
L 321.435601 163.955327 
L 321.524285 164.164954 
L 321.701653 163.791514 
L 321.790337 163.730221 
L 322.588493 161.34099 
L 322.677177 161.411754 
L 322.943229 159.519415 
L 323.120598 158.659579 
L 323.209282 159.20886 
L 323.297966 157.813124 
L 323.38665 158.280994 
L 323.475334 157.105454 
L 323.564018 157.35352 
L 323.741386 157.711036 
L 323.83007 156.483608 
L 323.918754 156.6612 
L 324.096122 156.950168 
L 324.27349 157.663392 
L 324.450858 159.606092 
L 324.539542 159.459125 
L 324.628226 160.418933 
L 324.71691 159.557651 
L 324.805594 159.718342 
L 324.894278 161.075084 
L 324.982962 160.361364 
L 325.071647 160.455197 
L 325.160331 160.662767 
L 325.337699 162.614794 
L 325.603751 164.364938 
L 325.692435 163.852661 
L 325.958487 166.074119 
L 326.313223 167.68184 
L 326.490591 168.117165 
L 326.756643 168.521352 
L 327.022695 167.919569 
L 327.11138 167.658151 
L 327.288748 166.336833 
L 327.820852 162.814728 
L 329.505849 137.283351 
L 329.594533 136.522895 
L 329.771901 133.721668 
L 330.126637 131.92058 
L 330.215321 131.931054 
L 330.747425 133.069614 
L 332.521106 142.201732 
L 334.028735 146.008004 
L 334.472155 146.173672 
L 334.738207 146.646419 
L 335.004259 147.572043 
L 335.092943 147.531794 
L 335.536364 148.99995 
L 335.625048 148.922776 
L 335.802416 149.209987 
L 335.979784 149.176957 
L 336.157152 149.8144 
L 336.423204 150.799262 
L 336.600572 150.511934 
L 336.689256 150.679325 
L 336.866624 150.104682 
L 337.132676 150.520647 
L 337.22136 150.591875 
L 337.310045 150.937533 
L 337.398729 150.893054 
L 337.576097 150.847468 
L 338.817673 150.836061 
L 339.083725 150.850585 
L 342.276351 150.853185 
L 343.163191 150.886137 
L 343.606612 150.855976 
L 344.759504 150.753257 
L 345.11424 150.726017 
L 346.089765 150.68027 
L 346.267133 150.256022 
L 346.444501 150.192867 
L 346.710553 150.214019 
L 346.887921 150.252355 
L 347.065289 150.251188 
L 347.242657 150.166585 
L 347.420025 150.263232 
L 347.597394 150.181813 
L 347.774762 150.289865 
L 348.040814 150.190265 
L 348.306866 150.218031 
L 348.484234 150.24822 
L 349.371074 150.198831 
L 349.548442 150.172831 
L 349.725811 150.245565 
L 349.903179 150.156559 
L 350.612651 150.237862 
L 351.499491 150.183944 
L 351.67686 150.215143 
L 351.854228 150.200577 
L 352.031596 150.294192 
L 352.297648 150.259815 
L 352.475016 150.219225 
L 352.652384 150.181609 
L 353.095804 150.231905 
L 353.539224 150.251181 
L 353.805277 150.252704 
L 353.982645 150.219326 
L 354.160013 150.181314 
L 354.426065 150.190852 
L 354.603433 150.218778 
L 354.780801 150.240095 
L 354.958169 150.214394 
L 355.224221 150.268913 
L 355.401589 150.231382 
L 355.578957 150.237636 
L 356.199746 150.20033 
L 356.377114 150.172148 
L 356.554482 150.190969 
L 356.73185 150.226455 
L 356.909218 150.211202 
L 357.086586 150.256361 
L 357.707374 150.234074 
L 357.884743 150.265069 
L 358.416847 150.205554 
L 358.594215 150.276663 
L 358.860267 150.227958 
L 359.037635 150.24783 
L 359.303687 150.273466 
L 359.481055 150.226832 
L 359.658423 150.194467 
L 359.835791 150.21305 
L 360.101844 150.203489 
L 360.367896 150.210679 
L 360.545264 150.250034 
L 360.811316 150.253777 
L 360.988684 150.223787 
L 361.166052 150.192075 
L 361.34342 150.270093 
L 361.520788 150.148998 
L 361.698156 150.293474 
L 361.964209 150.231091 
L 362.141577 150.283639 
L 362.318945 150.229855 
L 362.584997 150.227779 
L 363.117101 150.240572 
L 363.294469 150.225069 
L 363.471837 150.211775 
L 363.649205 150.285583 
L 363.826573 150.193757 
L 364.092626 150.240572 
L 364.269994 150.182185 
L 364.447362 150.283162 
L 364.802098 150.200901 
L 365.06815 150.234909 
L 365.245518 150.26287 
L 365.422886 150.251067 
L 365.600254 150.319584 
L 365.777622 150.258833 
L 366.043675 150.2743 
L 366.221043 150.278215 
L 366.398411 150.311493 
L 366.575779 150.223753 
L 366.841831 150.282389 
L 367.019199 150.288161 
L 367.196567 150.284614 
L 367.639987 150.217277 
L 367.994723 150.249938 
L 368.083408 150.205433 
L 368.260776 150.339083 
L 368.438144 150.192755 
L 368.79288 150.230313 
L 368.970248 150.275542 
L 369.058932 150.358838 
L 369.324984 150.197322 
L 369.502352 150.246982 
L 369.67972 150.238219 
L 369.857088 150.295998 
L 370.034456 150.22909 
L 370.211825 150.300307 
L 370.477877 150.238528 
L 370.655245 150.250789 
L 370.832613 150.171739 
L 371.009981 150.275167 
L 371.187349 150.234877 
L 371.453401 150.267483 
L 371.630769 150.234563 
L 371.808137 150.297611 
L 371.985505 150.230015 
L 372.251558 150.24602 
L 372.428926 150.264927 
L 372.606294 150.233384 
L 372.783662 150.204184 
L 372.96103 150.252027 
L 373.227082 150.276274 
L 373.581818 150.217041 
L 373.581818 150.217041 
" style="fill:none;stroke:#1f77b4;stroke-linecap:square;stroke-width:1.5;"/>
   </g>
   <g id="line2d_13">
    <path clip-path="url(#p1843cd4589)" d="M 69.218182 151.925668 
L 74.893961 151.761133 
L 102.563382 151.296815 
L 113.648887 151.230015 
L 114.979148 150.861916 
L 115.68862 150.640474 
L 116.930197 150.324487 
L 117.639669 150.125631 
L 118.792562 149.84191 
L 119.679402 149.6219 
L 120.211507 149.486429 
L 120.388875 149.47316 
L 121.630451 149.147512 
L 122.605976 148.879853 
L 123.315448 148.728444 
L 123.670184 148.738659 
L 123.936236 148.545012 
L 124.290973 148.082391 
L 124.911761 146.862582 
L 125.089129 146.824211 
L 125.443865 147.111434 
L 125.709917 147.555455 
L 125.887285 148.190078 
L 126.153338 149.950496 
L 127.040178 158.572189 
L 127.660966 164.129403 
L 127.927018 164.890945 
L 128.015702 164.812217 
L 128.193071 164.047945 
L 128.547807 160.316595 
L 129.700699 144.024232 
L 130.055435 141.916415 
L 130.321488 141.426586 
L 130.498856 141.478675 
L 130.676224 141.77503 
L 131.563064 143.663024 
L 131.829116 143.593519 
L 132.183853 142.87245 
L 132.715957 141.628543 
L 133.070693 141.317063 
L 133.248061 141.436342 
L 133.514113 142.04083 
L 133.957533 143.054817 
L 134.400954 143.822463 
L 134.667006 143.811634 
L 134.933058 143.485952 
L 136.352003 140.258401 
L 136.529371 140.176178 
L 136.795423 140.144299 
L 137.327527 139.304799 
L 137.504895 139.275516 
L 137.682263 138.968057 
L 138.036999 138.304681 
L 138.569104 137.924535 
L 138.92384 137.287868 
L 139.36726 136.601396 
L 139.81068 135.781826 
L 140.165416 135.230878 
L 140.608837 134.261589 
L 140.786205 134.235246 
L 140.963573 134.420216 
L 141.229625 135.197551 
L 141.495677 136.760084 
L 142.205149 143.657698 
L 143.180674 152.175856 
L 145.131723 163.41684 
L 145.575143 165.032011 
L 145.752511 165.223748 
L 145.929879 165.088442 
L 146.195931 164.173423 
L 146.550668 162.009482 
L 147.171456 156.828196 
L 147.969612 148.979194 
L 151.250922 116.523438 
L 151.516974 115.588767 
L 151.605658 115.541245 
L 151.694342 115.64991 
L 151.960394 117.232632 
L 152.492498 122.950111 
L 152.935919 127.292188 
L 153.201971 128.444919 
L 153.379339 128.679228 
L 153.556707 128.59143 
L 154.000127 128.038899 
L 154.266179 128.05009 
L 154.532231 128.204117 
L 154.709599 127.921032 
L 154.886968 127.755204 
L 155.15302 128.226503 
L 155.330388 128.629169 
L 155.507756 128.785487 
L 155.685124 129.505069 
L 156.03986 131.354193 
L 157.015385 136.360655 
L 158.168277 149.560505 
L 158.256961 149.68439 
L 159.853274 161.966135 
L 160.030642 162.504878 
L 160.562746 166.408517 
L 161.006167 171.131788 
L 161.272219 173.495917 
L 161.981691 179.479379 
L 162.159059 180.115456 
L 162.425111 180.784814 
L 162.779847 182.463475 
L 163.134584 184.471914 
L 163.311952 184.494725 
L 163.48932 185.609746 
L 163.844056 188.35801 
L 164.730896 192.532232 
L 165.263001 193.140936 
L 165.440369 192.652255 
L 166.061157 190.216544 
L 168.632994 177.215586 
L 168.810362 176.562364 
L 169.697203 170.4161 
L 170.051939 167.647657 
L 170.406675 167.127739 
L 170.584043 166.336992 
L 170.850095 164.326967 
L 171.204832 163.087278 
L 171.470884 160.164515 
L 171.82562 155.997247 
L 172.180356 152.543747 
L 173.599301 136.360822 
L 173.687985 136.150132 
L 173.776669 136.346458 
L 173.865353 136.002887 
L 174.308773 131.122039 
L 174.663509 130.333218 
L 175.106929 127.686486 
L 175.461666 126.857624 
L 175.55035 126.940478 
L 175.816402 126.545775 
L 175.905086 126.428435 
L 175.99377 126.516947 
L 176.259822 126.280672 
L 176.43719 126.571542 
L 176.791926 127.190931 
L 177.146662 127.383742 
L 177.856135 127.299924 
L 178.033503 127.344763 
L 178.476923 126.617834 
L 178.654291 126.788567 
L 178.920343 127.62409 
L 179.186395 128.564476 
L 179.275079 128.600634 
L 179.7185 129.63351 
L 179.895868 130.223202 
L 180.250604 132.214087 
L 180.427972 132.716258 
L 180.871392 135.110825 
L 181.492181 139.936601 
L 181.580865 140.17121 
L 182.379021 147.180084 
L 183.088493 156.132858 
L 183.265861 157.785743 
L 183.443229 159.407029 
L 183.531914 159.597879 
L 183.709282 158.872545 
L 183.797966 158.919557 
L 184.152702 162.482808 
L 184.418754 161.863238 
L 184.596122 163.424627 
L 184.77349 164.89719 
L 184.862174 164.928115 
L 185.128226 163.016975 
L 185.21691 163.154587 
L 185.482962 164.763334 
L 185.571647 164.734235 
L 185.837699 162.505906 
L 186.015067 161.483438 
L 186.192435 161.250699 
L 186.369803 160.383166 
L 187.167959 155.429707 
L 187.966116 150.422429 
L 188.49822 145.376064 
L 189.562428 133.77501 
L 189.739797 132.957034 
L 189.917165 132.940768 
L 190.360585 133.552511 
L 190.537953 134.447068 
L 190.981373 136.776396 
L 191.424793 138.142709 
L 191.602161 138.186563 
L 191.868214 137.720317 
L 192.22295 136.541037 
L 192.755054 134.337936 
L 192.932422 134.249099 
L 193.10979 134.476522 
L 193.641894 135.79588 
L 194.173999 138.415076 
L 194.617419 140.3354 
L 195.415575 144.45682 
L 195.94768 147.573242 
L 196.657152 152.166412 
L 197.27794 154.812074 
L 197.543992 155.139772 
L 197.72136 155.15926 
L 197.987413 154.848121 
L 198.342149 153.856151 
L 199.051621 150.596192 
L 199.672409 147.479624 
L 200.293198 145.227036 
L 200.470566 145.065562 
L 200.736618 145.223582 
L 201.091354 145.642195 
L 201.44609 146.591537 
L 202.155563 150.1405 
L 203.308455 156.460595 
L 203.751875 157.522869 
L 203.929243 157.696829 
L 204.372664 157.607109 
L 204.816084 156.968088 
L 205.17082 156.599572 
L 205.259504 156.515882 
L 205.880292 155.063874 
L 206.057661 154.953048 
L 206.412397 154.376754 
L 206.678449 154.125772 
L 207.299237 152.972283 
L 207.476605 152.791815 
L 207.920025 151.793231 
L 209.516338 147.68149 
L 209.871074 147.514713 
L 210.048442 147.683611 
L 210.225811 148.196704 
L 210.580547 150.236756 
L 211.999491 159.882447 
L 212.17686 160.004718 
L 212.442912 159.919141 
L 212.62028 159.56485 
L 212.886332 158.376612 
L 214.039224 150.046612 
L 214.660013 143.355874 
L 216.167641 124.982674 
L 216.78843 117.572025 
L 217.497902 108.474092 
L 218.207374 102.612824 
L 218.739479 99.86121 
L 218.828163 99.90815 
L 219.005531 100.50996 
L 219.537635 102.418224 
L 219.981055 105.120726 
L 220.51316 107.480695 
L 221.045264 108.167557 
L 221.133948 108.088832 
L 221.311316 107.990747 
L 221.4 107.899176 
L 221.754736 108.084756 
L 222.020788 107.773974 
L 222.198156 107.801136 
L 222.552893 108.265067 
L 223.084997 108.715385 
L 224.149205 110.452883 
L 224.415257 110.24985 
L 224.68131 109.810811 
L 226.188938 106.623767 
L 226.809727 106.404104 
L 226.987095 105.937716 
L 227.164463 106.100135 
L 227.341831 106.249531 
L 227.607883 106.076562 
L 227.696567 106.158102 
L 228.051303 106.91439 
L 228.139987 106.848635 
L 228.406039 107.393302 
L 228.672092 109.415236 
L 229.115512 113.52071 
L 229.29288 113.707154 
L 229.470248 113.828002 
L 229.558932 114.065212 
L 229.647616 113.90792 
L 230.002352 112.077636 
L 230.17972 112.82344 
L 230.445772 113.86599 
L 230.534456 113.965465 
L 230.711825 113.079893 
L 230.977877 111.788236 
L 231.155245 111.516141 
L 231.243929 111.611114 
L 232.042085 114.893192 
L 232.130769 114.977536 
L 232.219453 114.89948 
L 232.396821 115.011726 
L 232.662873 116.428327 
L 232.928926 117.481621 
L 233.106294 117.51937 
L 233.638398 118.094956 
L 233.815766 118.202966 
L 233.993134 119.020457 
L 234.259186 120.535879 
L 234.436554 120.560888 
L 234.702606 119.78418 
L 235.234711 117.620551 
L 235.412079 117.457747 
L 235.589447 118.070064 
L 236.121551 120.343489 
L 236.387603 119.373744 
L 237.540496 113.873397 
L 237.806548 113.620841 
L 238.0726 113.449686 
L 238.427336 113.939387 
L 238.959441 116.537924 
L 239.402861 116.895407 
L 239.580229 116.854375 
L 239.934965 115.58032 
L 240.023649 115.756558 
L 240.289701 116.462662 
L 240.378385 116.467144 
L 240.555753 116.053089 
L 240.733121 115.117548 
L 241.265226 111.295159 
L 241.619962 111.080037 
L 241.79733 111.314037 
L 242.24075 112.992296 
L 243.659695 119.773325 
L 244.723903 122.78948 
L 244.812587 122.794967 
L 244.989955 122.422242 
L 245.344692 120.898671 
L 246.054164 117.293574 
L 246.320216 117.04633 
L 246.497584 117.076162 
L 246.763636 117.536515 
L 247.118373 118.779213 
L 247.739161 121.038453 
L 248.271265 121.997106 
L 248.626001 122.711689 
L 249.424158 125.403395 
L 251.197839 132.21029 
L 251.463891 132.49587 
L 251.907311 132.432647 
L 252.084679 132.259204 
L 253.148887 130.459082 
L 253.680992 131.001332 
L 254.390464 132.420049 
L 254.656516 132.530154 
L 255.011252 132.732138 
L 255.277305 132.416675 
L 255.632041 131.69731 
L 255.986777 130.251292 
L 256.607565 127.884824 
L 256.873617 126.697037 
L 257.405722 123.811877 
L 257.671774 123.569558 
L 257.937826 123.651572 
L 258.46993 123.991654 
L 259.090718 124.278546 
L 259.622823 125.177529 
L 261.041767 128.343566 
L 261.219135 128.642129 
L 261.75124 129.556501 
L 261.928608 129.553804 
L 262.283344 128.914524 
L 262.460712 128.838143 
L 262.726764 129.881228 
L 263.436236 133.797449 
L 263.613605 133.975723 
L 263.879657 134.976566 
L 264.234393 136.778282 
L 264.766497 141.175841 
L 266.096758 153.272669 
L 266.894914 158.186697 
L 267.24965 158.525835 
L 267.427018 158.262484 
L 267.693071 156.98697 
L 268.579911 151.955835 
L 268.934647 151.041479 
L 269.112015 150.940226 
L 269.289383 151.043909 
L 269.555435 151.56409 
L 270.442276 153.960975 
L 270.885696 154.027075 
L 271.063064 154.021206 
L 271.240432 154.27421 
L 271.4178 154.56265 
L 271.683853 154.295709 
L 272.127273 153.67102 
L 272.659377 153.610434 
L 273.102797 152.738986 
L 273.457533 151.165508 
L 275.14253 142.343422 
L 275.408582 142.022104 
L 275.674634 141.80113 
L 275.940687 141.424459 
L 276.295423 140.719755 
L 276.472791 140.654975 
L 277.182263 140.947132 
L 277.359631 141.475585 
L 277.98042 143.789963 
L 278.335156 144.588485 
L 278.955944 146.216726 
L 279.931469 148.346897 
L 280.906993 150.073545 
L 281.173045 149.842947 
L 281.439097 148.833163 
L 281.793833 146.563577 
L 282.237254 142.446162 
L 282.680674 136.576869 
L 285.429879 96.839845 
L 285.518563 96.534926 
L 285.961983 92.475367 
L 286.139352 93.10786 
L 286.31672 91.788115 
L 286.494088 90.403283 
L 286.671456 90.651157 
L 287.114876 92.836799 
L 287.380928 94.050254 
L 287.469612 93.972796 
L 287.64698 94.396624 
L 288.001716 94.869567 
L 288.356453 96.146217 
L 288.533821 95.736901 
L 288.622505 95.835791 
L 289.065925 97.288044 
L 289.331977 97.79379 
L 289.686713 96.61178 
L 290.041449 98.328531 
L 290.218818 99.117317 
L 290.307502 99.003063 
L 290.573554 98.311236 
L 290.750922 98.172445 
L 290.92829 98.286164 
L 291.105658 98.551108 
L 291.194342 98.313394 
L 291.549078 96.309949 
L 292.258551 93.588701 
L 292.613287 91.447421 
L 293.500127 85.545239 
L 293.588811 85.497892 
L 293.766179 85.898547 
L 293.854863 85.800334 
L 293.943547 85.635069 
L 294.209599 84.455703 
L 294.298284 84.452267 
L 294.741704 86.205284 
L 295.007756 88.02251 
L 295.09644 88.218252 
L 295.362492 90.247608 
L 295.717228 92.198991 
L 295.98328 94.160099 
L 296.426701 101.321668 
L 296.604069 102.231198 
L 296.692753 101.738911 
L 296.781437 101.800467 
L 297.047489 104.402658 
L 297.490909 110.578694 
L 297.756961 111.737503 
L 298.289065 122.610789 
L 298.466434 120.825089 
L 298.555118 121.095976 
L 299.26459 135.090886 
L 299.353274 135.746015 
L 299.885378 147.457146 
L 300.062746 149.997291 
L 300.594851 159.63848 
L 301.038271 167.866035 
L 301.570375 178.41309 
L 301.836427 182.352337 
L 302.013795 184.569523 
L 302.102479 184.286865 
L 302.191163 184.602521 
L 302.723268 188.796724 
L 302.900636 189.704017 
L 303.255372 195.238802 
L 303.43274 195.989605 
L 303.521424 195.95572 
L 303.610108 196.119159 
L 304.230896 199.476433 
L 304.408264 199.263287 
L 304.496949 199.324927 
L 304.763001 199.85217 
L 305.206421 199.705777 
L 305.383789 198.939288 
L 305.649841 197.706839 
L 305.827209 197.779128 
L 306.093261 197.223531 
L 306.802734 193.783395 
L 307.068786 190.271018 
L 307.246154 190.172488 
L 307.334838 189.738294 
L 307.60089 186.314198 
L 307.689574 186.4927 
L 307.778258 186.679942 
L 308.221678 182.439983 
L 308.310362 182.517376 
L 308.48773 183.429209 
L 308.665099 182.482726 
L 308.753783 182.656008 
L 308.842467 182.069635 
L 309.108519 177.630271 
L 309.197203 177.861182 
L 309.374571 176.337966 
L 310.172727 163.059283 
L 311.32562 150.245827 
L 311.591672 148.995622 
L 312.123776 145.407843 
L 312.65588 143.932162 
L 312.833249 143.80023 
L 313.010617 143.942235 
L 313.099301 143.996879 
L 313.276669 143.499001 
L 313.542721 142.992879 
L 313.897457 143.342725 
L 314.252193 144.226907 
L 314.872982 147.073299 
L 315.848506 151.265921 
L 316.38061 152.412734 
L 317.888239 154.579724 
L 318.420343 155.313444 
L 318.775079 155.480971 
L 319.484552 155.024401 
L 319.927972 154.19441 
L 320.54876 153.719852 
L 320.726128 153.695845 
L 321.080865 154.399908 
L 321.435601 155.51505 
L 321.879021 157.544543 
L 322.322441 161.10849 
L 322.765861 167.186727 
L 323.475334 176.718022 
L 323.918754 179.364622 
L 324.27349 180.194312 
L 324.539542 180.23571 
L 324.71691 179.918375 
L 324.982962 178.789618 
L 325.249015 176.798802 
L 326.490591 165.629101 
L 326.934011 162.874249 
L 327.11138 162.446362 
L 327.288748 162.526701 
L 327.732168 162.990804 
L 327.99822 163.019133 
L 328.264272 163.371136 
L 328.619008 164.648264 
L 328.973744 166.875291 
L 329.505849 170.964311 
L 329.949269 172.406487 
L 330.126637 172.427378 
L 330.304005 171.888718 
L 330.570057 170.35506 
L 330.924793 166.609949 
L 331.456898 158.279301 
L 332.698474 136.352349 
L 333.05321 133.488559 
L 333.230579 133.165452 
L 333.673999 133.51833 
L 334.028735 134.626811 
L 334.649523 137.880442 
L 335.004259 140.378243 
L 335.181627 141.213538 
L 335.536364 142.697977 
L 336.157152 144.197705 
L 336.511888 145.035419 
L 337.132676 146.613782 
L 337.398729 146.626215 
L 337.576097 146.550923 
L 337.753465 146.763672 
L 338.196885 147.834621 
L 338.728989 149.274436 
L 339.083725 149.483514 
L 339.349777 150.185072 
L 339.527146 150.739675 
L 339.704514 150.572293 
L 339.970566 150.293015 
L 340.236618 150.297754 
L 340.50267 150.456142 
L 340.94609 150.334941 
L 344.138716 149.907085 
L 344.848188 149.819846 
L 345.291608 149.768822 
L 346.089765 149.670412 
L 348.484234 149.333194 
L 349.637127 149.103266 
L 350.169231 149.027162 
L 352.031596 148.667262 
L 353.716592 148.389935 
L 355.756325 147.948642 
L 357.530006 147.630227 
L 358.948951 147.299145 
L 360.279212 147.021592 
L 361.78684 146.721171 
L 362.230261 146.605829 
L 363.560521 146.260889 
L 364.802098 145.93522 
L 365.95499 145.667619 
L 366.398411 145.532771 
L 366.841831 145.429108 
L 368.172092 145.113257 
L 369.324984 144.811701 
L 370.389193 144.519682 
L 371.009981 144.324314 
L 371.009981 144.324314 
" style="fill:none;stroke:#ff7f0e;stroke-linecap:square;stroke-width:1.5;"/>
   </g>
   <g id="patch_3">
    <path d="M 54 210.24 
L 54 76.32 
" style="fill:none;stroke:#000000;stroke-linecap:square;stroke-linejoin:miter;stroke-width:0.8;"/>
   </g>
   <g id="patch_4">
    <path d="M 388.8 210.24 
L 388.8 76.32 
" style="fill:none;stroke:#000000;stroke-linecap:square;stroke-linejoin:miter;stroke-width:0.8;"/>
   </g>
   <g id="patch_5">
    <path d="M 54 210.24 
L 388.8 210.24 
" style="fill:none;stroke:#000000;stroke-linecap:square;stroke-linejoin:miter;stroke-width:0.8;"/>
   </g>
   <g id="patch_6">
    <path d="M 54 76.32 
L 388.8 76.32 
" style="fill:none;stroke:#000000;stroke-linecap:square;stroke-linejoin:miter;stroke-width:0.8;"/>
   </g>
   <g id="text_12">
    <!-- Pitch -->
    <defs>
     <path d="M 19.671875 64.796875 
L 19.671875 37.40625 
L 32.078125 37.40625 
Q 38.96875 37.40625 42.71875 40.96875 
Q 46.484375 44.53125 46.484375 51.125 
Q 46.484375 57.671875 42.71875 61.234375 
Q 38.96875 64.796875 32.078125 64.796875 
z
M 9.8125 72.90625 
L 32.078125 72.90625 
Q 44.34375 72.90625 50.609375 67.359375 
Q 56.890625 61.8125 56.890625 51.125 
Q 56.890625 40.328125 50.609375 34.8125 
Q 44.34375 29.296875 32.078125 29.296875 
L 19.671875 29.296875 
L 19.671875 0 
L 9.8125 0 
z
" id="DejaVuSans-80"/>
     <path d="M 9.421875 54.6875 
L 18.40625 54.6875 
L 18.40625 0 
L 9.421875 0 
z
M 9.421875 75.984375 
L 18.40625 75.984375 
L 18.40625 64.59375 
L 9.421875 64.59375 
z
" id="DejaVuSans-105"/>
     <path d="M 18.3125 70.21875 
L 18.3125 54.6875 
L 36.8125 54.6875 
L 36.8125 47.703125 
L 18.3125 47.703125 
L 18.3125 18.015625 
Q 18.3125 11.328125 20.140625 9.421875 
Q 21.96875 7.515625 27.59375 7.515625 
L 36.8125 7.515625 
L 36.8125 0 
L 27.59375 0 
Q 17.1875 0 13.234375 3.875 
Q 9.28125 7.765625 9.28125 18.015625 
L 9.28125 47.703125 
L 2.6875 47.703125 
L 2.6875 54.6875 
L 9.28125 54.6875 
L 9.28125 70.21875 
z
" id="DejaVuSans-116"/>
     <path d="M 48.78125 52.59375 
L 48.78125 44.1875 
Q 44.96875 46.296875 41.140625 47.34375 
Q 37.3125 48.390625 33.40625 48.390625 
Q 24.65625 48.390625 19.8125 42.84375 
Q 14.984375 37.3125 14.984375 27.296875 
Q 14.984375 17.28125 19.8125 11.734375 
Q 24.65625 6.203125 33.40625 6.203125 
Q 37.3125 6.203125 41.140625 7.25 
Q 44.96875 8.296875 48.78125 10.40625 
L 48.78125 2.09375 
Q 45.015625 0.34375 40.984375 -0.53125 
Q 36.96875 -1.421875 32.421875 -1.421875 
Q 20.0625 -1.421875 12.78125 6.34375 
Q 5.515625 14.109375 5.515625 27.296875 
Q 5.515625 40.671875 12.859375 48.328125 
Q 20.21875 56 33.015625 56 
Q 37.15625 56 41.109375 55.140625 
Q 45.0625 54.296875 48.78125 52.59375 
z
" id="DejaVuSans-99"/>
     <path d="M 54.890625 33.015625 
L 54.890625 0 
L 45.90625 0 
L 45.90625 32.71875 
Q 45.90625 40.484375 42.875 44.328125 
Q 39.84375 48.1875 33.796875 48.1875 
Q 26.515625 48.1875 22.3125 43.546875 
Q 18.109375 38.921875 18.109375 30.90625 
L 18.109375 0 
L 9.078125 0 
L 9.078125 75.984375 
L 18.109375 75.984375 
L 18.109375 46.1875 
Q 21.34375 51.125 25.703125 53.5625 
Q 30.078125 56 35.796875 56 
Q 45.21875 56 50.046875 50.171875 
Q 54.890625 44.34375 54.890625 33.015625 
z
" id="DejaVuSans-104"/>
    </defs>
    <g transform="translate(206.663438 70.32)scale(0.12 -0.12)">
     <use xlink:href="#DejaVuSans-80"/>
     <use x="60.271484" xlink:href="#DejaVuSans-105"/>
     <use x="88.054688" xlink:href="#DejaVuSans-116"/>
     <use x="127.263672" xlink:href="#DejaVuSans-99"/>
     <use x="182.244141" xlink:href="#DejaVuSans-104"/>
    </g>
   </g>
   <g id="legend_1">
    <g id="patch_7">
     <path d="M 61 113.67625 
L 143.351562 113.67625 
Q 145.351562 113.67625 145.351562 111.67625 
L 145.351562 83.32 
Q 145.351562 81.32 143.351562 81.32 
L 61 81.32 
Q 59 81.32 59 83.32 
L 59 111.67625 
Q 59 113.67625 61 113.67625 
z
" style="fill:#ffffff;opacity:0.8;stroke:#cccccc;stroke-linejoin:miter;"/>
    </g>
    <g id="line2d_14">
     <path d="M 63 89.418437 
L 83 89.418437 
" style="fill:none;stroke:#1f77b4;stroke-linecap:square;stroke-width:1.5;"/>
    </g>
    <g id="line2d_15"/>
    <g id="text_13">
     <!-- vicon -->
     <defs>
      <path d="M 2.984375 54.6875 
L 12.5 54.6875 
L 29.59375 8.796875 
L 46.6875 54.6875 
L 56.203125 54.6875 
L 35.6875 0 
L 23.484375 0 
z
" id="DejaVuSans-118"/>
      <path d="M 30.609375 48.390625 
Q 23.390625 48.390625 19.1875 42.75 
Q 14.984375 37.109375 14.984375 27.296875 
Q 14.984375 17.484375 19.15625 11.84375 
Q 23.34375 6.203125 30.609375 6.203125 
Q 37.796875 6.203125 41.984375 11.859375 
Q 46.1875 17.53125 46.1875 27.296875 
Q 46.1875 37.015625 41.984375 42.703125 
Q 37.796875 48.390625 30.609375 48.390625 
z
M 30.609375 56 
Q 42.328125 56 49.015625 48.375 
Q 55.71875 40.765625 55.71875 27.296875 
Q 55.71875 13.875 49.015625 6.21875 
Q 42.328125 -1.421875 30.609375 -1.421875 
Q 18.84375 -1.421875 12.171875 6.21875 
Q 5.515625 13.875 5.515625 27.296875 
Q 5.515625 40.765625 12.171875 48.375 
Q 18.84375 56 30.609375 56 
z
" id="DejaVuSans-111"/>
      <path d="M 54.890625 33.015625 
L 54.890625 0 
L 45.90625 0 
L 45.90625 32.71875 
Q 45.90625 40.484375 42.875 44.328125 
Q 39.84375 48.1875 33.796875 48.1875 
Q 26.515625 48.1875 22.3125 43.546875 
Q 18.109375 38.921875 18.109375 30.90625 
L 18.109375 0 
L 9.078125 0 
L 9.078125 54.6875 
L 18.109375 54.6875 
L 18.109375 46.1875 
Q 21.34375 51.125 25.703125 53.5625 
Q 30.078125 56 35.796875 56 
Q 45.21875 56 50.046875 50.171875 
Q 54.890625 44.34375 54.890625 33.015625 
z
" id="DejaVuSans-110"/>
     </defs>
     <g transform="translate(91 92.918437)scale(0.1 -0.1)">
      <use xlink:href="#DejaVuSans-118"/>
      <use x="59.179688" xlink:href="#DejaVuSans-105"/>
      <use x="86.962891" xlink:href="#DejaVuSans-99"/>
      <use x="141.943359" xlink:href="#DejaVuSans-111"/>
      <use x="203.125" xlink:href="#DejaVuSans-110"/>
     </g>
    </g>
    <g id="line2d_16">
     <path d="M 63 104.096562 
L 83 104.096562 
" style="fill:none;stroke:#ff7f0e;stroke-linecap:square;stroke-width:1.5;"/>
    </g>
    <g id="line2d_17"/>
    <g id="text_14">
     <!-- estimated -->
     <defs>
      <path d="M 56.203125 29.59375 
L 56.203125 25.203125 
L 14.890625 25.203125 
Q 15.484375 15.921875 20.484375 11.0625 
Q 25.484375 6.203125 34.421875 6.203125 
Q 39.59375 6.203125 44.453125 7.46875 
Q 49.3125 8.734375 54.109375 11.28125 
L 54.109375 2.78125 
Q 49.265625 0.734375 44.1875 -0.34375 
Q 39.109375 -1.421875 33.890625 -1.421875 
Q 20.796875 -1.421875 13.15625 6.1875 
Q 5.515625 13.8125 5.515625 26.8125 
Q 5.515625 40.234375 12.765625 48.109375 
Q 20.015625 56 32.328125 56 
Q 43.359375 56 49.78125 48.890625 
Q 56.203125 41.796875 56.203125 29.59375 
z
M 47.21875 32.234375 
Q 47.125 39.59375 43.09375 43.984375 
Q 39.0625 48.390625 32.421875 48.390625 
Q 24.90625 48.390625 20.390625 44.140625 
Q 15.875 39.890625 15.1875 32.171875 
z
" id="DejaVuSans-101"/>
      <path d="M 44.28125 53.078125 
L 44.28125 44.578125 
Q 40.484375 46.53125 36.375 47.5 
Q 32.28125 48.484375 27.875 48.484375 
Q 21.1875 48.484375 17.84375 46.4375 
Q 14.5 44.390625 14.5 40.28125 
Q 14.5 37.15625 16.890625 35.375 
Q 19.28125 33.59375 26.515625 31.984375 
L 29.59375 31.296875 
Q 39.15625 29.25 43.1875 25.515625 
Q 47.21875 21.78125 47.21875 15.09375 
Q 47.21875 7.46875 41.1875 3.015625 
Q 35.15625 -1.421875 24.609375 -1.421875 
Q 20.21875 -1.421875 15.453125 -0.5625 
Q 10.6875 0.296875 5.421875 2 
L 5.421875 11.28125 
Q 10.40625 8.6875 15.234375 7.390625 
Q 20.0625 6.109375 24.8125 6.109375 
Q 31.15625 6.109375 34.5625 8.28125 
Q 37.984375 10.453125 37.984375 14.40625 
Q 37.984375 18.0625 35.515625 20.015625 
Q 33.0625 21.96875 24.703125 23.78125 
L 21.578125 24.515625 
Q 13.234375 26.265625 9.515625 29.90625 
Q 5.8125 33.546875 5.8125 39.890625 
Q 5.8125 47.609375 11.28125 51.796875 
Q 16.75 56 26.8125 56 
Q 31.78125 56 36.171875 55.265625 
Q 40.578125 54.546875 44.28125 53.078125 
z
" id="DejaVuSans-115"/>
      <path d="M 52 44.1875 
Q 55.375 50.25 60.0625 53.125 
Q 64.75 56 71.09375 56 
Q 79.640625 56 84.28125 50.015625 
Q 88.921875 44.046875 88.921875 33.015625 
L 88.921875 0 
L 79.890625 0 
L 79.890625 32.71875 
Q 79.890625 40.578125 77.09375 44.375 
Q 74.3125 48.1875 68.609375 48.1875 
Q 61.625 48.1875 57.5625 43.546875 
Q 53.515625 38.921875 53.515625 30.90625 
L 53.515625 0 
L 44.484375 0 
L 44.484375 32.71875 
Q 44.484375 40.625 41.703125 44.40625 
Q 38.921875 48.1875 33.109375 48.1875 
Q 26.21875 48.1875 22.15625 43.53125 
Q 18.109375 38.875 18.109375 30.90625 
L 18.109375 0 
L 9.078125 0 
L 9.078125 54.6875 
L 18.109375 54.6875 
L 18.109375 46.1875 
Q 21.1875 51.21875 25.484375 53.609375 
Q 29.78125 56 35.6875 56 
Q 41.65625 56 45.828125 52.96875 
Q 50 49.953125 52 44.1875 
z
" id="DejaVuSans-109"/>
      <path d="M 34.28125 27.484375 
Q 23.390625 27.484375 19.1875 25 
Q 14.984375 22.515625 14.984375 16.5 
Q 14.984375 11.71875 18.140625 8.90625 
Q 21.296875 6.109375 26.703125 6.109375 
Q 34.1875 6.109375 38.703125 11.40625 
Q 43.21875 16.703125 43.21875 25.484375 
L 43.21875 27.484375 
z
M 52.203125 31.203125 
L 52.203125 0 
L 43.21875 0 
L 43.21875 8.296875 
Q 40.140625 3.328125 35.546875 0.953125 
Q 30.953125 -1.421875 24.3125 -1.421875 
Q 15.921875 -1.421875 10.953125 3.296875 
Q 6 8.015625 6 15.921875 
Q 6 25.140625 12.171875 29.828125 
Q 18.359375 34.515625 30.609375 34.515625 
L 43.21875 34.515625 
L 43.21875 35.40625 
Q 43.21875 41.609375 39.140625 45 
Q 35.0625 48.390625 27.6875 48.390625 
Q 23 48.390625 18.546875 47.265625 
Q 14.109375 46.140625 10.015625 43.890625 
L 10.015625 52.203125 
Q 14.9375 54.109375 19.578125 55.046875 
Q 24.21875 56 28.609375 56 
Q 40.484375 56 46.34375 49.84375 
Q 52.203125 43.703125 52.203125 31.203125 
z
" id="DejaVuSans-97"/>
      <path d="M 45.40625 46.390625 
L 45.40625 75.984375 
L 54.390625 75.984375 
L 54.390625 0 
L 45.40625 0 
L 45.40625 8.203125 
Q 42.578125 3.328125 38.25 0.953125 
Q 33.9375 -1.421875 27.875 -1.421875 
Q 17.96875 -1.421875 11.734375 6.484375 
Q 5.515625 14.40625 5.515625 27.296875 
Q 5.515625 40.1875 11.734375 48.09375 
Q 17.96875 56 27.875 56 
Q 33.9375 56 38.25 53.625 
Q 42.578125 51.265625 45.40625 46.390625 
z
M 14.796875 27.296875 
Q 14.796875 17.390625 18.875 11.75 
Q 22.953125 6.109375 30.078125 6.109375 
Q 37.203125 6.109375 41.296875 11.75 
Q 45.40625 17.390625 45.40625 27.296875 
Q 45.40625 37.203125 41.296875 42.84375 
Q 37.203125 48.484375 30.078125 48.484375 
Q 22.953125 48.484375 18.875 42.84375 
Q 14.796875 37.203125 14.796875 27.296875 
z
" id="DejaVuSans-100"/>
     </defs>
     <g transform="translate(91 107.596562)scale(0.1 -0.1)">
      <use xlink:href="#DejaVuSans-101"/>
      <use x="61.523438" xlink:href="#DejaVuSans-115"/>
      <use x="113.623047" xlink:href="#DejaVuSans-116"/>
      <use x="152.832031" xlink:href="#DejaVuSans-105"/>
      <use x="180.615234" xlink:href="#DejaVuSans-109"/>
      <use x="278.027344" xlink:href="#DejaVuSans-97"/>
      <use x="339.306641" xlink:href="#DejaVuSans-116"/>
      <use x="378.515625" xlink:href="#DejaVuSans-101"/>
      <use x="440.039062" xlink:href="#DejaVuSans-100"/>
     </g>
    </g>
   </g>
  </g>
 </g>
 <defs>
  <clipPath id="p1843cd4589">
   <rect height="133.92" width="334.8" x="54" y="76.32"/>
  </clipPath>
 </defs>
</svg>
