<?xml version="1.0" encoding="utf-8" standalone="no"?>
<!DOCTYPE svg PUBLIC "-//W3C//DTD SVG 1.1//EN"
  "http://www.w3.org/Graphics/SVG/1.1/DTD/svg11.dtd">
<!-- Created with matplotlib (https://matplotlib.org/) -->
<svg height="288pt" version="1.1" viewBox="0 0 432 288" width="432pt" xmlns="http://www.w3.org/2000/svg" xmlns:xlink="http://www.w3.org/1999/xlink">
 <defs>
  <style type="text/css">
*{stroke-linecap:butt;stroke-linejoin:round;}
  </style>
 </defs>
 <g id="figure_1">
  <g id="patch_1">
   <path d="M 0 288 
L 432 288 
L 432 0 
L 0 0 
z
" style="fill:#ffffff;"/>
  </g>
  <g id="axes_1">
   <g id="patch_2">
    <path d="M 54 210.24 
L 388.8 210.24 
L 388.8 76.32 
L 54 76.32 
z
" style="fill:#ffffff;"/>
   </g>
   <g id="matplotlib.axis_1">
    <g id="xtick_1">
     <g id="line2d_1">
      <defs>
       <path d="M 0 0 
L 0 3.5 
" id="m3e2a44da5c" style="stroke:#000000;stroke-width:0.8;"/>
      </defs>
      <g>
       <use style="stroke:#000000;stroke-width:0.8;" x="69.218182" xlink:href="#m3e2a44da5c" y="210.24"/>
      </g>
     </g>
     <g id="text_1">
      <!-- 0 -->
      <defs>
       <path d="M 31.78125 66.40625 
Q 24.171875 66.40625 20.328125 58.90625 
Q 16.5 51.421875 16.5 36.375 
Q 16.5 21.390625 20.328125 13.890625 
Q 24.171875 6.390625 31.78125 6.390625 
Q 39.453125 6.390625 43.28125 13.890625 
Q 47.125 21.390625 47.125 36.375 
Q 47.125 51.421875 43.28125 58.90625 
Q 39.453125 66.40625 31.78125 66.40625 
z
M 31.78125 74.21875 
Q 44.046875 74.21875 50.515625 64.515625 
Q 56.984375 54.828125 56.984375 36.375 
Q 56.984375 17.96875 50.515625 8.265625 
Q 44.046875 -1.421875 31.78125 -1.421875 
Q 19.53125 -1.421875 13.0625 8.265625 
Q 6.59375 17.96875 6.59375 36.375 
Q 6.59375 54.828125 13.0625 64.515625 
Q 19.53125 74.21875 31.78125 74.21875 
z
" id="DejaVuSans-48"/>
      </defs>
      <g transform="translate(66.036932 224.838437)scale(0.1 -0.1)">
       <use xlink:href="#DejaVuSans-48"/>
      </g>
     </g>
    </g>
    <g id="xtick_2">
     <g id="line2d_2">
      <g>
       <use style="stroke:#000000;stroke-width:0.8;" x="113.560203" xlink:href="#m3e2a44da5c" y="210.24"/>
      </g>
     </g>
     <g id="text_2">
      <!-- 500 -->
      <defs>
       <path d="M 10.796875 72.90625 
L 49.515625 72.90625 
L 49.515625 64.59375 
L 19.828125 64.59375 
L 19.828125 46.734375 
Q 21.96875 47.46875 24.109375 47.828125 
Q 26.265625 48.1875 28.421875 48.1875 
Q 40.625 48.1875 47.75 41.5 
Q 54.890625 34.8125 54.890625 23.390625 
Q 54.890625 11.625 47.5625 5.09375 
Q 40.234375 -1.421875 26.90625 -1.421875 
Q 22.3125 -1.421875 17.546875 -0.640625 
Q 12.796875 0.140625 7.71875 1.703125 
L 7.71875 11.625 
Q 12.109375 9.234375 16.796875 8.0625 
Q 21.484375 6.890625 26.703125 6.890625 
Q 35.15625 6.890625 40.078125 11.328125 
Q 45.015625 15.765625 45.015625 23.390625 
Q 45.015625 31 40.078125 35.4375 
Q 35.15625 39.890625 26.703125 39.890625 
Q 22.75 39.890625 18.8125 39.015625 
Q 14.890625 38.140625 10.796875 36.28125 
z
" id="DejaVuSans-53"/>
      </defs>
      <g transform="translate(104.016453 224.838437)scale(0.1 -0.1)">
       <use xlink:href="#DejaVuSans-53"/>
       <use x="63.623047" xlink:href="#DejaVuSans-48"/>
       <use x="127.246094" xlink:href="#DejaVuSans-48"/>
      </g>
     </g>
    </g>
    <g id="xtick_3">
     <g id="line2d_3">
      <g>
       <use style="stroke:#000000;stroke-width:0.8;" x="157.902225" xlink:href="#m3e2a44da5c" y="210.24"/>
      </g>
     </g>
     <g id="text_3">
      <!-- 1000 -->
      <defs>
       <path d="M 12.40625 8.296875 
L 28.515625 8.296875 
L 28.515625 63.921875 
L 10.984375 60.40625 
L 10.984375 69.390625 
L 28.421875 72.90625 
L 38.28125 72.90625 
L 38.28125 8.296875 
L 54.390625 8.296875 
L 54.390625 0 
L 12.40625 0 
z
" id="DejaVuSans-49"/>
      </defs>
      <g transform="translate(145.177225 224.838437)scale(0.1 -0.1)">
       <use xlink:href="#DejaVuSans-49"/>
       <use x="63.623047" xlink:href="#DejaVuSans-48"/>
       <use x="127.246094" xlink:href="#DejaVuSans-48"/>
       <use x="190.869141" xlink:href="#DejaVuSans-48"/>
      </g>
     </g>
    </g>
    <g id="xtick_4">
     <g id="line2d_4">
      <g>
       <use style="stroke:#000000;stroke-width:0.8;" x="202.244247" xlink:href="#m3e2a44da5c" y="210.24"/>
      </g>
     </g>
     <g id="text_4">
      <!-- 1500 -->
      <g transform="translate(189.519247 224.838437)scale(0.1 -0.1)">
       <use xlink:href="#DejaVuSans-49"/>
       <use x="63.623047" xlink:href="#DejaVuSans-53"/>
       <use x="127.246094" xlink:href="#DejaVuSans-48"/>
       <use x="190.869141" xlink:href="#DejaVuSans-48"/>
      </g>
     </g>
    </g>
    <g id="xtick_5">
     <g id="line2d_5">
      <g>
       <use style="stroke:#000000;stroke-width:0.8;" x="246.586268" xlink:href="#m3e2a44da5c" y="210.24"/>
      </g>
     </g>
     <g id="text_5">
      <!-- 2000 -->
      <defs>
       <path d="M 19.1875 8.296875 
L 53.609375 8.296875 
L 53.609375 0 
L 7.328125 0 
L 7.328125 8.296875 
Q 12.9375 14.109375 22.625 23.890625 
Q 32.328125 33.6875 34.8125 36.53125 
Q 39.546875 41.84375 41.421875 45.53125 
Q 43.3125 49.21875 43.3125 52.78125 
Q 43.3125 58.59375 39.234375 62.25 
Q 35.15625 65.921875 28.609375 65.921875 
Q 23.96875 65.921875 18.8125 64.3125 
Q 13.671875 62.703125 7.8125 59.421875 
L 7.8125 69.390625 
Q 13.765625 71.78125 18.9375 73 
Q 24.125 74.21875 28.421875 74.21875 
Q 39.75 74.21875 46.484375 68.546875 
Q 53.21875 62.890625 53.21875 53.421875 
Q 53.21875 48.921875 51.53125 44.890625 
Q 49.859375 40.875 45.40625 35.40625 
Q 44.1875 33.984375 37.640625 27.21875 
Q 31.109375 20.453125 19.1875 8.296875 
z
" id="DejaVuSans-50"/>
      </defs>
      <g transform="translate(233.861268 224.838437)scale(0.1 -0.1)">
       <use xlink:href="#DejaVuSans-50"/>
       <use x="63.623047" xlink:href="#DejaVuSans-48"/>
       <use x="127.246094" xlink:href="#DejaVuSans-48"/>
       <use x="190.869141" xlink:href="#DejaVuSans-48"/>
      </g>
     </g>
    </g>
    <g id="xtick_6">
     <g id="line2d_6">
      <g>
       <use style="stroke:#000000;stroke-width:0.8;" x="290.92829" xlink:href="#m3e2a44da5c" y="210.24"/>
      </g>
     </g>
     <g id="text_6">
      <!-- 2500 -->
      <g transform="translate(278.20329 224.838437)scale(0.1 -0.1)">
       <use xlink:href="#DejaVuSans-50"/>
       <use x="63.623047" xlink:href="#DejaVuSans-53"/>
       <use x="127.246094" xlink:href="#DejaVuSans-48"/>
       <use x="190.869141" xlink:href="#DejaVuSans-48"/>
      </g>
     </g>
    </g>
    <g id="xtick_7">
     <g id="line2d_7">
      <g>
       <use style="stroke:#000000;stroke-width:0.8;" x="335.270312" xlink:href="#m3e2a44da5c" y="210.24"/>
      </g>
     </g>
     <g id="text_7">
      <!-- 3000 -->
      <defs>
       <path d="M 40.578125 39.3125 
Q 47.65625 37.796875 51.625 33 
Q 55.609375 28.21875 55.609375 21.1875 
Q 55.609375 10.40625 48.1875 4.484375 
Q 40.765625 -1.421875 27.09375 -1.421875 
Q 22.515625 -1.421875 17.65625 -0.515625 
Q 12.796875 0.390625 7.625 2.203125 
L 7.625 11.71875 
Q 11.71875 9.328125 16.59375 8.109375 
Q 21.484375 6.890625 26.8125 6.890625 
Q 36.078125 6.890625 40.9375 10.546875 
Q 45.796875 14.203125 45.796875 21.1875 
Q 45.796875 27.640625 41.28125 31.265625 
Q 36.765625 34.90625 28.71875 34.90625 
L 20.21875 34.90625 
L 20.21875 43.015625 
L 29.109375 43.015625 
Q 36.375 43.015625 40.234375 45.921875 
Q 44.09375 48.828125 44.09375 54.296875 
Q 44.09375 59.90625 40.109375 62.90625 
Q 36.140625 65.921875 28.71875 65.921875 
Q 24.65625 65.921875 20.015625 65.03125 
Q 15.375 64.15625 9.8125 62.3125 
L 9.8125 71.09375 
Q 15.4375 72.65625 20.34375 73.4375 
Q 25.25 74.21875 29.59375 74.21875 
Q 40.828125 74.21875 47.359375 69.109375 
Q 53.90625 64.015625 53.90625 55.328125 
Q 53.90625 49.265625 50.4375 45.09375 
Q 46.96875 40.921875 40.578125 39.3125 
z
" id="DejaVuSans-51"/>
      </defs>
      <g transform="translate(322.545312 224.838437)scale(0.1 -0.1)">
       <use xlink:href="#DejaVuSans-51"/>
       <use x="63.623047" xlink:href="#DejaVuSans-48"/>
       <use x="127.246094" xlink:href="#DejaVuSans-48"/>
       <use x="190.869141" xlink:href="#DejaVuSans-48"/>
      </g>
     </g>
    </g>
    <g id="xtick_8">
     <g id="line2d_8">
      <g>
       <use style="stroke:#000000;stroke-width:0.8;" x="379.612333" xlink:href="#m3e2a44da5c" y="210.24"/>
      </g>
     </g>
     <g id="text_8">
      <!-- 3500 -->
      <g transform="translate(366.887333 224.838437)scale(0.1 -0.1)">
       <use xlink:href="#DejaVuSans-51"/>
       <use x="63.623047" xlink:href="#DejaVuSans-53"/>
       <use x="127.246094" xlink:href="#DejaVuSans-48"/>
       <use x="190.869141" xlink:href="#DejaVuSans-48"/>
      </g>
     </g>
    </g>
   </g>
   <g id="matplotlib.axis_2">
    <g id="ytick_1">
     <g id="line2d_9">
      <defs>
       <path d="M 0 0 
L -3.5 0 
" id="ma64004eb8b" style="stroke:#000000;stroke-width:0.8;"/>
      </defs>
      <g>
       <use style="stroke:#000000;stroke-width:0.8;" x="54" xlink:href="#ma64004eb8b" y="182.109635"/>
      </g>
     </g>
     <g id="text_9">
      <!-- −2 -->
      <defs>
       <path d="M 10.59375 35.5 
L 73.1875 35.5 
L 73.1875 27.203125 
L 10.59375 27.203125 
z
" id="DejaVuSans-8722"/>
      </defs>
      <g transform="translate(32.257812 185.908854)scale(0.1 -0.1)">
       <use xlink:href="#DejaVuSans-8722"/>
       <use x="83.789062" xlink:href="#DejaVuSans-50"/>
      </g>
     </g>
    </g>
    <g id="ytick_2">
     <g id="line2d_10">
      <g>
       <use style="stroke:#000000;stroke-width:0.8;" x="54" xlink:href="#ma64004eb8b" y="143.297373"/>
      </g>
     </g>
     <g id="text_10">
      <!-- 0 -->
      <g transform="translate(40.6375 147.096592)scale(0.1 -0.1)">
       <use xlink:href="#DejaVuSans-48"/>
      </g>
     </g>
    </g>
    <g id="ytick_3">
     <g id="line2d_11">
      <g>
       <use style="stroke:#000000;stroke-width:0.8;" x="54" xlink:href="#ma64004eb8b" y="104.48511"/>
      </g>
     </g>
     <g id="text_11">
      <!-- 2 -->
      <g transform="translate(40.6375 108.284329)scale(0.1 -0.1)">
       <use xlink:href="#DejaVuSans-50"/>
      </g>
     </g>
    </g>
   </g>
   <g id="line2d_12">
    <path clip-path="url(#pfad5b99dc1)" d="M 69.218182 144.924139 
L 73.208964 144.92846 
L 73.297648 144.827782 
L 73.475016 144.924882 
L 82.964209 144.923374 
L 83.141577 144.760977 
L 83.318945 144.919591 
L 85.713414 144.919497 
L 85.802098 144.827883 
L 85.979466 144.921727 
L 88.462619 144.914521 
L 90.945772 144.926572 
L 93.96103 144.917053 
L 96.266815 144.833246 
L 98.040496 144.814429 
L 98.12918 144.609937 
L 98.217864 144.653881 
L 98.306548 144.653273 
L 98.395232 144.799876 
L 98.5726 144.654139 
L 98.927336 144.653597 
L 99.01602 144.453059 
L 99.104704 144.650658 
L 99.193388 144.500719 
L 99.282072 144.64861 
L 99.370757 144.451471 
L 99.459441 144.652014 
L 99.548125 144.454589 
L 99.636809 144.651506 
L 99.725493 144.450409 
L 99.902861 144.625524 
L 100.346281 144.629062 
L 100.523649 144.380453 
L 100.612333 144.481266 
L 100.701017 144.385456 
L 100.878385 144.722453 
L 103.361538 144.689358 
L 103.538907 144.939194 
L 103.716275 144.721334 
L 104.071011 144.730212 
L 104.248379 144.469666 
L 104.425747 144.638957 
L 104.514431 144.662473 
L 104.603115 144.47389 
L 104.691799 144.659648 
L 104.869167 144.449628 
L 104.957851 144.640824 
L 105.135219 144.449263 
L 105.223903 144.448188 
L 105.312587 144.639725 
L 105.401271 144.447202 
L 105.489955 144.734186 
L 105.57864 144.379591 
L 105.667324 144.643521 
L 105.756008 144.447194 
L 105.933376 144.790198 
L 106.02206 144.724868 
L 106.110744 144.389448 
L 106.199428 144.462982 
L 106.376796 144.791166 
L 106.9089 144.647762 
L 107.086268 144.420569 
L 110.988366 144.421373 
L 111.254418 144.48841 
L 111.431786 144.485025 
L 111.52047 144.652407 
L 111.697839 144.469958 
L 113.648887 144.497544 
L 113.91494 144.846128 
L 115.954673 144.82673 
L 116.043357 144.616137 
L 116.220725 144.924568 
L 116.309409 144.804078 
L 116.398093 144.931645 
L 116.486777 144.821011 
L 116.575461 144.927516 
L 116.664145 144.826771 
L 116.752829 144.92814 
L 116.930197 144.855912 
L 117.018881 144.934645 
L 117.107565 144.857862 
L 117.196249 144.935828 
L 117.373617 144.850366 
L 119.058614 144.722322 
L 119.235982 144.426264 
L 120.654927 144.467937 
L 120.743611 144.677714 
L 120.920979 144.480708 
L 123.936236 144.118213 
L 124.024921 144.284959 
L 124.202289 144.033509 
L 124.468341 144.032799 
L 124.557025 144.309924 
L 124.734393 143.864689 
L 125.089129 143.733124 
L 125.266497 143.785347 
L 125.621233 143.715152 
L 125.709917 143.591346 
L 125.887285 143.635688 
L 126.064654 143.968066 
L 126.242022 143.850202 
L 126.330706 143.914115 
L 126.508074 143.776611 
L 126.596758 143.84585 
L 126.774126 143.739481 
L 126.951494 143.806821 
L 127.394914 143.747464 
L 128.193071 143.669687 
L 128.547807 143.576782 
L 130.321488 142.890226 
L 130.58754 142.830759 
L 130.853592 142.791226 
L 131.385696 142.767755 
L 131.563064 142.765112 
L 131.740432 142.828582 
L 131.829116 142.709557 
L 131.9178 142.890901 
L 132.006484 142.822242 
L 132.272537 142.941593 
L 132.449905 142.76759 
L 132.893325 142.758945 
L 133.425429 142.605837 
L 133.602797 142.497426 
L 133.868849 142.549691 
L 134.046217 142.415316 
L 135.021742 142.412753 
L 135.19911 142.506945 
L 135.376478 142.471776 
L 135.64253 142.594689 
L 135.731214 142.591633 
L 135.908582 142.723962 
L 135.997266 142.778782 
L 136.174634 142.7683 
L 136.352003 142.967702 
L 137.150159 143.229058 
L 137.504895 143.224755 
L 137.593579 143.291819 
L 137.770947 143.221195 
L 138.214367 143.534454 
L 138.391736 143.486023 
L 138.835156 143.827648 
L 138.92384 143.67744 
L 139.189892 143.868066 
L 139.278576 143.864097 
L 139.36726 143.980767 
L 139.455944 143.911801 
L 139.633312 144.082666 
L 139.81068 144.150404 
L 140.076732 144.29312 
L 140.165416 144.253329 
L 140.342784 144.409635 
L 140.431469 144.355933 
L 140.608837 144.606539 
L 141.850413 144.88421 
L 142.382517 144.970346 
L 142.64857 145.049991 
L 143.53541 145.310907 
L 143.712778 145.259652 
L 143.97883 145.297801 
L 144.067514 145.222516 
L 144.244882 145.262416 
L 146.018563 144.932561 
L 146.905404 144.968526 
L 147.171456 144.862407 
L 149.477241 145.063572 
L 149.654609 145.108254 
L 152.758551 145.510545 
L 152.847235 145.407096 
L 153.024603 145.544198 
L 153.734075 145.522748 
L 153.911443 145.397042 
L 154.088811 145.403116 
L 154.354863 145.169738 
L 154.443547 144.868828 
L 154.532231 144.91788 
L 154.975652 144.466701 
L 155.241704 144.20419 
L 156.571964 143.678807 
L 157.015385 143.588239 
L 157.458805 143.5261 
L 157.724857 143.318048 
L 158.700381 143.110681 
L 158.87775 143.17021 
L 158.966434 143.333926 
L 159.055118 143.235237 
L 159.143802 143.381488 
L 159.232486 143.318917 
L 159.32117 143.439965 
L 159.409854 143.328106 
L 159.675906 143.538479 
L 159.853274 143.663252 
L 159.941958 143.579568 
L 160.20801 143.753382 
L 160.474062 143.895764 
L 160.828798 144.059802 
L 160.917483 144.057778 
L 161.272219 144.433408 
L 161.449587 144.426442 
L 161.804323 144.682209 
L 161.893007 144.74567 
L 161.981691 144.955983 
L 162.070375 144.792853 
L 162.247743 144.998703 
L 162.513795 145.326999 
L 162.602479 145.285866 
L 162.779847 145.47559 
L 163.578004 145.876812 
L 163.755372 145.805224 
L 163.844056 145.891852 
L 163.93274 145.81447 
L 164.110108 145.815628 
L 164.730896 145.858809 
L 165.440369 145.604845 
L 166.238525 144.995905 
L 166.593261 144.515089 
L 167.302734 143.81421 
L 167.834838 143.302404 
L 168.278258 142.543855 
L 168.366942 142.63655 
L 168.810362 141.961349 
L 168.899046 141.930636 
L 169.165099 141.501821 
L 169.253783 141.487417 
L 169.431151 141.234938 
L 169.963255 140.533885 
L 170.140623 140.350135 
L 170.229307 140.05998 
L 170.317991 140.187117 
L 170.406675 139.896375 
L 170.495359 140.012599 
L 170.584043 139.739177 
L 170.761411 139.854707 
L 171.3822 139.61923 
L 171.736936 139.646656 
L 172.446408 140.138069 
L 172.71246 140.601414 
L 173.244565 141.452636 
L 173.510617 141.65778 
L 173.865353 142.067562 
L 174.042721 142.209283 
L 174.220089 142.412704 
L 174.397457 142.550508 
L 174.486141 142.53424 
L 174.663509 142.602793 
L 175.905086 142.756811 
L 176.703242 142.785406 
L 176.88061 142.900459 
L 177.057978 142.897166 
L 177.324031 142.990963 
L 178.388239 143.225615 
L 178.476923 143.00291 
L 178.565607 143.13428 
L 178.742975 142.976452 
L 178.920343 142.954721 
L 179.275079 143.001051 
L 179.452448 143.128578 
L 179.629816 143.041937 
L 181.04876 143.439618 
L 181.492181 143.825646 
L 183.088493 145.298414 
L 183.620598 145.809968 
L 184.33007 146.788578 
L 184.950858 148.105792 
L 185.482962 149.762898 
L 186.369803 152.806624 
L 187.079275 155.568417 
L 189.917165 165.73033 
L 190.360585 166.417854 
L 190.537953 166.403571 
L 190.626637 166.582453 
L 191.070057 166.011389 
L 191.602161 164.832355 
L 192.755054 160.42579 
L 193.55321 156.454169 
L 194.351367 152.213698 
L 198.608201 131.932647 
L 199.406357 129.295249 
L 199.761093 128.176848 
L 200.55925 126.482469 
L 201.00267 125.961833 
L 201.623458 126.204866 
L 202.155563 127.158942 
L 203.485823 131.36206 
L 204.904768 137.055089 
L 206.678449 144.047211 
L 207.387921 146.110055 
L 208.45213 148.043641 
L 208.984234 148.257559 
L 209.427654 148.20983 
L 210.048442 147.870308 
L 210.403179 147.611903 
L 210.757915 147.40157 
L 210.935283 147.314088 
L 211.290019 147.132113 
L 211.467387 147.07178 
L 211.822123 146.850683 
L 211.910807 146.752199 
L 212.088175 146.805593 
L 212.797648 146.540999 
L 213.152384 146.437738 
L 213.329752 146.480655 
L 213.50712 146.4548 
L 213.595804 146.439994 
L 213.773172 146.631141 
L 213.95054 146.491613 
L 215.458169 146.478635 
L 216.522378 146.098047 
L 216.611062 146.138639 
L 217.320534 145.384697 
L 217.67527 144.907593 
L 217.941322 144.596487 
L 218.562111 143.750844 
L 218.916847 143.136516 
L 219.005531 143.072762 
L 219.715003 141.65063 
L 219.892371 141.387159 
L 220.158423 140.673544 
L 220.335791 140.386958 
L 220.601844 139.515212 
L 227.696567 121.300386 
L 227.785251 121.375588 
L 228.228671 120.293743 
L 228.494723 119.73422 
L 228.84946 118.628487 
L 229.7363 115.762266 
L 231.509981 109.777436 
L 232.751558 106.669825 
L 233.01761 105.960838 
L 233.638398 104.28632 
L 234.259186 102.744231 
L 234.525238 101.898806 
L 235.234711 99.77639 
L 235.412079 99.523706 
L 235.589447 98.937227 
L 235.678131 98.977703 
L 237.363128 95.751924 
L 239.048125 90.982719 
L 240.023649 87.679403 
L 240.289701 86.868199 
L 241.708646 82.57038 
L 241.79733 82.407273 
L 241.886014 204.078063 
L 241.974698 203.761653 
L 244.014431 197.815461 
L 244.369167 196.657229 
L 246.763636 189.621822 
L 247.916529 187.1347 
L 248.271265 186.33506 
L 249.956262 181.642526 
L 250.488366 179.713086 
L 252.794151 171.389736 
L 259.002034 152.510867 
L 259.090718 152.372522 
L 259.356771 151.637908 
L 259.888875 150.244768 
L 261.041767 147.757266 
L 261.573872 147.061645 
L 261.662556 147.133192 
L 262.19466 146.773906 
L 263.258868 146.396337 
L 263.613605 146.061677 
L 264.145709 145.737042 
L 264.589129 145.590593 
L 265.564654 145.085953 
L 265.653338 145.177388 
L 265.830706 145.09361 
L 266.36281 145.178123 
L 266.451494 145.284259 
L 266.628862 145.208514 
L 267.693071 145.090594 
L 268.313859 144.95409 
L 269.555435 145.201853 
L 270.08754 144.988043 
L 270.264908 145.037678 
L 270.619644 145.15023 
L 271.4178 146.239124 
L 271.772537 147.085603 
L 272.748061 149.929754 
L 273.900954 154.080671 
L 274.25569 155.533264 
L 275.14253 159.137038 
L 276.561475 163.897899 
L 277.270947 165.605236 
L 277.714367 166.299362 
L 277.98042 166.444996 
L 278.778576 166.398966 
L 279.576732 166.519871 
L 279.842784 166.470369 
L 280.374889 166.354943 
L 280.640941 166.186904 
L 280.818309 166.103761 
L 281.084361 165.993182 
L 281.173045 166.071151 
L 281.350413 165.887992 
L 282.14857 165.639686 
L 282.769358 165.690878 
L 282.946726 165.900015 
L 283.03541 165.957358 
L 283.212778 165.881121 
L 283.390146 166.143053 
L 283.567514 166.0964 
L 283.92225 166.346715 
L 284.099619 166.495538 
L 284.276987 166.547271 
L 284.720407 166.831384 
L 284.897775 166.852262 
L 285.075143 166.904712 
L 285.518563 166.888528 
L 286.405404 165.880172 
L 287.026192 164.60573 
L 287.64698 163.168836 
L 287.735664 163.096791 
L 288.799873 159.886188 
L 290.48487 154.179968 
L 290.573554 154.097211 
L 290.92829 152.949795 
L 291.37171 152.018639 
L 291.637762 151.512271 
L 291.81513 151.290053 
L 292.701971 150.107454 
L 292.790655 150.106579 
L 292.879339 149.845825 
L 292.968023 149.968322 
L 293.145391 149.552854 
L 293.234075 149.625126 
L 293.588811 149.282205 
L 293.677495 149.246374 
L 293.943547 148.80733 
L 294.830388 147.087412 
L 294.919072 147.002437 
L 295.185124 146.536576 
L 297.845645 143.032065 
L 298.466434 142.806613 
L 298.643802 143.00418 
L 298.732486 142.963447 
L 298.909854 143.1239 
L 298.998538 143.122003 
L 299.26459 143.652394 
L 299.885378 144.83411 
L 300.062746 144.970726 
L 300.417483 145.90485 
L 302.634584 151.157027 
L 302.811952 151.534901 
L 302.98932 151.73759 
L 303.255372 151.938892 
L 303.610108 152.168727 
L 303.87616 151.936291 
L 304.142212 151.718203 
L 304.496949 151.331367 
L 306.004577 149.407999 
L 306.181945 149.318738 
L 306.270629 149.231151 
L 306.447997 148.899074 
L 306.625366 148.688428 
L 307.15747 147.698448 
L 308.48773 145.91787 
L 308.753783 145.73036 
L 308.842467 145.771271 
L 309.019835 145.613136 
L 309.551939 145.69229 
L 309.640623 145.638604 
L 309.817991 145.717399 
L 310.438779 145.617012 
L 311.591672 145.422411 
L 311.76904 145.278356 
L 311.946408 145.377002 
L 312.301144 145.28301 
L 313.986141 145.095173 
L 314.961666 145.31795 
L 315.139034 145.237416 
L 315.671138 145.164148 
L 316.203242 145.035075 
L 316.38061 144.852443 
L 318.863764 141.390696 
L 319.041132 141.282933 
L 319.573236 140.883832 
L 320.903497 141.071547 
L 321.169549 141.309428 
L 322.677177 142.366081 
L 324.096122 143.421958 
L 325.869803 144.494506 
L 326.490591 144.546036 
L 327.820852 144.739586 
L 328.086904 144.949034 
L 329.328481 145.053041 
L 329.594533 144.950402 
L 329.771901 145.016679 
L 330.924793 144.989826 
L 331.190846 145.079934 
L 332.343738 145.455863 
L 332.964526 145.419344 
L 333.673999 145.117749 
L 334.117419 144.949336 
L 334.560839 144.930082 
L 335.802416 145.153901 
L 336.33452 145.060838 
L 337.310045 144.368942 
L 338.462937 144.369165 
L 373.581818 144.459477 
L 373.581818 144.459477 
" style="fill:none;stroke:#1f77b4;stroke-linecap:square;stroke-width:1.5;"/>
   </g>
   <g id="line2d_13">
    <path clip-path="url(#pfad5b99dc1)" d="M 69.218182 144.923129 
L 77.643166 145.044781 
L 114.35836 145.246105 
L 117.196249 145.662974 
L 122.872028 146.384708 
L 123.226764 146.387121 
L 123.670184 146.267935 
L 124.202289 146.332911 
L 124.911761 146.662497 
L 125.355181 146.636357 
L 125.709917 147.051919 
L 125.975969 147.202973 
L 126.508074 147.047596 
L 127.040178 146.738491 
L 127.927018 145.159698 
L 128.636491 143.357947 
L 128.991227 143.131633 
L 129.345963 143.096984 
L 129.612015 143.265257 
L 130.232804 143.938914 
L 130.764908 144.302866 
L 131.385696 144.441506 
L 132.627273 144.043438 
L 132.982009 143.704989 
L 133.425429 143.42522 
L 133.691481 143.238482 
L 134.223586 143.163921 
L 134.75569 142.821618 
L 135.021742 142.767057 
L 135.553846 142.827428 
L 136.352003 142.730961 
L 136.884107 142.16753 
L 137.150159 142.451842 
L 137.327527 142.367339 
L 137.504895 142.229308 
L 137.682263 142.365861 
L 138.036999 142.875885 
L 138.48042 143.149384 
L 139.455944 146.019016 
L 139.81068 146.91847 
L 140.608837 147.430327 
L 140.874889 147.374987 
L 141.140941 147.242539 
L 142.027781 147.464507 
L 143.624094 148.428127 
L 143.97883 148.325615 
L 144.333566 148.118754 
L 145.663827 146.93593 
L 146.107247 146.772459 
L 146.550668 146.5838 
L 147.880928 145.651894 
L 148.501716 145.357843 
L 148.856453 145.206507 
L 149.122505 145.110751 
L 149.477241 144.990583 
L 149.920661 144.87769 
L 151.516974 145.975975 
L 151.783026 146.256604 
L 152.137762 146.476042 
L 152.31513 146.663753 
L 152.492498 146.616564 
L 152.669866 146.522604 
L 152.935919 146.63727 
L 153.379339 147.071916 
L 153.734075 147.589574 
L 154.354863 148.619917 
L 154.532231 148.642387 
L 155.15302 148.214364 
L 155.330388 148.240744 
L 155.59644 148.200789 
L 156.217228 148.559838 
L 156.48328 148.556171 
L 157.547489 148.003927 
L 157.990909 147.680604 
L 158.789065 146.952008 
L 159.32117 146.728878 
L 161.183535 146.477442 
L 161.538271 146.442626 
L 161.804323 146.491957 
L 162.247743 146.721335 
L 162.425111 146.790092 
L 162.691163 146.902107 
L 163.223268 146.973141 
L 163.400636 146.905595 
L 164.110108 147.096409 
L 164.37616 147.043271 
L 164.908264 147.392589 
L 165.351685 147.583636 
L 165.617737 147.506199 
L 165.972473 147.54903 
L 166.770629 147.10041 
L 166.947997 147.155963 
L 167.65747 146.588136 
L 168.012206 145.950636 
L 169.342467 143.704228 
L 170.051939 142.806247 
L 170.761411 141.737856 
L 173.421933 138.189652 
L 173.776669 137.83609 
L 173.954037 137.775791 
L 174.220089 137.818661 
L 174.663509 137.682127 
L 175.106929 138.185082 
L 175.639034 138.981525 
L 176.43719 140.520214 
L 176.791926 140.650654 
L 177.146662 140.937015 
L 177.590083 141.538009 
L 178.122187 141.891499 
L 178.299555 141.831566 
L 178.565607 141.592012 
L 178.920343 141.669617 
L 179.186395 141.694535 
L 179.541132 141.566976 
L 179.895868 141.740233 
L 180.250604 142.034783 
L 182.024285 142.120834 
L 182.290337 142.121081 
L 183.531914 142.413711 
L 183.88665 142.591256 
L 184.950858 143.936952 
L 185.21691 144.165449 
L 185.571647 144.927189 
L 185.749015 144.880194 
L 185.926383 144.773188 
L 186.547171 145.101786 
L 187.167959 145.444894 
L 187.61138 146.184433 
L 188.232168 147.715921 
L 189.296376 151.653388 
L 189.739797 154.284739 
L 190.183217 156.071049 
L 190.626637 157.885657 
L 191.602161 161.521589 
L 192.755054 166.261173 
L 192.932422 166.466756 
L 193.10979 166.375532 
L 193.730579 165.390524 
L 194.173999 163.874779 
L 194.617419 162.458153 
L 196.125048 157.031679 
L 198.874253 143.618809 
L 199.672409 140.518889 
L 202.510299 131.459509 
L 203.840559 128.327771 
L 204.195296 127.94176 
L 204.550032 127.881568 
L 204.816084 128.148583 
L 205.259504 128.830074 
L 206.146345 132.153031 
L 208.274762 141.416198 
L 210.137127 148.14008 
L 210.491863 148.635825 
L 211.201335 149.279053 
L 211.556071 149.127411 
L 211.910807 148.952417 
L 212.265544 148.919773 
L 212.62028 148.404966 
L 213.418436 147.400707 
L 213.773172 147.087289 
L 214.748697 146.893891 
L 215.280801 146.843504 
L 216.433694 146.269111 
L 216.78843 146.395651 
L 217.586586 147.254376 
L 217.941322 147.561802 
L 218.11869 147.347222 
L 218.296058 147.400065 
L 218.739479 148.034066 
L 218.916847 147.958895 
L 219.094215 147.751098 
L 219.448951 147.797273 
L 219.626319 147.522841 
L 219.892371 147.169247 
L 220.158423 146.857247 
L 220.424476 146.46397 
L 221.577368 145.50728 
L 221.84342 145.223503 
L 222.198156 144.90642 
L 222.641577 144.153441 
L 222.818945 144.027838 
L 223.084997 143.968012 
L 223.262365 143.711791 
L 223.528417 143.006393 
L 224.149205 141.26709 
L 224.769994 138.746881 
L 225.12473 138.208371 
L 226.01157 135.751618 
L 226.543675 134.700773 
L 226.809727 134.013525 
L 227.075779 133.128466 
L 227.430515 132.364457 
L 227.696567 131.694032 
L 227.962619 131.42182 
L 228.583408 130.400469 
L 228.760776 130.474448 
L 228.938144 130.564707 
L 229.115512 130.163528 
L 229.647616 128.135819 
L 230.091036 126.065417 
L 230.357088 126.09911 
L 230.534456 125.863848 
L 231.421297 123.312613 
L 231.687349 123.023701 
L 231.864717 122.790087 
L 232.751558 120.221782 
L 232.928926 119.663559 
L 233.90445 116.145442 
L 234.34787 115.398643 
L 235.412079 111.620418 
L 235.766815 111.568531 
L 236.032867 111.549127 
L 236.210235 111.153885 
L 236.831024 109.383252 
L 237.363128 107.978647 
L 237.717864 107.227499 
L 238.427336 105.896152 
L 238.782072 105.756259 
L 239.136809 104.94016 
L 240.023649 102.723733 
L 240.289701 102.420433 
L 240.555753 101.598192 
L 240.821805 100.125979 
L 241.265226 97.523963 
L 241.886014 96.076534 
L 242.24075 95.806156 
L 242.418118 95.664409 
L 242.772854 95.366824 
L 242.950223 95.194216 
L 243.482327 94.281382 
L 244.369167 93.443181 
L 244.812587 92.680212 
L 245.344692 90.148263 
L 245.788112 86.818146 
L 246.320216 83.064109 
L 246.674952 82.499584 
L 246.763636 204.152727 
L 246.85232 203.77029 
L 247.295741 200.879203 
L 248.093897 195.801984 
L 250.754418 184.583922 
L 251.197839 181.956669 
L 252.528099 172.969376 
L 252.794151 172.312444 
L 253.237572 171.733503 
L 253.503624 171.401926 
L 253.85836 171.311473 
L 254.30178 170.863571 
L 254.656516 170.659073 
L 255.454673 169.248132 
L 256.075461 167.192257 
L 256.430197 165.128086 
L 256.873617 163.193507 
L 257.050985 162.930809 
L 257.405722 163.2306 
L 257.671774 162.544196 
L 257.937826 160.795772 
L 258.46993 157.291671 
L 258.735982 156.51177 
L 259.002034 156.118553 
L 259.445455 155.326977 
L 259.977559 154.209321 
L 260.332295 152.926559 
L 261.573872 148.724886 
L 261.928608 147.583302 
L 262.460712 145.507844 
L 262.63808 145.625424 
L 262.904132 146.182494 
L 263.170184 146.62257 
L 263.258868 146.631006 
L 263.436236 146.347397 
L 263.879657 145.178272 
L 264.500445 144.023829 
L 264.677813 143.885111 
L 264.943865 143.916115 
L 265.653338 143.319097 
L 265.91939 142.795123 
L 266.451494 141.516696 
L 266.80623 140.942611 
L 267.160966 140.188319 
L 267.427018 140.128065 
L 267.693071 140.036681 
L 268.402543 139.479315 
L 268.757279 139.504428 
L 270.353592 140.207781 
L 271.151748 140.895786 
L 271.506484 140.905651 
L 272.304641 141.546951 
L 273.191481 141.545903 
L 273.546217 141.91068 
L 274.078322 142.936341 
L 274.433058 143.954671 
L 275.408582 146.627979 
L 275.763318 147.297946 
L 276.118055 148.353652 
L 276.916211 150.775724 
L 278.512524 156.498244 
L 279.044628 158.034527 
L 279.931469 159.231041 
L 280.197521 159.281475 
L 280.552257 159.054804 
L 281.705149 157.570005 
L 282.325938 157.643246 
L 282.858042 157.685199 
L 282.946726 157.530946 
L 283.301462 157.696337 
L 283.390146 157.698455 
L 283.833566 157.211711 
L 284.010935 157.275304 
L 284.276987 157.438398 
L 284.986459 157.05153 
L 285.163827 157.157874 
L 285.341195 157.232614 
L 285.695931 157.240609 
L 285.873299 157.381339 
L 285.961983 157.357548 
L 286.139352 157.165422 
L 286.31672 157.509485 
L 286.671456 158.208077 
L 287.114876 158.480422 
L 287.380928 158.588212 
L 287.64698 158.828937 
L 288.001716 158.91015 
L 288.445137 158.530429 
L 288.622505 158.485702 
L 289.331977 157.385824 
L 289.686713 157.471718 
L 289.952765 156.599122 
L 290.396186 155.323173 
L 290.839606 154.235057 
L 291.194342 152.825214 
L 291.460394 152.611288 
L 291.81513 151.274757 
L 292.081182 150.17205 
L 292.258551 149.955877 
L 292.524603 148.856684 
L 292.790655 147.237831 
L 292.968023 147.331084 
L 293.145391 146.537636 
L 293.322759 146.520371 
L 293.588811 145.344151 
L 293.766179 145.25515 
L 294.032231 144.127487 
L 294.386968 142.686934 
L 294.830388 142.238879 
L 295.007756 142.133247 
L 295.185124 141.913452 
L 295.451176 141.845631 
L 295.805912 141.552288 
L 295.98328 141.484931 
L 296.249332 141.684322 
L 296.604069 141.389244 
L 297.224857 140.476795 
L 298.289065 138.859411 
L 298.82117 138.309015 
L 300.683535 136.103989 
L 301.126955 135.834133 
L 301.481691 135.88036 
L 301.836427 136.133019 
L 302.102479 136.311742 
L 302.368531 136.611263 
L 302.723268 137.031113 
L 302.900636 137.255469 
L 303.43274 138.840963 
L 303.610108 138.916471 
L 303.87616 139.763392 
L 304.142212 140.684614 
L 304.230896 140.691457 
L 304.408264 140.454446 
L 304.496949 140.49232 
L 304.674317 141.306633 
L 304.940369 142.082677 
L 305.117737 142.217528 
L 305.295105 142.668737 
L 305.561157 143.732615 
L 305.738525 143.703746 
L 306.093261 143.702021 
L 306.359313 143.745441 
L 307.15747 143.185767 
L 307.512206 142.705467 
L 309.197203 140.457218 
L 310.084043 139.11808 
L 311.591672 136.854349 
L 311.946408 136.757191 
L 312.301144 136.792864 
L 313.276669 137.182112 
L 313.542721 137.528345 
L 314.606929 137.713533 
L 315.405086 137.819769 
L 317.976923 138.163211 
L 318.597711 138.860437 
L 319.129816 139.436844 
L 319.839288 139.698454 
L 320.10534 139.413896 
L 320.726128 138.560188 
L 321.435601 136.843372 
L 321.967705 135.140944 
L 322.411125 132.943065 
L 322.943229 128.779771 
L 323.475334 125.38806 
L 323.741386 124.797475 
L 323.918754 124.825509 
L 324.539542 125.693581 
L 324.894278 126.628657 
L 325.337699 128.755555 
L 325.869803 131.274393 
L 327.288748 135.435557 
L 327.732168 136.729353 
L 328.264272 138.136609 
L 328.619008 138.642885 
L 328.796376 138.738198 
L 328.88506 138.695119 
L 329.239797 137.602111 
L 329.771901 135.828393 
L 330.304005 134.103931 
L 330.658741 133.671333 
L 330.836109 133.794393 
L 331.27953 134.458704 
L 332.787158 135.504003 
L 332.964526 135.876229 
L 333.496631 137.333174 
L 334.117419 136.708801 
L 334.738207 137.164002 
L 335.004259 137.50902 
L 336.423204 137.835537 
L 336.77794 137.974603 
L 337.842149 138.171568 
L 338.462937 138.814829 
L 339.527146 138.920812 
L 339.881882 138.682433 
L 340.147934 138.604967 
L 340.768722 138.666987 
L 342.808455 139.150978 
L 346.976605 140.262558 
L 348.927654 140.820511 
L 353.184488 142.139195 
L 366.132359 146.861115 
L 371.009981 148.922639 
L 371.009981 148.922639 
" style="fill:none;stroke:#ff7f0e;stroke-linecap:square;stroke-width:1.5;"/>
   </g>
   <g id="patch_3">
    <path d="M 54 210.24 
L 54 76.32 
" style="fill:none;stroke:#000000;stroke-linecap:square;stroke-linejoin:miter;stroke-width:0.8;"/>
   </g>
   <g id="patch_4">
    <path d="M 388.8 210.24 
L 388.8 76.32 
" style="fill:none;stroke:#000000;stroke-linecap:square;stroke-linejoin:miter;stroke-width:0.8;"/>
   </g>
   <g id="patch_5">
    <path d="M 54 210.24 
L 388.8 210.24 
" style="fill:none;stroke:#000000;stroke-linecap:square;stroke-linejoin:miter;stroke-width:0.8;"/>
   </g>
   <g id="patch_6">
    <path d="M 54 76.32 
L 388.8 76.32 
" style="fill:none;stroke:#000000;stroke-linecap:square;stroke-linejoin:miter;stroke-width:0.8;"/>
   </g>
   <g id="text_12">
    <!-- Yaw -->
    <defs>
     <path d="M -0.203125 72.90625 
L 10.40625 72.90625 
L 30.609375 42.921875 
L 50.6875 72.90625 
L 61.28125 72.90625 
L 35.5 34.71875 
L 35.5 0 
L 25.59375 0 
L 25.59375 34.71875 
z
" id="DejaVuSans-89"/>
     <path d="M 34.28125 27.484375 
Q 23.390625 27.484375 19.1875 25 
Q 14.984375 22.515625 14.984375 16.5 
Q 14.984375 11.71875 18.140625 8.90625 
Q 21.296875 6.109375 26.703125 6.109375 
Q 34.1875 6.109375 38.703125 11.40625 
Q 43.21875 16.703125 43.21875 25.484375 
L 43.21875 27.484375 
z
M 52.203125 31.203125 
L 52.203125 0 
L 43.21875 0 
L 43.21875 8.296875 
Q 40.140625 3.328125 35.546875 0.953125 
Q 30.953125 -1.421875 24.3125 -1.421875 
Q 15.921875 -1.421875 10.953125 3.296875 
Q 6 8.015625 6 15.921875 
Q 6 25.140625 12.171875 29.828125 
Q 18.359375 34.515625 30.609375 34.515625 
L 43.21875 34.515625 
L 43.21875 35.40625 
Q 43.21875 41.609375 39.140625 45 
Q 35.0625 48.390625 27.6875 48.390625 
Q 23 48.390625 18.546875 47.265625 
Q 14.109375 46.140625 10.015625 43.890625 
L 10.015625 52.203125 
Q 14.9375 54.109375 19.578125 55.046875 
Q 24.21875 56 28.609375 56 
Q 40.484375 56 46.34375 49.84375 
Q 52.203125 43.703125 52.203125 31.203125 
z
" id="DejaVuSans-97"/>
     <path d="M 4.203125 54.6875 
L 13.1875 54.6875 
L 24.421875 12.015625 
L 35.59375 54.6875 
L 46.1875 54.6875 
L 57.421875 12.015625 
L 68.609375 54.6875 
L 77.59375 54.6875 
L 63.28125 0 
L 52.6875 0 
L 40.921875 44.828125 
L 29.109375 0 
L 18.5 0 
z
" id="DejaVuSans-119"/>
    </defs>
    <g transform="translate(209.16375 70.32)scale(0.12 -0.12)">
     <use xlink:href="#DejaVuSans-89"/>
     <use x="60.880859" xlink:href="#DejaVuSans-97"/>
     <use x="122.160156" xlink:href="#DejaVuSans-119"/>
    </g>
   </g>
   <g id="legend_1">
    <g id="patch_7">
     <path d="M 61 113.67625 
L 143.351562 113.67625 
Q 145.351562 113.67625 145.351562 111.67625 
L 145.351562 83.32 
Q 145.351562 81.32 143.351562 81.32 
L 61 81.32 
Q 59 81.32 59 83.32 
L 59 111.67625 
Q 59 113.67625 61 113.67625 
z
" style="fill:#ffffff;opacity:0.8;stroke:#cccccc;stroke-linejoin:miter;"/>
    </g>
    <g id="line2d_14">
     <path d="M 63 89.418437 
L 83 89.418437 
" style="fill:none;stroke:#1f77b4;stroke-linecap:square;stroke-width:1.5;"/>
    </g>
    <g id="line2d_15"/>
    <g id="text_13">
     <!-- vicon -->
     <defs>
      <path d="M 2.984375 54.6875 
L 12.5 54.6875 
L 29.59375 8.796875 
L 46.6875 54.6875 
L 56.203125 54.6875 
L 35.6875 0 
L 23.484375 0 
z
" id="DejaVuSans-118"/>
      <path d="M 9.421875 54.6875 
L 18.40625 54.6875 
L 18.40625 0 
L 9.421875 0 
z
M 9.421875 75.984375 
L 18.40625 75.984375 
L 18.40625 64.59375 
L 9.421875 64.59375 
z
" id="DejaVuSans-105"/>
      <path d="M 48.78125 52.59375 
L 48.78125 44.1875 
Q 44.96875 46.296875 41.140625 47.34375 
Q 37.3125 48.390625 33.40625 48.390625 
Q 24.65625 48.390625 19.8125 42.84375 
Q 14.984375 37.3125 14.984375 27.296875 
Q 14.984375 17.28125 19.8125 11.734375 
Q 24.65625 6.203125 33.40625 6.203125 
Q 37.3125 6.203125 41.140625 7.25 
Q 44.96875 8.296875 48.78125 10.40625 
L 48.78125 2.09375 
Q 45.015625 0.34375 40.984375 -0.53125 
Q 36.96875 -1.421875 32.421875 -1.421875 
Q 20.0625 -1.421875 12.78125 6.34375 
Q 5.515625 14.109375 5.515625 27.296875 
Q 5.515625 40.671875 12.859375 48.328125 
Q 20.21875 56 33.015625 56 
Q 37.15625 56 41.109375 55.140625 
Q 45.0625 54.296875 48.78125 52.59375 
z
" id="DejaVuSans-99"/>
      <path d="M 30.609375 48.390625 
Q 23.390625 48.390625 19.1875 42.75 
Q 14.984375 37.109375 14.984375 27.296875 
Q 14.984375 17.484375 19.15625 11.84375 
Q 23.34375 6.203125 30.609375 6.203125 
Q 37.796875 6.203125 41.984375 11.859375 
Q 46.1875 17.53125 46.1875 27.296875 
Q 46.1875 37.015625 41.984375 42.703125 
Q 37.796875 48.390625 30.609375 48.390625 
z
M 30.609375 56 
Q 42.328125 56 49.015625 48.375 
Q 55.71875 40.765625 55.71875 27.296875 
Q 55.71875 13.875 49.015625 6.21875 
Q 42.328125 -1.421875 30.609375 -1.421875 
Q 18.84375 -1.421875 12.171875 6.21875 
Q 5.515625 13.875 5.515625 27.296875 
Q 5.515625 40.765625 12.171875 48.375 
Q 18.84375 56 30.609375 56 
z
" id="DejaVuSans-111"/>
      <path d="M 54.890625 33.015625 
L 54.890625 0 
L 45.90625 0 
L 45.90625 32.71875 
Q 45.90625 40.484375 42.875 44.328125 
Q 39.84375 48.1875 33.796875 48.1875 
Q 26.515625 48.1875 22.3125 43.546875 
Q 18.109375 38.921875 18.109375 30.90625 
L 18.109375 0 
L 9.078125 0 
L 9.078125 54.6875 
L 18.109375 54.6875 
L 18.109375 46.1875 
Q 21.34375 51.125 25.703125 53.5625 
Q 30.078125 56 35.796875 56 
Q 45.21875 56 50.046875 50.171875 
Q 54.890625 44.34375 54.890625 33.015625 
z
" id="DejaVuSans-110"/>
     </defs>
     <g transform="translate(91 92.918437)scale(0.1 -0.1)">
      <use xlink:href="#DejaVuSans-118"/>
      <use x="59.179688" xlink:href="#DejaVuSans-105"/>
      <use x="86.962891" xlink:href="#DejaVuSans-99"/>
      <use x="141.943359" xlink:href="#DejaVuSans-111"/>
      <use x="203.125" xlink:href="#DejaVuSans-110"/>
     </g>
    </g>
    <g id="line2d_16">
     <path d="M 63 104.096562 
L 83 104.096562 
" style="fill:none;stroke:#ff7f0e;stroke-linecap:square;stroke-width:1.5;"/>
    </g>
    <g id="line2d_17"/>
    <g id="text_14">
     <!-- estimated -->
     <defs>
      <path d="M 56.203125 29.59375 
L 56.203125 25.203125 
L 14.890625 25.203125 
Q 15.484375 15.921875 20.484375 11.0625 
Q 25.484375 6.203125 34.421875 6.203125 
Q 39.59375 6.203125 44.453125 7.46875 
Q 49.3125 8.734375 54.109375 11.28125 
L 54.109375 2.78125 
Q 49.265625 0.734375 44.1875 -0.34375 
Q 39.109375 -1.421875 33.890625 -1.421875 
Q 20.796875 -1.421875 13.15625 6.1875 
Q 5.515625 13.8125 5.515625 26.8125 
Q 5.515625 40.234375 12.765625 48.109375 
Q 20.015625 56 32.328125 56 
Q 43.359375 56 49.78125 48.890625 
Q 56.203125 41.796875 56.203125 29.59375 
z
M 47.21875 32.234375 
Q 47.125 39.59375 43.09375 43.984375 
Q 39.0625 48.390625 32.421875 48.390625 
Q 24.90625 48.390625 20.390625 44.140625 
Q 15.875 39.890625 15.1875 32.171875 
z
" id="DejaVuSans-101"/>
      <path d="M 44.28125 53.078125 
L 44.28125 44.578125 
Q 40.484375 46.53125 36.375 47.5 
Q 32.28125 48.484375 27.875 48.484375 
Q 21.1875 48.484375 17.84375 46.4375 
Q 14.5 44.390625 14.5 40.28125 
Q 14.5 37.15625 16.890625 35.375 
Q 19.28125 33.59375 26.515625 31.984375 
L 29.59375 31.296875 
Q 39.15625 29.25 43.1875 25.515625 
Q 47.21875 21.78125 47.21875 15.09375 
Q 47.21875 7.46875 41.1875 3.015625 
Q 35.15625 -1.421875 24.609375 -1.421875 
Q 20.21875 -1.421875 15.453125 -0.5625 
Q 10.6875 0.296875 5.421875 2 
L 5.421875 11.28125 
Q 10.40625 8.6875 15.234375 7.390625 
Q 20.0625 6.109375 24.8125 6.109375 
Q 31.15625 6.109375 34.5625 8.28125 
Q 37.984375 10.453125 37.984375 14.40625 
Q 37.984375 18.0625 35.515625 20.015625 
Q 33.0625 21.96875 24.703125 23.78125 
L 21.578125 24.515625 
Q 13.234375 26.265625 9.515625 29.90625 
Q 5.8125 33.546875 5.8125 39.890625 
Q 5.8125 47.609375 11.28125 51.796875 
Q 16.75 56 26.8125 56 
Q 31.78125 56 36.171875 55.265625 
Q 40.578125 54.546875 44.28125 53.078125 
z
" id="DejaVuSans-115"/>
      <path d="M 18.3125 70.21875 
L 18.3125 54.6875 
L 36.8125 54.6875 
L 36.8125 47.703125 
L 18.3125 47.703125 
L 18.3125 18.015625 
Q 18.3125 11.328125 20.140625 9.421875 
Q 21.96875 7.515625 27.59375 7.515625 
L 36.8125 7.515625 
L 36.8125 0 
L 27.59375 0 
Q 17.1875 0 13.234375 3.875 
Q 9.28125 7.765625 9.28125 18.015625 
L 9.28125 47.703125 
L 2.6875 47.703125 
L 2.6875 54.6875 
L 9.28125 54.6875 
L 9.28125 70.21875 
z
" id="DejaVuSans-116"/>
      <path d="M 52 44.1875 
Q 55.375 50.25 60.0625 53.125 
Q 64.75 56 71.09375 56 
Q 79.640625 56 84.28125 50.015625 
Q 88.921875 44.046875 88.921875 33.015625 
L 88.921875 0 
L 79.890625 0 
L 79.890625 32.71875 
Q 79.890625 40.578125 77.09375 44.375 
Q 74.3125 48.1875 68.609375 48.1875 
Q 61.625 48.1875 57.5625 43.546875 
Q 53.515625 38.921875 53.515625 30.90625 
L 53.515625 0 
L 44.484375 0 
L 44.484375 32.71875 
Q 44.484375 40.625 41.703125 44.40625 
Q 38.921875 48.1875 33.109375 48.1875 
Q 26.21875 48.1875 22.15625 43.53125 
Q 18.109375 38.875 18.109375 30.90625 
L 18.109375 0 
L 9.078125 0 
L 9.078125 54.6875 
L 18.109375 54.6875 
L 18.109375 46.1875 
Q 21.1875 51.21875 25.484375 53.609375 
Q 29.78125 56 35.6875 56 
Q 41.65625 56 45.828125 52.96875 
Q 50 49.953125 52 44.1875 
z
" id="DejaVuSans-109"/>
      <path d="M 45.40625 46.390625 
L 45.40625 75.984375 
L 54.390625 75.984375 
L 54.390625 0 
L 45.40625 0 
L 45.40625 8.203125 
Q 42.578125 3.328125 38.25 0.953125 
Q 33.9375 -1.421875 27.875 -1.421875 
Q 17.96875 -1.421875 11.734375 6.484375 
Q 5.515625 14.40625 5.515625 27.296875 
Q 5.515625 40.1875 11.734375 48.09375 
Q 17.96875 56 27.875 56 
Q 33.9375 56 38.25 53.625 
Q 42.578125 51.265625 45.40625 46.390625 
z
M 14.796875 27.296875 
Q 14.796875 17.390625 18.875 11.75 
Q 22.953125 6.109375 30.078125 6.109375 
Q 37.203125 6.109375 41.296875 11.75 
Q 45.40625 17.390625 45.40625 27.296875 
Q 45.40625 37.203125 41.296875 42.84375 
Q 37.203125 48.484375 30.078125 48.484375 
Q 22.953125 48.484375 18.875 42.84375 
Q 14.796875 37.203125 14.796875 27.296875 
z
" id="DejaVuSans-100"/>
     </defs>
     <g transform="translate(91 107.596562)scale(0.1 -0.1)">
      <use xlink:href="#DejaVuSans-101"/>
      <use x="61.523438" xlink:href="#DejaVuSans-115"/>
      <use x="113.623047" xlink:href="#DejaVuSans-116"/>
      <use x="152.832031" xlink:href="#DejaVuSans-105"/>
      <use x="180.615234" xlink:href="#DejaVuSans-109"/>
      <use x="278.027344" xlink:href="#DejaVuSans-97"/>
      <use x="339.306641" xlink:href="#DejaVuSans-116"/>
      <use x="378.515625" xlink:href="#DejaVuSans-101"/>
      <use x="440.039062" xlink:href="#DejaVuSans-100"/>
     </g>
    </g>
   </g>
  </g>
 </g>
 <defs>
  <clipPath id="pfad5b99dc1">
   <rect height="133.92" width="334.8" x="54" y="76.32"/>
  </clipPath>
 </defs>
</svg>
