<?xml version="1.0" encoding="utf-8" standalone="no"?>
<!DOCTYPE svg PUBLIC "-//W3C//DTD SVG 1.1//EN"
  "http://www.w3.org/Graphics/SVG/1.1/DTD/svg11.dtd">
<!-- Created with matplotlib (https://matplotlib.org/) -->
<svg height="288pt" version="1.1" viewBox="0 0 432 288" width="432pt" xmlns="http://www.w3.org/2000/svg" xmlns:xlink="http://www.w3.org/1999/xlink">
 <defs>
  <style type="text/css">
*{stroke-linecap:butt;stroke-linejoin:round;}
  </style>
 </defs>
 <g id="figure_1">
  <g id="patch_1">
   <path d="M 0 288 
L 432 288 
L 432 0 
L 0 0 
z
" style="fill:#ffffff;"/>
  </g>
  <g id="axes_1">
   <g id="patch_2">
    <path d="M 54 210.24 
L 388.8 210.24 
L 388.8 76.32 
L 54 76.32 
z
" style="fill:#ffffff;"/>
   </g>
   <g id="matplotlib.axis_1">
    <g id="xtick_1">
     <g id="line2d_1">
      <defs>
       <path d="M 0 0 
L 0 3.5 
" id="m5846699ea5" style="stroke:#000000;stroke-width:0.8;"/>
      </defs>
      <g>
       <use style="stroke:#000000;stroke-width:0.8;" x="69.218182" xlink:href="#m5846699ea5" y="210.24"/>
      </g>
     </g>
     <g id="text_1">
      <!-- 0 -->
      <defs>
       <path d="M 31.78125 66.40625 
Q 24.171875 66.40625 20.328125 58.90625 
Q 16.5 51.421875 16.5 36.375 
Q 16.5 21.390625 20.328125 13.890625 
Q 24.171875 6.390625 31.78125 6.390625 
Q 39.453125 6.390625 43.28125 13.890625 
Q 47.125 21.390625 47.125 36.375 
Q 47.125 51.421875 43.28125 58.90625 
Q 39.453125 66.40625 31.78125 66.40625 
z
M 31.78125 74.21875 
Q 44.046875 74.21875 50.515625 64.515625 
Q 56.984375 54.828125 56.984375 36.375 
Q 56.984375 17.96875 50.515625 8.265625 
Q 44.046875 -1.421875 31.78125 -1.421875 
Q 19.53125 -1.421875 13.0625 8.265625 
Q 6.59375 17.96875 6.59375 36.375 
Q 6.59375 54.828125 13.0625 64.515625 
Q 19.53125 74.21875 31.78125 74.21875 
z
" id="DejaVuSans-48"/>
      </defs>
      <g transform="translate(66.036932 224.838437)scale(0.1 -0.1)">
       <use xlink:href="#DejaVuSans-48"/>
      </g>
     </g>
    </g>
    <g id="xtick_2">
     <g id="line2d_2">
      <g>
       <use style="stroke:#000000;stroke-width:0.8;" x="113.560203" xlink:href="#m5846699ea5" y="210.24"/>
      </g>
     </g>
     <g id="text_2">
      <!-- 500 -->
      <defs>
       <path d="M 10.796875 72.90625 
L 49.515625 72.90625 
L 49.515625 64.59375 
L 19.828125 64.59375 
L 19.828125 46.734375 
Q 21.96875 47.46875 24.109375 47.828125 
Q 26.265625 48.1875 28.421875 48.1875 
Q 40.625 48.1875 47.75 41.5 
Q 54.890625 34.8125 54.890625 23.390625 
Q 54.890625 11.625 47.5625 5.09375 
Q 40.234375 -1.421875 26.90625 -1.421875 
Q 22.3125 -1.421875 17.546875 -0.640625 
Q 12.796875 0.140625 7.71875 1.703125 
L 7.71875 11.625 
Q 12.109375 9.234375 16.796875 8.0625 
Q 21.484375 6.890625 26.703125 6.890625 
Q 35.15625 6.890625 40.078125 11.328125 
Q 45.015625 15.765625 45.015625 23.390625 
Q 45.015625 31 40.078125 35.4375 
Q 35.15625 39.890625 26.703125 39.890625 
Q 22.75 39.890625 18.8125 39.015625 
Q 14.890625 38.140625 10.796875 36.28125 
z
" id="DejaVuSans-53"/>
      </defs>
      <g transform="translate(104.016453 224.838437)scale(0.1 -0.1)">
       <use xlink:href="#DejaVuSans-53"/>
       <use x="63.623047" xlink:href="#DejaVuSans-48"/>
       <use x="127.246094" xlink:href="#DejaVuSans-48"/>
      </g>
     </g>
    </g>
    <g id="xtick_3">
     <g id="line2d_3">
      <g>
       <use style="stroke:#000000;stroke-width:0.8;" x="157.902225" xlink:href="#m5846699ea5" y="210.24"/>
      </g>
     </g>
     <g id="text_3">
      <!-- 1000 -->
      <defs>
       <path d="M 12.40625 8.296875 
L 28.515625 8.296875 
L 28.515625 63.921875 
L 10.984375 60.40625 
L 10.984375 69.390625 
L 28.421875 72.90625 
L 38.28125 72.90625 
L 38.28125 8.296875 
L 54.390625 8.296875 
L 54.390625 0 
L 12.40625 0 
z
" id="DejaVuSans-49"/>
      </defs>
      <g transform="translate(145.177225 224.838437)scale(0.1 -0.1)">
       <use xlink:href="#DejaVuSans-49"/>
       <use x="63.623047" xlink:href="#DejaVuSans-48"/>
       <use x="127.246094" xlink:href="#DejaVuSans-48"/>
       <use x="190.869141" xlink:href="#DejaVuSans-48"/>
      </g>
     </g>
    </g>
    <g id="xtick_4">
     <g id="line2d_4">
      <g>
       <use style="stroke:#000000;stroke-width:0.8;" x="202.244247" xlink:href="#m5846699ea5" y="210.24"/>
      </g>
     </g>
     <g id="text_4">
      <!-- 1500 -->
      <g transform="translate(189.519247 224.838437)scale(0.1 -0.1)">
       <use xlink:href="#DejaVuSans-49"/>
       <use x="63.623047" xlink:href="#DejaVuSans-53"/>
       <use x="127.246094" xlink:href="#DejaVuSans-48"/>
       <use x="190.869141" xlink:href="#DejaVuSans-48"/>
      </g>
     </g>
    </g>
    <g id="xtick_5">
     <g id="line2d_5">
      <g>
       <use style="stroke:#000000;stroke-width:0.8;" x="246.586268" xlink:href="#m5846699ea5" y="210.24"/>
      </g>
     </g>
     <g id="text_5">
      <!-- 2000 -->
      <defs>
       <path d="M 19.1875 8.296875 
L 53.609375 8.296875 
L 53.609375 0 
L 7.328125 0 
L 7.328125 8.296875 
Q 12.9375 14.109375 22.625 23.890625 
Q 32.328125 33.6875 34.8125 36.53125 
Q 39.546875 41.84375 41.421875 45.53125 
Q 43.3125 49.21875 43.3125 52.78125 
Q 43.3125 58.59375 39.234375 62.25 
Q 35.15625 65.921875 28.609375 65.921875 
Q 23.96875 65.921875 18.8125 64.3125 
Q 13.671875 62.703125 7.8125 59.421875 
L 7.8125 69.390625 
Q 13.765625 71.78125 18.9375 73 
Q 24.125 74.21875 28.421875 74.21875 
Q 39.75 74.21875 46.484375 68.546875 
Q 53.21875 62.890625 53.21875 53.421875 
Q 53.21875 48.921875 51.53125 44.890625 
Q 49.859375 40.875 45.40625 35.40625 
Q 44.1875 33.984375 37.640625 27.21875 
Q 31.109375 20.453125 19.1875 8.296875 
z
" id="DejaVuSans-50"/>
      </defs>
      <g transform="translate(233.861268 224.838437)scale(0.1 -0.1)">
       <use xlink:href="#DejaVuSans-50"/>
       <use x="63.623047" xlink:href="#DejaVuSans-48"/>
       <use x="127.246094" xlink:href="#DejaVuSans-48"/>
       <use x="190.869141" xlink:href="#DejaVuSans-48"/>
      </g>
     </g>
    </g>
    <g id="xtick_6">
     <g id="line2d_6">
      <g>
       <use style="stroke:#000000;stroke-width:0.8;" x="290.92829" xlink:href="#m5846699ea5" y="210.24"/>
      </g>
     </g>
     <g id="text_6">
      <!-- 2500 -->
      <g transform="translate(278.20329 224.838437)scale(0.1 -0.1)">
       <use xlink:href="#DejaVuSans-50"/>
       <use x="63.623047" xlink:href="#DejaVuSans-53"/>
       <use x="127.246094" xlink:href="#DejaVuSans-48"/>
       <use x="190.869141" xlink:href="#DejaVuSans-48"/>
      </g>
     </g>
    </g>
    <g id="xtick_7">
     <g id="line2d_7">
      <g>
       <use style="stroke:#000000;stroke-width:0.8;" x="335.270312" xlink:href="#m5846699ea5" y="210.24"/>
      </g>
     </g>
     <g id="text_7">
      <!-- 3000 -->
      <defs>
       <path d="M 40.578125 39.3125 
Q 47.65625 37.796875 51.625 33 
Q 55.609375 28.21875 55.609375 21.1875 
Q 55.609375 10.40625 48.1875 4.484375 
Q 40.765625 -1.421875 27.09375 -1.421875 
Q 22.515625 -1.421875 17.65625 -0.515625 
Q 12.796875 0.390625 7.625 2.203125 
L 7.625 11.71875 
Q 11.71875 9.328125 16.59375 8.109375 
Q 21.484375 6.890625 26.8125 6.890625 
Q 36.078125 6.890625 40.9375 10.546875 
Q 45.796875 14.203125 45.796875 21.1875 
Q 45.796875 27.640625 41.28125 31.265625 
Q 36.765625 34.90625 28.71875 34.90625 
L 20.21875 34.90625 
L 20.21875 43.015625 
L 29.109375 43.015625 
Q 36.375 43.015625 40.234375 45.921875 
Q 44.09375 48.828125 44.09375 54.296875 
Q 44.09375 59.90625 40.109375 62.90625 
Q 36.140625 65.921875 28.71875 65.921875 
Q 24.65625 65.921875 20.015625 65.03125 
Q 15.375 64.15625 9.8125 62.3125 
L 9.8125 71.09375 
Q 15.4375 72.65625 20.34375 73.4375 
Q 25.25 74.21875 29.59375 74.21875 
Q 40.828125 74.21875 47.359375 69.109375 
Q 53.90625 64.015625 53.90625 55.328125 
Q 53.90625 49.265625 50.4375 45.09375 
Q 46.96875 40.921875 40.578125 39.3125 
z
" id="DejaVuSans-51"/>
      </defs>
      <g transform="translate(322.545312 224.838437)scale(0.1 -0.1)">
       <use xlink:href="#DejaVuSans-51"/>
       <use x="63.623047" xlink:href="#DejaVuSans-48"/>
       <use x="127.246094" xlink:href="#DejaVuSans-48"/>
       <use x="190.869141" xlink:href="#DejaVuSans-48"/>
      </g>
     </g>
    </g>
    <g id="xtick_8">
     <g id="line2d_8">
      <g>
       <use style="stroke:#000000;stroke-width:0.8;" x="379.612333" xlink:href="#m5846699ea5" y="210.24"/>
      </g>
     </g>
     <g id="text_8">
      <!-- 3500 -->
      <g transform="translate(366.887333 224.838437)scale(0.1 -0.1)">
       <use xlink:href="#DejaVuSans-51"/>
       <use x="63.623047" xlink:href="#DejaVuSans-53"/>
       <use x="127.246094" xlink:href="#DejaVuSans-48"/>
       <use x="190.869141" xlink:href="#DejaVuSans-48"/>
      </g>
     </g>
    </g>
   </g>
   <g id="matplotlib.axis_2">
    <g id="ytick_1">
     <g id="line2d_9">
      <defs>
       <path d="M 0 0 
L -3.5 0 
" id="mdb62556596" style="stroke:#000000;stroke-width:0.8;"/>
      </defs>
      <g>
       <use style="stroke:#000000;stroke-width:0.8;" x="54" xlink:href="#mdb62556596" y="175.523632"/>
      </g>
     </g>
     <g id="text_9">
      <!-- −0.5 -->
      <defs>
       <path d="M 10.59375 35.5 
L 73.1875 35.5 
L 73.1875 27.203125 
L 10.59375 27.203125 
z
" id="DejaVuSans-8722"/>
       <path d="M 10.6875 12.40625 
L 21 12.40625 
L 21 0 
L 10.6875 0 
z
" id="DejaVuSans-46"/>
      </defs>
      <g transform="translate(22.717187 179.32285)scale(0.1 -0.1)">
       <use xlink:href="#DejaVuSans-8722"/>
       <use x="83.789062" xlink:href="#DejaVuSans-48"/>
       <use x="147.412109" xlink:href="#DejaVuSans-46"/>
       <use x="179.199219" xlink:href="#DejaVuSans-53"/>
      </g>
     </g>
    </g>
    <g id="ytick_2">
     <g id="line2d_10">
      <g>
       <use style="stroke:#000000;stroke-width:0.8;" x="54" xlink:href="#mdb62556596" y="138.023408"/>
      </g>
     </g>
     <g id="text_10">
      <!-- 0.0 -->
      <g transform="translate(31.096875 141.822627)scale(0.1 -0.1)">
       <use xlink:href="#DejaVuSans-48"/>
       <use x="63.623047" xlink:href="#DejaVuSans-46"/>
       <use x="95.410156" xlink:href="#DejaVuSans-48"/>
      </g>
     </g>
    </g>
    <g id="ytick_3">
     <g id="line2d_11">
      <g>
       <use style="stroke:#000000;stroke-width:0.8;" x="54" xlink:href="#mdb62556596" y="100.523185"/>
      </g>
     </g>
     <g id="text_11">
      <!-- 0.5 -->
      <g transform="translate(31.096875 104.322404)scale(0.1 -0.1)">
       <use xlink:href="#DejaVuSans-48"/>
       <use x="63.623047" xlink:href="#DejaVuSans-46"/>
       <use x="95.410156" xlink:href="#DejaVuSans-53"/>
      </g>
     </g>
    </g>
   </g>
   <g id="line2d_12">
    <path clip-path="url(#pd70e864080)" d="M 69.218182 138.146222 
L 69.83897 138.196038 
L 70.016338 138.182213 
L 70.28239 138.174157 
L 70.903179 138.176081 
L 71.080547 138.196788 
L 71.257915 138.143904 
L 71.346599 138.192271 
L 71.435283 137.881166 
L 71.523967 138.174612 
L 71.612651 138.137336 
L 71.967387 138.164493 
L 73.208964 138.172974 
L 73.297648 137.86561 
L 73.386332 138.240705 
L 73.475016 138.155832 
L 73.652384 138.203415 
L 73.829752 138.203953 
L 74.00712 138.15899 
L 74.184488 138.247836 
L 74.361856 138.131981 
L 74.627908 138.189473 
L 75.071329 138.170735 
L 75.958169 138.178883 
L 76.046853 137.901917 
L 76.135537 138.188246 
L 76.224221 138.156017 
L 76.84501 138.229388 
L 76.933694 138.398574 
L 77.111062 138.171895 
L 77.377114 138.15151 
L 77.820534 138.16853 
L 77.909218 138.394503 
L 78.086586 138.155567 
L 78.263954 138.167655 
L 78.441322 138.192779 
L 78.61869 138.1419 
L 78.884743 138.370797 
L 79.062111 138.166143 
L 79.328163 138.168202 
L 79.416847 138.533504 
L 79.594215 138.199423 
L 80.126319 138.165861 
L 80.747107 138.228776 
L 81.01316 138.183555 
L 81.190528 138.201858 
L 81.722632 138.164622 
L 81.988684 138.204879 
L 82.520788 138.168002 
L 82.698156 138.22696 
L 82.875524 138.143806 
L 82.964209 138.21919 
L 83.052893 137.878313 
L 83.318945 138.184718 
L 83.496313 138.191927 
L 83.762365 138.213917 
L 84.205785 138.193164 
L 84.383153 138.160116 
L 84.649205 138.188426 
L 84.826573 138.161824 
L 85.003942 138.154905 
L 85.269994 138.175587 
L 85.447362 138.209559 
L 85.62473 138.156745 
L 85.713414 138.229894 
L 85.802098 137.874061 
L 85.979466 138.183517 
L 86.688938 138.16987 
L 86.777622 138.380177 
L 86.95499 138.199569 
L 87.132359 138.166642 
L 87.309727 138.238928 
L 87.575779 138.164296 
L 87.753147 138.210744 
L 87.930515 138.126298 
L 88.107883 138.228814 
L 88.373935 138.16973 
L 88.551303 138.184097 
L 89.083408 138.156629 
L 89.260776 138.223556 
L 89.438144 138.128488 
L 89.615512 138.161887 
L 92.276033 138.211922 
L 92.808137 138.169638 
L 92.985505 138.148999 
L 93.251558 138.165607 
L 94.138398 138.17325 
L 94.227082 137.880211 
L 94.315766 138.20284 
L 94.40445 138.158865 
L 94.581818 138.204587 
L 94.759186 138.172349 
L 95.025238 138.184867 
L 95.379975 138.202504 
L 95.646027 138.144136 
L 95.734711 138.371402 
L 95.912079 138.193992 
L 96.089447 138.16423 
L 96.266815 137.702285 
L 97.153655 137.711889 
L 97.242339 138.072477 
L 97.331024 138.036097 
L 97.774444 138.085002 
L 98.040496 137.427273 
L 98.12918 138.660772 
L 98.217864 138.545508 
L 98.306548 138.550294 
L 98.395232 138.076148 
L 98.483916 138.627047 
L 98.5726 138.545433 
L 98.838652 138.581246 
L 98.927336 138.545537 
L 99.01602 139.640356 
L 99.104704 138.571384 
L 99.193388 139.517658 
L 99.282072 138.586259 
L 99.370757 139.645655 
L 99.459441 138.551047 
L 99.548125 139.657098 
L 99.636809 138.580451 
L 99.725493 139.651003 
L 99.814177 138.566728 
L 99.991545 138.973068 
L 100.346281 138.971114 
L 100.434965 140.124084 
L 100.523649 140.064491 
L 100.612333 140.377279 
L 100.701017 140.116376 
L 100.878385 139.294965 
L 101.587858 139.258776 
L 102.918118 139.213734 
L 103.006802 138.543838 
L 103.095486 138.569769 
L 103.361538 138.558377 
L 103.450223 137.167193 
L 103.627591 138.647923 
L 103.716275 138.511368 
L 104.071011 138.504509 
L 104.248379 139.291032 
L 104.337063 138.222163 
L 104.425747 138.241742 
L 104.514431 138.206192 
L 104.603115 139.297847 
L 104.691799 138.204265 
L 104.869167 139.332466 
L 104.957851 138.232815 
L 105.046535 139.382351 
L 105.135219 139.30061 
L 105.223903 139.33891 
L 105.312587 138.255909 
L 105.401271 139.405362 
L 105.489955 137.358337 
L 105.57864 139.95536 
L 105.667324 138.098902 
L 105.756008 139.359842 
L 105.933376 137.47012 
L 106.02206 137.432168 
L 106.199428 140.005684 
L 106.288112 137.461625 
L 106.376796 137.470979 
L 106.554164 137.49265 
L 106.731532 137.450395 
L 106.820216 137.488014 
L 106.997584 139.557328 
L 107.174952 139.562792 
L 107.35232 139.564183 
L 108.150477 139.550232 
L 108.416529 139.563582 
L 111.431786 139.482625 
L 111.52047 139.305633 
L 111.697839 139.514891 
L 112.229943 139.484851 
L 112.407311 139.573106 
L 112.584679 139.529725 
L 112.673363 139.29969 
L 112.762047 139.345913 
L 113.294151 139.331984 
L 113.382835 138.467429 
L 113.560203 140.006945 
L 113.648887 140.000638 
L 113.91494 137.711655 
L 114.003624 137.740239 
L 115.954673 137.776219 
L 116.043357 138.245773 
L 116.132041 137.765387 
L 116.220725 138.123452 
L 116.309409 137.695626 
L 116.398093 138.091371 
L 116.486777 137.587637 
L 116.575461 138.120981 
L 116.664145 137.53708 
L 116.752829 138.121538 
L 116.841513 137.540195 
L 116.930197 138.212122 
L 117.018881 137.597451 
L 117.107565 138.228642 
L 117.196249 137.580805 
L 117.373617 138.382153 
L 117.550985 138.244326 
L 117.905722 138.238151 
L 118.08309 138.424262 
L 118.96993 138.444612 
L 119.058614 138.057679 
L 119.235982 140.032819 
L 119.502034 140.069456 
L 119.679402 140.062151 
L 119.856771 140.038444 
L 120.388875 139.903139 
L 120.566243 139.899547 
L 120.654927 139.9871 
L 120.743611 138.859201 
L 120.920979 139.987074 
L 121.275715 140.037152 
L 121.630451 139.861008 
L 121.896503 140.317983 
L 121.985188 140.171893 
L 122.073872 141.142667 
L 122.162556 140.523133 
L 122.25124 140.561365 
L 122.428608 141.268828 
L 122.517292 140.516931 
L 122.605976 141.457414 
L 122.69466 140.684893 
L 122.783344 140.747722 
L 123.049396 141.012269 
L 123.13808 141.774945 
L 123.315448 140.878253 
L 123.404132 141.766858 
L 123.492816 140.906755 
L 123.5815 140.95639 
L 123.670184 140.932367 
L 123.758868 141.08184 
L 123.847552 140.919357 
L 123.936236 141.0623 
L 124.024921 139.894457 
L 124.202289 141.203322 
L 124.290973 140.986666 
L 124.468341 139.671709 
L 124.557025 138.479685 
L 124.645709 139.52834 
L 124.734393 139.410429 
L 124.911761 139.488231 
L 125.355181 139.288132 
L 125.443865 139.411381 
L 125.621233 139.083906 
L 125.709917 139.405396 
L 125.887285 139.031912 
L 126.064654 137.225006 
L 126.153338 137.570674 
L 126.330706 137.050432 
L 126.41939 137.234857 
L 126.508074 137.321896 
L 126.596758 136.918002 
L 126.774126 137.13345 
L 126.951494 136.810645 
L 127.128862 136.713715 
L 127.394914 136.850901 
L 127.483598 136.848657 
L 127.572282 137.514467 
L 127.74965 136.796292 
L 127.927018 136.945952 
L 128.281755 137.132122 
L 128.459123 137.212993 
L 128.636491 137.806515 
L 128.725175 137.464625 
L 128.813859 137.558234 
L 128.991227 137.049134 
L 129.079911 137.134441 
L 129.168595 137.209343 
L 129.257279 137.066924 
L 129.345963 137.124997 
L 129.700699 136.625568 
L 129.878067 136.066142 
L 129.966751 136.248795 
L 130.055435 135.821594 
L 130.14412 135.917133 
L 130.321488 135.576776 
L 130.410172 135.674546 
L 130.498856 135.585289 
L 130.58754 134.990521 
L 130.676224 135.015914 
L 130.764908 135.10481 
L 130.853592 134.966309 
L 130.942276 136.069626 
L 131.119644 134.934363 
L 131.208328 135.069575 
L 131.385696 135.616216 
L 131.47438 135.282901 
L 131.651748 136.360402 
L 131.740432 135.864824 
L 131.829116 136.414816 
L 132.006484 134.821771 
L 132.095168 134.819803 
L 132.183853 135.414032 
L 132.272537 134.950829 
L 132.361221 135.376037 
L 132.449905 134.843482 
L 132.538589 135.057068 
L 132.627273 134.698122 
L 132.804641 135.313609 
L 132.893325 134.736934 
L 132.982009 134.893617 
L 133.070693 135.594444 
L 133.514113 134.684745 
L 133.602797 135.40579 
L 133.691481 135.121993 
L 133.868849 135.966257 
L 134.046217 135.154805 
L 134.223586 135.56948 
L 134.31227 135.521519 
L 134.400954 136.632677 
L 134.578322 136.083264 
L 134.667006 136.04896 
L 134.844374 137.03816 
L 135.19911 137.848792 
L 135.287794 137.76859 
L 135.553846 138.33476 
L 135.64253 139.142224 
L 135.731214 138.245109 
L 135.819898 139.315664 
L 135.908582 139.125734 
L 136.08595 138.339583 
L 136.174634 138.391392 
L 136.263318 139.122403 
L 136.352003 138.954254 
L 136.529371 139.159114 
L 136.618055 139.049122 
L 136.706739 139.281058 
L 136.795423 139.945096 
L 136.884107 139.930217 
L 136.972791 139.662615 
L 137.150159 139.927724 
L 137.238843 139.444278 
L 137.416211 139.798023 
L 137.504895 139.662828 
L 137.593579 139.725511 
L 137.859631 140.603517 
L 137.948315 140.448052 
L 138.036999 140.611998 
L 138.125683 140.526725 
L 138.214367 141.017622 
L 138.303051 140.940035 
L 138.569104 140.867125 
L 138.657788 140.540322 
L 138.746472 141.21101 
L 138.835156 140.972327 
L 139.012524 140.073222 
L 139.101208 140.420851 
L 139.189892 140.009743 
L 139.36726 140.334475 
L 139.455944 139.556919 
L 139.544628 139.787796 
L 139.633312 139.606349 
L 139.721996 139.799104 
L 139.899364 139.284508 
L 139.988048 139.550325 
L 140.076732 139.092762 
L 140.165416 139.215084 
L 140.342784 138.955151 
L 140.431469 138.479053 
L 140.520153 139.606564 
L 140.697521 138.366296 
L 140.786205 138.677227 
L 140.874889 138.782394 
L 140.963573 137.908861 
L 141.052257 138.065255 
L 141.229625 138.917031 
L 141.406993 138.235816 
L 141.495677 138.216354 
L 141.673045 137.598807 
L 141.761729 137.554875 
L 141.850413 137.719404 
L 142.027781 136.841161 
L 142.205149 136.6881 
L 142.382517 137.504377 
L 142.559886 136.729468 
L 142.737254 137.392184 
L 142.914622 137.030729 
L 143.003306 137.23214 
L 143.269358 136.900416 
L 143.446726 136.885277 
L 143.53541 136.586519 
L 143.624094 137.016631 
L 143.712778 136.953198 
L 143.890146 136.600407 
L 143.97883 136.64258 
L 144.244882 136.396025 
L 144.333566 136.439616 
L 144.510935 136.119089 
L 144.599619 136.257465 
L 144.776987 135.3313 
L 144.954355 135.146599 
L 145.043039 134.763872 
L 145.131723 135.236679 
L 145.397775 134.752731 
L 145.663827 134.366537 
L 145.752511 134.733563 
L 145.841195 134.696596 
L 146.107247 133.974045 
L 146.195931 133.939858 
L 146.284615 134.124976 
L 146.373299 134.069648 
L 146.81672 133.907695 
L 146.905404 133.960793 
L 146.994088 133.845907 
L 147.082772 133.32444 
L 147.437508 133.725506 
L 147.792244 133.825731 
L 147.880928 134.038402 
L 147.969612 133.951876 
L 148.14698 134.10987 
L 148.235664 134.72845 
L 148.324348 134.278634 
L 148.413032 134.320969 
L 148.501716 134.892766 
L 148.590401 134.50772 
L 148.679085 135.08015 
L 148.856453 134.775058 
L 148.945137 134.905118 
L 149.299873 136.59352 
L 149.388557 136.116938 
L 149.477241 136.336216 
L 149.654609 137.673541 
L 150.452765 141.750186 
L 150.807502 144.922471 
L 150.98487 147.163954 
L 151.073554 147.365593 
L 151.694342 154.700755 
L 151.960394 158.697469 
L 152.226446 161.919489 
L 153.113287 171.829338 
L 153.379339 174.050465 
L 154.266179 181.477168 
L 154.354863 181.634517 
L 154.443547 181.53732 
L 154.620915 183.104795 
L 154.709599 183.240236 
L 154.798284 184.042 
L 154.886968 183.938418 
L 155.15302 185.016328 
L 155.330388 186.145226 
L 156.03986 189.830657 
L 156.48328 191.441261 
L 156.571964 191.187875 
L 156.926701 191.705921 
L 157.281437 190.766344 
L 157.370121 190.907682 
L 157.636173 189.016872 
L 157.724857 188.965439 
L 158.256961 185.534504 
L 158.523013 183.101024 
L 158.611697 183.053703 
L 158.87775 180.820364 
L 159.143802 178.308446 
L 159.498538 175.913638 
L 161.626955 158.903173 
L 161.804323 156.398899 
L 162.159059 153.121858 
L 163.93274 132.636001 
L 164.37616 127.20807 
L 164.730896 122.590372 
L 164.908264 120.88272 
L 165.174317 117.601173 
L 166.149841 107.815085 
L 166.238525 107.509713 
L 166.681945 103.326068 
L 166.770629 102.956682 
L 167.125366 99.560489 
L 167.568786 96.93048 
L 167.834838 95.667388 
L 167.923522 96.028593 
L 168.012206 95.91951 
L 168.366942 94.147773 
L 168.455626 94.463738 
L 168.54431 94.229308 
L 168.721678 93.400591 
L 168.810362 93.735649 
L 168.899046 93.535488 
L 168.98773 94.048713 
L 169.165099 93.484061 
L 169.253783 93.393748 
L 169.342467 93.612922 
L 169.519835 93.162716 
L 169.608519 93.444342 
L 169.697203 92.746783 
L 169.874571 93.780595 
L 170.051939 93.683878 
L 170.229307 94.253174 
L 170.317991 94.041126 
L 171.293516 98.874333 
L 172.978512 117.926309 
L 174.752193 143.896558 
L 175.195613 148.813072 
L 176.525874 164.370244 
L 176.703242 165.965002 
L 178.122187 179.587899 
L 179.275079 188.289502 
L 179.363764 188.406102 
L 179.452448 188.922439 
L 179.541132 188.811668 
L 179.807184 189.920743 
L 179.984552 191.167654 
L 180.339288 191.715228 
L 180.516656 191.360544 
L 180.871392 189.841599 
L 181.04876 188.796231 
L 181.403497 186.11907 
L 181.846917 180.400251 
L 182.379021 172.959748 
L 182.911125 164.48172 
L 184.241386 148.7404 
L 184.507438 146.546327 
L 184.862174 143.091302 
L 185.571647 138.344632 
L 186.015067 136.5224 
L 186.369803 135.49979 
L 186.458487 135.502847 
L 186.547171 135.889995 
L 186.635855 135.61089 
L 186.724539 136.302802 
L 186.813223 135.799331 
L 186.901907 135.909346 
L 187.079275 136.068404 
L 187.167959 135.53988 
L 187.256643 136.445718 
L 187.345327 136.116636 
L 187.877432 137.140677 
L 187.966116 137.768414 
L 188.0548 137.460371 
L 188.409536 138.490401 
L 188.94164 139.664873 
L 189.030324 139.303476 
L 189.207692 140.229713 
L 189.739797 141.123102 
L 189.828481 141.245742 
L 190.005849 141.196834 
L 190.094533 141.192896 
L 190.183217 140.657871 
L 190.537953 141.62288 
L 190.626637 140.762617 
L 190.804005 141.637124 
L 190.981373 141.019315 
L 191.336109 141.082169 
L 191.513477 141.606618 
L 191.602161 141.094724 
L 191.690846 141.187001 
L 191.956898 140.96593 
L 192.22295 140.581907 
L 192.400318 139.967995 
L 192.843738 139.571735 
L 193.021106 139.365375 
L 193.10979 139.763308 
L 193.464526 139.028809 
L 193.55321 139.101277 
L 193.730579 139.036365 
L 193.819263 138.983418 
L 193.907947 139.232364 
L 194.085315 138.610874 
L 194.173999 138.622445 
L 194.617419 137.42611 
L 194.706103 137.569172 
L 195.060839 136.796101 
L 195.149523 136.742584 
L 195.238207 136.258715 
L 195.326891 136.693804 
L 195.504259 136.324045 
L 195.592943 136.413182 
L 195.681627 136.266454 
L 195.770312 135.613517 
L 195.858996 135.762665 
L 195.94768 136.236989 
L 196.125048 135.550326 
L 196.213732 135.35579 
L 196.302416 135.405319 
L 196.479784 135.229659 
L 196.568468 134.734262 
L 196.657152 135.513139 
L 196.745836 135.150801 
L 196.923204 134.074921 
L 197.100572 134.251192 
L 197.366624 134.257991 
L 197.543992 133.898403 
L 197.72136 133.834437 
L 197.898729 133.928547 
L 197.987413 133.936888 
L 198.253465 134.13436 
L 198.696885 134.571421 
L 199.228989 136.074449 
L 199.317673 136.12105 
L 199.406357 135.984574 
L 199.849777 136.808661 
L 199.938462 136.66597 
L 200.027146 137.474433 
L 200.11583 137.306768 
L 200.381882 137.476619 
L 200.736618 137.378354 
L 200.825302 137.742067 
L 200.913986 137.603915 
L 201.180038 136.550101 
L 201.357406 136.926759 
L 201.623458 135.838094 
L 201.712142 135.939975 
L 201.88951 135.699121 
L 202.066879 135.258353 
L 202.155563 135.217623 
L 202.244247 135.356722 
L 202.421615 135.27226 
L 202.510299 135.177963 
L 202.598983 135.383891 
L 202.687667 135.284075 
L 202.776351 135.398566 
L 203.042403 135.060444 
L 203.219771 135.196716 
L 203.308455 135.175127 
L 203.397139 134.987612 
L 203.751875 135.703818 
L 204.106612 135.945922 
L 204.195296 135.774609 
L 204.28398 135.991479 
L 204.461348 136.712483 
L 204.550032 136.714087 
L 204.638716 136.5951 
L 204.7274 137.273021 
L 204.816084 137.140043 
L 204.993452 137.713673 
L 205.082136 137.770912 
L 205.17082 138.039554 
L 205.259504 137.73224 
L 205.348188 137.970472 
L 205.436872 138.872181 
L 205.525556 138.018428 
L 205.61424 138.246252 
L 205.791608 138.998547 
L 205.880292 138.821369 
L 205.968976 138.972814 
L 206.146345 138.309461 
L 206.235029 138.408712 
L 206.412397 138.096549 
L 206.501081 137.929365 
L 206.855817 136.698266 
L 208.008709 131.947998 
L 208.097394 132.087916 
L 208.363446 131.651608 
L 208.45213 131.015275 
L 208.540814 131.587977 
L 208.629498 131.52586 
L 209.072918 131.349808 
L 209.250286 131.498115 
L 209.427654 131.213464 
L 209.78239 131.170173 
L 209.959758 131.356873 
L 210.137127 131.428052 
L 210.314495 131.444726 
L 210.403179 131.400579 
L 210.491863 131.075927 
L 210.669231 131.405483 
L 210.757915 130.766859 
L 210.935283 131.358651 
L 211.023967 131.329579 
L 211.201335 130.964399 
L 211.644755 130.459505 
L 211.822123 130.564566 
L 212.088175 130.437883 
L 212.354228 130.546197 
L 212.62028 130.579534 
L 212.708964 130.80478 
L 212.886332 130.32944 
L 212.975016 130.807465 
L 213.0637 130.643525 
L 213.152384 130.732177 
L 213.241068 130.625504 
L 213.329752 130.754215 
L 213.418436 131.235862 
L 213.595804 130.818251 
L 213.684488 131.311621 
L 213.95054 130.972234 
L 214.393961 131.077473 
L 214.571329 130.762193 
L 214.837381 131.260582 
L 215.014749 130.714749 
L 215.103433 131.37206 
L 215.369485 130.646262 
L 215.458169 130.965187 
L 215.546853 130.753881 
L 215.812905 131.119766 
L 215.990273 130.889116 
L 216.078957 131.114651 
L 216.256325 130.913995 
L 216.611062 131.538234 
L 216.699746 131.544175 
L 216.78843 131.343114 
L 216.877114 131.40895 
L 216.965798 131.612961 
L 217.143166 131.383822 
L 217.409218 131.717697 
L 217.763954 131.351327 
L 217.852638 131.490074 
L 218.030006 132.184994 
L 218.650795 133.230069 
L 218.739479 133.029898 
L 219.537635 134.297607 
L 219.715003 134.278708 
L 219.803687 134.357023 
L 219.892371 134.736865 
L 219.981055 134.605042 
L 220.069739 134.823609 
L 220.158423 134.544382 
L 220.424476 135.35787 
L 220.601844 134.431318 
L 221.045264 136.363603 
L 221.133948 136.332078 
L 221.754736 138.836264 
L 221.84342 138.745755 
L 221.932104 139.702588 
L 222.020788 139.525623 
L 222.198156 139.99688 
L 222.464209 141.410895 
L 222.552893 141.263254 
L 222.730261 142.525415 
L 222.818945 142.208159 
L 223.173681 144.332663 
L 223.262365 144.361776 
L 223.883153 146.257002 
L 223.971837 146.183924 
L 224.149205 146.628554 
L 224.237889 146.066961 
L 224.326573 146.745463 
L 224.415257 146.612019 
L 224.592626 146.425486 
L 224.68131 147.18611 
L 224.769994 147.066246 
L 225.036046 147.544589 
L 225.12473 147.483432 
L 225.213414 147.389496 
L 225.479466 146.526206 
L 225.56815 147.260317 
L 225.834202 146.212232 
L 225.922886 146.080893 
L 226.01157 146.538346 
L 226.366306 145.505921 
L 226.45499 145.479392 
L 226.543675 145.584269 
L 226.632359 144.747585 
L 226.721043 145.822797 
L 226.809727 145.699208 
L 226.898411 144.37536 
L 227.075779 145.510626 
L 227.253147 144.980417 
L 227.519199 144.823965 
L 227.696567 144.727029 
L 227.785251 145.318868 
L 227.962619 144.899629 
L 228.051303 145.451937 
L 228.139987 144.920188 
L 228.228671 145.267939 
L 228.494723 144.889278 
L 228.583408 144.782234 
L 228.672092 145.057377 
L 228.760776 144.854635 
L 228.938144 144.302603 
L 229.115512 144.283756 
L 229.29288 144.028347 
L 229.558932 143.915568 
L 229.7363 144.372877 
L 229.824984 144.157288 
L 229.913668 144.246899 
L 230.002352 144.598605 
L 230.091036 144.542007 
L 230.357088 143.974195 
L 230.62314 145.141605 
L 230.711825 144.835449 
L 230.800509 144.921363 
L 230.889193 144.818388 
L 231.066561 145.103561 
L 231.155245 144.939934 
L 231.421297 145.605565 
L 231.598665 146.275723 
L 231.687349 146.389815 
L 231.953401 147.320335 
L 232.042085 147.485121 
L 232.130769 149.085668 
L 232.219453 148.851462 
L 232.485505 150.456461 
L 232.751558 151.096348 
L 232.840242 151.726593 
L 232.928926 151.660339 
L 233.283662 153.410851 
L 233.372346 153.153246 
L 233.638398 154.441063 
L 233.727082 154.338145 
L 233.815766 154.429783 
L 233.90445 154.752318 
L 233.993134 153.722986 
L 234.170502 154.16443 
L 234.259186 154.066347 
L 234.34787 153.496608 
L 234.436554 154.136511 
L 234.525238 154.092345 
L 234.702606 154.493826 
L 234.791291 154.46033 
L 234.968659 153.535969 
L 235.146027 154.091209 
L 235.234711 153.509546 
L 235.412079 154.075981 
L 235.500763 154.154444 
L 235.678131 155.861019 
L 235.766815 155.812461 
L 235.944183 156.782787 
L 236.032867 156.195477 
L 236.121551 156.418927 
L 236.298919 157.604404 
L 236.387603 157.56238 
L 236.831024 158.293957 
L 236.919708 158.991239 
L 237.008392 158.481331 
L 237.097076 159.229806 
L 237.18576 159.039416 
L 237.274444 158.886304 
L 237.363128 159.568037 
L 237.451812 159.048917 
L 237.62918 159.88466 
L 237.895232 159.661502 
L 238.0726 159.629379 
L 238.161284 159.509806 
L 238.249968 159.591717 
L 238.338652 159.400896 
L 238.51602 159.734884 
L 238.604704 159.12728 
L 238.693388 159.672803 
L 239.048125 159.137799 
L 239.136809 159.233935 
L 239.314177 157.681715 
L 239.402861 157.616098 
L 239.491545 157.852235 
L 239.580229 157.437875 
L 239.668913 157.461672 
L 239.846281 157.1959 
L 239.934965 156.123407 
L 240.023649 156.237271 
L 240.289701 155.753568 
L 240.378385 155.684327 
L 240.467069 156.172269 
L 240.555753 155.817173 
L 240.644437 155.962957 
L 240.733121 155.639331 
L 241.176542 156.642025 
L 241.531278 158.18825 
L 241.619962 158.161589 
L 241.708646 158.519407 
L 241.886014 159.908531 
L 241.974698 159.582463 
L 242.418118 161.960766 
L 242.68417 162.579972 
L 242.772854 162.332231 
L 243.038907 163.481078 
L 243.127591 163.354267 
L 243.216275 163.064225 
L 243.304959 163.739914 
L 243.393643 163.609822 
L 243.925747 164.009023 
L 244.014431 164.381375 
L 244.103115 163.732448 
L 244.369167 164.631483 
L 244.457851 164.552662 
L 244.546535 164.021763 
L 244.723903 164.360505 
L 245.07864 163.044716 
L 245.167324 163.218187 
L 245.610744 161.058355 
L 245.699428 161.722424 
L 245.788112 161.670266 
L 246.054164 161.296932 
L 246.142848 161.346144 
L 246.231532 161.538192 
L 246.674952 161.077063 
L 247.029688 162.019775 
L 247.207057 161.881736 
L 247.295741 162.695454 
L 247.384425 162.135 
L 247.473109 162.238238 
L 247.650477 163.350488 
L 247.739161 163.202205 
L 247.827845 163.47567 
L 247.916529 163.263576 
L 248.005213 163.453642 
L 248.093897 163.106869 
L 248.182581 163.405601 
L 248.271265 163.083569 
L 248.359949 163.620148 
L 248.448633 163.464406 
L 248.537317 163.754243 
L 248.626001 163.010542 
L 248.714685 163.193875 
L 248.803369 163.09915 
L 248.980737 163.369455 
L 249.24679 163.24316 
L 249.335474 163.316349 
L 249.424158 162.777788 
L 249.601526 163.232896 
L 249.69021 163.279065 
L 249.867578 163.840062 
L 249.956262 163.712311 
L 250.13363 162.554187 
L 250.931786 160.154338 
L 251.197839 158.542153 
L 251.286523 158.6093 
L 251.463891 157.734064 
L 251.552575 157.728267 
L 251.641259 157.584725 
L 251.818627 157.086675 
L 251.995995 156.996769 
L 252.350731 157.060185 
L 252.439415 157.058415 
L 252.616783 157.537062 
L 252.705467 157.411934 
L 252.882835 157.760593 
L 252.971519 157.481925 
L 253.060203 157.713089 
L 253.148887 157.380462 
L 253.326256 158.556391 
L 253.41494 158.046366 
L 253.680992 158.554493 
L 254.035728 159.810016 
L 254.124412 159.79987 
L 254.213096 160.32199 
L 254.30178 159.951055 
L 254.567832 161.461892 
L 254.833884 161.843261 
L 254.922568 161.205789 
L 255.099936 161.964776 
L 255.277305 162.546198 
L 255.365989 162.130256 
L 255.454673 162.150189 
L 255.720725 162.734302 
L 255.898093 162.013671 
L 255.986777 162.357192 
L 256.164145 162.289356 
L 256.252829 162.885039 
L 256.430197 162.459824 
L 256.518881 162.535632 
L 256.607565 162.546275 
L 256.696249 162.399589 
L 256.784933 162.640112 
L 257.139669 162.067987 
L 257.228353 162.1371 
L 257.317038 161.766997 
L 257.405722 161.918033 
L 257.58309 161.009717 
L 257.671774 161.134848 
L 257.849142 160.759346 
L 257.937826 160.83115 
L 258.292562 159.316093 
L 258.381246 159.34771 
L 258.735982 157.920724 
L 258.824666 158.046104 
L 259.002034 157.876755 
L 259.268086 156.463113 
L 259.445455 155.58696 
L 259.711507 154.238441 
L 259.800191 154.263015 
L 259.977559 152.971868 
L 260.243611 151.354222 
L 260.775715 148.063012 
L 260.864399 147.505858 
L 260.953083 147.547828 
L 261.307819 146.308662 
L 261.928608 145.077303 
L 262.017292 145.090105 
L 262.105976 145.313855 
L 262.19466 145.033304 
L 262.283344 145.138616 
L 262.460712 145.619237 
L 262.549396 145.633819 
L 262.63808 145.222868 
L 262.815448 145.805669 
L 262.904132 145.628221 
L 262.992816 145.079891 
L 263.0815 145.604242 
L 263.170184 145.573322 
L 263.258868 145.200327 
L 263.347552 145.270125 
L 263.613605 145.10759 
L 263.702289 144.969317 
L 263.879657 144.380595 
L 263.968341 144.339997 
L 264.145709 143.887512 
L 264.234393 144.252182 
L 264.500445 143.17958 
L 264.589129 143.189013 
L 264.677813 143.045069 
L 266.008074 136.811802 
L 266.096758 136.792442 
L 266.36281 135.898988 
L 267.959123 127.726556 
L 268.047807 127.861862 
L 268.313859 127.080988 
L 268.491227 126.616994 
L 268.579911 126.601715 
L 268.757279 126.984337 
L 268.845963 126.558589 
L 268.934647 126.675303 
L 269.200699 127.013116 
L 269.378067 127.5286 
L 269.555435 127.784077 
L 269.821488 128.592687 
L 270.353592 129.610547 
L 270.619644 130.349008 
L 270.708328 130.279742 
L 270.797012 130.373137 
L 271.063064 131.082308 
L 271.329116 131.488486 
L 271.4178 131.605418 
L 271.506484 131.312382 
L 271.595168 131.394817 
L 271.772537 131.611868 
L 272.038589 131.840683 
L 272.127273 132.160217 
L 272.304641 132.031894 
L 272.482009 132.248612 
L 272.570693 132.18113 
L 272.925429 132.64343 
L 273.014113 132.057195 
L 273.102797 132.130206 
L 273.546217 132.699611 
L 273.723586 133.659912 
L 273.81227 133.790691 
L 273.900954 133.321538 
L 274.078322 134.146123 
L 274.167006 133.92714 
L 274.25569 134.375887 
L 274.344374 134.117809 
L 274.521742 134.196358 
L 274.610426 134.135325 
L 274.787794 133.84965 
L 274.876478 134.076459 
L 274.965162 134.000475 
L 275.497266 133.396521 
L 275.58595 133.536064 
L 275.940687 132.383673 
L 276.118055 131.967268 
L 276.295423 131.379856 
L 276.384107 131.339623 
L 276.738843 130.021832 
L 277.625683 127.212478 
L 277.714367 127.182824 
L 278.069104 126.448639 
L 278.335156 126.065784 
L 278.42384 125.525315 
L 278.512524 126.036149 
L 278.601208 125.98751 
L 278.689892 126.002655 
L 278.86726 125.772862 
L 279.044628 125.910004 
L 279.221996 125.836899 
L 279.31068 126.002681 
L 279.399364 125.92215 
L 279.488048 126.069377 
L 279.576732 126.52076 
L 279.7541 125.982054 
L 279.842784 126.218929 
L 279.931469 126.093093 
L 280.020153 125.3403 
L 280.108837 125.698544 
L 280.197521 124.83593 
L 280.286205 124.890172 
L 280.463573 124.112133 
L 280.552257 124.744353 
L 280.640941 124.123446 
L 280.729625 124.788762 
L 280.906993 123.842846 
L 280.995677 124.313362 
L 281.173045 124.224507 
L 281.439097 124.079665 
L 281.705149 123.987057 
L 281.793833 124.456944 
L 281.882517 124.417358 
L 282.59199 125.095997 
L 282.946726 126.079316 
L 283.03541 126.363936 
L 283.124094 126.172627 
L 283.212778 126.337157 
L 283.390146 127.131942 
L 283.47883 127.029901 
L 283.92225 127.902504 
L 284.010935 128.236553 
L 284.099619 127.882204 
L 284.454355 128.950466 
L 284.543039 129.084328 
L 284.631723 128.890065 
L 284.720407 129.364422 
L 284.809091 129.294042 
L 284.986459 129.562685 
L 285.075143 129.479928 
L 286.139352 132.733367 
L 286.671456 135.788052 
L 288.179085 145.681233 
L 288.267769 145.058373 
L 288.888557 148.188929 
L 288.977241 148.123751 
L 289.243293 150.097204 
L 289.864081 153.242567 
L 289.952765 152.928023 
L 290.041449 152.672041 
L 290.218818 154.259064 
L 290.307502 153.880446 
L 290.396186 153.950587 
L 290.48487 154.544879 
L 290.662238 156.983559 
L 290.750922 157.233626 
L 291.016974 158.993226 
L 291.105658 159.073422 
L 291.194342 159.608085 
L 291.37171 162.274851 
L 291.460394 162.312599 
L 291.992498 167.927696 
L 292.081182 168.775088 
L 292.169866 168.529509 
L 292.524603 172.802823 
L 292.613287 173.191598 
L 293.145391 179.568671 
L 293.234075 180.033235 
L 293.411443 181.85205 
L 293.500127 182.47923 
L 293.677495 184.852307 
L 293.766179 185.003727 
L 294.032231 187.869598 
L 294.120915 187.717637 
L 294.209599 188.192273 
L 294.386968 190.03552 
L 294.475652 190.039537 
L 295.007756 195.365752 
L 295.09644 195.16827 
L 295.717228 199.987855 
L 296.071964 202.016377 
L 296.338017 202.792368 
L 296.515385 203.651294 
L 296.604069 203.96945 
L 296.692753 203.93576 
L 296.870121 203.296198 
L 297.047489 203.948645 
L 297.136173 204.152727 
L 297.756961 201.481097 
L 298.111697 198.881275 
L 298.998538 188.413696 
L 299.353274 181.71436 
L 299.530642 179.562688 
L 299.885378 173.208127 
L 299.974062 172.776621 
L 300.417483 165.392667 
L 302.811952 119.387441 
L 303.078004 114.666304 
L 303.698792 104.448241 
L 304.142212 98.95543 
L 304.496949 94.455169 
L 305.029053 88.948395 
L 305.117737 88.677385 
L 305.383789 86.107922 
L 305.472473 86.246632 
L 305.649841 85.309805 
L 305.738525 85.413433 
L 306.004577 85.221699 
L 306.093261 84.3774 
L 306.270629 85.109462 
L 306.359313 85.810859 
L 306.447997 85.743323 
L 306.536682 86.10637 
L 306.625366 85.943988 
L 306.891418 88.438687 
L 306.980102 88.238778 
L 307.334838 90.246756 
L 308.399046 99.662347 
L 308.576414 100.904181 
L 309.108519 107.452355 
L 309.374571 110.885052 
L 309.729307 116.163693 
L 310.793516 130.091334 
L 311.502988 136.621649 
L 311.946408 139.286103 
L 312.035092 139.15895 
L 312.301144 140.187233 
L 312.389828 140.29467 
L 312.567196 140.770112 
L 312.744565 140.938304 
L 313.276669 139.80494 
L 313.365353 140.039076 
L 313.454037 139.950589 
L 313.631405 139.185133 
L 313.720089 139.373904 
L 313.897457 139.185329 
L 314.074825 138.458007 
L 314.163509 138.383937 
L 314.252193 138.646676 
L 314.429561 137.86366 
L 314.518245 138.027097 
L 314.606929 138.631622 
L 314.784298 137.545732 
L 315.05035 137.112137 
L 315.139034 137.771134 
L 315.316402 137.419026 
L 315.405086 137.514419 
L 315.582454 136.816807 
L 315.671138 136.734873 
L 315.759822 136.874304 
L 316.025874 136.33731 
L 316.114558 136.536136 
L 316.38061 135.372234 
L 316.469294 135.461725 
L 316.557978 135.788209 
L 316.735346 134.895373 
L 316.912715 135.084096 
L 317.178767 133.950838 
L 317.267451 134.867597 
L 317.356135 133.573528 
L 317.444819 134.903617 
L 317.622187 134.025181 
L 317.710871 134.329834 
L 317.888239 133.737997 
L 317.976923 133.52634 
L 318.065607 133.80599 
L 318.154291 133.468508 
L 318.331659 132.489174 
L 318.863764 131.227108 
L 318.952448 131.431204 
L 319.041132 130.961998 
L 319.129816 131.055004 
L 319.307184 130.576333 
L 319.395868 130.644579 
L 319.484552 130.301646 
L 319.573236 130.856647 
L 319.66192 130.78468 
L 319.750604 130.35467 
L 319.927972 130.859134 
L 320.016656 131.042554 
L 320.10534 130.96092 
L 320.460076 131.360333 
L 320.814812 132.382954 
L 320.903497 132.312925 
L 321.169549 133.277115 
L 321.435601 134.325615 
L 321.524285 133.852757 
L 321.701653 134.803363 
L 321.790337 134.672849 
L 322.056389 135.900026 
L 323.120598 139.039722 
L 323.38665 140.594622 
L 323.475334 140.352948 
L 323.564018 140.443847 
L 323.652702 141.126992 
L 323.741386 141.05069 
L 323.83007 140.768809 
L 324.184806 141.237469 
L 324.27349 141.162026 
L 324.362174 140.427922 
L 324.539542 141.228233 
L 324.71691 140.843471 
L 324.982962 140.744682 
L 325.160331 140.645733 
L 325.426383 140.882531 
L 325.515067 140.527961 
L 325.692435 140.8212 
L 325.781119 140.747531 
L 325.869803 141.106538 
L 325.958487 140.748489 
L 326.047171 140.816682 
L 326.135855 140.811169 
L 326.224539 141.249053 
L 326.313223 141.07443 
L 326.490591 141.414007 
L 326.667959 141.394982 
L 326.934011 141.083283 
L 327.022695 141.127896 
L 327.200064 140.695284 
L 327.288748 141.094054 
L 327.377432 140.877124 
L 327.466116 140.267876 
L 327.5548 140.340477 
L 327.732168 139.788338 
L 327.820852 140.16533 
L 327.99822 139.172717 
L 328.264272 138.842484 
L 328.352956 138.805767 
L 328.530324 139.412358 
L 328.796376 138.650809 
L 328.973744 139.335099 
L 329.151113 139.692222 
L 329.328481 139.806165 
L 329.505849 139.312538 
L 329.594533 139.293076 
L 329.771901 139.145197 
L 330.304005 138.853779 
L 330.570057 138.488312 
L 330.658741 138.939235 
L 330.924793 138.448511 
L 331.102161 138.546343 
L 331.27953 137.942452 
L 331.368214 137.982406 
L 332.077686 136.646207 
L 332.255054 136.556812 
L 332.521106 136.433725 
L 332.698474 136.477079 
L 332.964526 136.646621 
L 333.585315 137.857685 
L 333.851367 138.608714 
L 334.028735 138.542913 
L 334.206103 138.608546 
L 334.560839 138.730476 
L 335.270312 138.079387 
L 335.536364 138.361942 
L 335.979784 138.838303 
L 336.157152 139.485857 
L 336.33452 139.550976 
L 336.600572 139.429596 
L 336.689256 138.209014 
L 336.866624 140.043365 
L 337.132676 139.89861 
L 337.22136 139.916005 
L 337.398729 139.588341 
L 337.753465 139.569608 
L 343.872664 139.674099 
L 344.493452 139.730604 
L 344.67082 139.997572 
L 344.848188 140.040626 
L 345.380292 139.967326 
L 345.468976 140.010208 
L 345.646345 140.200703 
L 345.823713 140.184784 
L 346.001081 139.782482 
L 346.089765 139.766496 
L 346.267133 139.59204 
L 351.942912 139.573739 
L 352.12028 139.575623 
L 352.475016 139.58913 
L 354.603433 139.567359 
L 354.869485 139.554339 
L 355.046853 139.568481 
L 355.667641 139.577886 
L 356.111062 139.535485 
L 356.377114 139.550316 
L 356.820534 139.55676 
L 357.263954 139.548801 
L 357.530006 139.570862 
L 357.796058 139.574479 
L 358.328163 139.5601 
L 359.215003 139.519437 
L 359.481055 139.553987 
L 359.924476 139.568227 
L 363.383153 139.538268 
L 364.358678 139.584752 
L 365.600254 139.553607 
L 365.95499 139.571885 
L 366.841831 139.577146 
L 367.285251 139.558015 
L 371.009981 139.586439 
L 371.276033 139.586722 
L 371.808137 139.563932 
L 372.783662 139.558346 
L 372.96103 139.61179 
L 373.227082 139.577931 
L 373.581818 139.568264 
L 373.581818 139.568264 
" style="fill:none;stroke:#1f77b4;stroke-linecap:square;stroke-width:1.5;"/>
   </g>
   <g id="line2d_13">
    <path clip-path="url(#pd70e864080)" d="M 69.218182 139.411234 
L 71.790019 138.827235 
L 75.869485 138.291671 
L 84.560521 137.931777 
L 86.688938 137.863782 
L 87.930515 137.829984 
L 91.389193 137.855826 
L 92.364717 137.848678 
L 97.064971 137.899196 
L 98.12918 137.875539 
L 101.942594 137.878811 
L 103.006802 137.86342 
L 105.667324 137.847426 
L 107.174952 137.793581 
L 110.810998 137.831598 
L 111.875207 137.822416 
L 113.471519 137.842955 
L 114.713096 136.789282 
L 116.043357 135.997605 
L 117.639669 135.261948 
L 118.260458 134.988944 
L 119.679402 134.490863 
L 121.009663 134.154687 
L 123.492816 133.547933 
L 124.024921 133.368762 
L 124.557025 133.617194 
L 125.089129 134.216461 
L 125.355181 134.314738 
L 125.621233 134.920215 
L 125.975969 135.640639 
L 126.242022 135.55851 
L 126.86281 135.120461 
L 127.128862 135.122597 
L 127.30623 135.228729 
L 127.660966 135.179749 
L 127.838334 135.569694 
L 128.370439 137.25309 
L 128.636491 137.679413 
L 128.991227 137.344112 
L 129.434647 136.883344 
L 129.612015 136.883456 
L 130.055435 137.217227 
L 130.764908 137.575412 
L 131.119644 137.621635 
L 131.385696 137.667241 
L 132.006484 137.210942 
L 132.272537 136.77353 
L 132.538589 136.115898 
L 133.691481 132.319437 
L 133.868849 132.307468 
L 134.134901 132.378885 
L 134.667006 132.121942 
L 135.287794 131.869821 
L 135.731214 131.311385 
L 136.08595 130.814123 
L 136.440687 130.614992 
L 136.795423 129.880808 
L 136.972791 130.342594 
L 137.238843 130.872972 
L 137.593579 130.676416 
L 138.303051 132.533073 
L 138.48042 132.948103 
L 139.721996 138.791362 
L 139.899364 138.87607 
L 140.165416 138.660699 
L 140.697521 139.094573 
L 141.318309 138.485045 
L 141.673045 138.168202 
L 142.116465 137.555684 
L 143.53541 135.667088 
L 144.776987 135.044427 
L 144.954355 135.123887 
L 145.309091 135.041225 
L 146.107247 135.336281 
L 146.728036 135.247578 
L 147.792244 134.120698 
L 148.14698 133.31205 
L 149.299873 130.572195 
L 149.743293 129.911258 
L 149.920661 129.742801 
L 150.098029 130.036238 
L 150.364081 130.24795 
L 150.630134 130.3953 
L 150.807502 130.856532 
L 151.162238 131.706061 
L 151.250922 131.563285 
L 151.42829 132.109186 
L 151.783026 133.457837 
L 151.960394 133.621419 
L 152.492498 135.099917 
L 152.581182 135.021511 
L 152.847235 135.971274 
L 153.113287 137.698263 
L 153.734075 143.952776 
L 154.620915 155.521939 
L 154.886968 157.44703 
L 155.773808 167.572361 
L 156.305912 173.589032 
L 156.749332 176.640219 
L 158.079593 183.664797 
L 158.434329 184.924372 
L 159.32117 188.569326 
L 159.76459 189.688787 
L 159.941958 189.763937 
L 160.119326 189.607379 
L 160.296694 189.1987 
L 160.562746 188.089088 
L 161.183535 183.937391 
L 163.311952 167.258412 
L 163.755372 163.940383 
L 164.553528 157.810023 
L 166.504577 138.374201 
L 166.770629 135.337777 
L 167.302734 128.730696 
L 167.834838 122.823642 
L 168.278258 118.778085 
L 170.317991 99.320181 
L 171.204832 93.793349 
L 171.914304 91.414054 
L 172.26904 90.898907 
L 172.446408 90.718171 
L 172.801144 90.381289 
L 172.978512 90.400592 
L 173.15588 90.79624 
L 173.954037 93.913558 
L 174.397457 97.12496 
L 174.663509 98.887228 
L 175.639034 112.259219 
L 176.791926 130.348052 
L 177.501399 140.98422 
L 178.299555 151.195237 
L 178.742975 155.345552 
L 180.250604 171.25611 
L 182.201653 186.273912 
L 182.733757 188.598804 
L 183.177177 189.620485 
L 183.265861 189.648808 
L 183.620598 189.09376 
L 183.797966 188.442796 
L 184.152702 185.727876 
L 184.507438 182.378149 
L 187.345327 142.774643 
L 188.320852 134.420542 
L 188.764272 132.327313 
L 189.207692 130.941348 
L 189.38506 131.536064 
L 189.739797 132.776081 
L 190.005849 133.215133 
L 190.271901 134.312511 
L 190.537953 135.188281 
L 190.804005 135.831201 
L 191.956898 139.769321 
L 192.311634 140.794437 
L 192.843738 142.559675 
L 193.021106 142.394658 
L 194.085315 139.510291 
L 194.440051 138.525568 
L 194.706103 138.146461 
L 195.504259 136.22561 
L 196.923204 133.752414 
L 199.140305 129.325124 
L 199.406357 129.288866 
L 199.938462 129.514104 
L 200.470566 130.292354 
L 201.00267 130.349233 
L 201.978195 131.430958 
L 202.510299 132.363964 
L 203.219771 133.661511 
L 203.397139 133.742844 
L 203.929243 133.599556 
L 205.259504 131.73674 
L 206.412397 130.92857 
L 207.033185 131.30381 
L 207.299237 131.626404 
L 208.806866 134.219352 
L 209.427654 133.30492 
L 210.137127 130.912748 
L 210.669231 128.742959 
L 211.201335 127.753008 
L 211.467387 127.717202 
L 211.910807 128.056105 
L 212.265544 127.981247 
L 212.797648 128.365782 
L 213.241068 128.219708 
L 213.595804 128.157065 
L 214.748697 127.48073 
L 216.34501 125.984622 
L 216.522378 126.138992 
L 216.699746 126.082039 
L 217.586586 128.912229 
L 217.852638 129.988727 
L 217.941322 129.694193 
L 218.11869 128.499632 
L 218.207374 128.466187 
L 218.296058 128.595262 
L 218.650795 131.297749 
L 218.739479 131.251857 
L 218.828163 131.181763 
L 219.094215 129.895232 
L 219.182899 130.059613 
L 219.271583 130.130128 
L 219.360267 130.434748 
L 219.448951 130.387655 
L 219.626319 129.367973 
L 219.803687 128.459016 
L 220.069739 128.135373 
L 220.335791 127.013397 
L 220.424476 127.079204 
L 220.51316 127.146022 
L 220.779212 127.527687 
L 221.045264 127.692066 
L 221.4 129.471343 
L 221.488684 129.447309 
L 221.666052 129.382356 
L 221.754736 129.565016 
L 222.109472 131.470599 
L 222.198156 131.55608 
L 222.28684 131.372457 
L 222.375524 131.427531 
L 222.552893 131.525088 
L 222.818945 132.821082 
L 223.173681 135.428613 
L 223.351049 135.726167 
L 223.617101 135.336748 
L 223.705785 135.400244 
L 223.794469 135.453441 
L 223.883153 135.270288 
L 224.060521 135.454101 
L 224.149205 135.296982 
L 224.68131 132.43907 
L 225.213414 135.3714 
L 225.390782 135.516991 
L 225.745518 136.30532 
L 225.834202 136.393033 
L 225.922886 136.654058 
L 226.45499 140.088323 
L 226.721043 141.300366 
L 226.809727 141.144471 
L 226.987095 140.606663 
L 227.341831 141.645906 
L 227.430515 141.520936 
L 227.519199 141.363928 
L 227.607883 141.431922 
L 227.696567 141.634937 
L 228.051303 143.259961 
L 228.139987 143.232829 
L 228.406039 143.817016 
L 228.760776 146.557914 
L 229.026828 148.400203 
L 229.204196 148.121119 
L 229.647616 146.414361 
L 230.002352 143.297169 
L 230.091036 143.414658 
L 230.445772 144.875332 
L 230.534456 144.926643 
L 230.711825 144.080398 
L 230.977877 142.835176 
L 231.243929 142.346038 
L 231.509981 142.696497 
L 231.598665 142.812199 
L 231.864717 143.505823 
L 232.308137 142.729891 
L 232.485505 142.645927 
L 232.840242 143.330992 
L 232.928926 143.212372 
L 233.283662 142.89313 
L 233.815766 142.738127 
L 233.993134 143.232111 
L 234.436554 144.810784 
L 235.234711 146.452887 
L 235.589447 148.537926 
L 236.121551 151.109439 
L 236.476287 151.910267 
L 236.831024 152.387294 
L 237.18576 152.383599 
L 238.0726 151.733072 
L 238.338652 151.889688 
L 238.693388 152.628481 
L 239.314177 154.616931 
L 239.934965 156.426502 
L 240.733121 157.470301 
L 241.265226 158.795145 
L 241.619962 158.694771 
L 241.886014 158.238486 
L 242.24075 157.204252 
L 243.304959 153.734763 
L 243.659695 153.028955 
L 243.925747 152.952192 
L 244.103115 153.027345 
L 244.457851 153.561797 
L 244.723903 154.306516 
L 245.167324 156.319623 
L 246.142848 161.281265 
L 247.029688 163.40257 
L 247.295741 163.636389 
L 247.473109 163.489403 
L 247.827845 162.536662 
L 248.448633 160.844608 
L 249.069421 159.727328 
L 249.335474 159.521951 
L 249.69021 159.430208 
L 249.867578 159.302132 
L 250.044946 159.42708 
L 250.222314 159.145346 
L 250.843102 157.026119 
L 251.286523 154.602523 
L 252.439415 146.683196 
L 252.705467 146.303028 
L 253.148887 146.670412 
L 253.41494 146.487131 
L 253.85836 146.939627 
L 254.213096 146.712963 
L 254.833884 147.240799 
L 255.011252 147.391849 
L 255.365989 148.380622 
L 255.720725 148.970736 
L 256.075461 149.460702 
L 256.164145 149.369584 
L 256.696249 147.640326 
L 256.784933 147.713996 
L 256.962301 148.344574 
L 257.139669 150.007767 
L 257.494406 153.612121 
L 257.671774 154.011443 
L 257.849142 152.964629 
L 258.292562 148.361739 
L 258.558614 147.51908 
L 258.735982 148.055358 
L 259.179402 150.002143 
L 260.066243 153.930882 
L 260.509663 153.648033 
L 260.598347 153.800655 
L 260.687031 153.717761 
L 261.307819 152.082938 
L 261.573872 152.299503 
L 261.662556 152.305158 
L 261.928608 151.46031 
L 262.460712 148.217473 
L 262.549396 148.46847 
L 263.258868 152.028753 
L 263.436236 151.458885 
L 263.968341 148.339432 
L 264.323077 146.79991 
L 264.677813 146.278054 
L 265.032549 146.474782 
L 265.209917 146.508473 
L 265.653338 147.047399 
L 266.096758 147.413404 
L 266.274126 147.361132 
L 266.80623 146.892952 
L 267.072282 146.992968 
L 267.24965 146.649349 
L 267.781755 144.033997 
L 271.329116 122.995268 
L 271.683853 122.183823 
L 271.949905 122.224946 
L 272.215957 122.537377 
L 272.925429 123.804947 
L 274.078322 126.243833 
L 275.053846 127.892084 
L 275.319898 127.807206 
L 275.852003 127.398918 
L 276.118055 127.637063 
L 276.827527 128.555327 
L 277.182263 129.021826 
L 277.359631 129.101566 
L 277.98042 128.88664 
L 278.246472 128.715187 
L 278.601208 128.554537 
L 278.778576 128.306568 
L 279.31068 127.443111 
L 279.665416 126.739082 
L 280.108837 125.848589 
L 281.173045 124.257768 
L 281.793833 123.628805 
L 282.059886 123.513395 
L 282.325938 123.51145 
L 283.03541 122.488265 
L 283.567514 121.45991 
L 283.92225 120.628968 
L 284.188303 120.985177 
L 284.276987 121.121045 
L 284.631723 120.719255 
L 284.720407 120.478431 
L 284.809091 120.540727 
L 285.429879 122.044632 
L 285.518563 121.688416 
L 285.695931 122.433298 
L 285.873299 123.062364 
L 285.961983 122.956688 
L 286.139352 122.105348 
L 286.228036 122.466987 
L 286.671456 125.940331 
L 286.76014 126.129495 
L 286.848824 126.067773 
L 286.937508 126.02917 
L 287.114876 126.371583 
L 287.292244 126.22328 
L 287.824348 127.123206 
L 288.001716 127.257386 
L 288.267769 126.532336 
L 288.356453 126.40045 
L 288.622505 127.331437 
L 288.799873 127.231395 
L 288.977241 127.387375 
L 289.331977 128.99958 
L 289.775397 134.073171 
L 289.864081 133.882878 
L 290.041449 134.007707 
L 290.130134 133.642828 
L 290.218818 133.853556 
L 290.839606 138.153431 
L 291.016974 137.972283 
L 291.105658 137.665024 
L 291.194342 138.291449 
L 291.549078 142.886546 
L 291.726446 143.517845 
L 291.81513 143.363573 
L 291.903814 142.647649 
L 291.992498 142.938793 
L 292.435919 148.00635 
L 292.613287 146.322544 
L 292.790655 144.81754 
L 292.968023 149.870624 
L 293.056707 149.111954 
L 293.145391 149.421056 
L 293.322759 153.645396 
L 293.500127 151.374561 
L 293.854863 156.670191 
L 293.943547 156.471147 
L 294.298284 152.602038 
L 294.741704 157.303644 
L 295.007756 161.66317 
L 295.185124 163.295294 
L 295.628544 168.580562 
L 295.98328 172.539949 
L 296.426701 180.231278 
L 296.692753 181.745849 
L 296.870121 182.686165 
L 298.111697 192.306894 
L 298.82117 198.212887 
L 299.26459 200.576208 
L 299.619326 201.719102 
L 299.70801 201.901839 
L 299.885378 201.891686 
L 300.062746 202.053279 
L 300.240114 201.915329 
L 300.417483 201.824824 
L 300.683535 201.06262 
L 300.949587 199.68409 
L 301.393007 194.963524 
L 302.013795 187.259437 
L 302.102479 187.028808 
L 302.279847 185.049031 
L 302.723268 179.211601 
L 302.900636 177.035653 
L 303.43274 164.700008 
L 303.610108 163.245819 
L 303.87616 157.103137 
L 304.230896 149.895889 
L 304.31958 149.933088 
L 304.408264 149.728098 
L 304.585633 146.698901 
L 304.940369 136.814358 
L 305.206421 132.635909 
L 305.827209 119.236953 
L 307.689574 93.277689 
L 307.955626 89.721952 
L 308.399046 85.702458 
L 309.019835 82.487932 
L 309.108519 82.407273 
L 309.640623 83.139454 
L 309.995359 84.468639 
L 310.527463 87.366527 
L 311.059568 91.334457 
L 312.035092 101.510668 
L 314.518245 135.14072 
L 315.05035 138.438705 
L 315.49377 139.663639 
L 315.759822 139.87064 
L 316.025874 139.724542 
L 316.38061 139.156231 
L 317.090083 137.608566 
L 318.154291 134.846954 
L 318.686395 132.688271 
L 319.66192 127.565844 
L 320.016656 126.41091 
L 320.371392 125.967985 
L 320.726128 125.963328 
L 321.967705 127.336012 
L 322.233757 128.072983 
L 322.499809 129.463962 
L 322.854545 133.0305 
L 323.652702 142.251028 
L 323.918754 143.000505 
L 324.27349 142.992247 
L 324.628226 142.606402 
L 324.982962 141.143797 
L 325.958487 135.592046 
L 326.579275 135.023003 
L 327.11138 133.426735 
L 327.377432 132.878902 
L 327.820852 131.100693 
L 328.175588 130.209111 
L 328.44164 130.024245 
L 328.796376 130.254178 
L 328.973744 130.978531 
L 329.683217 136.510445 
L 330.215321 140.243073 
L 330.481373 140.692869 
L 330.570057 140.72195 
L 330.747425 140.329384 
L 331.456898 137.513813 
L 331.811634 137.098984 
L 332.16637 136.944567 
L 332.875842 137.696991 
L 333.05321 138.509867 
L 333.407947 140.332224 
L 333.496631 140.203151 
L 334.383471 136.795566 
L 335.181627 134.996729 
L 335.802416 134.115612 
L 335.979784 134.141966 
L 336.245836 134.678849 
L 336.77794 136.0839 
L 337.043992 136.737084 
L 337.842149 135.684726 
L 338.108201 135.621544 
L 338.462937 135.576961 
L 338.906357 136.095074 
L 339.172409 136.600818 
L 339.438462 136.284537 
L 339.793198 136.363802 
L 339.970566 136.59974 
L 340.05925 136.47119 
L 340.236618 136.527816 
L 340.768722 136.350749 
L 343.872664 135.649724 
L 344.67082 135.503641 
L 345.380292 135.416665 
L 346.887921 135.313105 
L 353.273172 135.054354 
L 359.037635 135.120543 
L 360.101844 135.136076 
L 361.254736 135.208761 
L 362.318945 135.208129 
L 363.117101 135.230198 
L 368.881564 135.486755 
L 370.655245 135.580309 
L 371.009981 135.610605 
L 371.009981 135.610605 
" style="fill:none;stroke:#ff7f0e;stroke-linecap:square;stroke-width:1.5;"/>
   </g>
   <g id="patch_3">
    <path d="M 54 210.24 
L 54 76.32 
" style="fill:none;stroke:#000000;stroke-linecap:square;stroke-linejoin:miter;stroke-width:0.8;"/>
   </g>
   <g id="patch_4">
    <path d="M 388.8 210.24 
L 388.8 76.32 
" style="fill:none;stroke:#000000;stroke-linecap:square;stroke-linejoin:miter;stroke-width:0.8;"/>
   </g>
   <g id="patch_5">
    <path d="M 54 210.24 
L 388.8 210.24 
" style="fill:none;stroke:#000000;stroke-linecap:square;stroke-linejoin:miter;stroke-width:0.8;"/>
   </g>
   <g id="patch_6">
    <path d="M 54 76.32 
L 388.8 76.32 
" style="fill:none;stroke:#000000;stroke-linecap:square;stroke-linejoin:miter;stroke-width:0.8;"/>
   </g>
   <g id="text_12">
    <!-- Roll -->
    <defs>
     <path d="M 44.390625 34.1875 
Q 47.5625 33.109375 50.5625 29.59375 
Q 53.5625 26.078125 56.59375 19.921875 
L 66.609375 0 
L 56 0 
L 46.6875 18.703125 
Q 43.0625 26.03125 39.671875 28.421875 
Q 36.28125 30.8125 30.421875 30.8125 
L 19.671875 30.8125 
L 19.671875 0 
L 9.8125 0 
L 9.8125 72.90625 
L 32.078125 72.90625 
Q 44.578125 72.90625 50.734375 67.671875 
Q 56.890625 62.453125 56.890625 51.90625 
Q 56.890625 45.015625 53.6875 40.46875 
Q 50.484375 35.9375 44.390625 34.1875 
z
M 19.671875 64.796875 
L 19.671875 38.921875 
L 32.078125 38.921875 
Q 39.203125 38.921875 42.84375 42.21875 
Q 46.484375 45.515625 46.484375 51.90625 
Q 46.484375 58.296875 42.84375 61.546875 
Q 39.203125 64.796875 32.078125 64.796875 
z
" id="DejaVuSans-82"/>
     <path d="M 30.609375 48.390625 
Q 23.390625 48.390625 19.1875 42.75 
Q 14.984375 37.109375 14.984375 27.296875 
Q 14.984375 17.484375 19.15625 11.84375 
Q 23.34375 6.203125 30.609375 6.203125 
Q 37.796875 6.203125 41.984375 11.859375 
Q 46.1875 17.53125 46.1875 27.296875 
Q 46.1875 37.015625 41.984375 42.703125 
Q 37.796875 48.390625 30.609375 48.390625 
z
M 30.609375 56 
Q 42.328125 56 49.015625 48.375 
Q 55.71875 40.765625 55.71875 27.296875 
Q 55.71875 13.875 49.015625 6.21875 
Q 42.328125 -1.421875 30.609375 -1.421875 
Q 18.84375 -1.421875 12.171875 6.21875 
Q 5.515625 13.875 5.515625 27.296875 
Q 5.515625 40.765625 12.171875 48.375 
Q 18.84375 56 30.609375 56 
z
" id="DejaVuSans-111"/>
     <path d="M 9.421875 75.984375 
L 18.40625 75.984375 
L 18.40625 0 
L 9.421875 0 
z
" id="DejaVuSans-108"/>
    </defs>
    <g transform="translate(210.229688 70.32)scale(0.12 -0.12)">
     <use xlink:href="#DejaVuSans-82"/>
     <use x="69.419922" xlink:href="#DejaVuSans-111"/>
     <use x="130.601562" xlink:href="#DejaVuSans-108"/>
     <use x="158.384766" xlink:href="#DejaVuSans-108"/>
    </g>
   </g>
   <g id="legend_1">
    <g id="patch_7">
     <path d="M 61 113.67625 
L 143.351562 113.67625 
Q 145.351562 113.67625 145.351562 111.67625 
L 145.351562 83.32 
Q 145.351562 81.32 143.351562 81.32 
L 61 81.32 
Q 59 81.32 59 83.32 
L 59 111.67625 
Q 59 113.67625 61 113.67625 
z
" style="fill:#ffffff;opacity:0.8;stroke:#cccccc;stroke-linejoin:miter;"/>
    </g>
    <g id="line2d_14">
     <path d="M 63 89.418437 
L 83 89.418437 
" style="fill:none;stroke:#1f77b4;stroke-linecap:square;stroke-width:1.5;"/>
    </g>
    <g id="line2d_15"/>
    <g id="text_13">
     <!-- vicon -->
     <defs>
      <path d="M 2.984375 54.6875 
L 12.5 54.6875 
L 29.59375 8.796875 
L 46.6875 54.6875 
L 56.203125 54.6875 
L 35.6875 0 
L 23.484375 0 
z
" id="DejaVuSans-118"/>
      <path d="M 9.421875 54.6875 
L 18.40625 54.6875 
L 18.40625 0 
L 9.421875 0 
z
M 9.421875 75.984375 
L 18.40625 75.984375 
L 18.40625 64.59375 
L 9.421875 64.59375 
z
" id="DejaVuSans-105"/>
      <path d="M 48.78125 52.59375 
L 48.78125 44.1875 
Q 44.96875 46.296875 41.140625 47.34375 
Q 37.3125 48.390625 33.40625 48.390625 
Q 24.65625 48.390625 19.8125 42.84375 
Q 14.984375 37.3125 14.984375 27.296875 
Q 14.984375 17.28125 19.8125 11.734375 
Q 24.65625 6.203125 33.40625 6.203125 
Q 37.3125 6.203125 41.140625 7.25 
Q 44.96875 8.296875 48.78125 10.40625 
L 48.78125 2.09375 
Q 45.015625 0.34375 40.984375 -0.53125 
Q 36.96875 -1.421875 32.421875 -1.421875 
Q 20.0625 -1.421875 12.78125 6.34375 
Q 5.515625 14.109375 5.515625 27.296875 
Q 5.515625 40.671875 12.859375 48.328125 
Q 20.21875 56 33.015625 56 
Q 37.15625 56 41.109375 55.140625 
Q 45.0625 54.296875 48.78125 52.59375 
z
" id="DejaVuSans-99"/>
      <path d="M 54.890625 33.015625 
L 54.890625 0 
L 45.90625 0 
L 45.90625 32.71875 
Q 45.90625 40.484375 42.875 44.328125 
Q 39.84375 48.1875 33.796875 48.1875 
Q 26.515625 48.1875 22.3125 43.546875 
Q 18.109375 38.921875 18.109375 30.90625 
L 18.109375 0 
L 9.078125 0 
L 9.078125 54.6875 
L 18.109375 54.6875 
L 18.109375 46.1875 
Q 21.34375 51.125 25.703125 53.5625 
Q 30.078125 56 35.796875 56 
Q 45.21875 56 50.046875 50.171875 
Q 54.890625 44.34375 54.890625 33.015625 
z
" id="DejaVuSans-110"/>
     </defs>
     <g transform="translate(91 92.918437)scale(0.1 -0.1)">
      <use xlink:href="#DejaVuSans-118"/>
      <use x="59.179688" xlink:href="#DejaVuSans-105"/>
      <use x="86.962891" xlink:href="#DejaVuSans-99"/>
      <use x="141.943359" xlink:href="#DejaVuSans-111"/>
      <use x="203.125" xlink:href="#DejaVuSans-110"/>
     </g>
    </g>
    <g id="line2d_16">
     <path d="M 63 104.096562 
L 83 104.096562 
" style="fill:none;stroke:#ff7f0e;stroke-linecap:square;stroke-width:1.5;"/>
    </g>
    <g id="line2d_17"/>
    <g id="text_14">
     <!-- estimated -->
     <defs>
      <path d="M 56.203125 29.59375 
L 56.203125 25.203125 
L 14.890625 25.203125 
Q 15.484375 15.921875 20.484375 11.0625 
Q 25.484375 6.203125 34.421875 6.203125 
Q 39.59375 6.203125 44.453125 7.46875 
Q 49.3125 8.734375 54.109375 11.28125 
L 54.109375 2.78125 
Q 49.265625 0.734375 44.1875 -0.34375 
Q 39.109375 -1.421875 33.890625 -1.421875 
Q 20.796875 -1.421875 13.15625 6.1875 
Q 5.515625 13.8125 5.515625 26.8125 
Q 5.515625 40.234375 12.765625 48.109375 
Q 20.015625 56 32.328125 56 
Q 43.359375 56 49.78125 48.890625 
Q 56.203125 41.796875 56.203125 29.59375 
z
M 47.21875 32.234375 
Q 47.125 39.59375 43.09375 43.984375 
Q 39.0625 48.390625 32.421875 48.390625 
Q 24.90625 48.390625 20.390625 44.140625 
Q 15.875 39.890625 15.1875 32.171875 
z
" id="DejaVuSans-101"/>
      <path d="M 44.28125 53.078125 
L 44.28125 44.578125 
Q 40.484375 46.53125 36.375 47.5 
Q 32.28125 48.484375 27.875 48.484375 
Q 21.1875 48.484375 17.84375 46.4375 
Q 14.5 44.390625 14.5 40.28125 
Q 14.5 37.15625 16.890625 35.375 
Q 19.28125 33.59375 26.515625 31.984375 
L 29.59375 31.296875 
Q 39.15625 29.25 43.1875 25.515625 
Q 47.21875 21.78125 47.21875 15.09375 
Q 47.21875 7.46875 41.1875 3.015625 
Q 35.15625 -1.421875 24.609375 -1.421875 
Q 20.21875 -1.421875 15.453125 -0.5625 
Q 10.6875 0.296875 5.421875 2 
L 5.421875 11.28125 
Q 10.40625 8.6875 15.234375 7.390625 
Q 20.0625 6.109375 24.8125 6.109375 
Q 31.15625 6.109375 34.5625 8.28125 
Q 37.984375 10.453125 37.984375 14.40625 
Q 37.984375 18.0625 35.515625 20.015625 
Q 33.0625 21.96875 24.703125 23.78125 
L 21.578125 24.515625 
Q 13.234375 26.265625 9.515625 29.90625 
Q 5.8125 33.546875 5.8125 39.890625 
Q 5.8125 47.609375 11.28125 51.796875 
Q 16.75 56 26.8125 56 
Q 31.78125 56 36.171875 55.265625 
Q 40.578125 54.546875 44.28125 53.078125 
z
" id="DejaVuSans-115"/>
      <path d="M 18.3125 70.21875 
L 18.3125 54.6875 
L 36.8125 54.6875 
L 36.8125 47.703125 
L 18.3125 47.703125 
L 18.3125 18.015625 
Q 18.3125 11.328125 20.140625 9.421875 
Q 21.96875 7.515625 27.59375 7.515625 
L 36.8125 7.515625 
L 36.8125 0 
L 27.59375 0 
Q 17.1875 0 13.234375 3.875 
Q 9.28125 7.765625 9.28125 18.015625 
L 9.28125 47.703125 
L 2.6875 47.703125 
L 2.6875 54.6875 
L 9.28125 54.6875 
L 9.28125 70.21875 
z
" id="DejaVuSans-116"/>
      <path d="M 52 44.1875 
Q 55.375 50.25 60.0625 53.125 
Q 64.75 56 71.09375 56 
Q 79.640625 56 84.28125 50.015625 
Q 88.921875 44.046875 88.921875 33.015625 
L 88.921875 0 
L 79.890625 0 
L 79.890625 32.71875 
Q 79.890625 40.578125 77.09375 44.375 
Q 74.3125 48.1875 68.609375 48.1875 
Q 61.625 48.1875 57.5625 43.546875 
Q 53.515625 38.921875 53.515625 30.90625 
L 53.515625 0 
L 44.484375 0 
L 44.484375 32.71875 
Q 44.484375 40.625 41.703125 44.40625 
Q 38.921875 48.1875 33.109375 48.1875 
Q 26.21875 48.1875 22.15625 43.53125 
Q 18.109375 38.875 18.109375 30.90625 
L 18.109375 0 
L 9.078125 0 
L 9.078125 54.6875 
L 18.109375 54.6875 
L 18.109375 46.1875 
Q 21.1875 51.21875 25.484375 53.609375 
Q 29.78125 56 35.6875 56 
Q 41.65625 56 45.828125 52.96875 
Q 50 49.953125 52 44.1875 
z
" id="DejaVuSans-109"/>
      <path d="M 34.28125 27.484375 
Q 23.390625 27.484375 19.1875 25 
Q 14.984375 22.515625 14.984375 16.5 
Q 14.984375 11.71875 18.140625 8.90625 
Q 21.296875 6.109375 26.703125 6.109375 
Q 34.1875 6.109375 38.703125 11.40625 
Q 43.21875 16.703125 43.21875 25.484375 
L 43.21875 27.484375 
z
M 52.203125 31.203125 
L 52.203125 0 
L 43.21875 0 
L 43.21875 8.296875 
Q 40.140625 3.328125 35.546875 0.953125 
Q 30.953125 -1.421875 24.3125 -1.421875 
Q 15.921875 -1.421875 10.953125 3.296875 
Q 6 8.015625 6 15.921875 
Q 6 25.140625 12.171875 29.828125 
Q 18.359375 34.515625 30.609375 34.515625 
L 43.21875 34.515625 
L 43.21875 35.40625 
Q 43.21875 41.609375 39.140625 45 
Q 35.0625 48.390625 27.6875 48.390625 
Q 23 48.390625 18.546875 47.265625 
Q 14.109375 46.140625 10.015625 43.890625 
L 10.015625 52.203125 
Q 14.9375 54.109375 19.578125 55.046875 
Q 24.21875 56 28.609375 56 
Q 40.484375 56 46.34375 49.84375 
Q 52.203125 43.703125 52.203125 31.203125 
z
" id="DejaVuSans-97"/>
      <path d="M 45.40625 46.390625 
L 45.40625 75.984375 
L 54.390625 75.984375 
L 54.390625 0 
L 45.40625 0 
L 45.40625 8.203125 
Q 42.578125 3.328125 38.25 0.953125 
Q 33.9375 -1.421875 27.875 -1.421875 
Q 17.96875 -1.421875 11.734375 6.484375 
Q 5.515625 14.40625 5.515625 27.296875 
Q 5.515625 40.1875 11.734375 48.09375 
Q 17.96875 56 27.875 56 
Q 33.9375 56 38.25 53.625 
Q 42.578125 51.265625 45.40625 46.390625 
z
M 14.796875 27.296875 
Q 14.796875 17.390625 18.875 11.75 
Q 22.953125 6.109375 30.078125 6.109375 
Q 37.203125 6.109375 41.296875 11.75 
Q 45.40625 17.390625 45.40625 27.296875 
Q 45.40625 37.203125 41.296875 42.84375 
Q 37.203125 48.484375 30.078125 48.484375 
Q 22.953125 48.484375 18.875 42.84375 
Q 14.796875 37.203125 14.796875 27.296875 
z
" id="DejaVuSans-100"/>
     </defs>
     <g transform="translate(91 107.596562)scale(0.1 -0.1)">
      <use xlink:href="#DejaVuSans-101"/>
      <use x="61.523438" xlink:href="#DejaVuSans-115"/>
      <use x="113.623047" xlink:href="#DejaVuSans-116"/>
      <use x="152.832031" xlink:href="#DejaVuSans-105"/>
      <use x="180.615234" xlink:href="#DejaVuSans-109"/>
      <use x="278.027344" xlink:href="#DejaVuSans-97"/>
      <use x="339.306641" xlink:href="#DejaVuSans-116"/>
      <use x="378.515625" xlink:href="#DejaVuSans-101"/>
      <use x="440.039062" xlink:href="#DejaVuSans-100"/>
     </g>
    </g>
   </g>
  </g>
 </g>
 <defs>
  <clipPath id="pd70e864080">
   <rect height="133.92" width="334.8" x="54" y="76.32"/>
  </clipPath>
 </defs>
</svg>
