<?xml version="1.0" encoding="utf-8" standalone="no"?>
<!DOCTYPE svg PUBLIC "-//W3C//DTD SVG 1.1//EN"
  "http://www.w3.org/Graphics/SVG/1.1/DTD/svg11.dtd">
<!-- Created with matplotlib (https://matplotlib.org/) -->
<svg height="288pt" version="1.1" viewBox="0 0 432 288" width="432pt" xmlns="http://www.w3.org/2000/svg" xmlns:xlink="http://www.w3.org/1999/xlink">
 <defs>
  <style type="text/css">
*{stroke-linecap:butt;stroke-linejoin:round;}
  </style>
 </defs>
 <g id="figure_1">
  <g id="patch_1">
   <path d="M 0 288 
L 432 288 
L 432 0 
L 0 0 
z
" style="fill:#ffffff;"/>
  </g>
  <g id="axes_1">
   <g id="patch_2">
    <path d="M 54 210.24 
L 388.8 210.24 
L 388.8 76.32 
L 54 76.32 
z
" style="fill:#ffffff;"/>
   </g>
   <g id="matplotlib.axis_1">
    <g id="xtick_1">
     <g id="line2d_1">
      <defs>
       <path d="M 0 0 
L 0 3.5 
" id="mfec66e9471" style="stroke:#000000;stroke-width:0.8;"/>
      </defs>
      <g>
       <use style="stroke:#000000;stroke-width:0.8;" x="69.218182" xlink:href="#mfec66e9471" y="210.24"/>
      </g>
     </g>
     <g id="text_1">
      <!-- 0 -->
      <defs>
       <path d="M 31.78125 66.40625 
Q 24.171875 66.40625 20.328125 58.90625 
Q 16.5 51.421875 16.5 36.375 
Q 16.5 21.390625 20.328125 13.890625 
Q 24.171875 6.390625 31.78125 6.390625 
Q 39.453125 6.390625 43.28125 13.890625 
Q 47.125 21.390625 47.125 36.375 
Q 47.125 51.421875 43.28125 58.90625 
Q 39.453125 66.40625 31.78125 66.40625 
z
M 31.78125 74.21875 
Q 44.046875 74.21875 50.515625 64.515625 
Q 56.984375 54.828125 56.984375 36.375 
Q 56.984375 17.96875 50.515625 8.265625 
Q 44.046875 -1.421875 31.78125 -1.421875 
Q 19.53125 -1.421875 13.0625 8.265625 
Q 6.59375 17.96875 6.59375 36.375 
Q 6.59375 54.828125 13.0625 64.515625 
Q 19.53125 74.21875 31.78125 74.21875 
z
" id="DejaVuSans-48"/>
      </defs>
      <g transform="translate(66.036932 224.838437)scale(0.1 -0.1)">
       <use xlink:href="#DejaVuSans-48"/>
      </g>
     </g>
    </g>
    <g id="xtick_2">
     <g id="line2d_2">
      <g>
       <use style="stroke:#000000;stroke-width:0.8;" x="123.14512" xlink:href="#mfec66e9471" y="210.24"/>
      </g>
     </g>
     <g id="text_2">
      <!-- 1000 -->
      <defs>
       <path d="M 12.40625 8.296875 
L 28.515625 8.296875 
L 28.515625 63.921875 
L 10.984375 60.40625 
L 10.984375 69.390625 
L 28.421875 72.90625 
L 38.28125 72.90625 
L 38.28125 8.296875 
L 54.390625 8.296875 
L 54.390625 0 
L 12.40625 0 
z
" id="DejaVuSans-49"/>
      </defs>
      <g transform="translate(110.42012 224.838437)scale(0.1 -0.1)">
       <use xlink:href="#DejaVuSans-49"/>
       <use x="63.623047" xlink:href="#DejaVuSans-48"/>
       <use x="127.246094" xlink:href="#DejaVuSans-48"/>
       <use x="190.869141" xlink:href="#DejaVuSans-48"/>
      </g>
     </g>
    </g>
    <g id="xtick_3">
     <g id="line2d_3">
      <g>
       <use style="stroke:#000000;stroke-width:0.8;" x="177.072057" xlink:href="#mfec66e9471" y="210.24"/>
      </g>
     </g>
     <g id="text_3">
      <!-- 2000 -->
      <defs>
       <path d="M 19.1875 8.296875 
L 53.609375 8.296875 
L 53.609375 0 
L 7.328125 0 
L 7.328125 8.296875 
Q 12.9375 14.109375 22.625 23.890625 
Q 32.328125 33.6875 34.8125 36.53125 
Q 39.546875 41.84375 41.421875 45.53125 
Q 43.3125 49.21875 43.3125 52.78125 
Q 43.3125 58.59375 39.234375 62.25 
Q 35.15625 65.921875 28.609375 65.921875 
Q 23.96875 65.921875 18.8125 64.3125 
Q 13.671875 62.703125 7.8125 59.421875 
L 7.8125 69.390625 
Q 13.765625 71.78125 18.9375 73 
Q 24.125 74.21875 28.421875 74.21875 
Q 39.75 74.21875 46.484375 68.546875 
Q 53.21875 62.890625 53.21875 53.421875 
Q 53.21875 48.921875 51.53125 44.890625 
Q 49.859375 40.875 45.40625 35.40625 
Q 44.1875 33.984375 37.640625 27.21875 
Q 31.109375 20.453125 19.1875 8.296875 
z
" id="DejaVuSans-50"/>
      </defs>
      <g transform="translate(164.347057 224.838437)scale(0.1 -0.1)">
       <use xlink:href="#DejaVuSans-50"/>
       <use x="63.623047" xlink:href="#DejaVuSans-48"/>
       <use x="127.246094" xlink:href="#DejaVuSans-48"/>
       <use x="190.869141" xlink:href="#DejaVuSans-48"/>
      </g>
     </g>
    </g>
    <g id="xtick_4">
     <g id="line2d_4">
      <g>
       <use style="stroke:#000000;stroke-width:0.8;" x="230.998995" xlink:href="#mfec66e9471" y="210.24"/>
      </g>
     </g>
     <g id="text_4">
      <!-- 3000 -->
      <defs>
       <path d="M 40.578125 39.3125 
Q 47.65625 37.796875 51.625 33 
Q 55.609375 28.21875 55.609375 21.1875 
Q 55.609375 10.40625 48.1875 4.484375 
Q 40.765625 -1.421875 27.09375 -1.421875 
Q 22.515625 -1.421875 17.65625 -0.515625 
Q 12.796875 0.390625 7.625 2.203125 
L 7.625 11.71875 
Q 11.71875 9.328125 16.59375 8.109375 
Q 21.484375 6.890625 26.8125 6.890625 
Q 36.078125 6.890625 40.9375 10.546875 
Q 45.796875 14.203125 45.796875 21.1875 
Q 45.796875 27.640625 41.28125 31.265625 
Q 36.765625 34.90625 28.71875 34.90625 
L 20.21875 34.90625 
L 20.21875 43.015625 
L 29.109375 43.015625 
Q 36.375 43.015625 40.234375 45.921875 
Q 44.09375 48.828125 44.09375 54.296875 
Q 44.09375 59.90625 40.109375 62.90625 
Q 36.140625 65.921875 28.71875 65.921875 
Q 24.65625 65.921875 20.015625 65.03125 
Q 15.375 64.15625 9.8125 62.3125 
L 9.8125 71.09375 
Q 15.4375 72.65625 20.34375 73.4375 
Q 25.25 74.21875 29.59375 74.21875 
Q 40.828125 74.21875 47.359375 69.109375 
Q 53.90625 64.015625 53.90625 55.328125 
Q 53.90625 49.265625 50.4375 45.09375 
Q 46.96875 40.921875 40.578125 39.3125 
z
" id="DejaVuSans-51"/>
      </defs>
      <g transform="translate(218.273995 224.838437)scale(0.1 -0.1)">
       <use xlink:href="#DejaVuSans-51"/>
       <use x="63.623047" xlink:href="#DejaVuSans-48"/>
       <use x="127.246094" xlink:href="#DejaVuSans-48"/>
       <use x="190.869141" xlink:href="#DejaVuSans-48"/>
      </g>
     </g>
    </g>
    <g id="xtick_5">
     <g id="line2d_5">
      <g>
       <use style="stroke:#000000;stroke-width:0.8;" x="284.925933" xlink:href="#mfec66e9471" y="210.24"/>
      </g>
     </g>
     <g id="text_5">
      <!-- 4000 -->
      <defs>
       <path d="M 37.796875 64.3125 
L 12.890625 25.390625 
L 37.796875 25.390625 
z
M 35.203125 72.90625 
L 47.609375 72.90625 
L 47.609375 25.390625 
L 58.015625 25.390625 
L 58.015625 17.1875 
L 47.609375 17.1875 
L 47.609375 0 
L 37.796875 0 
L 37.796875 17.1875 
L 4.890625 17.1875 
L 4.890625 26.703125 
z
" id="DejaVuSans-52"/>
      </defs>
      <g transform="translate(272.200933 224.838437)scale(0.1 -0.1)">
       <use xlink:href="#DejaVuSans-52"/>
       <use x="63.623047" xlink:href="#DejaVuSans-48"/>
       <use x="127.246094" xlink:href="#DejaVuSans-48"/>
       <use x="190.869141" xlink:href="#DejaVuSans-48"/>
      </g>
     </g>
    </g>
    <g id="xtick_6">
     <g id="line2d_6">
      <g>
       <use style="stroke:#000000;stroke-width:0.8;" x="338.85287" xlink:href="#mfec66e9471" y="210.24"/>
      </g>
     </g>
     <g id="text_6">
      <!-- 5000 -->
      <defs>
       <path d="M 10.796875 72.90625 
L 49.515625 72.90625 
L 49.515625 64.59375 
L 19.828125 64.59375 
L 19.828125 46.734375 
Q 21.96875 47.46875 24.109375 47.828125 
Q 26.265625 48.1875 28.421875 48.1875 
Q 40.625 48.1875 47.75 41.5 
Q 54.890625 34.8125 54.890625 23.390625 
Q 54.890625 11.625 47.5625 5.09375 
Q 40.234375 -1.421875 26.90625 -1.421875 
Q 22.3125 -1.421875 17.546875 -0.640625 
Q 12.796875 0.140625 7.71875 1.703125 
L 7.71875 11.625 
Q 12.109375 9.234375 16.796875 8.0625 
Q 21.484375 6.890625 26.703125 6.890625 
Q 35.15625 6.890625 40.078125 11.328125 
Q 45.015625 15.765625 45.015625 23.390625 
Q 45.015625 31 40.078125 35.4375 
Q 35.15625 39.890625 26.703125 39.890625 
Q 22.75 39.890625 18.8125 39.015625 
Q 14.890625 38.140625 10.796875 36.28125 
z
" id="DejaVuSans-53"/>
      </defs>
      <g transform="translate(326.12787 224.838437)scale(0.1 -0.1)">
       <use xlink:href="#DejaVuSans-53"/>
       <use x="63.623047" xlink:href="#DejaVuSans-48"/>
       <use x="127.246094" xlink:href="#DejaVuSans-48"/>
       <use x="190.869141" xlink:href="#DejaVuSans-48"/>
      </g>
     </g>
    </g>
   </g>
   <g id="matplotlib.axis_2">
    <g id="ytick_1">
     <g id="line2d_7">
      <defs>
       <path d="M 0 0 
L -3.5 0 
" id="m24c1ee03a2" style="stroke:#000000;stroke-width:0.8;"/>
      </defs>
      <g>
       <use style="stroke:#000000;stroke-width:0.8;" x="54" xlink:href="#m24c1ee03a2" y="182.046635"/>
      </g>
     </g>
     <g id="text_7">
      <!-- −2 -->
      <defs>
       <path d="M 10.59375 35.5 
L 73.1875 35.5 
L 73.1875 27.203125 
L 10.59375 27.203125 
z
" id="DejaVuSans-8722"/>
      </defs>
      <g transform="translate(32.257812 185.845854)scale(0.1 -0.1)">
       <use xlink:href="#DejaVuSans-8722"/>
       <use x="83.789062" xlink:href="#DejaVuSans-50"/>
      </g>
     </g>
    </g>
    <g id="ytick_2">
     <g id="line2d_8">
      <g>
       <use style="stroke:#000000;stroke-width:0.8;" x="54" xlink:href="#m24c1ee03a2" y="143.284504"/>
      </g>
     </g>
     <g id="text_8">
      <!-- 0 -->
      <g transform="translate(40.6375 147.083723)scale(0.1 -0.1)">
       <use xlink:href="#DejaVuSans-48"/>
      </g>
     </g>
    </g>
    <g id="ytick_3">
     <g id="line2d_9">
      <g>
       <use style="stroke:#000000;stroke-width:0.8;" x="54" xlink:href="#m24c1ee03a2" y="104.522372"/>
      </g>
     </g>
     <g id="text_9">
      <!-- 2 -->
      <g transform="translate(40.6375 108.321591)scale(0.1 -0.1)">
       <use xlink:href="#DejaVuSans-50"/>
      </g>
     </g>
    </g>
   </g>
   <g id="line2d_10">
    <path clip-path="url(#p37c77900c0)" d="M 69.218182 143.19616 
L 69.757451 143.154175 
L 69.973159 143.151353 
L 70.13494 143.163765 
L 70.943844 143.151362 
L 71.267405 143.19367 
L 74.503022 143.139414 
L 74.772656 143.132943 
L 75.473707 143.193919 
L 75.689414 143.130009 
L 75.851195 143.158163 
L 76.282611 143.153611 
L 76.390465 143.192074 
L 76.552245 143.15345 
L 76.767953 143.198182 
L 78.22398 143.150617 
L 78.385761 143.155343 
L 81.998866 143.156796 
L 82.160647 143.144549 
L 82.322428 143.195509 
L 85.180555 143.144232 
L 85.396263 143.15395 
L 85.989459 143.192459 
L 87.715121 143.194239 
L 87.822975 143.199239 
L 88.901514 143.194127 
L 89.063295 143.192289 
L 91.382153 143.162521 
L 91.597861 143.161173 
L 91.813569 143.198614 
L 92.838181 143.164856 
L 93.107815 143.196757 
L 100.981148 143.204192 
L 101.574344 143.19853 
L 101.736125 143.155509 
L 101.897906 143.181977 
L 102.167541 143.136507 
L 107.182746 143.182148 
L 107.829869 143.180325 
L 109.070189 143.197545 
L 109.93302 143.201721 
L 112.03617 143.235808 
L 114.462883 143.685496 
L 116.350325 143.474059 
L 118.56133 143.6058 
L 118.830964 143.616684 
L 119.747722 143.390062 
L 120.66448 143.204027 
L 122.336215 143.312654 
L 122.659777 143.337345 
L 123.414754 143.129305 
L 123.954024 142.821964 
L 124.277585 142.659126 
L 125.194343 142.395344 
L 127.135713 141.493779 
L 127.998544 141.285345 
L 128.915302 141.257488 
L 130.371329 141.844769 
L 132.366626 142.472132 
L 135.548315 142.233738 
L 135.871877 142.386054 
L 137.058269 142.84982 
L 137.597539 142.799057 
L 138.352516 142.520061 
L 139.538909 142.562689 
L 140.347813 142.711811 
L 141.749913 142.480214 
L 142.720598 142.324069 
L 143.152013 142.316519 
L 143.799137 142.409308 
L 144.823748 142.295214 
L 146.333703 142.742832 
L 147.466168 142.727016 
L 151.888177 142.49492 
L 152.858862 142.494598 
L 153.236351 142.448327 
L 153.77562 142.411064 
L 154.207036 142.439698 
L 156.903383 142.744735 
L 157.766214 142.784457 
L 159.545802 142.534427 
L 160.246853 142.45915 
L 160.624341 142.411761 
L 161.864661 142.416548 
L 162.134295 142.465051 
L 162.565711 142.352245 
L 163.10498 142.129693 
L 163.320688 142.147812 
L 163.64425 142.283721 
L 164.129592 142.843097 
L 164.183519 142.777132 
L 164.453154 143.144093 
L 164.830642 143.495214 
L 164.884569 143.427939 
L 164.992423 143.409131 
L 165.04635 143.506157 
L 165.100277 143.446558 
L 165.262058 143.28698 
L 165.423839 143.024843 
L 165.477766 142.910377 
L 165.531693 142.978213 
L 165.639546 142.928728 
L 165.7474 142.570261 
L 165.801327 142.737034 
L 165.855254 142.681077 
L 166.178816 142.514824 
L 166.772012 142.609883 
L 166.825939 142.728954 
L 166.879866 142.683295 
L 167.041647 142.677518 
L 167.203428 142.860336 
L 167.365208 142.661723 
L 167.473062 143.080694 
L 167.526989 142.902289 
L 167.580916 142.924247 
L 168.012332 144.085197 
L 168.174112 145.47013 
L 168.281966 148.233754 
L 168.38982 157.659452 
L 168.713382 193.710095 
L 169.036943 198.340187 
L 169.306578 194.761096 
L 169.576213 201.722542 
L 169.63014 200.210474 
L 169.684067 199.838502 
L 169.899774 202.619624 
L 169.953701 202.554915 
L 170.115482 203.560265 
L 170.223336 204.119318 
L 170.33119 82.607968 
L 170.385117 82.752499 
L 170.492971 82.442084 
L 170.546898 82.630592 
L 170.708679 83.19826 
L 170.762606 82.894289 
L 170.816532 82.940682 
L 171.03224 82.407273 
L 171.140094 82.599909 
L 171.301875 203.960847 
L 171.355802 204.033613 
L 171.625437 203.159004 
L 171.679363 82.409881 
L 171.73329 203.688335 
L 171.787217 203.971608 
L 171.895071 203.468498 
L 171.948998 82.408725 
L 172.002925 203.593984 
L 172.056852 203.247362 
L 172.110779 82.435478 
L 172.164706 203.183722 
L 172.27256 202.846197 
L 172.326487 82.449767 
L 172.380414 203.509995 
L 172.434341 82.494656 
L 172.488268 82.699176 
L 172.542194 204.152727 
L 172.650048 203.245533 
L 172.757902 203.688492 
L 172.811829 82.530986 
L 172.865756 203.954393 
L 172.97361 203.94312 
L 173.405025 203.425294 
L 173.458952 203.633482 
L 173.512879 83.037613 
L 173.566806 203.936803 
L 173.728587 203.045465 
L 173.890368 204.054181 
L 173.944295 203.809467 
L 173.998222 83.885307 
L 174.052149 203.73927 
L 174.106076 203.760941 
L 174.160003 203.92682 
L 174.21393 82.461196 
L 174.267856 82.533854 
L 174.429637 204.121871 
L 174.483564 204.12441 
L 174.753199 203.702774 
L 174.807126 204.114436 
L 174.861053 203.815189 
L 174.968907 202.999932 
L 175.022834 82.839899 
L 175.076761 202.961236 
L 175.292468 202.118542 
L 175.454249 202.725545 
L 175.508176 201.833941 
L 175.562103 202.025866 
L 175.669957 202.211022 
L 175.723884 201.947804 
L 175.831738 202.366459 
L 175.939592 200.960523 
L 176.047445 201.505536 
L 176.101372 201.406057 
L 176.155299 201.505976 
L 176.209226 200.826103 
L 176.263153 201.359188 
L 176.31708 201.451823 
L 176.371007 201.346675 
L 176.424934 201.921858 
L 176.532788 201.060337 
L 176.586715 201.066829 
L 176.640642 201.552087 
L 176.694569 201.285612 
L 176.964203 199.588204 
L 177.01813 199.694134 
L 177.125984 193.259139 
L 177.449546 146.334772 
L 177.71918 143.787686 
L 177.934888 143.037393 
L 177.988815 143.042167 
L 178.204523 142.455596 
L 178.312377 142.52052 
L 178.420231 142.114196 
L 178.528085 142.348522 
L 178.689865 142.117982 
L 178.743792 142.150382 
L 178.797719 142.102515 
L 178.851646 142.299328 
L 178.905573 142.276581 
L 178.9595 142.118947 
L 179.013427 142.254623 
L 179.229135 142.296576 
L 179.336989 142.10007 
L 179.390916 142.138803 
L 179.552696 142.144582 
L 179.714477 142.286447 
L 180.469454 142.218198 
L 181.278358 142.3398 
L 181.440139 142.268442 
L 181.817628 142.291412 
L 181.979409 142.288363 
L 183.54329 142.316414 
L 184.082559 142.336974 
L 184.513975 142.374052 
L 187.210321 142.319573 
L 190.445938 142.163764 
L 191.686257 142.237369 
L 192.225527 142.265502 
L 192.87265 142.270926 
L 194.11297 142.321548 
L 194.706166 142.229231 
L 195.946485 142.19337 
L 196.91717 141.81191 
L 197.294659 141.628627 
L 198.15749 141.510131 
L 199.829225 141.518209 
L 200.79991 141.356264 
L 200.961691 141.246035 
L 201.393106 140.980069 
L 202.20201 140.110975 
L 202.795206 139.252833 
L 203.334476 137.798205 
L 204.035526 135.436083 
L 204.413015 135.168793 
L 204.520869 135.088548 
L 204.736576 134.571598 
L 205.060138 132.913725 
L 205.922969 127.146663 
L 206.138677 126.643754 
L 206.300457 126.865336 
L 207.001508 128.458656 
L 207.271142 128.47291 
L 207.756485 127.246408 
L 208.511462 123.627872 
L 208.72717 123.074725 
L 208.781097 123.009033 
L 208.835024 123.083999 
L 208.942877 123.141841 
L 209.266439 123.811753 
L 209.913562 126.574596 
L 210.291051 128.545477 
L 210.992101 132.188169 
L 211.639224 134.161322 
L 211.962786 134.266842 
L 212.232421 134.043418 
L 212.717763 132.146438 
L 213.149179 128.83519 
L 213.904156 122.150721 
L 214.17379 121.516281 
L 214.71306 123.863166 
L 215.468037 128.675766 
L 215.899452 129.662965 
L 216.169087 129.760931 
L 216.708356 129.615481 
L 216.870137 129.611566 
L 217.247626 129.979692 
L 217.625114 131.055958 
L 217.948676 132.433035 
L 219.135069 138.148257 
L 220.105753 140.808342 
L 220.483242 141.268242 
L 222.909954 142.621088 
L 224.150274 142.754628 
L 224.851324 142.810342 
L 230.190091 142.904355 
L 230.72936 142.94036 
L 231.43041 142.88023 
L 232.67073 142.576037 
L 233.209999 142.478512 
L 235.582785 141.794974 
L 236.0142 141.669356 
L 236.553469 141.7332 
L 236.984885 141.934819 
L 238.063424 142.394408 
L 238.548766 142.357043 
L 239.249816 142.252705 
L 240.112647 142.346724 
L 241.460821 142.661465 
L 242.269725 143.029015 
L 243.024702 143.220512 
L 243.402191 143.271748 
L 243.995387 143.431158 
L 245.235706 143.84437 
L 245.721049 143.698657 
L 246.422099 142.926424 
L 246.907442 142.440073 
L 247.231003 142.296367 
L 247.554565 142.341615 
L 248.147761 142.762982 
L 248.633104 143.069761 
L 250.035204 143.541742 
L 250.196985 143.465356 
L 250.682327 143.493283 
L 251.653012 143.31939 
L 251.922647 143.318228 
L 252.893332 143.334465 
L 253.756163 143.10541 
L 253.97187 143.242463 
L 254.079724 143.234645 
L 254.834701 143.519261 
L 256.236802 143.612406 
L 256.344656 143.586495 
L 256.506436 143.760381 
L 257.531048 143.339587 
L 257.85461 143.199127 
L 258.286025 143.114848 
L 259.79598 142.63236 
L 260.712738 142.748528 
L 261.575569 143.110367 
L 262.60018 143.534884 
L 264.325842 143.793509 
L 266.051504 143.463928 
L 266.752555 143.401855 
L 267.507532 143.482651 
L 268.42429 143.948945 
L 268.909632 144.287284 
L 269.772463 144.595947 
L 270.096025 144.509836 
L 270.419586 144.308661 
L 270.958856 144.008642 
L 271.174563 143.73409 
L 271.875614 143.594738 
L 273.439495 144.480582 
L 273.763057 144.332968 
L 274.356253 144.021749 
L 275.057303 143.691215 
L 275.596572 143.302381 
L 275.650499 143.468031 
L 275.704426 143.440393 
L 275.866207 143.346283 
L 276.081915 143.341036 
L 276.459403 143.284173 
L 276.621184 143.330178 
L 276.782965 143.264453 
L 277.915431 143.245644 
L 278.023285 143.149908 
L 278.077212 143.231338 
L 280.072508 143.243639 
L 280.180362 143.36244 
L 280.234289 143.316743 
L 280.39607 143.343196 
L 280.449997 143.29416 
L 280.611778 143.400312 
L 280.773558 143.383795 
L 280.935339 143.371852 
L 281.79817 143.569752 
L 282.607074 143.390156 
L 282.930636 143.335935 
L 283.415978 143.489916 
L 284.170955 143.870097 
L 284.494517 143.91875 
L 284.602371 143.928531 
L 284.764152 143.980465 
L 285.14164 144.01131 
L 285.411275 144.114733 
L 285.842691 144.214864 
L 286.166252 144.385211 
L 286.328033 144.430747 
L 287.08301 144.496248 
L 287.945841 144.368918 
L 289.563649 143.77792 
L 290.750042 143.509334 
L 292.044288 143.18902 
L 294.039585 142.816688 
L 295.873101 142.656594 
L 296.95164 142.240928 
L 299.59406 142.573842 
L 300.99616 142.937954 
L 301.535429 142.813457 
L 303.099311 142.723995 
L 304.447484 142.814511 
L 304.986753 142.66883 
L 305.57995 142.641891 
L 306.227073 142.521675 
L 306.712415 142.39411 
L 307.251685 142.347157 
L 307.952735 142.298723 
L 308.492004 142.200006 
L 309.570543 142.474689 
L 309.786251 142.664541 
L 309.948032 142.634976 
L 310.271593 142.645903 
L 310.649082 142.558592 
L 313.291502 142.714019 
L 314.262187 142.667396 
L 314.963237 142.695567 
L 315.178945 142.65398 
L 315.502506 142.723158 
L 316.581045 142.709611 
L 317.228168 142.707551 
L 321.488396 142.708488 
L 325.047574 142.707074 
L 327.528213 142.710341 
L 335.832962 142.696873 
L 337.666478 142.707011 
L 338.745016 142.695932 
L 345.054468 142.705112 
L 354.977025 142.705393 
L 355.246659 142.710256 
L 361.448257 142.705525 
L 363.281773 142.699893 
L 363.713189 142.707324 
L 364.090677 142.703691 
L 369.051955 142.69628 
L 369.051955 142.69628 
" style="fill:none;stroke:#1f77b4;stroke-linecap:square;stroke-width:1.5;"/>
   </g>
   <g id="line2d_11">
    <path clip-path="url(#p37c77900c0)" d="M 69.218182 143.284505 
L 74.017679 143.392577 
L 76.552245 143.440383 
L 78.0622 143.454233 
L 82.538135 143.57521 
L 85.935533 143.672122 
L 87.337633 143.694983 
L 92.622473 143.815932 
L 95.157039 143.86049 
L 100.06439 143.979536 
L 102.00576 143.998868 
L 103.40786 144.015289 
L 105.564938 144.049862 
L 110.957632 144.167077 
L 112.952928 144.659536 
L 113.222563 144.701702 
L 113.546125 144.64984 
L 114.301102 144.532874 
L 115.002152 144.462819 
L 115.487494 144.325108 
L 121.419458 140.093463 
L 122.551923 139.279475 
L 123.954024 138.761861 
L 124.816855 138.376862 
L 125.410051 138.098615 
L 126.704297 137.783442 
L 127.621055 137.712006 
L 128.322106 137.932247 
L 130.047768 138.701447 
L 131.557722 139.041809 
L 132.150918 138.905034 
L 132.582334 138.878072 
L 133.121603 139.010542 
L 133.768726 138.954276 
L 134.631557 138.939437 
L 135.224754 139.323237 
L 135.548315 139.512124 
L 136.357219 139.61652 
L 136.950416 139.397559 
L 137.22005 139.339683 
L 138.136808 139.304195 
L 139.592836 139.591255 
L 140.132105 139.518325 
L 142.073475 139.267009 
L 143.20594 139.317719 
L 143.637356 139.223791 
L 144.230552 139.479412 
L 144.877675 139.668007 
L 146.765118 139.736178 
L 148.221146 139.677393 
L 149.19183 139.630388 
L 154.638451 139.757535 
L 157.065163 140.018537 
L 157.981921 139.927505 
L 159.114387 139.877471 
L 160.732195 139.815788 
L 161.109684 139.913015 
L 162.026442 139.563709 
L 162.296076 139.53113 
L 162.565711 139.713472 
L 162.781419 139.889516 
L 162.9432 140.295891 
L 163.64425 141.643862 
L 164.129592 142.049475 
L 164.3453 142.066603 
L 164.614935 142.02682 
L 164.668862 142.085697 
L 164.938496 141.71729 
L 165.585619 141.821143 
L 165.801327 141.966356 
L 166.017035 141.985621 
L 166.610231 143.152631 
L 166.664158 143.065343 
L 166.825939 143.935842 
L 166.98772 145.795886 
L 167.095574 150.742986 
L 167.473062 191.729786 
L 167.634843 194.309101 
L 167.742697 194.2787 
L 167.850551 196.051257 
L 167.958405 195.952709 
L 168.120186 194.893925 
L 168.174112 195.296429 
L 168.443747 191.307387 
L 168.551601 187.366178 
L 168.713382 193.031871 
L 168.767309 193.003894 
L 168.821236 193.045271 
L 168.92909 195.255711 
L 168.983017 195.031003 
L 169.036943 194.890131 
L 169.198724 198.443583 
L 169.360505 200.514767 
L 169.576213 201.20339 
L 169.737994 201.739437 
L 170.007628 201.650565 
L 170.439044 200.434968 
L 170.492971 200.389404 
L 170.708679 198.320086 
L 171.03224 193.591096 
L 171.247948 187.441121 
L 171.463656 191.952534 
L 171.517583 192.143374 
L 171.625437 194.627813 
L 171.679363 193.916016 
L 171.895071 195.891173 
L 171.948998 195.9268 
L 172.056852 197.36523 
L 172.218633 195.889811 
L 172.434341 197.426327 
L 172.488268 197.441704 
L 172.811829 193.155097 
L 172.865756 193.122847 
L 172.97361 195.024496 
L 173.081464 194.999366 
L 173.135391 194.391736 
L 173.351099 189.308887 
L 173.512879 195.376017 
L 173.620733 195.108774 
L 173.836441 189.880966 
L 173.890368 190.26857 
L 173.998222 189.80519 
L 174.21393 192.791863 
L 174.267856 191.618082 
L 174.321783 192.08493 
L 174.37571 192.252891 
L 174.429637 192.152318 
L 174.537491 191.790143 
L 174.645345 188.637428 
L 174.91498 193.981404 
L 174.968907 192.501398 
L 175.022834 192.900087 
L 175.076761 194.074135 
L 175.130687 193.324942 
L 175.346395 187.403644 
L 175.61603 184.286516 
L 175.831738 180.902052 
L 176.047445 177.995216 
L 176.209226 177.534176 
L 176.31708 177.731639 
L 176.478861 178.894956 
L 176.748496 183.425195 
L 176.964203 191.555726 
L 177.125984 202.461224 
L 177.179911 85.290799 
L 177.233838 90.242756 
L 177.503473 106.861503 
L 177.611327 108.006489 
L 177.71918 106.791545 
L 177.880961 103.328521 
L 177.934888 103.365589 
L 178.096669 110.108094 
L 178.689865 149.646681 
L 178.905573 152.06976 
L 179.121281 152.104683 
L 179.876258 151.982155 
L 181.547993 152.062143 
L 183.273655 152.141494 
L 184.513975 152.160152 
L 186.18571 152.134795 
L 188.234933 152.122284 
L 192.387308 152.201668 
L 193.034431 152.224087 
L 194.220823 152.171659 
L 195.083654 152.10688 
L 197.078951 151.43149 
L 198.534978 151.511804 
L 199.182102 151.405652 
L 200.314567 151.012191 
L 201.069544 150.312726 
L 202.20201 148.260466 
L 202.417718 147.66771 
L 202.687353 146.598024 
L 202.74128 146.566668 
L 203.118768 145.583596 
L 203.44233 145.10662 
L 203.765891 143.969465 
L 203.873745 143.754755 
L 204.089453 142.86486 
L 204.14338 142.927476 
L 204.197307 142.9137 
L 204.413015 141.726742 
L 204.736576 138.95673 
L 204.790503 139.240715 
L 204.84443 139.115967 
L 205.006211 138.343768 
L 205.167992 137.034731 
L 205.329773 138.024085 
L 205.3837 138.105868 
L 205.54548 138.994622 
L 205.599407 139.054913 
L 205.707261 139.668783 
L 205.815115 139.261163 
L 205.869042 139.273998 
L 206.138677 140.160629 
L 206.192604 140.097031 
L 206.462238 138.872545 
L 206.570092 138.90556 
L 206.677946 138.797327 
L 206.731873 139.112537 
L 206.7858 139.029986 
L 206.893654 138.358224 
L 207.055435 139.509381 
L 207.163288 139.311571 
L 207.271142 139.786691 
L 207.540777 137.972525 
L 207.702558 138.781562 
L 207.864339 138.442392 
L 208.403608 133.246978 
L 208.619316 135.571063 
L 208.72717 135.948048 
L 208.88895 138.625276 
L 208.996804 140.191865 
L 209.104658 140.133884 
L 209.212512 140.095429 
L 209.266439 140.135397 
L 209.42822 141.451854 
L 209.482147 141.333936 
L 209.536074 140.994831 
L 209.590001 141.301436 
L 210.291051 144.95346 
L 210.344978 144.943009 
L 210.398905 144.959623 
L 210.722466 145.674188 
L 210.992101 145.322613 
L 211.046028 145.142075 
L 211.099955 145.172293 
L 211.315663 145.622088 
L 211.36959 145.406812 
L 211.747078 143.374243 
L 211.908859 142.600288 
L 212.555982 137.941531 
L 212.609909 137.859894 
L 212.825617 136.383274 
L 212.933471 136.413818 
L 212.987398 136.900761 
L 213.041325 136.600421 
L 213.095252 136.774627 
L 213.310959 135.441507 
L 213.364886 135.703236 
L 214.01201 139.25304 
L 214.119863 139.412431 
L 214.281644 140.896953 
L 214.497352 139.692185 
L 214.551279 140.017515 
L 214.766987 141.836306 
L 214.982694 141.568402 
L 215.198402 142.737881 
L 215.360183 142.827861 
L 215.629818 141.877003 
L 215.683745 141.943908 
L 215.791598 142.530592 
L 215.845525 142.421493 
L 216.007306 142.408014 
L 216.276941 143.989533 
L 216.384795 143.817936 
L 216.438722 143.722946 
L 217.301553 146.169763 
L 217.840822 149.19239 
L 218.595799 151.788479 
L 219.135069 153.053924 
L 219.512557 153.568228 
L 219.674338 153.707631 
L 219.9979 154.072433 
L 221.507854 154.998694 
L 222.154977 155.236016 
L 222.370685 155.162558 
L 230.244018 155.465061 
L 231.592191 155.100147 
L 231.700045 154.99249 
L 231.753972 155.100092 
L 231.96968 155.074274 
L 232.67073 154.849932 
L 232.778584 154.637371 
L 232.886438 154.822137 
L 233.048219 154.798527 
L 233.587488 154.532366 
L 233.641415 154.259485 
L 233.695342 154.350119 
L 233.749269 154.614199 
L 233.803196 154.54323 
L 233.964976 154.472989 
L 234.396392 154.337959 
L 234.6121 154.252964 
L 234.827807 154.358212 
L 235.043515 154.194374 
L 235.259223 154.248128 
L 235.582785 154.317318 
L 235.906346 154.413377 
L 236.068127 154.690421 
L 236.122054 154.660407 
L 236.445616 154.860074 
L 236.823104 155.207143 
L 237.038812 154.99432 
L 237.200593 155.034252 
L 237.4163 154.87906 
L 237.685935 155.07536 
L 237.847716 155.298188 
L 237.901643 155.262091 
L 238.117351 155.107109 
L 238.494839 154.944027 
L 238.65662 154.867878 
L 238.764474 154.909895 
L 238.980182 155.083359 
L 239.519451 155.208023 
L 239.735159 155.418005 
L 240.05872 155.247334 
L 240.166574 155.375337 
L 240.382282 155.751373 
L 240.544063 155.757811 
L 240.651917 155.718887 
L 240.921551 156.064898 
L 241.29904 155.906138 
L 241.784382 156.007416 
L 241.946163 155.980755 
L 242.054017 155.992952 
L 242.215798 156.247052 
L 242.431506 156.477323 
L 242.593287 156.532233 
L 242.70114 156.608256 
L 242.970775 157.059993 
L 243.294337 156.928114 
L 243.563971 156.672743 
L 244.103241 157.135407 
L 244.426802 157.172574 
L 244.480729 157.216535 
L 244.534656 157.122615 
L 244.64251 157.21371 
L 244.804291 157.275871 
L 244.912145 157.26623 
L 245.073926 157.261492 
L 245.990684 155.513705 
L 246.152464 155.527054 
L 246.260318 155.668821 
L 246.314245 155.59108 
L 246.476026 155.529112 
L 246.799588 155.710026 
L 246.961368 155.490326 
L 247.015295 155.555179 
L 247.28493 155.87479 
L 247.500638 155.770102 
L 247.878126 156.222074 
L 248.147761 156.920623 
L 248.201688 156.876654 
L 248.255615 156.851051 
L 248.417396 157.347601 
L 248.740957 158.773619 
L 249.2263 160.371488 
L 249.280227 160.348775 
L 249.442008 160.331784 
L 249.657715 160.351101 
L 249.711642 160.350806 
L 250.520546 158.160989 
L 250.574473 158.185633 
L 250.898035 159.058347 
L 251.113743 159.139612 
L 251.275523 159.191326 
L 251.437304 159.327662 
L 251.760866 159.067 
L 251.86872 158.850715 
L 252.138354 158.117769 
L 252.246208 158.192186 
L 252.407989 158.612251 
L 253.001185 160.904826 
L 253.216893 161.35492 
L 253.486528 160.786428 
L 253.540455 160.818401 
L 253.756163 160.663009 
L 253.917943 160.763412 
L 254.457213 162.824114 
L 255.104336 166.825416 
L 255.320044 167.925648 
L 255.481825 167.950463 
L 255.589679 168.340221 
L 255.643605 168.328898 
L 255.805386 168.108703 
L 256.021094 166.905843 
L 256.236802 166.018039 
L 256.344656 165.880594 
L 256.398583 165.928977 
L 256.506436 166.0349 
L 256.937852 167.173686 
L 256.991779 167.11478 
L 257.15356 166.656605 
L 257.638902 165.205104 
L 257.908537 165.126204 
L 258.286025 165.360078 
L 259.148856 164.992267 
L 259.418491 165.653215 
L 259.580272 165.499978 
L 259.849907 165.242689 
L 260.281322 165.469274 
L 260.49703 165.628948 
L 260.820591 165.827571 
L 261.144153 165.888829 
L 262.546253 166.233606 
L 263.516938 166.103917 
L 263.786573 166.023926 
L 264.271915 165.93166 
L 265.674016 165.699073 
L 266.375066 165.785703 
L 266.806482 166.020192 
L 267.076116 166.114832 
L 267.399678 166.135705 
L 267.88502 166.640906 
L 268.370363 166.82313 
L 268.693924 167.498778 
L 268.801778 167.276301 
L 269.071413 166.475764 
L 269.12534 166.494929 
L 269.772463 166.710081 
L 269.934244 166.301518 
L 270.149952 165.581 
L 270.419586 165.716964 
L 270.52744 165.728734 
L 270.689221 166.062216 
L 270.743148 166.020655 
L 270.851002 166.12544 
L 270.958856 166.246904 
L 271.012783 166.195634 
L 271.22849 166.049056 
L 271.498125 166.462425 
L 271.659906 166.421098 
L 271.76776 166.425676 
L 272.145248 167.199218 
L 272.199175 167.050149 
L 272.360956 166.298311 
L 272.576664 165.43019 
L 272.684518 165.235884 
L 272.738445 165.306028 
L 272.900226 165.196676 
L 273.008079 165.543057 
L 273.385568 167.478867 
L 273.439495 167.480194 
L 273.601276 166.834173 
L 273.87091 165.375006 
L 274.248399 162.801182 
L 274.464107 162.536455 
L 274.841595 162.670675 
L 275.003376 162.334088 
L 275.11123 162.256164 
L 275.326938 161.597787 
L 275.596572 161.517441 
L 276.135842 162.716164 
L 276.405476 163.049605 
L 276.51333 162.875528 
L 276.729038 162.255647 
L 276.998673 161.74066 
L 277.160454 161.500497 
L 277.214381 161.550131 
L 277.75365 162.370591 
L 277.807577 162.288115 
L 278.023285 161.986852 
L 278.077212 162.048785 
L 278.292919 162.255959 
L 278.562554 161.901265 
L 278.616481 161.945035 
L 279.317531 164.033533 
L 279.371458 163.990425 
L 279.69502 163.285487 
L 279.8568 163.102396 
L 280.126435 162.629506 
L 280.234289 162.73129 
L 280.611778 163.341008 
L 280.827485 163.371488 
L 281.043193 163.545024 
L 281.151047 163.614781 
L 281.474609 164.435142 
L 281.528536 164.363697 
L 281.744243 164.094593 
L 282.067805 164.465504 
L 282.283513 164.165099 
L 282.49922 163.594288 
L 282.607074 163.644729 
L 282.768855 163.960166 
L 282.984563 164.322818 
L 283.200271 164.24701 
L 283.685613 164.900101 
L 283.955248 164.455347 
L 284.009175 164.513029 
L 284.224882 164.997829 
L 284.278809 164.963664 
L 284.764152 164.443049 
L 285.303421 165.338479 
L 285.357348 165.285326 
L 285.68091 164.939329 
L 286.220179 165.084384 
L 286.435887 164.917015 
L 286.975156 164.891249 
L 287.406572 164.559963 
L 288.431184 164.242069 
L 291.073604 163.662515 
L 292.475704 163.37254 
L 293.500316 163.293958 
L 293.931731 163.261427 
L 294.956343 163.059355 
L 295.873101 162.749796 
L 296.682005 162.70617 
L 297.059494 162.741974 
L 297.814471 162.855892 
L 298.191959 162.926167 
L 299.917621 163.347573 
L 301.69721 162.994924 
L 303.962142 162.888415 
L 304.231776 162.854599 
L 305.256388 162.702618 
L 306.227073 162.564568 
L 306.604562 162.609444 
L 307.089904 162.417198 
L 307.952735 162.154182 
L 308.438077 162.21716 
L 308.545931 162.428943 
L 308.599858 162.342398 
L 308.869493 161.047212 
L 309.085201 160.519449 
L 309.516616 160.41239 
L 310.001959 160.383672 
L 320.787346 160.705316 
L 328.283191 160.835416 
L 331.46488 160.921316 
L 339.607847 161.053129 
L 341.926706 161.098925 
L 344.946614 161.170442 
L 352.172824 161.293366 
L 354.383828 161.332229 
L 361.016842 161.455307 
L 363.497481 161.494831 
L 369.105882 161.613216 
L 370.130494 161.63897 
L 372.017937 161.658652 
L 373.581818 161.702724 
L 373.581818 161.702724 
" style="fill:none;stroke:#ff7f0e;stroke-linecap:square;stroke-width:1.5;"/>
   </g>
   <g id="patch_3">
    <path d="M 54 210.24 
L 54 76.32 
" style="fill:none;stroke:#000000;stroke-linecap:square;stroke-linejoin:miter;stroke-width:0.8;"/>
   </g>
   <g id="patch_4">
    <path d="M 388.8 210.24 
L 388.8 76.32 
" style="fill:none;stroke:#000000;stroke-linecap:square;stroke-linejoin:miter;stroke-width:0.8;"/>
   </g>
   <g id="patch_5">
    <path d="M 54 210.24 
L 388.8 210.24 
" style="fill:none;stroke:#000000;stroke-linecap:square;stroke-linejoin:miter;stroke-width:0.8;"/>
   </g>
   <g id="patch_6">
    <path d="M 54 76.32 
L 388.8 76.32 
" style="fill:none;stroke:#000000;stroke-linecap:square;stroke-linejoin:miter;stroke-width:0.8;"/>
   </g>
   <g id="text_10">
    <!-- Yaw -->
    <defs>
     <path d="M -0.203125 72.90625 
L 10.40625 72.90625 
L 30.609375 42.921875 
L 50.6875 72.90625 
L 61.28125 72.90625 
L 35.5 34.71875 
L 35.5 0 
L 25.59375 0 
L 25.59375 34.71875 
z
" id="DejaVuSans-89"/>
     <path d="M 34.28125 27.484375 
Q 23.390625 27.484375 19.1875 25 
Q 14.984375 22.515625 14.984375 16.5 
Q 14.984375 11.71875 18.140625 8.90625 
Q 21.296875 6.109375 26.703125 6.109375 
Q 34.1875 6.109375 38.703125 11.40625 
Q 43.21875 16.703125 43.21875 25.484375 
L 43.21875 27.484375 
z
M 52.203125 31.203125 
L 52.203125 0 
L 43.21875 0 
L 43.21875 8.296875 
Q 40.140625 3.328125 35.546875 0.953125 
Q 30.953125 -1.421875 24.3125 -1.421875 
Q 15.921875 -1.421875 10.953125 3.296875 
Q 6 8.015625 6 15.921875 
Q 6 25.140625 12.171875 29.828125 
Q 18.359375 34.515625 30.609375 34.515625 
L 43.21875 34.515625 
L 43.21875 35.40625 
Q 43.21875 41.609375 39.140625 45 
Q 35.0625 48.390625 27.6875 48.390625 
Q 23 48.390625 18.546875 47.265625 
Q 14.109375 46.140625 10.015625 43.890625 
L 10.015625 52.203125 
Q 14.9375 54.109375 19.578125 55.046875 
Q 24.21875 56 28.609375 56 
Q 40.484375 56 46.34375 49.84375 
Q 52.203125 43.703125 52.203125 31.203125 
z
" id="DejaVuSans-97"/>
     <path d="M 4.203125 54.6875 
L 13.1875 54.6875 
L 24.421875 12.015625 
L 35.59375 54.6875 
L 46.1875 54.6875 
L 57.421875 12.015625 
L 68.609375 54.6875 
L 77.59375 54.6875 
L 63.28125 0 
L 52.6875 0 
L 40.921875 44.828125 
L 29.109375 0 
L 18.5 0 
z
" id="DejaVuSans-119"/>
    </defs>
    <g transform="translate(209.16375 70.32)scale(0.12 -0.12)">
     <use xlink:href="#DejaVuSans-89"/>
     <use x="60.880859" xlink:href="#DejaVuSans-97"/>
     <use x="122.160156" xlink:href="#DejaVuSans-119"/>
    </g>
   </g>
   <g id="legend_1">
    <g id="patch_7">
     <path d="M 61 113.67625 
L 143.351562 113.67625 
Q 145.351562 113.67625 145.351562 111.67625 
L 145.351562 83.32 
Q 145.351562 81.32 143.351562 81.32 
L 61 81.32 
Q 59 81.32 59 83.32 
L 59 111.67625 
Q 59 113.67625 61 113.67625 
z
" style="fill:#ffffff;opacity:0.8;stroke:#cccccc;stroke-linejoin:miter;"/>
    </g>
    <g id="line2d_12">
     <path d="M 63 89.418437 
L 83 89.418437 
" style="fill:none;stroke:#1f77b4;stroke-linecap:square;stroke-width:1.5;"/>
    </g>
    <g id="line2d_13"/>
    <g id="text_11">
     <!-- vicon -->
     <defs>
      <path d="M 2.984375 54.6875 
L 12.5 54.6875 
L 29.59375 8.796875 
L 46.6875 54.6875 
L 56.203125 54.6875 
L 35.6875 0 
L 23.484375 0 
z
" id="DejaVuSans-118"/>
      <path d="M 9.421875 54.6875 
L 18.40625 54.6875 
L 18.40625 0 
L 9.421875 0 
z
M 9.421875 75.984375 
L 18.40625 75.984375 
L 18.40625 64.59375 
L 9.421875 64.59375 
z
" id="DejaVuSans-105"/>
      <path d="M 48.78125 52.59375 
L 48.78125 44.1875 
Q 44.96875 46.296875 41.140625 47.34375 
Q 37.3125 48.390625 33.40625 48.390625 
Q 24.65625 48.390625 19.8125 42.84375 
Q 14.984375 37.3125 14.984375 27.296875 
Q 14.984375 17.28125 19.8125 11.734375 
Q 24.65625 6.203125 33.40625 6.203125 
Q 37.3125 6.203125 41.140625 7.25 
Q 44.96875 8.296875 48.78125 10.40625 
L 48.78125 2.09375 
Q 45.015625 0.34375 40.984375 -0.53125 
Q 36.96875 -1.421875 32.421875 -1.421875 
Q 20.0625 -1.421875 12.78125 6.34375 
Q 5.515625 14.109375 5.515625 27.296875 
Q 5.515625 40.671875 12.859375 48.328125 
Q 20.21875 56 33.015625 56 
Q 37.15625 56 41.109375 55.140625 
Q 45.0625 54.296875 48.78125 52.59375 
z
" id="DejaVuSans-99"/>
      <path d="M 30.609375 48.390625 
Q 23.390625 48.390625 19.1875 42.75 
Q 14.984375 37.109375 14.984375 27.296875 
Q 14.984375 17.484375 19.15625 11.84375 
Q 23.34375 6.203125 30.609375 6.203125 
Q 37.796875 6.203125 41.984375 11.859375 
Q 46.1875 17.53125 46.1875 27.296875 
Q 46.1875 37.015625 41.984375 42.703125 
Q 37.796875 48.390625 30.609375 48.390625 
z
M 30.609375 56 
Q 42.328125 56 49.015625 48.375 
Q 55.71875 40.765625 55.71875 27.296875 
Q 55.71875 13.875 49.015625 6.21875 
Q 42.328125 -1.421875 30.609375 -1.421875 
Q 18.84375 -1.421875 12.171875 6.21875 
Q 5.515625 13.875 5.515625 27.296875 
Q 5.515625 40.765625 12.171875 48.375 
Q 18.84375 56 30.609375 56 
z
" id="DejaVuSans-111"/>
      <path d="M 54.890625 33.015625 
L 54.890625 0 
L 45.90625 0 
L 45.90625 32.71875 
Q 45.90625 40.484375 42.875 44.328125 
Q 39.84375 48.1875 33.796875 48.1875 
Q 26.515625 48.1875 22.3125 43.546875 
Q 18.109375 38.921875 18.109375 30.90625 
L 18.109375 0 
L 9.078125 0 
L 9.078125 54.6875 
L 18.109375 54.6875 
L 18.109375 46.1875 
Q 21.34375 51.125 25.703125 53.5625 
Q 30.078125 56 35.796875 56 
Q 45.21875 56 50.046875 50.171875 
Q 54.890625 44.34375 54.890625 33.015625 
z
" id="DejaVuSans-110"/>
     </defs>
     <g transform="translate(91 92.918437)scale(0.1 -0.1)">
      <use xlink:href="#DejaVuSans-118"/>
      <use x="59.179688" xlink:href="#DejaVuSans-105"/>
      <use x="86.962891" xlink:href="#DejaVuSans-99"/>
      <use x="141.943359" xlink:href="#DejaVuSans-111"/>
      <use x="203.125" xlink:href="#DejaVuSans-110"/>
     </g>
    </g>
    <g id="line2d_14">
     <path d="M 63 104.096562 
L 83 104.096562 
" style="fill:none;stroke:#ff7f0e;stroke-linecap:square;stroke-width:1.5;"/>
    </g>
    <g id="line2d_15"/>
    <g id="text_12">
     <!-- estimated -->
     <defs>
      <path d="M 56.203125 29.59375 
L 56.203125 25.203125 
L 14.890625 25.203125 
Q 15.484375 15.921875 20.484375 11.0625 
Q 25.484375 6.203125 34.421875 6.203125 
Q 39.59375 6.203125 44.453125 7.46875 
Q 49.3125 8.734375 54.109375 11.28125 
L 54.109375 2.78125 
Q 49.265625 0.734375 44.1875 -0.34375 
Q 39.109375 -1.421875 33.890625 -1.421875 
Q 20.796875 -1.421875 13.15625 6.1875 
Q 5.515625 13.8125 5.515625 26.8125 
Q 5.515625 40.234375 12.765625 48.109375 
Q 20.015625 56 32.328125 56 
Q 43.359375 56 49.78125 48.890625 
Q 56.203125 41.796875 56.203125 29.59375 
z
M 47.21875 32.234375 
Q 47.125 39.59375 43.09375 43.984375 
Q 39.0625 48.390625 32.421875 48.390625 
Q 24.90625 48.390625 20.390625 44.140625 
Q 15.875 39.890625 15.1875 32.171875 
z
" id="DejaVuSans-101"/>
      <path d="M 44.28125 53.078125 
L 44.28125 44.578125 
Q 40.484375 46.53125 36.375 47.5 
Q 32.28125 48.484375 27.875 48.484375 
Q 21.1875 48.484375 17.84375 46.4375 
Q 14.5 44.390625 14.5 40.28125 
Q 14.5 37.15625 16.890625 35.375 
Q 19.28125 33.59375 26.515625 31.984375 
L 29.59375 31.296875 
Q 39.15625 29.25 43.1875 25.515625 
Q 47.21875 21.78125 47.21875 15.09375 
Q 47.21875 7.46875 41.1875 3.015625 
Q 35.15625 -1.421875 24.609375 -1.421875 
Q 20.21875 -1.421875 15.453125 -0.5625 
Q 10.6875 0.296875 5.421875 2 
L 5.421875 11.28125 
Q 10.40625 8.6875 15.234375 7.390625 
Q 20.0625 6.109375 24.8125 6.109375 
Q 31.15625 6.109375 34.5625 8.28125 
Q 37.984375 10.453125 37.984375 14.40625 
Q 37.984375 18.0625 35.515625 20.015625 
Q 33.0625 21.96875 24.703125 23.78125 
L 21.578125 24.515625 
Q 13.234375 26.265625 9.515625 29.90625 
Q 5.8125 33.546875 5.8125 39.890625 
Q 5.8125 47.609375 11.28125 51.796875 
Q 16.75 56 26.8125 56 
Q 31.78125 56 36.171875 55.265625 
Q 40.578125 54.546875 44.28125 53.078125 
z
" id="DejaVuSans-115"/>
      <path d="M 18.3125 70.21875 
L 18.3125 54.6875 
L 36.8125 54.6875 
L 36.8125 47.703125 
L 18.3125 47.703125 
L 18.3125 18.015625 
Q 18.3125 11.328125 20.140625 9.421875 
Q 21.96875 7.515625 27.59375 7.515625 
L 36.8125 7.515625 
L 36.8125 0 
L 27.59375 0 
Q 17.1875 0 13.234375 3.875 
Q 9.28125 7.765625 9.28125 18.015625 
L 9.28125 47.703125 
L 2.6875 47.703125 
L 2.6875 54.6875 
L 9.28125 54.6875 
L 9.28125 70.21875 
z
" id="DejaVuSans-116"/>
      <path d="M 52 44.1875 
Q 55.375 50.25 60.0625 53.125 
Q 64.75 56 71.09375 56 
Q 79.640625 56 84.28125 50.015625 
Q 88.921875 44.046875 88.921875 33.015625 
L 88.921875 0 
L 79.890625 0 
L 79.890625 32.71875 
Q 79.890625 40.578125 77.09375 44.375 
Q 74.3125 48.1875 68.609375 48.1875 
Q 61.625 48.1875 57.5625 43.546875 
Q 53.515625 38.921875 53.515625 30.90625 
L 53.515625 0 
L 44.484375 0 
L 44.484375 32.71875 
Q 44.484375 40.625 41.703125 44.40625 
Q 38.921875 48.1875 33.109375 48.1875 
Q 26.21875 48.1875 22.15625 43.53125 
Q 18.109375 38.875 18.109375 30.90625 
L 18.109375 0 
L 9.078125 0 
L 9.078125 54.6875 
L 18.109375 54.6875 
L 18.109375 46.1875 
Q 21.1875 51.21875 25.484375 53.609375 
Q 29.78125 56 35.6875 56 
Q 41.65625 56 45.828125 52.96875 
Q 50 49.953125 52 44.1875 
z
" id="DejaVuSans-109"/>
      <path d="M 45.40625 46.390625 
L 45.40625 75.984375 
L 54.390625 75.984375 
L 54.390625 0 
L 45.40625 0 
L 45.40625 8.203125 
Q 42.578125 3.328125 38.25 0.953125 
Q 33.9375 -1.421875 27.875 -1.421875 
Q 17.96875 -1.421875 11.734375 6.484375 
Q 5.515625 14.40625 5.515625 27.296875 
Q 5.515625 40.1875 11.734375 48.09375 
Q 17.96875 56 27.875 56 
Q 33.9375 56 38.25 53.625 
Q 42.578125 51.265625 45.40625 46.390625 
z
M 14.796875 27.296875 
Q 14.796875 17.390625 18.875 11.75 
Q 22.953125 6.109375 30.078125 6.109375 
Q 37.203125 6.109375 41.296875 11.75 
Q 45.40625 17.390625 45.40625 27.296875 
Q 45.40625 37.203125 41.296875 42.84375 
Q 37.203125 48.484375 30.078125 48.484375 
Q 22.953125 48.484375 18.875 42.84375 
Q 14.796875 37.203125 14.796875 27.296875 
z
" id="DejaVuSans-100"/>
     </defs>
     <g transform="translate(91 107.596562)scale(0.1 -0.1)">
      <use xlink:href="#DejaVuSans-101"/>
      <use x="61.523438" xlink:href="#DejaVuSans-115"/>
      <use x="113.623047" xlink:href="#DejaVuSans-116"/>
      <use x="152.832031" xlink:href="#DejaVuSans-105"/>
      <use x="180.615234" xlink:href="#DejaVuSans-109"/>
      <use x="278.027344" xlink:href="#DejaVuSans-97"/>
      <use x="339.306641" xlink:href="#DejaVuSans-116"/>
      <use x="378.515625" xlink:href="#DejaVuSans-101"/>
      <use x="440.039062" xlink:href="#DejaVuSans-100"/>
     </g>
    </g>
   </g>
  </g>
 </g>
 <defs>
  <clipPath id="p37c77900c0">
   <rect height="133.92" width="334.8" x="54" y="76.32"/>
  </clipPath>
 </defs>
</svg>
