<?xml version="1.0" encoding="utf-8" standalone="no"?>
<!DOCTYPE svg PUBLIC "-//W3C//DTD SVG 1.1//EN"
  "http://www.w3.org/Graphics/SVG/1.1/DTD/svg11.dtd">
<!-- Created with matplotlib (https://matplotlib.org/) -->
<svg height="288pt" version="1.1" viewBox="0 0 432 288" width="432pt" xmlns="http://www.w3.org/2000/svg" xmlns:xlink="http://www.w3.org/1999/xlink">
 <defs>
  <style type="text/css">
*{stroke-linecap:butt;stroke-linejoin:round;}
  </style>
 </defs>
 <g id="figure_1">
  <g id="patch_1">
   <path d="M 0 288 
L 432 288 
L 432 0 
L 0 0 
z
" style="fill:#ffffff;"/>
  </g>
  <g id="axes_1">
   <g id="patch_2">
    <path d="M 54 210.24 
L 388.8 210.24 
L 388.8 76.32 
L 54 76.32 
z
" style="fill:#ffffff;"/>
   </g>
   <g id="matplotlib.axis_1">
    <g id="xtick_1">
     <g id="line2d_1">
      <defs>
       <path d="M 0 0 
L 0 3.5 
" id="m6505e0adc2" style="stroke:#000000;stroke-width:0.8;"/>
      </defs>
      <g>
       <use style="stroke:#000000;stroke-width:0.8;" x="69.218182" xlink:href="#m6505e0adc2" y="210.24"/>
      </g>
     </g>
     <g id="text_1">
      <!-- 0 -->
      <defs>
       <path d="M 31.78125 66.40625 
Q 24.171875 66.40625 20.328125 58.90625 
Q 16.5 51.421875 16.5 36.375 
Q 16.5 21.390625 20.328125 13.890625 
Q 24.171875 6.390625 31.78125 6.390625 
Q 39.453125 6.390625 43.28125 13.890625 
Q 47.125 21.390625 47.125 36.375 
Q 47.125 51.421875 43.28125 58.90625 
Q 39.453125 66.40625 31.78125 66.40625 
z
M 31.78125 74.21875 
Q 44.046875 74.21875 50.515625 64.515625 
Q 56.984375 54.828125 56.984375 36.375 
Q 56.984375 17.96875 50.515625 8.265625 
Q 44.046875 -1.421875 31.78125 -1.421875 
Q 19.53125 -1.421875 13.0625 8.265625 
Q 6.59375 17.96875 6.59375 36.375 
Q 6.59375 54.828125 13.0625 64.515625 
Q 19.53125 74.21875 31.78125 74.21875 
z
" id="DejaVuSans-48"/>
      </defs>
      <g transform="translate(66.036932 224.838437)scale(0.1 -0.1)">
       <use xlink:href="#DejaVuSans-48"/>
      </g>
     </g>
    </g>
    <g id="xtick_2">
     <g id="line2d_2">
      <g>
       <use style="stroke:#000000;stroke-width:0.8;" x="134.017764" xlink:href="#m6505e0adc2" y="210.24"/>
      </g>
     </g>
     <g id="text_2">
      <!-- 1000 -->
      <defs>
       <path d="M 12.40625 8.296875 
L 28.515625 8.296875 
L 28.515625 63.921875 
L 10.984375 60.40625 
L 10.984375 69.390625 
L 28.421875 72.90625 
L 38.28125 72.90625 
L 38.28125 8.296875 
L 54.390625 8.296875 
L 54.390625 0 
L 12.40625 0 
z
" id="DejaVuSans-49"/>
      </defs>
      <g transform="translate(121.292764 224.838437)scale(0.1 -0.1)">
       <use xlink:href="#DejaVuSans-49"/>
       <use x="63.623047" xlink:href="#DejaVuSans-48"/>
       <use x="127.246094" xlink:href="#DejaVuSans-48"/>
       <use x="190.869141" xlink:href="#DejaVuSans-48"/>
      </g>
     </g>
    </g>
    <g id="xtick_3">
     <g id="line2d_3">
      <g>
       <use style="stroke:#000000;stroke-width:0.8;" x="198.817346" xlink:href="#m6505e0adc2" y="210.24"/>
      </g>
     </g>
     <g id="text_3">
      <!-- 2000 -->
      <defs>
       <path d="M 19.1875 8.296875 
L 53.609375 8.296875 
L 53.609375 0 
L 7.328125 0 
L 7.328125 8.296875 
Q 12.9375 14.109375 22.625 23.890625 
Q 32.328125 33.6875 34.8125 36.53125 
Q 39.546875 41.84375 41.421875 45.53125 
Q 43.3125 49.21875 43.3125 52.78125 
Q 43.3125 58.59375 39.234375 62.25 
Q 35.15625 65.921875 28.609375 65.921875 
Q 23.96875 65.921875 18.8125 64.3125 
Q 13.671875 62.703125 7.8125 59.421875 
L 7.8125 69.390625 
Q 13.765625 71.78125 18.9375 73 
Q 24.125 74.21875 28.421875 74.21875 
Q 39.75 74.21875 46.484375 68.546875 
Q 53.21875 62.890625 53.21875 53.421875 
Q 53.21875 48.921875 51.53125 44.890625 
Q 49.859375 40.875 45.40625 35.40625 
Q 44.1875 33.984375 37.640625 27.21875 
Q 31.109375 20.453125 19.1875 8.296875 
z
" id="DejaVuSans-50"/>
      </defs>
      <g transform="translate(186.092346 224.838437)scale(0.1 -0.1)">
       <use xlink:href="#DejaVuSans-50"/>
       <use x="63.623047" xlink:href="#DejaVuSans-48"/>
       <use x="127.246094" xlink:href="#DejaVuSans-48"/>
       <use x="190.869141" xlink:href="#DejaVuSans-48"/>
      </g>
     </g>
    </g>
    <g id="xtick_4">
     <g id="line2d_4">
      <g>
       <use style="stroke:#000000;stroke-width:0.8;" x="263.616928" xlink:href="#m6505e0adc2" y="210.24"/>
      </g>
     </g>
     <g id="text_4">
      <!-- 3000 -->
      <defs>
       <path d="M 40.578125 39.3125 
Q 47.65625 37.796875 51.625 33 
Q 55.609375 28.21875 55.609375 21.1875 
Q 55.609375 10.40625 48.1875 4.484375 
Q 40.765625 -1.421875 27.09375 -1.421875 
Q 22.515625 -1.421875 17.65625 -0.515625 
Q 12.796875 0.390625 7.625 2.203125 
L 7.625 11.71875 
Q 11.71875 9.328125 16.59375 8.109375 
Q 21.484375 6.890625 26.8125 6.890625 
Q 36.078125 6.890625 40.9375 10.546875 
Q 45.796875 14.203125 45.796875 21.1875 
Q 45.796875 27.640625 41.28125 31.265625 
Q 36.765625 34.90625 28.71875 34.90625 
L 20.21875 34.90625 
L 20.21875 43.015625 
L 29.109375 43.015625 
Q 36.375 43.015625 40.234375 45.921875 
Q 44.09375 48.828125 44.09375 54.296875 
Q 44.09375 59.90625 40.109375 62.90625 
Q 36.140625 65.921875 28.71875 65.921875 
Q 24.65625 65.921875 20.015625 65.03125 
Q 15.375 64.15625 9.8125 62.3125 
L 9.8125 71.09375 
Q 15.4375 72.65625 20.34375 73.4375 
Q 25.25 74.21875 29.59375 74.21875 
Q 40.828125 74.21875 47.359375 69.109375 
Q 53.90625 64.015625 53.90625 55.328125 
Q 53.90625 49.265625 50.4375 45.09375 
Q 46.96875 40.921875 40.578125 39.3125 
z
" id="DejaVuSans-51"/>
      </defs>
      <g transform="translate(250.891928 224.838437)scale(0.1 -0.1)">
       <use xlink:href="#DejaVuSans-51"/>
       <use x="63.623047" xlink:href="#DejaVuSans-48"/>
       <use x="127.246094" xlink:href="#DejaVuSans-48"/>
       <use x="190.869141" xlink:href="#DejaVuSans-48"/>
      </g>
     </g>
    </g>
    <g id="xtick_5">
     <g id="line2d_5">
      <g>
       <use style="stroke:#000000;stroke-width:0.8;" x="328.41651" xlink:href="#m6505e0adc2" y="210.24"/>
      </g>
     </g>
     <g id="text_5">
      <!-- 4000 -->
      <defs>
       <path d="M 37.796875 64.3125 
L 12.890625 25.390625 
L 37.796875 25.390625 
z
M 35.203125 72.90625 
L 47.609375 72.90625 
L 47.609375 25.390625 
L 58.015625 25.390625 
L 58.015625 17.1875 
L 47.609375 17.1875 
L 47.609375 0 
L 37.796875 0 
L 37.796875 17.1875 
L 4.890625 17.1875 
L 4.890625 26.703125 
z
" id="DejaVuSans-52"/>
      </defs>
      <g transform="translate(315.69151 224.838437)scale(0.1 -0.1)">
       <use xlink:href="#DejaVuSans-52"/>
       <use x="63.623047" xlink:href="#DejaVuSans-48"/>
       <use x="127.246094" xlink:href="#DejaVuSans-48"/>
       <use x="190.869141" xlink:href="#DejaVuSans-48"/>
      </g>
     </g>
    </g>
   </g>
   <g id="matplotlib.axis_2">
    <g id="ytick_1">
     <g id="line2d_6">
      <defs>
       <path d="M 0 0 
L -3.5 0 
" id="m6952b1e68b" style="stroke:#000000;stroke-width:0.8;"/>
      </defs>
      <g>
       <use style="stroke:#000000;stroke-width:0.8;" x="54" xlink:href="#m6952b1e68b" y="181.115057"/>
      </g>
     </g>
     <g id="text_6">
      <!-- −1 -->
      <defs>
       <path d="M 10.59375 35.5 
L 73.1875 35.5 
L 73.1875 27.203125 
L 10.59375 27.203125 
z
" id="DejaVuSans-8722"/>
      </defs>
      <g transform="translate(32.257812 184.914276)scale(0.1 -0.1)">
       <use xlink:href="#DejaVuSans-8722"/>
       <use x="83.789062" xlink:href="#DejaVuSans-49"/>
      </g>
     </g>
    </g>
    <g id="ytick_2">
     <g id="line2d_7">
      <g>
       <use style="stroke:#000000;stroke-width:0.8;" x="54" xlink:href="#m6952b1e68b" y="140.502027"/>
      </g>
     </g>
     <g id="text_7">
      <!-- 0 -->
      <g transform="translate(40.6375 144.301246)scale(0.1 -0.1)">
       <use xlink:href="#DejaVuSans-48"/>
      </g>
     </g>
    </g>
    <g id="ytick_3">
     <g id="line2d_8">
      <g>
       <use style="stroke:#000000;stroke-width:0.8;" x="54" xlink:href="#m6952b1e68b" y="99.888997"/>
      </g>
     </g>
     <g id="text_8">
      <!-- 1 -->
      <g transform="translate(40.6375 103.688216)scale(0.1 -0.1)">
       <use xlink:href="#DejaVuSans-49"/>
      </g>
     </g>
    </g>
   </g>
   <g id="line2d_9">
    <path clip-path="url(#p1ab3099349)" d="M 69.218182 140.95545 
L 69.606979 140.962223 
L 69.736578 140.666625 
L 69.866178 140.94998 
L 69.930977 140.940671 
L 70.060576 140.680247 
L 70.190176 140.679154 
L 70.254975 140.956979 
L 70.384574 140.662624 
L 70.514173 140.958082 
L 70.708572 140.941197 
L 70.773372 140.646843 
L 70.838171 140.935368 
L 71.03257 140.652511 
L 71.162169 140.94317 
L 71.291768 140.665053 
L 71.421368 140.951105 
L 71.615766 140.9345 
L 71.745366 140.701644 
L 72.004564 140.670362 
L 72.134163 140.667114 
L 72.263762 140.95123 
L 72.393361 140.656878 
L 72.52296 140.946517 
L 72.846958 140.945557 
L 72.911758 140.673207 
L 73.041357 140.959456 
L 73.106157 140.650517 
L 73.170956 140.720167 
L 73.300555 140.949556 
L 73.430155 140.944584 
L 73.559754 140.664379 
L 73.624553 140.953758 
L 73.754153 140.658162 
L 73.883752 140.949833 
L 74.20775 140.946999 
L 74.337349 140.687115 
L 74.531748 140.649912 
L 74.726146 140.66628 
L 74.790946 140.661027 
L 74.920545 140.95137 
L 75.050144 140.667966 
L 75.179743 140.674639 
L 75.503741 140.69835 
L 75.63334 140.95047 
L 75.76294 140.945166 
L 75.892539 140.675158 
L 76.022138 140.709724 
L 76.151737 140.945482 
L 76.346136 140.94583 
L 76.475735 140.639253 
L 76.605334 140.948318 
L 76.670134 140.957104 
L 76.799733 140.672118 
L 76.864532 140.723989 
L 76.929332 140.958074 
L 77.058931 140.678714 
L 77.25333 140.72018 
L 77.382929 140.947566 
L 78.030925 140.932733 
L 78.160524 140.626918 
L 78.354923 140.686566 
L 78.549322 140.679359 
L 78.678921 140.957136 
L 78.74372 140.956858 
L 78.87332 140.681852 
L 79.067718 140.709037 
L 79.197317 140.667848 
L 79.326917 140.930138 
L 79.391716 140.93094 
L 79.586115 140.638942 
L 79.650915 140.678458 
L 79.780514 140.953555 
L 79.845313 140.947136 
L 79.910113 140.644868 
L 79.974912 140.694325 
L 80.104512 140.950376 
L 80.36371 140.945743 
L 80.493309 140.660967 
L 80.622908 140.669543 
L 80.687708 140.933231 
L 80.752507 140.694087 
L 80.882107 140.935225 
L 80.946906 140.658757 
L 81.011706 140.674056 
L 81.076505 140.930258 
L 81.141305 140.663617 
L 81.206104 140.93404 
L 81.270904 140.677954 
L 81.335704 140.72603 
L 81.400503 140.67613 
L 81.465303 140.947101 
L 81.530102 140.641401 
L 81.594902 140.661998 
L 81.9189 140.676072 
L 81.983699 140.944037 
L 82.048499 140.644737 
L 82.113299 140.686492 
L 82.178098 140.950239 
L 82.307697 140.632882 
L 82.372497 140.94028 
L 82.437297 140.685567 
L 82.502096 140.709833 
L 82.566896 140.951607 
L 82.631695 140.628022 
L 82.696495 140.657691 
L 82.761294 140.926869 
L 82.890894 140.666644 
L 83.085292 140.685455 
L 83.150092 140.95028 
L 83.214892 140.640831 
L 83.279691 140.664883 
L 83.40929 140.669073 
L 83.47409 140.951945 
L 83.603689 140.675545 
L 83.733288 140.954708 
L 83.798088 140.944011 
L 83.862887 140.672213 
L 83.927687 140.694947 
L 84.122086 140.670106 
L 84.251685 140.943053 
L 84.575683 140.941244 
L 84.640482 140.616184 
L 84.705282 140.673975 
L 84.834881 140.950612 
L 85.158879 140.960414 
L 85.223679 140.639776 
L 85.288478 140.674563 
L 85.418077 140.953517 
L 85.612476 140.934177 
L 85.742075 140.641205 
L 85.936474 140.668978 
L 86.066073 140.953244 
L 86.130873 140.940721 
L 86.260472 140.659045 
L 86.325271 140.939584 
L 86.390071 140.670075 
L 86.454871 140.701645 
L 86.58447 140.935807 
L 86.649269 140.66256 
L 86.714069 140.686254 
L 86.908468 140.666072 
L 87.167666 140.667593 
L 87.232466 140.942096 
L 87.362065 140.664804 
L 87.621263 140.68157 
L 87.750862 140.945121 
L 88.269259 140.948386 
L 88.334058 140.64987 
L 88.398858 140.677669 
L 88.528457 140.663436 
L 88.658056 140.94863 
L 88.917255 140.95405 
L 88.982054 140.695211 
L 89.046854 140.954736 
L 89.111653 140.64741 
L 89.241253 140.94408 
L 89.370852 140.946999 
L 89.435651 140.658578 
L 89.500451 140.704922 
L 89.63005 140.93451 
L 89.69485 140.934013 
L 89.759649 140.654717 
L 89.824449 140.696939 
L 89.889248 140.949885 
L 90.018848 140.61935 
L 90.083647 140.941988 
L 90.148447 140.92221 
L 90.278046 140.638289 
L 90.342846 140.9473 
L 90.472445 140.69026 
L 90.602044 140.951014 
L 90.731643 140.680705 
L 90.796443 140.697075 
L 90.861242 140.927855 
L 90.990841 140.692267 
L 91.18524 140.693495 
L 91.379639 140.642186 
L 91.444438 140.937599 
L 91.638837 140.625485 
L 91.703637 140.643093 
L 91.768436 140.941202 
L 91.962835 140.626766 
L 92.092434 140.953075 
L 92.351633 140.938465 
L 92.481232 140.678503 
L 92.610831 140.669112 
L 92.67563 140.943829 
L 92.80523 140.631383 
L 92.934829 140.944904 
L 93.064428 140.939714 
L 93.129228 140.646346 
L 93.194027 140.701725 
L 93.388426 140.635741 
L 93.518025 140.93627 
L 93.647624 140.948076 
L 93.712424 140.647011 
L 93.777223 140.936047 
L 93.906823 140.68576 
L 94.036422 140.939548 
L 94.166021 140.946112 
L 94.29562 140.665522 
L 94.425219 140.951511 
L 94.684418 140.95287 
L 94.814017 140.634137 
L 94.943616 140.686006 
L 95.008415 140.954197 
L 95.073215 140.936736 
L 95.138015 140.942607 
L 95.267614 140.707304 
L 95.397213 140.637238 
L 95.526812 140.94911 
L 95.591612 140.956773 
L 95.721211 140.663336 
L 95.91561 140.682981 
L 96.045209 140.938482 
L 96.110008 140.942307 
L 96.174808 140.672676 
L 96.239607 140.935928 
L 96.304407 140.663605 
L 96.369207 140.697351 
L 96.498806 140.950769 
L 96.628405 140.94554 
L 96.758004 140.640398 
L 96.887603 140.941246 
L 97.017202 140.945242 
L 97.082002 140.641806 
L 97.146802 140.6643 
L 97.276401 140.931296 
L 97.3412 140.662509 
L 97.4708 140.942057 
L 97.600399 140.96163 
L 97.729998 140.675042 
L 97.859597 140.663149 
L 97.924397 140.953705 
L 97.989196 140.938206 
L 98.118795 140.654009 
L 98.377994 140.67788 
L 98.572392 140.692054 
L 98.766791 140.673749 
L 98.89639 140.940499 
L 99.02599 140.650071 
L 99.090789 140.950304 
L 99.155589 140.934143 
L 99.803584 140.945634 
L 101.358774 140.955936 
L 101.553173 140.612387 
L 101.617973 140.674139 
L 101.747572 140.942434 
L 101.877171 140.655 
L 102.00677 140.954484 
L 102.07157 140.951314 
L 102.201169 140.648907 
L 102.330768 140.951553 
L 102.460367 140.939575 
L 102.525167 140.660929 
L 102.589967 140.676962 
L 102.719566 140.962086 
L 102.849165 140.674597 
L 102.978764 140.933001 
L 103.108363 140.687217 
L 103.173163 141.024025 
L 103.237962 140.59935 
L 103.367561 140.935403 
L 103.950758 140.916393 
L 104.145156 140.967308 
L 104.598754 140.954323 
L 104.663553 140.647168 
L 104.728353 140.9241 
L 104.857952 140.659548 
L 104.987551 140.953802 
L 105.11715 140.925474 
L 105.246749 140.620005 
L 105.311549 140.663585 
L 105.441148 140.968734 
L 108.29233 140.970449 
L 108.421929 140.671584 
L 108.616328 140.632544 
L 108.681127 140.961137 
L 108.745927 140.932449 
L 108.875526 140.645923 
L 108.940326 140.648661 
L 109.069925 140.93426 
L 109.199524 140.648833 
L 109.264323 140.683589 
L 109.458722 140.954697 
L 109.78272 140.903509 
L 110.236317 140.863239 
L 110.365916 140.916194 
L 110.560315 140.8382 
L 111.27311 140.790242 
L 111.33791 140.715842 
L 111.40271 140.793627 
L 111.856307 140.775547 
L 112.050705 140.827054 
L 112.569102 140.827407 
L 112.698701 140.951778 
L 113.281898 140.899115 
L 113.476296 141.019058 
L 113.670695 140.963382 
L 114.577889 140.971186 
L 115.225885 140.956818 
L 115.679482 141.089072 
L 115.873881 141.04661 
L 116.392277 141.002552 
L 118.206666 141.265937 
L 118.271465 141.374689 
L 118.530664 140.943438 
L 118.595463 140.957909 
L 118.660263 140.847028 
L 118.789862 140.998896 
L 118.919461 140.86377 
L 119.178659 140.929955 
L 119.437858 141.050197 
L 119.891455 141.382484 
L 120.863449 142.134729 
L 121.252246 142.039833 
L 121.511444 141.914529 
L 121.835442 141.5518 
L 122.289039 141.347706 
L 122.613037 141.544828 
L 123.455432 142.394418 
L 123.77943 142.04839 
L 124.621824 140.687408 
L 124.816223 140.836508 
L 125.33462 142.099518 
L 125.464219 142.496352 
L 125.529019 141.510301 
L 125.593818 141.896871 
L 125.982616 142.818673 
L 126.112215 143.944979 
L 126.177014 143.152231 
L 126.306614 144.138109 
L 127.278607 145.11432 
L 128.185801 146.451084 
L 129.740991 149.160777 
L 130.00019 149.180528 
L 130.129789 149.120472 
L 130.648185 148.241523 
L 131.231382 147.104259 
L 131.42578 147.046224 
L 131.814578 147.346694 
L 132.332975 147.815196 
L 132.527373 147.8705 
L 132.851371 147.277049 
L 133.11057 146.407591 
L 133.564167 144.049212 
L 134.53616 138.297411 
L 134.795359 137.75348 
L 134.989757 137.75718 
L 135.119357 137.904072 
L 136.09135 139.932403 
L 137.128144 139.194012 
L 137.452142 139.320869 
L 137.71134 139.57304 
L 138.294536 140.007505 
L 138.553734 140.051991 
L 139.26653 139.613039 
L 139.655327 139.422229 
L 139.914526 139.548739 
L 140.238524 139.901674 
L 140.627321 140.669722 
L 141.404916 142.456338 
L 141.599315 142.459146 
L 141.728914 142.320215 
L 142.052912 141.681281 
L 143.154505 139.141984 
L 143.608102 139.080185 
L 144.450496 139.374702 
L 145.228091 138.987959 
L 145.746488 139.294555 
L 146.135286 139.665291 
L 146.653682 139.994226 
L 147.236878 140.620277 
L 147.755275 141.468181 
L 148.59767 143.138262 
L 149.828862 147.047159 
L 151.060054 151.658701 
L 152.226446 155.550839 
L 153.522438 161.366382 
L 155.142427 168.358349 
L 155.855223 172.7241 
L 156.892016 177.438474 
L 157.086415 178.009865 
L 158.317607 183.563022 
L 158.836004 185.720705 
L 159.224801 186.581082 
L 159.937597 187.647053 
L 160.261594 188.678222 
L 160.90959 191.363031 
L 161.233588 192.65825 
L 162.46478 197.815602 
L 163.047976 200.227304 
L 163.436774 200.962276 
L 164.279169 202.078362 
L 164.991964 203.825657 
L 165.121563 203.711442 
L 165.963958 202.64451 
L 166.287956 202.560526 
L 166.547154 202.682499 
L 167.000751 203.110667 
L 167.454348 203.406687 
L 167.907945 203.529105 
L 168.426342 203.412306 
L 168.68554 203.114575 
L 168.944738 202.59269 
L 169.398335 201.301221 
L 169.916732 199.185859 
L 170.694327 194.967747 
L 171.018325 193.001947 
L 173.156711 180.217675 
L 173.999106 176.742312 
L 175.619095 171.262399 
L 176.007893 170.111229 
L 176.072692 170.067517 
L 176.46149 168.610307 
L 177.239085 165.638328 
L 178.146279 162.19241 
L 178.535077 161.153912 
L 178.923874 160.3843 
L 180.219866 157.995168 
L 180.738262 156.520205 
L 181.191859 155.369582 
L 181.645456 154.590984 
L 182.358252 153.543095 
L 183.135847 151.854579 
L 184.626237 147.67197 
L 185.663031 145.610922 
L 185.987028 144.56509 
L 186.894223 141.640874 
L 189.032609 136.558177 
L 189.291807 136.605283 
L 189.745404 137.049643 
L 190.587799 137.36707 
L 191.170995 137.149946 
L 191.559793 136.487412 
L 192.531786 133.477402 
L 193.43898 129.328526 
L 194.605373 121.843394 
L 195.318168 119.082901 
L 195.901365 116.661697 
L 196.938158 111.511164 
L 199.854139 100.813913 
L 200.178137 100.330103 
L 201.150131 98.149433 
L 202.316523 94.469591 
L 203.288517 92.77886 
L 203.547715 92.429736 
L 203.806914 91.945304 
L 204.260511 90.837986 
L 204.649308 89.78349 
L 205.102905 88.689955 
L 205.686101 87.794093 
L 205.9453 87.382362 
L 206.269298 86.634558 
L 206.463696 86.138645 
L 207.176492 84.15253 
L 208.083686 82.521415 
L 208.537283 82.407273 
L 209.05568 82.589746 
L 209.833275 82.971391 
L 210.222072 82.74235 
L 210.61087 82.581298 
L 210.934868 82.670081 
L 211.258865 82.948448 
L 211.647663 83.556783 
L 212.10126 84.816523 
L 213.008454 88.44273 
L 213.462051 90.286478 
L 214.434045 94.299525 
L 215.859636 100.656607 
L 216.118834 102.200633 
L 216.313233 103.209077 
L 218.127621 115.126938 
L 219.488412 124.774691 
L 220.654805 129.870467 
L 221.497199 134.028673 
L 223.052389 140.894067 
L 223.894784 143.534204 
L 224.218782 143.797913 
L 224.54278 143.856455 
L 225.125976 143.913103 
L 226.09797 144.464704 
L 226.486767 144.395554 
L 227.393961 144.211326 
L 228.041957 144.822975 
L 228.819552 145.373 
L 229.07875 145.240738 
L 229.337949 144.804019 
L 230.180343 142.692012 
L 230.569141 142.344191 
L 230.893139 142.540588 
L 231.152337 142.957021 
L 231.476335 143.457193 
L 231.800333 143.679577 
L 232.31873 143.970552 
L 233.031525 144.591165 
L 234.262717 145.746861 
L 235.36431 145.986768 
L 236.530702 145.887282 
L 236.789901 145.935558 
L 237.113899 146.06959 
L 238.150692 146.857524 
L 238.539489 146.800764 
L 238.928287 146.508767 
L 239.252285 146.051021 
L 239.381884 145.974118 
L 239.770681 145.573897 
L 241.390671 145.889448 
L 241.844268 145.808039 
L 242.233066 145.743077 
L 242.881061 145.70656 
L 243.269859 145.59263 
L 243.917855 145.537506 
L 244.760249 145.472327 
L 245.667443 145.570837 
L 246.315439 145.56041 
L 246.963435 145.630347 
L 247.157834 145.720139 
L 247.481832 145.774688 
L 247.546631 145.851411 
L 247.611431 145.780545 
L 248.389026 145.95811 
L 249.555418 145.816508 
L 249.944216 145.758411 
L 250.268214 145.873362 
L 250.397813 145.837658 
L 253.443393 146.446361 
L 254.220988 146.335275 
L 254.415387 146.232638 
L 254.609786 146.176488 
L 254.804184 146.173293 
L 254.998583 146.217931 
L 255.905777 146.255835 
L 256.294575 145.987045 
L 257.331368 144.463682 
L 259.275356 142.267028 
L 259.599354 141.959891 
L 260.636147 141.052603 
L 261.348942 141.035908 
L 261.802539 141.379573 
L 262.191337 141.696495 
L 262.904132 141.967018 
L 264.329723 141.391629 
L 264.84812 140.5708 
L 265.301717 139.989433 
L 265.496116 140.032849 
L 265.820113 140.566343 
L 266.727308 142.399513 
L 266.921706 142.395433 
L 267.8937 141.614726 
L 268.347297 141.666273 
L 268.736095 141.731508 
L 269.189692 141.984238 
L 269.772888 142.004588 
L 270.161685 141.830454 
L 270.615282 141.51436 
L 270.93928 141.283077 
L 271.263278 141.199523 
L 271.652076 141.272403 
L 272.300072 141.559072 
L 272.883268 141.913507 
L 273.596063 141.738976 
L 274.697656 140.80353 
L 274.892055 140.894306 
L 275.410452 140.973225 
L 275.66965 141.076481 
L 277.095241 141.050677 
L 277.16004 140.973791 
L 277.354439 141.094638 
L 277.548838 141.097662 
L 279.233627 141.877228 
L 279.298426 141.855819 
L 279.492825 141.950193 
L 280.011222 141.797803 
L 280.205621 141.792083 
L 281.112815 141.583577 
L 281.501612 141.603802 
L 281.696011 141.675329 
L 282.020009 141.759705 
L 282.279207 141.884058 
L 282.797604 141.991195 
L 282.927203 141.987114 
L 283.316001 142.018544 
L 283.575199 141.892618 
L 283.769598 141.891987 
L 284.093596 141.816389 
L 284.611992 141.828927 
L 285.00079 141.908028 
L 285.454387 141.964907 
L 285.907984 141.988284 
L 286.231982 141.92653 
L 287.139176 142.043174 
L 287.592773 142.184215 
L 287.722372 142.203106 
L 288.11117 142.173983 
L 288.240769 142.148761 
L 288.823965 142.03604 
L 289.018364 142.008889 
L 289.60156 141.828886 
L 290.573554 141.808278 
L 290.767952 141.768806 
L 291.934345 141.840062 
L 292.77674 141.972345 
L 292.906339 141.924973 
L 293.165537 142.012722 
L 294.20233 142.212379 
L 294.331929 142.201516 
L 294.461529 153.410073 
L 295.109524 153.457019 
L 295.368723 153.443086 
L 296.988712 153.84491 
L 297.183111 153.997733 
L 297.247911 153.956584 
L 297.31271 144.384617 
L 297.37751 144.513586 
L 297.507109 144.6546 
L 297.636708 154.120117 
L 297.831107 154.126677 
L 297.895906 145.078562 
L 297.960706 145.107292 
L 298.349504 145.321055 
L 299.127099 145.425025 
L 299.710295 145.993227 
L 300.48789 147.060469 
L 300.747088 147.109745 
L 300.876687 147.057606 
L 301.200685 146.692847 
L 301.589483 146.004525 
L 301.719082 145.875762 
L 302.107879 145.586501 
L 302.367078 145.622677 
L 302.885474 145.949446 
L 303.339071 146.022587 
L 304.440664 144.723358 
L 304.699863 144.805814 
L 305.15346 145.316029 
L 305.477458 145.804594 
L 305.801455 145.954976 
L 305.995854 145.843418 
L 306.125453 145.824409 
L 306.64385 145.26276 
L 307.032648 145.12154 
L 307.291846 145.294244 
L 307.486245 145.562186 
L 307.745443 146.11331 
L 308.717437 147.65044 
L 309.106234 147.584494 
L 309.365432 147.115389 
L 309.81903 146.213526 
L 310.207827 145.769229 
L 310.402226 145.7251 
L 310.531825 145.783135 
L 311.179821 147.062132 
L 311.568618 148.330127 
L 311.957416 149.148617 
L 312.087015 149.147096 
L 312.281414 149.207029 
L 312.605412 148.832223 
L 313.123808 147.353382 
L 314.031002 144.410104 
L 314.808597 142.428115 
L 315.326994 139.716537 
L 315.780591 137.392904 
L 315.91019 137.268238 
L 316.104589 137.969794 
L 316.752585 142.122 
L 316.882184 142.026495 
L 317.141382 140.489933 
L 317.594979 138.064286 
L 317.724579 138.355398 
L 318.048576 140.160812 
L 318.307775 141.171774 
L 318.437374 141.168627 
L 318.761372 139.770241 
L 319.02057 138.982367 
L 319.08537 138.981979 
L 319.214969 139.319352 
L 319.538967 141.397165 
L 319.862965 143.401682 
L 319.992564 143.51739 
L 320.122163 143.283892 
L 320.446161 141.492615 
L 320.899758 139.238594 
L 321.094157 139.085146 
L 321.806952 140.129928 
L 322.260549 139.587667 
L 322.519748 139.598262 
L 322.778946 139.855904 
L 323.102944 140.185702 
L 323.232543 140.249396 
L 323.362142 140.264368 
L 323.68614 140.076683 
L 323.815739 139.99042 
L 324.074938 139.767186 
L 324.787733 139.515672 
L 325.435729 137.9253 
L 325.759727 137.053382 
L 325.824526 137.027554 
L 326.018925 137.40969 
L 326.083725 137.290295 
L 326.342923 137.648737 
L 326.537322 137.773813 
L 327.250117 136.811734 
L 327.444516 137.120754 
L 328.157311 137.872577 
L 328.28691 137.759621 
L 328.41651 137.525368 
L 328.546109 137.518202 
L 328.805307 137.049903 
L 328.870107 137.228352 
L 328.934906 137.155869 
L 328.999706 137.124167 
L 329.064505 136.948707 
L 329.129305 137.241519 
L 329.194105 137.227067 
L 329.258904 137.136544 
L 329.323704 137.206999 
L 329.777301 137.992021 
L 329.9717 137.995991 
L 330.166098 137.80694 
L 330.295697 137.997627 
L 330.360497 137.919199 
L 331.332491 139.35068 
L 331.39729 139.320241 
L 331.591689 139.574563 
L 331.656489 139.528258 
L 331.915687 140.076648 
L 332.110086 140.330351 
L 332.304484 140.083778 
L 333.01728 140.647981 
L 333.082079 140.541878 
L 333.276478 140.696283 
L 333.406077 140.66615 
L 333.665276 140.836158 
L 333.794875 140.656153 
L 333.924474 140.647695 
L 334.118873 140.571002 
L 335.220466 140.65817 
L 335.350065 140.767661 
L 335.479664 140.661323 
L 336.06286 140.749282 
L 337.034854 140.772791 
L 337.812449 140.757114 
L 337.942048 140.783602 
L 338.071647 140.888032 
L 338.201246 140.728392 
L 338.395645 140.786193 
L 340.598831 140.871954 
L 340.72843 140.814315 
L 340.987628 140.880416 
L 341.376426 140.852764 
L 351.096363 140.857276 
L 351.161163 140.75832 
L 351.225962 140.848466 
L 352.003557 140.883444 
L 352.133157 140.866335 
L 353.040351 140.855856 
L 353.429148 140.880461 
L 353.947545 140.817767 
L 354.141944 140.860688 
L 356.150731 140.85423 
L 357.511522 140.872178 
L 357.83552 140.85553 
L 360.362703 140.856805 
L 360.557102 140.858141 
L 361.853094 140.863669 
L 364.704275 140.863105 
L 365.417071 140.856284 
L 367.296259 140.859097 
L 367.296259 140.859097 
" style="fill:none;stroke:#1f77b4;stroke-linecap:square;stroke-width:1.5;"/>
   </g>
   <g id="line2d_10">
    <path clip-path="url(#p1ab3099349)" d="M 69.218182 140.502027 
L 74.661347 140.612791 
L 77.901326 140.698205 
L 79.586115 140.712021 
L 81.9189 140.715967 
L 83.603689 140.733867 
L 86.195672 140.748782 
L 87.621263 140.772189 
L 91.25004 140.813407 
L 92.934829 140.813857 
L 95.721211 140.830301 
L 97.082002 140.846149 
L 99.479587 140.839591 
L 100.192382 140.81775 
L 103.302762 140.817749 
L 104.469154 140.835562 
L 105.246749 140.843587 
L 107.773933 140.839574 
L 109.653121 140.817637 
L 112.698701 140.820207 
L 114.772288 140.786544 
L 115.549883 140.784866 
L 117.364271 140.784209 
L 119.956254 140.798439 
L 121.511444 140.804904 
L 122.353839 140.909516 
L 123.325833 141.707182 
L 123.77943 142.226469 
L 124.103428 142.211354 
L 124.686624 141.960222 
L 127.343407 139.76344 
L 128.121002 139.412898 
L 128.639398 139.201948 
L 129.028196 139.101079 
L 130.518586 138.942428 
L 130.842584 138.92327 
L 131.684979 139.216909 
L 132.592173 139.523633 
L 134.60096 140.141913 
L 134.924958 140.730573 
L 135.443355 141.591206 
L 135.702553 141.685626 
L 135.896952 141.492527 
L 136.285749 140.454558 
L 136.609747 138.916817 
L 137.840939 132.8706 
L 137.970538 132.829994 
L 138.164937 133.04137 
L 138.424135 133.714209 
L 139.007332 135.680446 
L 139.26653 135.935196 
L 139.590528 135.887004 
L 140.044125 135.721517 
L 140.368123 135.911263 
L 140.692121 136.30067 
L 141.340117 137.145743 
L 141.923313 137.433297 
L 142.31211 137.35671 
L 142.830507 137.230466 
L 143.154505 137.535169 
L 143.543302 138.174288 
L 143.8673 139.033721 
L 144.515296 140.729548 
L 144.774494 140.893478 
L 144.968893 140.728553 
L 145.228091 140.249608 
L 146.200085 137.900445 
L 146.524083 137.723036 
L 146.848081 137.804965 
L 147.625676 138.26664 
L 148.144073 138.123373 
L 148.403271 138.075704 
L 148.727269 138.283113 
L 149.569663 139.104509 
L 150.282459 139.825572 
L 151.189653 141.467834 
L 151.902448 143.169561 
L 152.550444 145.204472 
L 153.19844 147.860014 
L 154.040835 151.310295 
L 155.272027 155.502333 
L 156.697617 162.241823 
L 157.604812 165.733005 
L 158.317607 169.650795 
L 159.872797 178.424228 
L 161.103989 183.635488 
L 161.881584 187.473775 
L 162.270381 188.582289 
L 162.788778 189.258159 
L 163.177576 190.064802 
L 163.501574 191.204808 
L 165.445561 199.289758 
L 166.158356 202.624708 
L 166.547154 203.469115 
L 167.000751 203.877764 
L 167.389548 204.106135 
L 167.713546 203.278511 
L 168.361542 201.375215 
L 168.815139 200.55255 
L 169.333536 200.212775 
L 169.592734 200.282994 
L 169.981532 200.698676 
L 172.119918 203.873611 
L 172.249517 204.016481 
L 172.443916 203.540083 
L 173.027112 201.085908 
L 174.063905 195.180965 
L 176.850287 178.648135 
L 177.627882 175.652985 
L 180.738262 164.356546 
L 181.515857 161.600453 
L 182.034254 160.442931 
L 183.265446 158.277765 
L 184.561438 154.814116 
L 186.181427 151.902401 
L 188.060615 146.827543 
L 188.643811 145.653194 
L 189.097408 144.196522 
L 190.263801 140.405431 
L 191.689392 136.63808 
L 192.01339 135.920729 
L 192.272588 135.779329 
L 192.531786 135.942357 
L 193.114982 136.452312 
L 193.762978 136.640292 
L 194.216575 136.568961 
L 194.475774 136.279154 
L 194.799772 135.532425 
L 195.577367 132.986478 
L 196.160563 130.751563 
L 196.678959 127.667891 
L 197.521354 121.793391 
L 198.234149 118.579914 
L 198.946945 115.814554 
L 200.502135 108.60001 
L 201.27973 105.874992 
L 202.705321 99.998469 
L 203.353316 98.600546 
L 204.519709 95.977018 
L 205.556502 92.838796 
L 206.074899 91.873475 
L 207.176492 90.211069 
L 208.602083 87.142497 
L 209.314878 86.02884 
L 210.934868 82.759538 
L 211.323665 82.577555 
L 211.842062 82.645038 
L 213.267652 82.883733 
L 213.915648 82.732281 
L 214.304446 82.916717 
L 214.628444 83.301288 
L 214.952442 83.926189 
L 215.341239 85.162482 
L 215.989235 87.847716 
L 219.099615 101.87608 
L 221.302801 116.822146 
L 222.209995 124.033116 
L 223.052389 128.403978 
L 224.348381 134.186982 
L 225.968371 141.750291 
L 226.940364 145.108976 
L 227.264362 145.47916 
L 227.58836 145.568212 
L 228.560354 145.628542 
L 229.20835 145.927206 
L 229.661947 145.756867 
L 230.309943 145.429187 
L 230.63394 145.561778 
L 231.022738 145.906498 
L 231.670734 146.415316 
L 231.929932 146.51169 
L 232.18913 146.353363 
L 232.577928 145.547238 
L 233.549922 143.181097 
L 233.80912 143.103113 
L 234.003519 143.246594 
L 234.910713 144.452735 
L 235.753107 144.929775 
L 236.206704 145.388252 
L 237.243498 146.507812 
L 238.345091 146.843943 
L 239.187485 146.882474 
L 239.770681 146.819476 
L 240.353878 147.105993 
L 241.196272 147.75867 
L 241.58507 147.774198 
L 241.909068 147.569882 
L 243.010661 146.659621 
L 243.334658 146.670797 
L 244.177053 146.938337 
L 244.760249 146.87203 
L 248.129828 146.224256 
L 249.749817 146.302158 
L 251.758604 146.577002 
L 253.313794 146.431601 
L 254.998583 146.667169 
L 256.488974 146.934846 
L 258.497761 146.702672 
L 259.016157 146.686249 
L 259.340155 146.465352 
L 259.793752 145.838427 
L 261.413742 143.475772 
L 262.774533 142.106924 
L 263.746527 141.281239 
L 264.200124 141.158513 
L 264.524122 141.251594 
L 265.820113 142.082005 
L 266.40331 141.985262 
L 267.504903 141.331711 
L 268.023299 140.336325 
L 268.347297 139.877018 
L 268.541696 139.841808 
L 268.736095 140.030632 
L 268.995293 140.586909 
L 269.643289 142.181163 
L 269.902487 142.381116 
L 270.096886 142.291726 
L 271.06888 141.535406 
L 271.652076 141.613974 
L 272.818468 142.104763 
L 273.272065 141.938788 
L 274.373658 141.236815 
L 275.021654 141.444246 
L 275.475251 141.788239 
L 275.928848 142.03607 
L 276.382445 142.014974 
L 276.771243 141.864006 
L 277.937635 140.999331 
L 278.71523 141.175836 
L 279.104028 141.281718 
L 279.557625 141.343616 
L 280.464819 141.210646 
L 280.983216 141.406637 
L 282.408806 142.064926 
L 284.676792 141.853969 
L 286.037583 142.227441 
L 286.685579 142.170216 
L 287.722372 142.112763 
L 289.277562 142.16833 
L 289.795959 142.164833 
L 290.379155 142.326231 
L 291.027151 142.396326 
L 291.675147 142.361041 
L 293.230337 142.110349 
L 294.20233 142.102031 
L 294.785527 142.201686 
L 296.016719 142.365602 
L 296.729514 142.465614 
L 297.31271 142.576515 
L 298.219904 142.726197 
L 298.997499 143.152762 
L 299.580696 143.617882 
L 300.682289 144.870453 
L 301.135886 145.265008 
L 301.913481 145.35085 
L 302.367078 145.500381 
L 302.950274 146.123149 
L 303.53347 146.902722 
L 303.792668 147.000565 
L 304.051867 146.796138 
L 304.635063 145.837244 
L 305.02386 145.357746 
L 305.283059 145.299752 
L 305.671856 145.523355 
L 306.255053 145.912647 
L 306.514251 145.809337 
L 306.903048 145.295363 
L 307.421445 144.617777 
L 307.680643 144.581518 
L 308.004641 144.879267 
L 308.847036 145.926993 
L 309.106234 145.890765 
L 309.624631 145.456299 
L 310.013428 145.26593 
L 310.272627 145.381325 
L 310.596625 145.907667 
L 311.892616 148.213608 
L 312.151815 148.151344 
L 312.411013 147.779006 
L 313.123808 146.452017 
L 313.383007 146.356713 
L 313.642205 146.493655 
L 313.966203 147.039064 
L 314.678998 149.077144 
L 315.002996 149.776991 
L 315.456593 149.770329 
L 315.650992 149.511571 
L 316.039789 148.350074 
L 316.687785 146.144185 
L 317.270981 144.173393 
L 317.789378 142.794444 
L 318.242975 140.439967 
L 318.890971 136.901521 
L 319.02057 136.889374 
L 319.214969 137.718246 
L 319.862965 141.872743 
L 319.927764 141.787622 
L 320.122163 140.813786 
L 320.64056 137.539776 
L 320.705359 137.540059 
L 320.899758 138.290343 
L 321.418155 140.948258 
L 321.547754 140.836707 
L 321.742153 140.036066 
L 322.066151 138.737699 
L 322.19575 138.806961 
L 322.390148 139.603717 
L 323.038144 143.650421 
L 323.167743 143.526816 
L 323.362142 142.646506 
L 323.945338 139.403025 
L 324.139737 139.154992 
L 324.269336 139.302834 
L 324.787733 140.150609 
L 324.982132 139.998213 
L 325.500528 139.301782 
L 325.759727 139.437978 
L 326.342923 140.017455 
L 326.602121 139.901179 
L 327.379716 139.288035 
L 327.768514 139.156818 
L 328.027712 138.781767 
L 328.934906 136.434046 
L 328.999706 136.467434 
L 329.258904 136.91252 
L 329.518102 137.240045 
L 329.712501 137.180478 
L 330.036499 136.684017 
L 330.295697 136.486244 
L 330.490096 136.646614 
L 331.202892 137.578034 
L 331.39729 137.469295 
L 332.045286 136.889446 
L 332.369284 137.007155 
L 332.628482 137.247775 
L 332.822881 137.617572 
L 333.01728 137.588214 
L 333.341278 137.486938 
L 333.470877 137.676982 
L 333.859674 138.382823 
L 334.118873 138.733255 
L 334.50767 139.20467 
L 334.702069 139.41814 
L 335.155666 140.045541 
L 335.350065 139.99865 
L 335.544464 139.89983 
L 335.868461 140.279659 
L 336.06286 140.367929 
L 336.386858 140.504579 
L 336.840455 140.666392 
L 337.294052 140.534577 
L 337.942048 140.580772 
L 338.136447 140.603874 
L 338.719643 140.8022 
L 339.562038 140.77285 
L 340.534031 140.772047 
L 342.802017 140.754334 
L 345.070002 140.728433 
L 347.273188 140.722733 
L 349.152376 140.722535 
L 351.485161 140.717019 
L 353.234749 140.722636 
L 355.632334 140.745311 
L 357.122724 140.764625 
L 359.649908 140.755299 
L 361.399497 140.753882 
L 363.537883 140.737234 
L 365.352271 140.73939 
L 367.944255 140.76738 
L 369.434645 140.782546 
L 372.026628 140.796742 
L 373.32262 140.815809 
L 373.581818 140.826011 
L 373.581818 140.826011 
" style="fill:none;stroke:#ff7f0e;stroke-linecap:square;stroke-width:1.5;"/>
   </g>
   <g id="patch_3">
    <path d="M 54 210.24 
L 54 76.32 
" style="fill:none;stroke:#000000;stroke-linecap:square;stroke-linejoin:miter;stroke-width:0.8;"/>
   </g>
   <g id="patch_4">
    <path d="M 388.8 210.24 
L 388.8 76.32 
" style="fill:none;stroke:#000000;stroke-linecap:square;stroke-linejoin:miter;stroke-width:0.8;"/>
   </g>
   <g id="patch_5">
    <path d="M 54 210.24 
L 388.8 210.24 
" style="fill:none;stroke:#000000;stroke-linecap:square;stroke-linejoin:miter;stroke-width:0.8;"/>
   </g>
   <g id="patch_6">
    <path d="M 54 76.32 
L 388.8 76.32 
" style="fill:none;stroke:#000000;stroke-linecap:square;stroke-linejoin:miter;stroke-width:0.8;"/>
   </g>
   <g id="text_9">
    <!-- Pitch -->
    <defs>
     <path d="M 19.671875 64.796875 
L 19.671875 37.40625 
L 32.078125 37.40625 
Q 38.96875 37.40625 42.71875 40.96875 
Q 46.484375 44.53125 46.484375 51.125 
Q 46.484375 57.671875 42.71875 61.234375 
Q 38.96875 64.796875 32.078125 64.796875 
z
M 9.8125 72.90625 
L 32.078125 72.90625 
Q 44.34375 72.90625 50.609375 67.359375 
Q 56.890625 61.8125 56.890625 51.125 
Q 56.890625 40.328125 50.609375 34.8125 
Q 44.34375 29.296875 32.078125 29.296875 
L 19.671875 29.296875 
L 19.671875 0 
L 9.8125 0 
z
" id="DejaVuSans-80"/>
     <path d="M 9.421875 54.6875 
L 18.40625 54.6875 
L 18.40625 0 
L 9.421875 0 
z
M 9.421875 75.984375 
L 18.40625 75.984375 
L 18.40625 64.59375 
L 9.421875 64.59375 
z
" id="DejaVuSans-105"/>
     <path d="M 18.3125 70.21875 
L 18.3125 54.6875 
L 36.8125 54.6875 
L 36.8125 47.703125 
L 18.3125 47.703125 
L 18.3125 18.015625 
Q 18.3125 11.328125 20.140625 9.421875 
Q 21.96875 7.515625 27.59375 7.515625 
L 36.8125 7.515625 
L 36.8125 0 
L 27.59375 0 
Q 17.1875 0 13.234375 3.875 
Q 9.28125 7.765625 9.28125 18.015625 
L 9.28125 47.703125 
L 2.6875 47.703125 
L 2.6875 54.6875 
L 9.28125 54.6875 
L 9.28125 70.21875 
z
" id="DejaVuSans-116"/>
     <path d="M 48.78125 52.59375 
L 48.78125 44.1875 
Q 44.96875 46.296875 41.140625 47.34375 
Q 37.3125 48.390625 33.40625 48.390625 
Q 24.65625 48.390625 19.8125 42.84375 
Q 14.984375 37.3125 14.984375 27.296875 
Q 14.984375 17.28125 19.8125 11.734375 
Q 24.65625 6.203125 33.40625 6.203125 
Q 37.3125 6.203125 41.140625 7.25 
Q 44.96875 8.296875 48.78125 10.40625 
L 48.78125 2.09375 
Q 45.015625 0.34375 40.984375 -0.53125 
Q 36.96875 -1.421875 32.421875 -1.421875 
Q 20.0625 -1.421875 12.78125 6.34375 
Q 5.515625 14.109375 5.515625 27.296875 
Q 5.515625 40.671875 12.859375 48.328125 
Q 20.21875 56 33.015625 56 
Q 37.15625 56 41.109375 55.140625 
Q 45.0625 54.296875 48.78125 52.59375 
z
" id="DejaVuSans-99"/>
     <path d="M 54.890625 33.015625 
L 54.890625 0 
L 45.90625 0 
L 45.90625 32.71875 
Q 45.90625 40.484375 42.875 44.328125 
Q 39.84375 48.1875 33.796875 48.1875 
Q 26.515625 48.1875 22.3125 43.546875 
Q 18.109375 38.921875 18.109375 30.90625 
L 18.109375 0 
L 9.078125 0 
L 9.078125 75.984375 
L 18.109375 75.984375 
L 18.109375 46.1875 
Q 21.34375 51.125 25.703125 53.5625 
Q 30.078125 56 35.796875 56 
Q 45.21875 56 50.046875 50.171875 
Q 54.890625 44.34375 54.890625 33.015625 
z
" id="DejaVuSans-104"/>
    </defs>
    <g transform="translate(206.663438 70.32)scale(0.12 -0.12)">
     <use xlink:href="#DejaVuSans-80"/>
     <use x="60.271484" xlink:href="#DejaVuSans-105"/>
     <use x="88.054688" xlink:href="#DejaVuSans-116"/>
     <use x="127.263672" xlink:href="#DejaVuSans-99"/>
     <use x="182.244141" xlink:href="#DejaVuSans-104"/>
    </g>
   </g>
   <g id="legend_1">
    <g id="patch_7">
     <path d="M 61 113.67625 
L 143.351562 113.67625 
Q 145.351562 113.67625 145.351562 111.67625 
L 145.351562 83.32 
Q 145.351562 81.32 143.351562 81.32 
L 61 81.32 
Q 59 81.32 59 83.32 
L 59 111.67625 
Q 59 113.67625 61 113.67625 
z
" style="fill:#ffffff;opacity:0.8;stroke:#cccccc;stroke-linejoin:miter;"/>
    </g>
    <g id="line2d_11">
     <path d="M 63 89.418437 
L 83 89.418437 
" style="fill:none;stroke:#1f77b4;stroke-linecap:square;stroke-width:1.5;"/>
    </g>
    <g id="line2d_12"/>
    <g id="text_10">
     <!-- vicon -->
     <defs>
      <path d="M 2.984375 54.6875 
L 12.5 54.6875 
L 29.59375 8.796875 
L 46.6875 54.6875 
L 56.203125 54.6875 
L 35.6875 0 
L 23.484375 0 
z
" id="DejaVuSans-118"/>
      <path d="M 30.609375 48.390625 
Q 23.390625 48.390625 19.1875 42.75 
Q 14.984375 37.109375 14.984375 27.296875 
Q 14.984375 17.484375 19.15625 11.84375 
Q 23.34375 6.203125 30.609375 6.203125 
Q 37.796875 6.203125 41.984375 11.859375 
Q 46.1875 17.53125 46.1875 27.296875 
Q 46.1875 37.015625 41.984375 42.703125 
Q 37.796875 48.390625 30.609375 48.390625 
z
M 30.609375 56 
Q 42.328125 56 49.015625 48.375 
Q 55.71875 40.765625 55.71875 27.296875 
Q 55.71875 13.875 49.015625 6.21875 
Q 42.328125 -1.421875 30.609375 -1.421875 
Q 18.84375 -1.421875 12.171875 6.21875 
Q 5.515625 13.875 5.515625 27.296875 
Q 5.515625 40.765625 12.171875 48.375 
Q 18.84375 56 30.609375 56 
z
" id="DejaVuSans-111"/>
      <path d="M 54.890625 33.015625 
L 54.890625 0 
L 45.90625 0 
L 45.90625 32.71875 
Q 45.90625 40.484375 42.875 44.328125 
Q 39.84375 48.1875 33.796875 48.1875 
Q 26.515625 48.1875 22.3125 43.546875 
Q 18.109375 38.921875 18.109375 30.90625 
L 18.109375 0 
L 9.078125 0 
L 9.078125 54.6875 
L 18.109375 54.6875 
L 18.109375 46.1875 
Q 21.34375 51.125 25.703125 53.5625 
Q 30.078125 56 35.796875 56 
Q 45.21875 56 50.046875 50.171875 
Q 54.890625 44.34375 54.890625 33.015625 
z
" id="DejaVuSans-110"/>
     </defs>
     <g transform="translate(91 92.918437)scale(0.1 -0.1)">
      <use xlink:href="#DejaVuSans-118"/>
      <use x="59.179688" xlink:href="#DejaVuSans-105"/>
      <use x="86.962891" xlink:href="#DejaVuSans-99"/>
      <use x="141.943359" xlink:href="#DejaVuSans-111"/>
      <use x="203.125" xlink:href="#DejaVuSans-110"/>
     </g>
    </g>
    <g id="line2d_13">
     <path d="M 63 104.096562 
L 83 104.096562 
" style="fill:none;stroke:#ff7f0e;stroke-linecap:square;stroke-width:1.5;"/>
    </g>
    <g id="line2d_14"/>
    <g id="text_11">
     <!-- estimated -->
     <defs>
      <path d="M 56.203125 29.59375 
L 56.203125 25.203125 
L 14.890625 25.203125 
Q 15.484375 15.921875 20.484375 11.0625 
Q 25.484375 6.203125 34.421875 6.203125 
Q 39.59375 6.203125 44.453125 7.46875 
Q 49.3125 8.734375 54.109375 11.28125 
L 54.109375 2.78125 
Q 49.265625 0.734375 44.1875 -0.34375 
Q 39.109375 -1.421875 33.890625 -1.421875 
Q 20.796875 -1.421875 13.15625 6.1875 
Q 5.515625 13.8125 5.515625 26.8125 
Q 5.515625 40.234375 12.765625 48.109375 
Q 20.015625 56 32.328125 56 
Q 43.359375 56 49.78125 48.890625 
Q 56.203125 41.796875 56.203125 29.59375 
z
M 47.21875 32.234375 
Q 47.125 39.59375 43.09375 43.984375 
Q 39.0625 48.390625 32.421875 48.390625 
Q 24.90625 48.390625 20.390625 44.140625 
Q 15.875 39.890625 15.1875 32.171875 
z
" id="DejaVuSans-101"/>
      <path d="M 44.28125 53.078125 
L 44.28125 44.578125 
Q 40.484375 46.53125 36.375 47.5 
Q 32.28125 48.484375 27.875 48.484375 
Q 21.1875 48.484375 17.84375 46.4375 
Q 14.5 44.390625 14.5 40.28125 
Q 14.5 37.15625 16.890625 35.375 
Q 19.28125 33.59375 26.515625 31.984375 
L 29.59375 31.296875 
Q 39.15625 29.25 43.1875 25.515625 
Q 47.21875 21.78125 47.21875 15.09375 
Q 47.21875 7.46875 41.1875 3.015625 
Q 35.15625 -1.421875 24.609375 -1.421875 
Q 20.21875 -1.421875 15.453125 -0.5625 
Q 10.6875 0.296875 5.421875 2 
L 5.421875 11.28125 
Q 10.40625 8.6875 15.234375 7.390625 
Q 20.0625 6.109375 24.8125 6.109375 
Q 31.15625 6.109375 34.5625 8.28125 
Q 37.984375 10.453125 37.984375 14.40625 
Q 37.984375 18.0625 35.515625 20.015625 
Q 33.0625 21.96875 24.703125 23.78125 
L 21.578125 24.515625 
Q 13.234375 26.265625 9.515625 29.90625 
Q 5.8125 33.546875 5.8125 39.890625 
Q 5.8125 47.609375 11.28125 51.796875 
Q 16.75 56 26.8125 56 
Q 31.78125 56 36.171875 55.265625 
Q 40.578125 54.546875 44.28125 53.078125 
z
" id="DejaVuSans-115"/>
      <path d="M 52 44.1875 
Q 55.375 50.25 60.0625 53.125 
Q 64.75 56 71.09375 56 
Q 79.640625 56 84.28125 50.015625 
Q 88.921875 44.046875 88.921875 33.015625 
L 88.921875 0 
L 79.890625 0 
L 79.890625 32.71875 
Q 79.890625 40.578125 77.09375 44.375 
Q 74.3125 48.1875 68.609375 48.1875 
Q 61.625 48.1875 57.5625 43.546875 
Q 53.515625 38.921875 53.515625 30.90625 
L 53.515625 0 
L 44.484375 0 
L 44.484375 32.71875 
Q 44.484375 40.625 41.703125 44.40625 
Q 38.921875 48.1875 33.109375 48.1875 
Q 26.21875 48.1875 22.15625 43.53125 
Q 18.109375 38.875 18.109375 30.90625 
L 18.109375 0 
L 9.078125 0 
L 9.078125 54.6875 
L 18.109375 54.6875 
L 18.109375 46.1875 
Q 21.1875 51.21875 25.484375 53.609375 
Q 29.78125 56 35.6875 56 
Q 41.65625 56 45.828125 52.96875 
Q 50 49.953125 52 44.1875 
z
" id="DejaVuSans-109"/>
      <path d="M 34.28125 27.484375 
Q 23.390625 27.484375 19.1875 25 
Q 14.984375 22.515625 14.984375 16.5 
Q 14.984375 11.71875 18.140625 8.90625 
Q 21.296875 6.109375 26.703125 6.109375 
Q 34.1875 6.109375 38.703125 11.40625 
Q 43.21875 16.703125 43.21875 25.484375 
L 43.21875 27.484375 
z
M 52.203125 31.203125 
L 52.203125 0 
L 43.21875 0 
L 43.21875 8.296875 
Q 40.140625 3.328125 35.546875 0.953125 
Q 30.953125 -1.421875 24.3125 -1.421875 
Q 15.921875 -1.421875 10.953125 3.296875 
Q 6 8.015625 6 15.921875 
Q 6 25.140625 12.171875 29.828125 
Q 18.359375 34.515625 30.609375 34.515625 
L 43.21875 34.515625 
L 43.21875 35.40625 
Q 43.21875 41.609375 39.140625 45 
Q 35.0625 48.390625 27.6875 48.390625 
Q 23 48.390625 18.546875 47.265625 
Q 14.109375 46.140625 10.015625 43.890625 
L 10.015625 52.203125 
Q 14.9375 54.109375 19.578125 55.046875 
Q 24.21875 56 28.609375 56 
Q 40.484375 56 46.34375 49.84375 
Q 52.203125 43.703125 52.203125 31.203125 
z
" id="DejaVuSans-97"/>
      <path d="M 45.40625 46.390625 
L 45.40625 75.984375 
L 54.390625 75.984375 
L 54.390625 0 
L 45.40625 0 
L 45.40625 8.203125 
Q 42.578125 3.328125 38.25 0.953125 
Q 33.9375 -1.421875 27.875 -1.421875 
Q 17.96875 -1.421875 11.734375 6.484375 
Q 5.515625 14.40625 5.515625 27.296875 
Q 5.515625 40.1875 11.734375 48.09375 
Q 17.96875 56 27.875 56 
Q 33.9375 56 38.25 53.625 
Q 42.578125 51.265625 45.40625 46.390625 
z
M 14.796875 27.296875 
Q 14.796875 17.390625 18.875 11.75 
Q 22.953125 6.109375 30.078125 6.109375 
Q 37.203125 6.109375 41.296875 11.75 
Q 45.40625 17.390625 45.40625 27.296875 
Q 45.40625 37.203125 41.296875 42.84375 
Q 37.203125 48.484375 30.078125 48.484375 
Q 22.953125 48.484375 18.875 42.84375 
Q 14.796875 37.203125 14.796875 27.296875 
z
" id="DejaVuSans-100"/>
     </defs>
     <g transform="translate(91 107.596562)scale(0.1 -0.1)">
      <use xlink:href="#DejaVuSans-101"/>
      <use x="61.523438" xlink:href="#DejaVuSans-115"/>
      <use x="113.623047" xlink:href="#DejaVuSans-116"/>
      <use x="152.832031" xlink:href="#DejaVuSans-105"/>
      <use x="180.615234" xlink:href="#DejaVuSans-109"/>
      <use x="278.027344" xlink:href="#DejaVuSans-97"/>
      <use x="339.306641" xlink:href="#DejaVuSans-116"/>
      <use x="378.515625" xlink:href="#DejaVuSans-101"/>
      <use x="440.039062" xlink:href="#DejaVuSans-100"/>
     </g>
    </g>
   </g>
  </g>
 </g>
 <defs>
  <clipPath id="p1ab3099349">
   <rect height="133.92" width="334.8" x="54" y="76.32"/>
  </clipPath>
 </defs>
</svg>
